<?xml version="1.0" encoding="UTF-8"?><!DOCTYPE svg PUBLIC "-//W3C//DTD SVG 1.1//EN" "http://www.w3.org/Graphics/SVG/1.1/DTD/svg11.dtd"><svg xmlns="http://www.w3.org/2000/svg" xmlns:xlink="http://www.w3.org/1999/xlink"><symbol id="colorado" viewBox="-0.6 -0.6 126.7 100.7">
<style type="text/css">
	.st0{fill:#CCC6C5;stroke:#FFFFFF;}
</style>
<path class="st0" d="M120,99.6l-16.6-1.4l-29.6-2.3l-36.3-3.6l-0.6-0.3L0,87.2L12,0l45.3,5.7L92.9,9l32.7,2.4l-1.4,21.9L120,99.6z"/>
</symbol><symbol id="massachusetts" viewBox="-0.5 -0.7 59.3 33.7">
<style type="text/css">
	.st0{fill:#99928B;stroke:#FFFFFF;}
</style>
<path class="st0" d="M48.6,28.7l3,2l-4.4,1.5L48.6,28.7z M0.3,12.4l12.3-2.7L31,5.7l1-2.8L37.2,0l1.6,3.8l3.1,0.4l-3.9,3l0,6.4
	l4.7-0.1l5.2,8.2l4.8-0.1l3.5-2.7l2,2.7l-10.6,5.1l-2.6-3.1l-1.7,4.9L40,30.4L37.9,27l-0.2-0.8l-2.7-1l-1.8-4.6l-6.1,1.7l-0.6-0.1
	L0,28.2L0.3,12.4z"/>
</symbol></svg>