<?xml version="1.0" encoding="utf-8"?><!DOCTYPE svg PUBLIC "-//W3C//DTD SVG 1.1//EN" "http://www.w3.org/Graphics/SVG/1.1/DTD/svg11.dtd"><!-- SVG source --><svg xmlns="http://www.w3.org/2000/svg" version="1.1" xmlns:xlink="http://www.w3.org/1999/xlink"><defs><!-- icon Dpc GENERIC --><symbol id="icon-doc-generic" viewBox="0 0 35 36"><path d="M34.2,13.2H31V8.4l0,0V8.3V8.2c0,0,0,0,0-0.1c0,0,0,0,0-0.1l0,0l-0.1-0.1l-7.6-7.6l0,0l-0.1-0.1c0,0,0,0-0.1,0
  c0,0,0,0-0.1,0h-0.1c0,0,0,0-0.1,0h-0.1h-17C5.3,0,5,0.4,5,0.8v12.4H1.8C1.4,13.2,1,13.6,1,14v7.3c0,0.5,0.4,0.8,0.8,0.8H5v13
  C5,35.6,5.3,36,5.7,36h24.6c0.4,0,0.8-0.4,0.8-0.8v-13h3.2c0.5,0,0.8-0.4,0.8-0.8V14C35,13.6,34.6,13.2,34.2,13.2z M23.5,2.6l5,5h-5
  V2.6z M29.5,34.5h-23V22.2h10.4v-6.9h2.2v6.9h10.4V34.5z M29.5,13.2h-23V1.5H22v6.9c0,0.4,0.3,0.8,0.8,0.8h6.8L29.5,13.2L29.5,13.2z
   M14.9,25.2l-1.6,1.5l3.1,3.1l0,0l1.6,1.6l1.6-1.6l3.1-3.1l-1.6-1.5l-2,2v-5h-2.2v5L14.9,25.2z"></path></symbol></defs></svg>
