<?xml version="1.0" encoding="utf-8"?><!DOCTYPE svg PUBLIC "-//W3C//DTD SVG 1.1//EN" "http://www.w3.org/Graphics/SVG/1.1/DTD/svg11.dtd"><!-- SVG source --><svg xmlns="http://www.w3.org/2000/svg" version="1.1" xmlns:xlink="http://www.w3.org/1999/xlink"><defs>
<!-- icon Blog -->
<symbol id="icon-blog" viewBox="0 0 21 20"><path d="M289.47 70.2937C289.47 68.7988 288.24800000000005 67.5875 286.74 67.5875C285.231 67.5875 284.008 68.7988 284.008 70.2937C284.008 71.7887 285.231 73 286.74 73C288.248 73 289.47 71.7887 289.47 70.2937ZM297.315 73C297.262 65.7413 291.334 59.8688 284.008 59.8175V63.8262C289.091 63.8775 293.216 67.9638 293.267 73ZM300.123 73C300.097 64.1713 292.895 57.0488 284.008 57.01V53C295.135 53.0388 304.145 61.9737 304.16999999999996 73Z " fill-opacity="1" transform="matrix(1,0,0,1,-284,-53)"></path></symbol>
<!-- icon Facebook -->
<symbol id="icon-facebook" viewBox="0 0 11 20"><path d="M87.162 56.75H84.73880000000001C83.9625 56.75 83.3816 57.065 83.3816 57.8612V59.25H87.162L86.86080000000001 63H83.3816V73H79.60130000000001V63H77.081V59.25H79.60130000000001V56.8463C79.60130000000001 54.318799999999996 80.94210000000001 53 83.9625 53H87.162Z " fill="#395999" fill-opacity="1" transform="matrix(1,0,0,1,-77,-53)"></path></symbol>
<!-- icon Flickr -->
<symbol id="icon-flickr" viewBox="0 0 20 12"><path d="M1139.17 1103C1137.53 1103 1136.0600000000002 1103.69 1135 1104.81C1133.94 1103.69 1132.47 1103 1130.83 1103C1127.61 1103 1125 1105.69 1125 1109C1125 1112.31 1127.61 1115 1130.83 1115C1132.47 1115 1133.9399999999998 1114.31 1135 1113.19C1136.06 1114.31 1137.53 1115 1139.17 1115C1142.39 1115 1145 1112.31 1145 1109C1145 1105.69 1142.39 1103 1139.17 1103ZM1139.17 1113.29C1136.8700000000001 1113.29 1135 1111.36 1135 1109C1135 1106.64 1136.87 1104.71 1139.17 1104.71C1141.46 1104.71 1143.3300000000002 1106.64 1143.3300000000002 1109C1143.3300000000002 1111.36 1141.4600000000003 1113.29 1139.17 1113.29Z " fill-opacity="1" transform="matrix(1,0,0,1,-1125,-1103)"></path></symbol>
<!-- icon Instagram -->
<symbol id="icon-instagram" viewBox="0 0 21 20"><path d="M346.878 59.6663C345.022 59.6663 343.518 61.158699999999996 343.518 63C343.518 64.8425 345.022 66.3338 346.878 66.3338C348.735 66.3338 350.239 64.8412 350.239 63C350.239 61.1587 348.73499999999996 59.6663 346.878 59.6663ZM350.952 54.86C349.89 54.8125 349.57 54.8025 346.878 54.8025C344.187 54.8025 343.868 54.8125 342.804 54.861200000000004C340.07 54.9838 338.79699999999997 56.27 338.673 58.96C338.625 60.0137 338.613 60.33 338.613 63C338.613 65.67 338.625 65.9863 338.674 67.0425C338.79699999999997 69.72630000000001 340.066 71.0175 342.806 71.1413C343.86699999999996 71.1887 344.18699999999995 71.1987 346.878 71.1987C349.57099999999997 71.1987 349.89 71.1875 350.954 71.14C353.688 71.0175 354.96000000000004 69.7287 355.086 67.0413C355.134 65.9863 355.144 65.67 355.144 63.00000000000001C355.144 60.330000000000005 355.134 60.01370000000001 355.086 58.96000000000001C354.96000000000004 56.27000000000001 353.684 54.98380000000001 350.952 54.86000000000001ZM346.878 68.135C344.02 68.135 341.702 65.8362 341.702 63.00000000000001C341.702 60.16380000000001 344.019 57.86500000000001 346.878 57.86500000000001C349.736 57.86500000000001 352.055 60.16380000000001 352.055 63.00000000000001C352.055 65.8362 349.738 68.135 346.878 68.135ZM352.259 58.8625C351.591 58.8625 351.04900000000004 58.324999999999996 351.04900000000004 57.662499999999994C351.04900000000004 56.99999999999999 351.591 56.46249999999999 352.259 56.46249999999999C352.927 56.46249999999999 353.469 56.99999999999999 353.469 57.662499999999994C353.469 58.324999999999996 352.928 58.8625 352.259 58.8625ZM356.899 67.1225C356.734 70.7587 354.692 72.77380000000001 351.036 72.94C349.959 72.9888 349.617 73 346.878 73C344.14 73 343.799 72.9888 342.723 72.94C339.058 72.7738 337.027 70.755 336.858 67.1225C336.809 66.05630000000001 336.797 65.7162 336.797 63C336.797 60.285 336.809 59.9438 336.858 58.8762C337.027 55.241299999999995 339.061 53.226299999999995 342.723 53.059999999999995C343.79900000000004 53.0113 344.14 52.99999999999999 346.878 52.99999999999999C349.61699999999996 52.99999999999999 349.959 53.01129999999999 351.036 53.061299999999996C354.7 53.2275 356.734 55.24999999999999 356.899 58.8775C356.948 59.943799999999996 356.959 60.285 356.959 63C356.959 65.7162 356.948 66.0563 356.899 67.1225Z " fill-opacity="1" transform="matrix(1,0,0,1,-336,-53)"></path></symbol>
<!-- icon LinkedIn -->
<symbol id="icon-linkedin" viewBox="0 0 20 20"><path d="M182.645 71.75H178.864V58H182.645ZM180.754 56.415C179.53699999999998 56.415 178.54899999999998 55.4275 178.54899999999998 54.21C178.54899999999998 52.9925 179.53699999999998 52.005 180.754 52.005C181.97199999999998 52.005 182.95999999999998 52.9925 182.95999999999998 54.21C182.95999999999998 55.4275 181.97299999999998 56.415 180.754 56.415ZM197.766 63.3012C197.766 56.735 190.706 56.973800000000004 188.945 60.2063V58H185.165V71.75H188.945V64.745C188.945 60.8537 193.986 60.535000000000004 193.986 64.745V71.75H197.766Z " fill="#0078b6" fill-opacity="1" transform="matrix(1,0,0,1,-178,-52)"></path></symbol>
<!-- icon Twitter -->
<symbol id="icon-twitter" viewBox="0 0 21 17"><path d="M143.558 59.5463C143.82 65.3175 139.482 71.7525 131.801 71.7525C129.46499999999997 71.7525 127.29099999999998 71.0737 125.46 69.9088C127.65499999999999 70.165 129.845 69.5612 131.584 68.21C129.774 68.1763 128.246 66.99 127.721 65.36C128.37 65.4825 129.007 65.4463 129.588 65.29C127.59899999999999 64.89380000000001 126.226 63.116200000000006 126.27 61.215C126.827 61.5225 127.466 61.7075 128.143 61.7287C126.302 60.5075 125.78 58.095000000000006 126.863 56.25C128.903 58.7325 131.951 60.3663 135.389 60.5375C134.785 57.9713 136.74800000000002 55.5 139.419 55.5C140.608 55.5 141.68300000000002 55.9975 142.43800000000002 56.7962C143.38000000000002 56.6125 144.26600000000002 56.2712 145.06500000000003 55.8012C144.75700000000003 56.76 144.10000000000002 57.5638 143.247 58.0713C144.084 57.9713 144.881 57.751200000000004 145.622 57.425000000000004C145.068 58.245000000000005 144.366 58.9675 143.55800000000002 59.5463Z " fill="#16a2f3" fill-opacity="1" transform="matrix(1,0,0,1,-125,-55)"></path></symbol>
<!-- icon Youtube -->
<symbol id="icon-youtube" viewBox="0 0 21 16"><path d="M238.795 59.6663L245.515 62.9938L238.795 66.3338ZM251.396 63C251.37099999999998 57.8463 250.98899999999998 55.875 247.713 55.6537C244.685 55.4488 237.942 55.45 234.91899999999998 55.6537C231.64499999999998 55.875 231.259 57.8375 231.23399999999998 63C231.259 68.1538 231.641 70.125 234.91699999999997 70.3462C237.93999999999997 70.55 244.68299999999996 70.5513 247.71099999999998 70.3462C250.98499999999999 70.125 251.37099999999998 68.1625 251.396 63Z " fill="#CC181E" fill-opacity="1" transform="matrix(1,0,0,1,-231,-55)"></path></symbol>
<!-- icon medium -->
<!--
<symbol id="icon-medium" viewBox="0 0 20 20">
    <g i:extraneous="self">
    <g>
      <path fill="#FFFFFF" d="M6.7,11.5c0-2.2,0-4.3,0-6.5c0-0.3-0.1-0.4-0.3-0.6C4.4,3.5,2.5,2.6,0.6,1.6C0.1,1.4,0,1.4,0,2
        c0,4.3,0,8.6,0,12.9c0,0.5,0.2,0.8,0.6,1c1.8,0.9,3.5,1.8,5.3,2.6c0.1,0,0.2,0.1,0.3,0.1c0.3,0.1,0.4,0,0.5-0.3
        c0-0.1,0-0.2,0-0.4C6.7,15.8,6.7,13.6,6.7,11.5z M13.7,14.9c0-0.1,0.1-0.1,0.1-0.1c2-3.3,4-6.6,6.1-9.9c0.2-0.3,0-0.3-0.2-0.4
        c-2-1-3.9-2-5.9-3c-0.3-0.2-0.5-0.1-0.6,0.2c-1.2,2-2.4,3.9-3.6,5.9c-0.1,0.2-0.1,0.3,0,0.5c1.3,2.2,2.7,4.3,4,6.5
        C13.5,14.7,13.6,14.8,13.7,14.9z M20,5.9C20,5.9,20,5.9,20,5.9c-2.1,3.3-4.1,6.5-6.1,9.8c0.1,0.1,0.1,0.1,0.2,0.1
        c1.7,0.9,3.5,1.7,5.2,2.6c0.1,0,0.1,0.1,0.2,0.1c0.3,0.1,0.4,0,0.5-0.3c0-0.1,0-0.2,0-0.3c0-3.9,0-7.8,0-11.7C20,6.1,20,6,20,5.9
        z M7.3,5.7c0,0.1,0,0.1,0,0.2c0,2.1,0,4.2,0,6.4c0,0.2,0.1,0.3,0.2,0.3c1.8,0.9,3.7,1.8,5.5,2.8c0.1,0,0.1,0.1,0.3,0.1
        C11.3,12.1,9.3,8.9,7.3,5.7z"/>
      <path d="M6.7,11.5c0,2.1,0,4.3,0,6.4c0,0.1,0,0.2,0,0.4c-0.1,0.2-0.2,0.4-0.5,0.3c-0.1,0-0.2-0.1-0.3-0.1
        c-1.8-0.9-3.5-1.8-5.3-2.6c-0.4-0.2-0.6-0.5-0.6-1C0,10.5,0,6.2,0,2c0-0.5,0.1-0.6,0.6-0.4c1.9,1,3.8,1.9,5.7,2.9
        C6.6,4.6,6.7,4.7,6.7,5C6.7,7.2,6.7,9.3,6.7,11.5z"/>
      <path d="M13.7,14.9c-0.1-0.1-0.1-0.2-0.2-0.3c-1.3-2.2-2.7-4.3-4-6.5c-0.1-0.2-0.1-0.3,0-0.5c1.2-2,2.4-3.9,3.6-5.9
        c0.2-0.3,0.3-0.3,0.6-0.2c2,1,3.9,2,5.9,3c0.2,0.1,0.4,0.2,0.2,0.4c-2,3.3-4,6.6-6.1,9.9C13.8,14.8,13.7,14.8,13.7,14.9z"/>
      <path d="M20,5.9c0,0.1,0,0.2,0,0.3c0,3.9,0,7.8,0,11.7c0,0.1,0,0.2,0,0.3c-0.1,0.2-0.2,0.4-0.5,0.3c-0.1,0-0.1-0.1-0.2-0.1
        c-1.7-0.9-3.5-1.7-5.2-2.6c-0.1,0-0.1-0.1-0.2-0.1C15.9,12.4,17.9,9.2,20,5.9C20,5.9,20,5.9,20,5.9z"/>
      <path d="M7.3,5.7c2,3.3,4,6.5,6,9.7c-0.1,0-0.2-0.1-0.3-0.1c-1.8-0.9-3.7-1.8-5.5-2.8c-0.1-0.1-0.2-0.1-0.2-0.3
        c0-2.1,0-4.2,0-6.4C7.3,5.8,7.3,5.8,7.3,5.7z"/>
    </g>
    <g>
      <path fill="#FFFFFF" d="M-468.3-124.2c0-32.3-0.1-64.7,0.1-97c0-4.2-1.1-6.5-5.1-8.5c-28.8-14.2-57.5-28.7-86.2-43
        c-7.2-3.6-8.7-2.7-8.7,5.4c0,64.3,0.1,128.6-0.1,193c0,7.1,2.8,11.4,9.1,14.5c26.6,13.1,53,26.4,79.5,39.7
        c1.3,0.7,2.7,1.4,4.1,1.9c3.8,1.4,6.2-0.2,7-3.9c0.4-1.8,0.2-3.6,0.2-5.5C-468.3-59.9-468.3-92.1-468.3-124.2z M-363.2-73.5
        c0.7-0.9,1.1-1.3,1.3-1.7c30.3-49.3,60.6-98.7,91-148c2.6-4.1,0.1-5.1-2.8-6.5c-29.6-14.8-59.2-29.6-88.7-44.6
        c-4.6-2.3-7-1.4-9.6,2.9c-17.9,29.4-35.9,58.8-54.1,88.1c-1.8,2.9-1.9,5,0,8c20.1,32.4,40,64.9,59.9,97.4
        C-365.3-76.6-364.3-75.3-363.2-73.5z M-268.4-208.2c-0.3-0.1-0.6-0.2-0.9-0.3c-30.2,49.1-60.4,98.2-90.7,147.6
        c1.3,0.8,2.2,1.4,3.2,1.9c26.2,13.1,52.4,26.2,78.6,39.3c0.9,0.4,1.8,0.9,2.7,1.2c3.9,1.4,6.1-0.4,6.9-4.1c0.4-1.6,0.2-3.3,0.2-5
        c0-58.7,0-117.3,0-176C-268.4-205-268.4-206.6-268.4-208.2z M-458.8-211.6c-0.3,1.7-0.4,2.2-0.4,2.7c0,31.8,0,63.7-0.1,95.5
        c0,2.9,1.3,4,3.6,5.1c27.5,13.7,55.1,27.6,82.6,41.3c1,0.5,2.2,0.8,4.2,1.5C-399.2-114.5-428.7-162.6-458.8-211.6z"/>
      <path d="M-468.3-124.2c0,32.2,0,64.3,0,96.5c0,1.8,0.2,3.7-0.2,5.5c-0.9,3.7-3.2,5.4-7,3.9c-1.4-0.5-2.7-1.2-4.1-1.9
        c-26.5-13.2-52.9-26.6-79.5-39.7c-6.3-3.1-9.1-7.3-9.1-14.5c0.2-64.3,0.1-128.6,0.1-193c0-8.1,1.5-9,8.7-5.4
        c28.7,14.4,57.4,28.8,86.2,43c3.9,1.9,5.1,4.3,5.1,8.5C-468.4-188.9-468.3-156.6-468.3-124.2z"/>
      <path d="M-363.2-73.5c-1.2-1.8-2.1-3.1-3-4.5c-20-32.5-39.9-65-59.9-97.4c-1.8-3-1.8-5,0-8c18.1-29.3,36.2-58.6,54.1-88.1
        c2.6-4.3,5-5.2,9.6-2.9c29.5,15,59.1,29.8,88.7,44.6c2.9,1.4,5.3,2.4,2.8,6.5c-30.4,49.3-60.7,98.6-91,148
        C-362.1-74.8-362.4-74.4-363.2-73.5z"/>
      <path d="M-268.4-208.2c0,1.6,0,3.2,0,4.8c0,58.7,0,117.3,0,176c0,1.7,0.1,3.4-0.2,5c-0.8,3.7-3,5.5-6.9,4.1
        c-0.9-0.3-1.8-0.8-2.7-1.2c-26.2-13.1-52.4-26.2-78.6-39.3c-1-0.5-1.9-1.2-3.2-1.9c30.3-49.4,60.5-98.5,90.7-147.6
        C-269-208.3-268.7-208.3-268.4-208.2z"/>
      <path d="M-458.8-211.6c30.1,49,59.7,97.1,89.8,146.1c-2-0.7-3.1-1-4.2-1.5c-27.5-13.8-55-27.6-82.6-41.3
        c-2.2-1.1-3.6-2.2-3.6-5.1c0.1-31.8,0.1-63.7,0.1-95.5C-459.3-209.4-459.1-209.9-458.8-211.6z"/>
    </g>
  </g>
</symbol>
-->
</defs></svg>
