<svg id="SvgjsSvg1029" xmlns="http://www.w3.org/2000/svg" version="1.1" xmlns:xlink="http://www.w3.org/1999/xlink" xmlns:svgjs="http://svgjs.com/svgjs" width="14" height="16"><defs id="SvgjsDefs1030"></defs><path id="SvgjsPath1031" d="M1060.2 16.63C1059.75 16.380699999999997 1059.47 15.916699999999999 1059.47 15.416699999999999L1059.47 15.414699999999998C1059.47 14.633299999999998 1058.81 13.999999999999998 1058 13.999999999999998C1057.19 13.999999999999998 1056.53 14.633299999999998 1056.53 15.414699999999998L1056.53 15.416699999999999C1056.53 15.9173 1056.25 16.380699999999997 1055.8 16.63C1052.54 18.438 1054.4099999999999 24.439999999999998 1051 25.5007L1051 26.6667L1065 26.6667L1065 25.5007C1061.59 24.439999999999998 1063.46 18.438 1060.2 16.63ZM1058 14.6667C1058.39 14.6667 1058.7 14.966000000000001 1058.7 15.333300000000001C1058.7 15.701300000000002 1058.39 16 1058 16C1057.61 16 1057.3 15.7013 1057.3 15.3333C1057.3 14.966 1057.61 14.666699999999999 1058 14.666699999999999ZM1060.1 28C1060.1 29.0653 1059.1299999999999 30 1058.02 30C1056.91 30 1055.9 29.0653 1055.9 28Z " fill="#ffffff" transform="matrix(1,0,0,1,-1051,-14)"></path></svg>