<svg id="SvgjsSvg1008" xmlns="http://www.w3.org/2000/svg" version="1.1" xmlns:xlink="http://www.w3.org/1999/xlink" xmlns:svgjs="http://svgjs.com/svgjs" width="48" height="61" viewBox="0 0 48 61"><defs id="SvgjsDefs1009"></defs><path id="SvgjsPath1010" d="M899.188 1572C898.3199999999999 1572 897.454 1571.9 896.596 1571.71C894.898 1571.32 893.103 1571.32 891.406 1571.71C887.525 1572.5900000000001 883.4879999999999 1571.46 879.731 1568.46C874.042 1563.91 870.044 1555.8500000000001 870.008 1548.8700000000001C869.9590000000001 1539.43 871.825 1533.3400000000001 875.712 1530.2600000000002C880.051 1526.8300000000002 886.2 1527.7800000000002 891.072 1528.9900000000002C891.53429 1529.1058100000002 892.00299 1529.1936900000003 892.47501 1529.2536100000002C891.73392 1525.8986300000001 890.03208 1522.5613300000002 886.954 1520.9100000000003C886.463 1520.6400000000003 886.2769999999999 1520.0300000000002 886.539 1519.5400000000004C886.8009999999999 1519.0400000000004 887.411 1518.8500000000004 887.903 1519.1200000000003C890.1170000000001 1520.3100000000004 891.727 1522.1900000000003 892.844 1524.3400000000004L893.171 1522.1400000000003C893.888 1517.2900000000004 897.609 1513.5500000000004 902.431 1512.8300000000004L907.8950000000001 1512.0100000000004L907.0820000000001 1517.5000000000005C906.3640000000001 1522.3500000000004 902.642 1526.0900000000004 897.8210000000001 1526.8100000000004L894.0630000000001 1527.3800000000003C894.2593 1528.0283800000004 894.4203200000001 1528.6844500000004 894.5485800000001 1529.3376500000004C895.3509400000002 1529.3014300000004 896.1500200000002 1529.1855500000004 896.9310000000002 1528.9900000000005C901.8030000000001 1527.7800000000004 907.9500000000002 1526.8300000000004 912.2900000000002 1530.2600000000004C916.1760000000002 1533.3400000000004 918.0430000000002 1539.4300000000005 917.9940000000001 1548.8700000000003C917.9590000000002 1555.8500000000004 913.9610000000001 1563.9100000000003 908.2720000000002 1568.4600000000003C905.3460000000001 1570.8000000000002 902.2490000000001 1572.0000000000002 899.1880000000002 1572.0000000000002ZM894.001 1569.39C895.023 1569.39 896.0459999999999 1569.5 897.04 1569.73C901.163 1570.66 904.742 1568.69 907.0169999999999 1566.8700000000001C912.1779999999999 1562.74 915.9459999999999 1555.17 915.978 1548.8600000000001C916.0229999999999 1540.0800000000002 914.409 1534.5200000000002 911.043 1531.8500000000001C908.193 1529.6000000000001 903.989 1529.3200000000002 897.415 1530.96C896.5717099999999 1531.16761 895.71033 1531.29686 894.84461 1531.34773C894.89223 1531.82789 894.92266 1532.30016 894.937 1532.76C894.955 1533.32 894.518 1533.79 893.962 1533.81C893.951 1533.81 893.9399999999999 1533.81 893.929 1533.81C893.387 1533.81 892.939 1533.3799999999999 892.922 1532.83C892.9065800000001 1532.33998 892.87154 1531.83573 892.8153 1531.3235599999998C892.06502 1531.2614599999997 891.31958 1531.1402799999998 890.588 1530.9599999999998C884.012 1529.3199999999997 879.809 1529.6 876.959 1531.85C873.593 1534.52 871.9789999999999 1540.08 872.0229999999999 1548.86C872.0559999999999 1555.1699999999998 875.8249999999999 1562.74 880.9859999999999 1566.87C883.2609999999999 1568.6899999999998 886.8389999999998 1570.6699999999998 890.9619999999999 1569.7299999999998C891.9559999999999 1569.4999999999998 892.9789999999999 1569.3899999999999 894.0009999999999 1569.3899999999999ZM876.054 1543.62C875.4979999999999 1543.62 875.0459999999999 1543.1599999999999 875.0459999999999 1542.6C875.0459999999999 1537.01 879.116 1532.4699999999998 884.1179999999999 1532.4699999999998C884.675 1532.4699999999998 885.126 1532.9199999999998 885.126 1533.4799999999998C885.126 1534.0399999999997 884.675 1534.4899999999998 884.1179999999999 1534.4899999999998C880.228 1534.4899999999998 877.0619999999999 1538.1299999999999 877.0619999999999 1542.5999999999997C877.0619999999999 1543.1599999999996 876.6109999999999 1543.6199999999997 876.0539999999999 1543.6199999999997ZM904.039 1514.63L902.728 1514.8300000000002C898.79 1515.42 895.75 1518.4800000000002 895.165 1522.43L894.9689999999999 1523.75ZM905.22 1516.31L896.639 1524.94L897.524 1524.81C901.462 1524.22 904.501 1521.1599999999999 905.088 1517.2ZM893.839 1536.07C892.1460000000001 1536.07 890.552 1535.3999999999999 889.354 1534.2C888.96 1533.8 888.96 1533.16 889.354 1532.76C889.7470000000001 1532.37 890.3860000000001 1532.37 890.779 1532.76C891.597 1533.59 892.684 1534.04 893.8389999999999 1534.04C894.9939999999999 1534.04 896.0809999999999 1533.59 896.8989999999999 1532.76C897.2929999999999 1532.37 897.9309999999999 1532.37 898.3239999999998 1532.76C898.7179999999998 1533.16 898.7179999999998 1533.8 898.3239999999998 1534.2C897.1259999999999 1535.4 895.5329999999998 1536.07 893.8389999999998 1536.07Z " transform="matrix(1,0,0,1,-870,-1512)"></path></svg>