<svg id="SvgjsSvg1026" xmlns="http://www.w3.org/2000/svg" version="1.1" xmlns:xlink="http://www.w3.org/1999/xlink" xmlns:svgjs="http://svgjs.com/svgjs" width="60" height="51" veiwBox="0 0 60 51"><defs id="SvgjsDefs1027"></defs><path id="SvgjsPath1028" d="M245.897 2483.94L245.897 2451.65L280.193 2451.65L280.193 2473.21C280.789 2472.87 281.48499999999996 2472.62 282.181 2472.42L282.181 2451.65L286.356 2451.65C286.754 2451.65 287.102 2452 287.102 2452.39L287.102 2472.62C287.798 2472.87 288.49399999999997 2473.21 289.09 2473.6L289.09 2452.39C289.09 2450.91 287.847 2449.68 286.356 2449.68L284.766 2449.68L284.766 2448.1099999999997C284.766 2447.5599999999995 284.31800000000004 2447.12 283.772 2447.12L276.863 2447.12C276.316 2447.12 275.86899999999997 2447.56 275.86899999999997 2448.1099999999997L275.86899999999997 2449.68L272.688 2449.68L272.688 2444.8599999999997C272.688 2443.2799999999997 271.395 2441.9999999999995 269.805 2441.9999999999995L256.335 2441.9999999999995C254.74499999999998 2441.9999999999995 253.402 2443.2799999999997 253.402 2444.8599999999997L253.402 2449.68L250.22099999999998 2449.68L250.22099999999998 2448.1099999999997C250.22099999999998 2447.5599999999995 249.77399999999997 2447.12 249.22699999999998 2447.12L242.31799999999998 2447.12C241.772 2447.12 241.32399999999998 2447.56 241.32399999999998 2448.1099999999997L241.32399999999998 2449.68L239.73399999999998 2449.68C238.24299999999997 2449.68 236.99999999999997 2450.91 236.99999999999997 2452.39L236.99999999999997 2483.2C236.99999999999997 2484.68 238.24299999999997 2485.91 239.73399999999998 2485.91L277.68268 2485.91C277.72373 2485.96037 277.76518 2486.0103599999998 277.807 2486.06C279.348 2487.88 281.684 2489.06 284.269 2489.06C285.959 2489.06 287.549 2488.57 288.891 2487.68L288.295 2487.0899999999997C288.146 2486.7499999999995 288.046 2486.4999999999995 288.096 2486.2099999999996C288.096 2485.9490999999994 288.20869 2485.7260199999996 288.36896 2485.5802099999996C287.24027 2486.4732599999998 285.87435 2486.99 284.31800000000004 2486.99C280.74000000000007 2486.99 277.857 2484.14 277.857 2480.5899999999997C277.857 2477.0499999999997 280.74 2474.2 284.31800000000004 2474.2C287.89700000000005 2474.2 290.78000000000003 2477.0499999999997 290.78000000000003 2480.5899999999997C290.78000000000003 2482.12 290.233 2483.5499999999997 289.28900000000004 2484.68C289.30307000000005 2484.6658599999996 289.31738000000007 2484.65202 289.33192 2484.6385099999998C289.08529000000004 2484.93455 288.83916000000005 2485.17237 288.543 2485.4199999999996L288.494 2485.47C288.295 2485.66 288.146 2485.91 288.146 2486.16C288.146 2486.45 288.245 2486.7 288.444 2486.89L289.04 2487.49L294.309 2492.7C294.50800000000004 2492.8999999999996 294.75600000000003 2493 295.00500000000005 2493C295.25300000000004 2493 295.50200000000007 2492.9 295.7010000000001 2492.7L296.7440000000001 2491.6699999999996C297.0920000000001 2491.3299999999995 297.0920000000001 2490.7299999999996 296.6950000000001 2490.3399999999997L291.4260000000001 2485.12L291.4060200000001 2485.10022C292.25024000000013 2483.79614 292.71800000000013 2482.2698299999997 292.71800000000013 2480.64C292.71800000000013 2477.79 291.27700000000016 2475.23 289.04000000000013 2473.75C288.44400000000013 2473.36 287.74800000000016 2473.01 287.05200000000013 2472.77C286.15800000000013 2472.47 285.26300000000015 2472.28 284.2690000000001 2472.28C283.52300000000014 2472.28 282.8270000000001 2472.3700000000003 282.13100000000014 2472.57C281.43600000000015 2472.77 280.7400000000001 2473.01 280.14300000000014 2473.36C277.55900000000014 2474.79 275.81900000000013 2477.54 275.81900000000013 2480.69C275.81900000000013 2481.8606 276.0445300000001 2482.94968 276.4947300000001 2483.94ZM243.909 2483.94L239.73399999999998 2483.94C239.33599999999998 2483.94 238.98799999999997 2483.6 238.98799999999997 2483.2000000000003L238.98799999999997 2452.3900000000003C238.98799999999997 2452.0000000000005 239.33599999999998 2451.6500000000005 239.73399999999998 2451.6500000000005L243.909 2451.6500000000005ZM255.391 2444.86C255.391 2444.3700000000003 255.78799999999998 2443.9700000000003 256.28499999999997 2443.9700000000003L269.80499999999995 2443.9700000000003C270.30199999999996 2443.9700000000003 270.69999999999993 2444.3700000000003 270.69999999999993 2444.86L270.69999999999993 2449.6800000000003L255.39099999999993 2449.6800000000003ZM277.857 2449.09L282.778 2449.09L282.778 2449.6800000000003L277.857 2449.6800000000003ZM243.313 2449.09L248.23299999999998 2449.09L248.23299999999998 2449.6800000000003L243.313 2449.6800000000003ZM289.289 2484.63C289.03999999999996 2484.9300000000003 288.792 2485.17 288.49399999999997 2485.42C288.792 2485.2200000000003 289.03999999999996 2484.9300000000003 289.289 2484.63ZM288.444 2485.52C288.41806 2485.53825 288.39298 2485.55836 288.36896 2485.58021C288.39409 2485.56032 288.41911 2485.54025 288.444 2485.52Z " transform="matrix(1,0,0,1,-237,-2442)"></path></svg>