<svg id="SvgjsSvg1020" xmlns="http://www.w3.org/2000/svg" version="1.1" xmlns:xlink="http://www.w3.org/1999/xlink" xmlns:svgjs="http://svgjs.com/svgjs" width="32" height="30"><defs id="SvgjsDefs1021"></defs><path id="SvgjsPath1022" d="M374.967 594L374.967 624L405.21 624L405.21 594ZM389.267 619C389.216 613.964 385.091 609.877 380.008 609.826L380.008 605.817C387.334 605.869 393.262 611.741 393.315 619ZM382.74 619C381.231 619 380.008 617.789 380.008 616.294C380.008 614.799 381.231 613.587 382.74 613.587C384.248 613.587 385.47 614.799 385.47 616.294C385.47 617.789 384.24800000000005 619 382.74 619ZM396.124 619C396.09700000000004 610.171 388.89500000000004 603.049 380.00800000000004 603.01L380.00800000000004 599C391.13500000000005 599.039 400.14500000000004 607.974 400.17 619Z " fill="#43956f" transform="matrix(1,0,0,1,-374,-594)"></path></svg>