<svg id="SvgjsSvg1014" xmlns="http://www.w3.org/2000/svg" version="1.1" xmlns:xlink="http://www.w3.org/1999/xlink" xmlns:svgjs="http://svgjs.com/svgjs" width="62" height="57" viewBox="0 0 62 57"><defs id="SvgjsDefs1015"></defs><path id="SvgjsPath1016" d="M290.246 2032.99C290.219 2032.99 290.192 2032.99 290.16499999999996 2032.99C289.544 2032.98 288.914 2032.8700000000001 288.29699999999997 2032.65L266.00199999999995 2024.6100000000001L243.70599999999996 2032.65C243.10099999999997 2032.8700000000001 242.48299999999995 2032.98 241.87299999999996 2032.99C240.99799999999996 2033 240.11599999999996 2032.82 239.29799999999997 2032.43C238.27899999999997 2031.95 237.44199999999998 2031.19 236.86199999999997 2030.25C236.65199999999996 2029.91 236.47299999999996 2029.54 236.33299999999997 2029.14C236.03299999999996 2028.3000000000002 235.93299999999996 2027.42 236.03099999999998 2026.5500000000002C236.26799999999997 2024.41 237.67699999999996 2022.4900000000002 239.81699999999998 2021.7200000000003C239.87599999999998 2021.7000000000003 239.93399999999997 2021.6800000000003 239.99299999999997 2021.6600000000003L254.77899999999997 2016.3296600000003C251.65218999999996 2013.0443000000002 249.46898999999996 2008.3973400000004 248.80599999999995 2003.1200000000003C251.30799999999996 2004.0900000000004 253.81699999999995 2005.5500000000004 253.81699999999995 2005.5500000000004C250.98999999999995 2002.7100000000005 249.17799999999994 1998.3600000000004 249.17799999999994 1991.8300000000004C249.17799999999994 1982.6000000000004 256.3229999999999 1977.0600000000004 264.30099999999993 1976.0000000000005C264.30099999999993 1976.0000000000005 258.6979999999999 1989.3600000000004 264.30099999999993 1995.0000000000005C264.30099999999993 1995.0000000000005 268.49499999999995 1991.7000000000005 268.49499999999995 1985.5000000000005C268.49499999999995 1985.5000000000005 271.63999999999993 1992.3600000000004 271.63999999999993 2000.2700000000004C271.63999999999993 2000.2700000000004 280.02699999999993 1993.4100000000005 280.02699999999993 1983.3900000000003C280.02699999999993 1983.3900000000003 283.17299999999994 1988.0700000000004 283.17299999999994 2000.2700000000004C283.17299999999994 2006.9041800000005 280.88653999999997 2012.5611800000004 277.2657699999999 2016.3443600000005L292.0089999999999 2021.6600000000005C292.0679999999999 2021.6800000000005 292.1269999999999 2021.7000000000005 292.1849999999999 2021.7200000000005C294.4259999999999 2022.5300000000004 295.8659999999999 2024.6000000000006 295.9979999999999 2026.8500000000006C296.04399999999987 2027.6200000000006 295.9349999999999 2028.4000000000005 295.6699999999999 2029.1400000000006C295.5559999999999 2029.4600000000005 295.4179999999999 2029.7700000000007 295.2569999999999 2030.0500000000006C294.6759999999999 2031.0900000000006 293.79399999999987 2031.9100000000005 292.70499999999987 2032.4300000000007C291.9229999999999 2032.8100000000009 291.08599999999984 2032.9900000000007 290.24599999999987 2032.9900000000007ZM255.195 1982.38C252.63 1984.8400000000001 251.275 1988.1100000000001 251.275 1991.8300000000002C251.275 1997.2600000000002 252.62900000000002 2001.3700000000001 255.299 2004.0600000000002C256.044 2004.8100000000002 256.12 2006.0000000000002 255.48000000000002 2006.8400000000001C255.07000000000002 2007.3700000000001 254.448 2007.66 253.81600000000003 2007.66C253.45700000000002 2007.66 253.09500000000003 2007.5700000000002 252.76500000000004 2007.38C252.75600000000006 2007.3700000000001 252.35600000000005 2007.14 251.72700000000003 2006.8000000000002C252.81847000000002 2010.3700400000002 254.71029000000004 2013.4205900000002 257.09076000000005 2015.6108100000001C256.92487000000006 2015.1335800000002 256.79891000000003 2014.6354800000001 256.71700000000004 2014.1200000000001C256.66 2013.7600000000002 256.79100000000005 2013.4 257.06300000000005 2013.16C257.15500000000003 2013.0800000000002 257.25800000000004 2013.02 257.36800000000005 2012.97C257.035 2012.1000000000001 256.86800000000005 2011.1200000000001 256.86800000000005 2010.02C256.86800000000005 2006.2 259.08200000000005 2003.87 263.10100000000006 2003.45C263.45300000000003 2003.41 263.80500000000006 2003.56 264.0280000000001 2003.8400000000001C264.2510000000001 2004.1200000000001 264.31700000000006 2004.4900000000002 264.20400000000006 2004.8300000000002C263.77000000000004 2006.14 263.3980000000001 2008.2400000000002 263.7540000000001 2009.2700000000002C264.40900000000005 2009.1700000000003 265.40400000000005 2008.89 265.40400000000005 2008.1800000000003C265.40400000000005 2007.6900000000003 265.7370000000001 2007.2600000000002 266.20900000000006 2007.1500000000003C266.6820000000001 2007.0400000000004 267.16900000000004 2007.2600000000002 267.38700000000006 2007.7000000000003C267.4320000000001 2007.7900000000002 268.21200000000005 2009.3600000000004 268.6290000000001 2011.3500000000004C269.5250000000001 2010.2500000000005 270.4990000000001 2008.6800000000003 270.4990000000001 2007.0700000000004C270.4990000000001 2006.6300000000003 270.7730000000001 2006.2400000000005 271.1840000000001 2006.0800000000004C271.5970000000001 2005.9300000000003 272.0590000000001 2006.0500000000004 272.3440000000001 2006.3900000000003C272.5120000000001 2006.5800000000004 273.9860000000001 2008.4500000000003 273.9860000000001 2012.9600000000003C273.9860000000001 2014.5827900000002 273.5346900000001 2016.0850100000002 272.7443100000001 2017.3577400000004C273.4307900000001 2016.9439600000003 274.0851800000001 2016.4681200000005 274.7034200000001 2015.9352700000004C278.6118100000001 2012.5667300000005 281.0759900000001 2006.9197900000004 281.0759900000001 2000.2699900000005C281.0759900000001 1996.7499900000005 280.8049900000001 1993.8899900000004 280.4319900000001 1991.6399900000004C277.8589900000001 1997.8399900000004 273.2319900000001 2001.6899900000003 272.96199000000007 2001.9099900000003C272.5809900000001 2002.2199900000003 272.1129900000001 2002.3799900000004 271.63999000000007 2002.3799900000004C271.3339900000001 2002.3799900000004 271.0259900000001 2002.3199900000004 270.73899000000006 2002.1799900000003C270.00899000000004 2001.8299900000004 269.54299000000003 2001.0899900000004 269.54299000000003 2000.2699900000002C269.54299000000003 1997.5999900000002 269.15799000000004 1995.0499900000002 268.66799000000003 1992.8799900000001C267.30799 1995.2799900000002 265.70799000000005 1996.5699900000002 265.59199 1996.65999C265.21099000000004 1996.95999 264.75499 1997.1099900000002 264.30099 1997.1099900000002C263.76199 1997.1099900000002 263.22499 1996.8999900000001 262.81899 1996.4899900000003C258.27898999999996 1991.9199900000003 259.71599 1983.6899900000003 261.09599 1978.8899900000004C258.81899 1979.6599900000003 256.78898999999996 1980.8499900000004 255.19498999999996 1982.3799900000004ZM244.716 2022.2C245.04377 2022.3968300000001 245.34875 2022.6229600000001 245.62786 2022.8756C245.75216 2022.70236 245.92986 2022.56501 246.147 2022.49L249.292 2021.44C249.84 2021.25 250.435 2021.55 250.618 2022.1000000000001C250.801 2022.66 250.504 2023.2500000000002 249.95499999999998 2023.44L246.86121999999997 2024.4729C246.98718999999997 2024.71464 247.09714999999997 2024.96735 247.18999999999997 2025.23C247.23616999999996 2025.35904 247.27763999999996 2025.48909 247.31440999999998 2025.61995L253.486 2023.55C254.034 2023.36 254.629 2023.6599999999999 254.81199999999998 2024.21C254.99499999999998 2024.77 254.69799999999998 2025.3600000000001 254.148 2025.55L247.858 2027.6599999999999C247.748 2027.6999999999998 247.636 2027.7099999999998 247.526 2027.7099999999998C247.51987 2027.7099999999998 247.51374 2027.7099499999997 247.50762 2027.7098399999998C247.46317 2028.2012299999997 247.35578 2028.6882099999998 247.186 2029.1599999999999L265.648 2022.4999999999998C265.877 2022.4199999999998 266.127 2022.4199999999998 266.355 2022.4999999999998L284.817 2029.1599999999999C284.64308 2028.6766699999998 284.53476 2028.1773999999998 284.49251 2027.6737799999999C284.40479 2027.6975499999999 284.31356 2027.7099999999998 284.221 2027.7099999999998C284.111 2027.7099999999998 283.999 2027.6999999999998 283.889 2027.6599999999999L277.599 2025.55C277.049 2025.36 276.753 2024.77 276.936 2024.21C277.11899999999997 2023.66 277.71099999999996 2023.3600000000001 278.262 2023.55L284.553 2025.6599999999999C284.5919 2025.67275 284.62953 2025.68762 284.66582 2025.7044199999998C284.70798 2025.5450399999997 284.75703 2025.3867699999998 284.813 2025.2299999999998C284.89823 2024.9907499999997 284.9979 2024.7591799999998 285.11111999999997 2024.5362799999998C285.05334 2024.5262999999998 284.99539999999996 2024.5108699999998 284.938 2024.4899999999998L281.792 2023.4399999999998C281.243 2023.2499999999998 280.94599999999997 2022.6599999999999 281.12899999999996 2022.1C281.313 2021.55 281.905 2021.25 282.45599999999996 2021.4399999999998L285.60099999999994 2022.4899999999998C285.87935999999996 2022.5863399999998 286.09293999999994 2022.7855099999997 286.21200999999996 2023.0314599999997C286.53407 2022.7150499999998 286.89417 2022.4358999999997 287.287 2022.1999999999996L275.68899999999996 2018.0199999999995C275.64 2017.9999999999995 275.59299999999996 2017.9799999999996 275.549 2017.9599999999996C274.71589 2018.6012999999996 273.84949 2019.1557099999995 272.95623 2019.6204299999995C270.7294 2020.7789299999995 268.33557 2021.3799999999994 265.874 2021.3799999999994C265.7662 2021.3799999999994 265.65852 2021.3788499999994 265.55098000000004 2021.3765599999995C265.46566 2021.3788499999994 265.37999 2021.3799999999994 265.29400000000004 2021.3799999999994C264.63041000000004 2021.3799999999994 263.98335000000003 2021.3073999999995 263.36104000000006 2021.1691299999993C260.85411000000005 2020.7446799999993 258.45542000000006 2019.6841299999994 256.28400000000005 2018.0299999999993ZM263.42543 2019.00835C264.12315 2019.15846 264.83451 2019.2457100000001 265.55543 2019.2656000000002C269.18464 2019.14316 271.88899 2016.4760700000002 271.88899 2012.9600000000003C271.88899 2011.9900000000002 271.81099 2011.1700000000003 271.69698999999997 2010.4900000000002C270.52999 2012.7900000000002 268.62998999999996 2014.4100000000003 268.51498999999995 2014.5100000000002C268.20298999999994 2014.7700000000002 267.76798999999994 2014.8300000000002 267.39798999999994 2014.6600000000003C267.0289899999999 2014.4800000000002 266.7929899999999 2014.1100000000004 266.7929899999999 2013.7000000000003C266.7929899999999 2012.5800000000004 266.5359899999999 2011.4500000000003 266.2519899999999 2010.5400000000002C265.3169899999999 2011.2000000000003 264.0599899999999 2011.4300000000003 263.2239899999999 2011.4400000000003C262.9299899999999 2011.4400000000003 262.6449899999999 2011.3200000000004 262.4429899999999 2011.1000000000004C261.2449899999999 2009.8100000000004 261.4299899999999 2007.4900000000005 261.7639899999999 2005.8600000000004C259.88298999999995 2006.4800000000002 258.96498999999994 2007.8500000000004 258.96498999999994 2010.0200000000004C258.96498999999994 2011.8000000000004 259.50498999999996 2013.0900000000004 260.61598999999995 2013.9700000000005C261.0329899999999 2014.3100000000004 261.13798999999995 2014.9000000000005 260.86198999999993 2015.3500000000006C260.58498999999995 2015.8100000000006 260.0139899999999 2015.9800000000007 259.5309899999999 2015.7600000000007C259.5289899999999 2015.7600000000007 259.4859899999999 2015.7400000000007 259.4089899999999 2015.7100000000007C260.2223099999999 2017.3082500000007 261.6753999999999 2018.5049100000008 263.4254199999999 2019.0083500000007ZM290.239 2023.49C289.70399999999995 2023.49 289.171 2023.61 288.674 2023.85C287.78799999999995 2024.27 287.11699999999996 2025.01 286.787 2025.9399999999998C286.45599999999996 2026.87 286.505 2027.87 286.923 2028.7599999999998C287.342 2029.6599999999999 288.081 2030.3299999999997 289.004 2030.6599999999999C289.62300000000005 2030.8899999999999 290.27500000000003 2030.9399999999998 290.904 2030.82C291.022 2030.8 291.138 2030.77 291.253 2030.74C291.442 2030.68 291.628 2030.61 291.81 2030.52C291.873 2030.49 291.934 2030.46 291.995 2030.43C292.50600000000003 2030.15 292.95300000000003 2029.75 293.288 2029.25C293.455 2029 293.592 2028.72 293.696 2028.43C293.79 2028.17 293.85200000000003 2027.9 293.884 2027.63C293.966 2026.95 293.855 2026.25 293.55400000000003 2025.6100000000001C293.13300000000004 2024.72 292.396 2024.0400000000002 291.478 2023.71C291.478 2023.71 291.478 2023.71 291.47700000000003 2023.71L291.33700000000005 2023.66C290.97700000000003 2023.5500000000002 290.607 2023.49 290.23900000000003 2023.49ZM239.868 2030.35C239.97299999999998 2030.4099999999999 240.082 2030.4699999999998 240.194 2030.52C241.07999999999998 2030.95 242.077 2030.99 242.999 2030.66C244.904 2029.98 245.899 2027.8600000000001 245.21699999999998 2025.94C244.886 2025.01 244.21599999999998 2024.27 243.32999999999998 2023.8500000000001C242.48799999999997 2023.44 241.547 2023.38 240.664 2023.66L240.524 2023.71C239.606 2024.04 238.869 2024.72 238.449 2025.6100000000001C238.179 2026.19 238.062 2026.8000000000002 238.09900000000002 2027.42C238.12 2027.76 238.18800000000002 2028.1000000000001 238.30700000000002 2028.43C238.43 2028.78 238.60000000000002 2029.1000000000001 238.81 2029.38C239.1 2029.7800000000002 239.461 2030.1000000000001 239.868 2030.3500000000001ZM261.096 1978.89C261.096 1978.89 263.373 1978.13 261.096 1978.89Z " transform="matrix(1,0,0,1,-235,-1976)"></path></svg>