<svg id="SvgjsSvg1017" xmlns="http://www.w3.org/2000/svg" version="1.1" xmlns:xlink="http://www.w3.org/1999/xlink" xmlns:svgjs="http://svgjs.com/svgjs" width="48" height="60" viewBox="0 0 48 60"><defs id="SvgjsDefs1018"></defs><path id="SvgjsPath1019" d="M920.999 2036L875.998 2036C875.446 2036 874.998 2035.55 874.998 2035L874.998 1977C874.998 1976.45 875.446 1976 875.998 1976L906.999 1976C907.264 1976 907.518 1976.1 907.706 1976.29L921.706 1990.29C921.87204 1990.4578099999999 921.97334 1990.67243 921.99474 1990.90628C921.99831 1990.94391 921.99974 1990.98175 921.999 1991.01962L921.999 2035C921.999 2035.55 921.551 2036 920.999 2036ZM876.998 2034L919.999 2034L919.999 1992L906.999 1992C906.446 1992 905.999 1991.55 905.999 1991L905.999 1978L876.998 1978ZM913.292 1984.705L907.999 1979.41358L907.999 1990L918.585 1990ZM888.143 2016.17C889.2850000000001 2015.5700000000002 890.297 2017.3000000000002 889.152 2017.89C886.981 2019.0200000000002 886.8770000000001 2021.6000000000001 886.8040000000001 2023.7700000000002C886.7730000000001 2024.6800000000003 885.7590000000001 2025.0300000000002 885.0970000000001 2024.4700000000003C884.1620000000001 2023.6900000000003 883.2260000000001 2022.9000000000003 882.291 2022.1200000000003C881.301 2021.2900000000004 882.724 2019.8900000000003 883.705 2020.7100000000003C884.11818 2021.0546900000002 884.53156 2021.3993800000003 884.94497 2021.7449300000003C885.21366 2019.4852100000003 885.95314 2017.3091900000004 888.143 2016.1700000000003ZM889.13 2021.27C888.562 2020.12 890.286 2019.1 890.857 2020.26C891.812 2022.2 893.428 2020.54 894.793 2020.15C895.839 2019.8600000000001 896.961 2020.3200000000002 897.481 2021.25C898.111 2022.38 896.383 2023.38 895.754 2022.26C895.41 2021.64 893.894 2022.82 893.487 2022.97C892.9159999999999 2023.19 892.4069999999999 2023.27 891.799 2023.2C890.63 2023.07 889.644 2022.31 889.13 2021.27C889.13 2021.27 889.698 2022.42 889.13 2021.27ZM906.999 2001L899.998 2001C899.446 2001 898.998 2000.55 898.998 2000C898.998 1999.45 899.446 1999 899.998 1999L906.999 1999C907.551 1999 907.999 1999.45 907.999 2000C907.999 2000.55 907.551 2001 906.999 2001ZM896.998 2009L889.998 2009C889.446 2009 888.998 2008.55 888.998 2008C888.998 2007.45 889.446 2007 889.998 2007L896.998 2007C897.551 2007 897.998 2007.45 897.998 2008C897.998 2008.55 897.551 2009 896.998 2009ZM889.998 2001L884.998 2001C884.446 2001 883.998 2000.55 883.998 2000C883.998 1999.45 884.446 1999 884.998 1999L889.998 1999C890.5500000000001 1999 890.998 1999.45 890.998 2000C890.998 2000.55 890.5500000000001 2001 889.998 2001ZM895.998 2000C895.998 2000.55 895.5500000000001 2001 894.998 2001C894.446 2001 893.998 2000.55 893.998 2000C893.998 1999.45 894.446 1999 894.998 1999C895.5500000000001 1999 895.998 1999.45 895.998 2000C895.998 2000.55 895.998 2000 895.998 2000ZM886.998 2008C886.998 2008.55 886.5500000000001 2009 885.998 2009C885.446 2009 884.998 2008.55 884.998 2008C884.998 2007.45 885.446 2007 885.998 2007C886.5500000000001 2007 886.998 2007.45 886.998 2008C886.998 2008.55 886.998 2008 886.998 2008ZM898.998 1992C898.998 1992.55 898.5500000000001 1993 897.998 1993C897.446 1993 896.998 1992.55 896.998 1992C896.998 1991.45 897.446 1991 897.998 1991C898.5500000000001 1991 898.998 1991.45 898.998 1992C898.998 1992.55 898.998 1992 898.998 1992ZM911.999 2031C911.738 2031 911.4830000000001 2030.9 911.292 2030.71L907.999 2027.41L904.706 2030.71C904.419 2030.99 903.99 2031.08 903.616 2030.92C903.242 2030.77 902.999 2030.4 902.999 2030L902.999 2020.09C902.496 2020 902.022 2019.75 901.635 2019.36C900.834 2018.56 900.631 2017.3899999999999 901.1179999999999 2016.36C901.223 2016.1399999999999 901.1709999999999 2015.9399999999998 901.131 2015.85C901.0899999999999 2015.75 900.987 2015.57 900.7529999999999 2015.49C899.6869999999999 2015.11 898.9989999999999 2014.13 898.9989999999999 2013C898.9989999999999 2011.87 899.6869999999999 2010.89 900.7529999999999 2010.51C900.987 2010.43 901.0899999999999 2010.25 901.1299999999999 2010.15C901.1709999999999 2010.0600000000002 901.2239999999999 2009.8600000000001 901.1169999999998 2009.63C900.6309999999999 2008.6100000000001 900.8339999999998 2007.44 901.6339999999999 2006.64C902.4339999999999 2005.8300000000002 903.6119999999999 2005.63 904.6339999999999 2006.1200000000001C904.858 2006.22 905.0559999999999 2006.17 905.1529999999999 2006.13C905.252 2006.0900000000001 905.4289999999999 2005.99 905.5109999999999 2005.75C905.8909999999998 2004.69 906.8669999999998 2004 907.9989999999999 2004C909.1309999999999 2004 910.1069999999999 2004.69 910.4859999999999 2005.75C910.5689999999998 2005.99 910.7459999999999 2006.09 910.8439999999998 2006.13C910.9419999999998 2006.17 911.1389999999998 2006.22 911.3629999999998 2006.1200000000001C912.3849999999999 2005.63 913.5629999999999 2005.8300000000002 914.3639999999998 2006.64C915.1629999999998 2007.44 915.3659999999998 2008.6100000000001 914.8799999999998 2009.64C914.7739999999998 2009.8600000000001 914.8259999999998 2010.0600000000002 914.8669999999997 2010.15C914.9079999999998 2010.25 915.0109999999997 2010.43 915.2439999999997 2010.51C916.3099999999997 2010.89 916.9979999999997 2011.87 916.9979999999997 2013C916.9979999999997 2014.13 916.3099999999997 2015.11 915.2439999999997 2015.49C915.0109999999997 2015.57 914.9079999999997 2015.75 914.8669999999997 2015.85C914.8259999999997 2015.9399999999998 914.7739999999998 2016.1399999999999 914.8799999999998 2016.36C915.3669999999997 2017.3899999999999 915.1629999999998 2018.56 914.3629999999997 2019.36C913.9759999999998 2019.75 913.5009999999997 2020 912.9989999999997 2020.09L912.9989999999997 2030C912.9989999999997 2030.4 912.7549999999997 2030.77 912.3819999999997 2030.92C912.2579999999997 2030.97 912.1279999999997 2031 911.9989999999997 2031ZM905.92 2018.02C906.608 2018.31 907.1469999999999 2018.87 907.396 2019.57C907.5319999999999 2019.96 907.8629999999999 2020 907.9989999999999 2020C908.1339999999999 2020 908.4649999999999 2019.96 908.6019999999999 2019.57C908.8509999999999 2018.87 909.3889999999999 2018.31 910.0769999999999 2018.02C910.7469999999998 2017.74 911.5039999999999 2017.75 912.1639999999999 2018.05C912.2209999999999 2018.06 912.2679999999999 2018.07 912.3149999999998 2018.09C912.3559999999999 2018.1 912.3959999999998 2018.12 912.4339999999999 2018.1399999999999C912.6969999999999 2018.1699999999998 912.8719999999998 2018.03 912.9489999999998 2017.9499999999998C913.0449999999998 2017.85 913.2489999999998 2017.59 913.0739999999998 2017.2199999999998C912.7539999999998 2016.5499999999997 912.7339999999998 2015.7699999999998 913.0189999999999 2015.0799999999997C913.3039999999999 2014.3899999999996 913.8699999999999 2013.8499999999997 914.5739999999998 2013.5999999999997C914.9569999999999 2013.4699999999996 914.9979999999998 2013.1299999999997 914.9979999999998 2012.9999999999998C914.9979999999998 2012.8599999999997 914.9569999999998 2012.5299999999997 914.5739999999998 2012.3999999999999C913.8709999999999 2012.1499999999999 913.3039999999999 2011.61 913.0189999999999 2010.9199999999998C912.7339999999999 2010.2299999999998 912.7539999999999 2009.4499999999998 913.0739999999998 2008.7799999999997C913.2489999999998 2008.4099999999999 913.0449999999998 2008.1499999999996 912.9489999999998 2008.0499999999997C912.8529999999998 2007.9499999999998 912.5909999999999 2007.7499999999998 912.2219999999999 2007.9199999999996C911.5489999999999 2008.2399999999996 910.7689999999999 2008.2599999999995 910.0789999999998 2007.9799999999996C909.3899999999999 2007.6899999999996 908.8509999999999 2007.1299999999997 908.6009999999999 2006.4199999999996C908.4649999999999 2006.0399999999995 908.1339999999999 2005.9999999999995 907.9989999999999 2005.9999999999995C907.8629999999999 2005.9999999999995 907.5319999999999 2006.0399999999995 907.396 2006.4199999999996C907.146 2007.1299999999997 906.608 2007.6899999999996 905.919 2007.9799999999996C905.2289999999999 2008.2599999999995 904.447 2008.2399999999996 903.775 2007.9199999999996C903.4069999999999 2007.7499999999995 903.145 2007.9499999999996 903.049 2008.0499999999997C902.953 2008.1499999999996 902.7479999999999 2008.4099999999996 902.923 2008.7799999999997C903.244 2009.4499999999998 903.264 2010.2299999999998 902.979 2010.9199999999998C902.6930000000001 2011.61 902.1270000000001 2012.1499999999999 901.4240000000001 2012.3999999999999C901.0400000000001 2012.53 900.9990000000001 2012.86 900.9990000000001 2012.9999999999998C900.9990000000001 2013.1299999999999 901.0400000000002 2013.4699999999998 901.4240000000001 2013.5999999999997C902.1270000000001 2013.8499999999997 902.6930000000001 2014.3899999999996 902.979 2015.0799999999997C903.264 2015.7699999999998 903.244 2016.5499999999997 902.9240000000001 2017.2199999999998C902.748 2017.5899999999997 902.9530000000001 2017.85 903.0490000000001 2017.9499999999998C903.1250000000001 2018.0299999999997 903.301 2018.1699999999998 903.5630000000001 2018.1399999999999C903.6010000000001 2018.12 903.6410000000001 2018.1 903.6820000000001 2018.09C903.7320000000001 2018.07 903.7830000000001 2018.06 903.8330000000001 2018.05C904.4870000000001 2017.76 905.234 2017.74 905.8990000000001 2018.01C905.9000000000001 2018.01 905.9000000000001 2018.01 905.9000000000001 2018.01C905.9010000000001 2018.01 905.902 2018.01 905.9040000000001 2018.01C905.9030000000001 2018.01 905.9060000000001 2018.01 905.9060000000001 2018.01C905.907 2018.01 905.907 2018.01 905.908 2018.01C905.908 2018.01 905.908 2018.02 905.909 2018.02C905.909 2018.02 905.909 2018.02 905.91 2018.02C905.91 2018.02 905.91 2018.02 905.911 2018.02C905.9119999999999 2018.02 905.914 2018.02 905.9159999999999 2018.02C905.9179999999999 2018.02 905.919 2018.02 905.92 2018.02ZM907.999 2025C908.255 2025 908.51 2025.1 908.706 2025.29L910.999 2027.59L910.999 2019.82C910.941 2019.83 910.892 2019.85 910.855 2019.86C910.8530000000001 2019.86 910.852 2019.86 910.85 2019.86C910.849 2019.87 910.8480000000001 2019.87 910.847 2019.87C910.846 2019.87 910.845 2019.87 910.843 2019.87C910.745 2019.9099999999999 910.569 2020.01 910.486 2020.2399999999998C910.107 2021.3099999999997 909.13 2021.9999999999998 907.999 2021.9999999999998C906.8670000000001 2021.9999999999998 905.8910000000001 2021.3099999999997 905.5120000000001 2020.2399999999998C905.4290000000001 2020.0099999999998 905.2520000000001 2019.9099999999999 905.1540000000001 2019.87C905.1160000000001 2019.85 905.0630000000001 2019.83 904.9990000000001 2019.82L904.9990000000001 2027.59L907.2920000000001 2025.29C907.4870000000002 2025.1 907.7430000000002 2025 907.9990000000001 2025Z " transform="matrix(1,0,0,1,-874,-1976)"></path></svg>