<svg id="SvgjsSvg1000" xmlns="http://www.w3.org/2000/svg" version="1.1" xmlns:xlink="http://www.w3.org/1999/xlink" xmlns:svgjs="http://svgjs.com/svgjs" width="30" height="30" viewBox="0 0 30 30"><title>icon</title><desc>Created with Avocode.</desc><defs id="SvgjsDefs1001"></defs><path id="SvgjsPath1007" d="M211 2735C211 2743.28 204.281 2750 195.995 2750C194.644 2750 193.34 2749.81 192.095 2749.47L192.926 2747.1C193.91 2747.35 194.93499999999997 2747.5 195.99499999999998 2747.5C202.89 2747.5 208.49899999999997 2741.89 208.49899999999997 2735C208.49899999999997 2728.11 202.88999999999996 2722.5 195.99499999999998 2722.5C193.20099999999996 2722.5 190.62899999999996 2723.43 188.54599999999996 2724.99L191.10899999999995 2727.5499999999997L182.33999999999995 2729.24L184.03499999999994 2720.47L186.76399999999995 2723.2C189.30899999999994 2721.2 192.50699999999995 2720 195.99499999999995 2720C204.28099999999995 2720 210.99999999999994 2726.72 210.99999999999994 2735ZM197.25 2727.5L197.25 2735L203.5 2735L203.5 2737.5L194.75 2737.5L194.75 2727.5ZM185.335 2741.5C185.75400000000002 2742.18 186.232 2742.82 186.77100000000002 2743.41L185.01600000000002 2745.2C184.287 2744.4199999999996 183.64200000000002 2743.56 183.092 2742.6299999999997ZM186.868 2746.89L188.634 2745.08C189.242 2745.5299999999997 189.891 2745.92 190.577 2746.25L189.74099999999999 2748.62C188.71499999999997 2748.15 187.75199999999998 2747.5699999999997 186.868 2746.89ZM184.25 2739.25L182.001 2740.38C181.624 2739.4 181.35 2738.37 181.186 2737.3L183.684 2737.1000000000004C183.809 2737.84 184 2738.5600000000004 184.25 2739.2500000000005ZM181 2734.81L183.519 2734.61C183.552 2733.73 183.675 2732.88 183.87900000000002 2732.05L181.28400000000002 2732.05C181.10600000000002 2732.94 181.01200000000003 2733.8700000000003 181.00000000000003 2734.8100000000004Z " fill-opacity="1" transform="matrix(1,0,0,1,-181,-2720)"></path></svg>