<svg id="SvgjsSvg1020" xmlns="http://www.w3.org/2000/svg" version="1.1" xmlns:xlink="http://www.w3.org/1999/xlink" xmlns:svgjs="http://svgjs.com/svgjs" width="58" height="52" viewBox="0 0 58 52"><defs id="SvgjsDefs1021"></defs><path id="SvgjsPath1022" d="M259.346 2256.3C256.857 2254.26 254.121 2252.9 253.622 2252.65C253.061 2252.4100000000003 252.75 2251.85 252.75 2251.29L252.75 2247.27C252.75 2246.83 252.938 2246.4 253.311 2246.15C253.437 2246.03 253.561 2245.84 253.561 2245.6600000000003L253.561 2241.4500000000003C253.561 2240.09 252.439 2238.9700000000003 251.071 2238.9700000000003L250.138 2238.9700000000003C248.77 2238.9700000000003 247.649 2240.09 247.649 2241.4500000000003L247.649 2245.6600000000003C247.649 2245.84 247.71 2246.03 247.897 2246.15C248.209 2246.4 248.458 2246.84 248.458 2247.27L248.458 2251.29C248.458 2251.91 248.08599999999998 2252.4 247.58599999999998 2252.65C247.09099999999998 2252.9 244.35199999999998 2254.26 241.862 2256.3C241.736 2256.4300000000003 241.613 2256.67 241.613 2256.86L241.613 2259.71C241.613 2260.39 240.99 2261.01 240.306 2261.01C239.62300000000002 2261.01 239 2260.4500000000003 239 2259.71L239 2256.86C239 2255.81 239.434 2254.88 240.245 2254.26C242.423 2252.53 244.72400000000002 2251.23 245.846 2250.61L245.846 2247.82C245.285 2247.27 244.974 2246.46 244.974 2245.6600000000003L244.974 2241.4500000000003C244.974 2238.6600000000003 247.27499999999998 2236.38 250.076 2236.38L251.009 2236.38C253.80999999999997 2236.38 256.11199999999997 2238.6600000000003 256.11199999999997 2241.4500000000003L256.11199999999997 2245.6600000000003C256.11199999999997 2246.4600000000005 255.79999999999995 2247.2700000000004 255.23899999999998 2247.82L255.23899999999998 2250.61C256.361 2251.17 258.662 2252.4700000000003 260.84099999999995 2254.26C261.65099999999995 2254.94 262.085 2255.8700000000003 262.085 2256.86L262.085 2259.71C262.085 2260.39 261.46299999999997 2261.01 260.779 2261.01C260.09499999999997 2261.01 259.473 2260.4500000000003 259.473 2259.71L259.473 2256.86C259.473 2256.61 259.346 2256.4300000000003 259.346 2256.3ZM294.509 2259.71L294.509 2256.86C294.509 2256.61 294.447 2256.4300000000003 294.259 2256.3C291.769 2254.26 289.034 2252.9 288.535 2252.65C287.97400000000005 2252.4100000000003 287.663 2251.85 287.663 2251.29L287.663 2247.27C287.663 2246.83 287.851 2246.4 288.224 2246.15C288.34999999999997 2246.03 288.474 2245.84 288.474 2245.6600000000003L288.474 2241.4500000000003C288.474 2240.09 287.352 2238.9700000000003 285.984 2238.9700000000003L285.051 2238.9700000000003C283.68199999999996 2238.9700000000003 282.561 2240.09 282.561 2241.4500000000003L282.561 2245.6600000000003C282.561 2245.84 282.623 2246.03 282.811 2246.15C283.12199999999996 2246.4 283.371 2246.84 283.371 2247.27L283.371 2251.29C283.371 2251.91 282.998 2252.4 282.5 2252.65C282.004 2252.9 279.264 2254.26 276.775 2256.3C276.649 2256.4300000000003 276.525 2256.67 276.525 2256.86L276.525 2259.71C276.525 2260.39 275.90299999999996 2261.01 275.219 2261.01C274.53499999999997 2261.01 273.913 2260.4500000000003 273.913 2259.71L273.913 2256.86C273.913 2255.81 274.34700000000004 2254.88 275.158 2254.26C277.336 2252.53 279.637 2251.23 280.759 2250.61L280.759 2247.82C280.19800000000004 2247.27 279.887 2246.46 279.887 2245.6600000000003L279.887 2241.4500000000003C279.887 2238.6600000000003 282.189 2236.38 284.989 2236.38L285.923 2236.38C288.723 2236.38 291.024 2238.6600000000003 291.024 2241.4500000000003L291.024 2245.6600000000003C291.024 2246.4600000000005 290.713 2247.2700000000004 290.152 2247.82L290.152 2250.61C291.274 2251.17 293.575 2252.4700000000003 295.753 2254.26C296.56399999999996 2254.94 296.998 2255.8700000000003 296.998 2256.86L296.998 2259.71C296.998 2260.39 296.437 2261.01 295.692 2261.01C294.947 2261.01 294.386 2260.4500000000003 294.509 2259.71ZM274.532 2247.58L268.05899999999997 2243.86L261.58599999999996 2247.58C261.33699999999993 2247.7 261.15199999999993 2247.7599999999998 260.90199999999993 2247.7599999999998C260.4649999999999 2247.7599999999998 260.0299999999999 2247.52 259.78099999999995 2247.08C259.40799999999996 2246.46 259.6569999999999 2245.66 260.28 2245.29L266.753 2241.57L266.753 2234.15C266.753 2233.4700000000003 267.31399999999996 2232.85 268.05899999999997 2232.85C268.743 2232.85 269.36499999999995 2233.41 269.36499999999995 2234.15L269.36499999999995 2241.57L275.83799999999997 2245.29C276.46099999999996 2245.66 276.71 2246.46 276.33799999999997 2247.08C276.08799999999997 2247.52 275.65099999999995 2247.7599999999998 275.21599999999995 2247.7599999999998C274.96599999999995 2247.7599999999998 274.7819999999999 2247.7 274.5319999999999 2247.58ZM262.338 2215.08L262.338 2219.2999999999997C262.338 2220.1 262.65000000000003 2220.91 263.21000000000004 2221.4599999999996L263.21000000000004 2224.2499999999995C262.08900000000006 2224.8099999999995 259.78700000000003 2226.0999999999995 257.60900000000004 2227.8999999999996C256.79900000000004 2228.5799999999995 256.36400000000003 2229.5099999999998 256.36400000000003 2230.4999999999995L256.36400000000003 2233.3399999999997C256.36400000000003 2234.0199999999995 256.925 2234.64 257.67100000000005 2234.64C258.35400000000004 2234.64 258.97700000000003 2234.0899999999997 258.97700000000003 2233.3399999999997L258.97700000000003 2230.4999999999995C258.97700000000003 2230.2499999999995 259.038 2230.0599999999995 259.22700000000003 2229.9399999999996C261.716 2227.8999999999996 264.45200000000006 2226.5399999999995 264.95000000000005 2226.2899999999995C265.511 2226.0399999999995 265.82300000000004 2225.4899999999993 265.82300000000004 2224.9299999999994L265.82300000000004 2220.9099999999994C265.82300000000004 2220.4699999999993 265.634 2220.0399999999995 265.26200000000006 2219.7899999999995C265.1360000000001 2219.6599999999994 265.01200000000006 2219.4799999999996 265.01200000000006 2219.2899999999995L265.01200000000006 2215.0799999999995C265.01200000000006 2213.7199999999993 266.13400000000007 2212.6099999999997 267.50100000000003 2212.6099999999997L268.43500000000006 2212.6099999999997C269.80300000000005 2212.6099999999997 270.92400000000004 2213.72 270.92400000000004 2215.0799999999995L270.92400000000004 2219.2899999999995C270.92400000000004 2219.4799999999996 270.86300000000006 2219.6599999999994 270.675 2219.7899999999995C270.36400000000003 2220.0399999999995 270.11400000000003 2220.4699999999993 270.11400000000003 2220.8999999999996L270.11400000000003 2224.93C270.11400000000003 2225.48 270.487 2226.04 270.98600000000005 2226.29C271.482 2226.5299999999997 274.22100000000006 2227.89 276.71000000000004 2229.94C276.836 2230.06 276.96000000000004 2230.25 276.96000000000004 2230.5L276.96000000000004 2233.34C276.96000000000004 2234.02 277.58200000000005 2234.6400000000003 278.266 2234.6400000000003C278.95000000000005 2234.6400000000003 279.572 2234.0800000000004 279.572 2233.34L279.572 2230.5C279.572 2229.44 279.138 2228.52 278.328 2227.9C276.149 2226.1600000000003 273.84799999999996 2224.86 272.727 2224.25L272.727 2221.46C273.287 2220.9 273.599 2220.1 273.599 2219.29L273.599 2215.08C273.599 2212.2999999999997 271.298 2210.0099999999998 268.497 2210.0099999999998L267.564 2210.0099999999998C264.697 2210.0099999999998 262.458 2212.24 262.338 2215.08Z " transform="matrix(1,0,0,1,-239,-2210)"></path></svg>