<svg id="SvgjsSvg1014" xmlns="http://www.w3.org/2000/svg" version="1.1" xmlns:xlink="http://www.w3.org/1999/xlink" xmlns:svgjs="http://svgjs.com/svgjs" width="32" height="21" viewBox="0 0 32 21"><defs id="SvgjsDefs1015"></defs><path id="SvgjsPath1016" d="M390.263 731.001L361.78999999999996 731.001C361.32199999999995 731.001 360.99499999999995 731.361 360.99499999999995 731.762L360.99499999999995 751.227C360.99499999999995 751.675 361.36999999999995 751.9889999999999 361.78999999999996 751.9889999999999L390.21399999999994 751.9889999999999C390.68199999999996 751.9889999999999 391.00899999999996 751.6289999999999 391.00899999999996 751.227L391.00899999999996 731.809C391.05799999999994 731.361 390.68499999999995 731.001 390.263 731.001ZM362.634 750.51L362.634 732.571L389.467 732.571L389.467 750.51ZM370.687 742.169C372.092 742.169 373.217 741.0029999999999 373.217 739.5219999999999L373.217 738.8939999999999C373.217 737.4599999999999 372.092 736.2469999999998 370.687 736.2469999999998C369.283 736.2469999999998 368.158 737.4129999999999 368.158 738.8939999999999L368.158 739.5219999999999C368.207 741.0029999999999 369.329 742.169 370.687 742.169ZM376.495 741.405L386.843 741.405C387.219 741.405 387.545 741.092 387.545 740.732C387.545 740.3729999999999 387.219 740.059 386.843 740.059L376.495 740.059C376.119 740.059 375.79200000000003 740.3729999999999 375.79200000000003 740.732C375.79200000000003 741.092 376.119 741.405 376.495 741.405ZM376.495 738.805L386.843 738.805C387.219 738.805 387.545 738.492 387.545 738.132C387.545 737.7729999999999 387.219 737.4599999999999 386.843 737.4599999999999L376.495 737.4599999999999C376.119 737.4599999999999 375.79200000000003 737.7729999999999 375.79200000000003 738.132C375.79200000000003 738.5369999999999 376.119 738.805 376.495 738.805ZM365.114 746.834L376.26099999999997 746.834C376.35299999999995 746.834 376.448 746.789 376.49499999999995 746.7449999999999C376.54099999999994 746.6559999999998 376.58699999999993 746.5639999999999 376.58699999999993 746.4759999999999L376.2609999999999 744.3689999999999C376.2609999999999 744.3689999999999 376.2609999999999 744.3689999999999 376.2609999999999 744.3249999999999C376.1679999999999 743.876 375.88499999999993 743.564 375.3699999999999 743.2929999999999L373.21699999999987 742.2129999999999C373.0749999999999 742.1689999999999 372.93599999999986 742.1689999999999 372.8409999999999 742.2569999999998C372.41899999999987 742.6179999999998 371.6699999999999 743.1099999999998 370.6869999999999 743.1099999999998C369.70499999999987 743.1099999999998 368.9559999999999 742.6619999999998 368.5339999999999 742.2569999999998C368.44099999999986 742.1689999999999 368.2999999999999 742.1689999999999 368.1579999999999 742.2129999999999L366.0979999999999 743.2459999999999C365.5819999999999 743.5589999999999 365.3019999999999 743.8739999999999 365.2069999999999 744.2779999999999C365.2069999999999 744.2779999999999 365.2069999999999 744.2779999999999 365.2069999999999 744.3229999999999L364.8799999999999 746.4299999999998C364.8799999999999 746.5179999999998 364.8799999999999 746.6089999999998 364.9729999999999 746.6979999999999C364.9289999999999 746.7869999999999 365.0219999999999 746.8339999999998 365.1139999999999 746.8339999999998Z " transform="matrix(1,0,0,1,-360,-731)"></path></svg>