<svg id="SvgjsSvg1023" xmlns="http://www.w3.org/2000/svg" version="1.1" xmlns:xlink="http://www.w3.org/1999/xlink" xmlns:svgjs="http://svgjs.com/svgjs" width="65" height="48" viewBox="0 0 65 48"><defs id="SvgjsDefs1024"></defs><path id="SvgjsPath1025" d="M924.432 2258L868.568 2258C866.049 2258 864 2255.94 864 2253.4L864 2214.6C864 2212.06 866.049 2210 868.568 2210L924.432 2210C926.951 2210 929 2212.06 929 2214.6L929 2253.4C929 2255.94 926.951 2258 924.432 2258ZM868.568 2212.18C867.244 2212.18 866.167 2213.27 866.167 2214.6L866.167 2253.4C866.167 2254.73 867.244 2255.82 868.568 2255.82L924.432 2255.82C925.756 2255.82 926.833 2254.73 926.833 2253.4L926.833 2214.6C926.833 2213.27 925.756 2212.18 924.432 2212.18ZM880.25 2249.27C869.417 2249.27 869.417 2247.22 869.417 2246.35L869.417 2244.9C869.417 2243.19 870.3430000000001 2241.62 871.8340000000001 2240.8L875.917 2238.78L875.917 2238.36C874.153 2237.4 872.913 2235.8 872.22 2233.6C871.171 2233.04 870.5 2231.95 870.5 2230.73L870.5 2229.64C870.5 2228.64 870.959 2227.7 871.729 2227.0899999999997C871.875 2226.0499999999997 872.13 2225.0799999999995 872.489 2224.2C872.649 2223.81 872.7850000000001 2223.5099999999998 872.8960000000001 2223.27C873.19 2222.64 873.19 2222.64 872.98 2221.57C872.89 2221.1200000000003 872.817 2220.6400000000003 872.763 2220.17C872.6940000000001 2219.58 873.013 2219.03 873.5550000000001 2218.81C874.1 2218.58 874.711 2218.74 875.076 2219.21C875.291 2219.4900000000002 875.624 2219.78 876.068 2220.08C877.254 2220.88 878.622 2220.96 879.562 2220.89C879.783 2220.87 880.015 2220.8599999999997 880.25 2220.8599999999997C885.219 2220.8599999999997 888.077 2222.95 888.753 2227.0699999999997C889.534 2227.6899999999996 890 2228.6299999999997 890 2229.64L890 2230.73C890 2231.95 889.329 2233.04 888.28 2233.6C887.587 2235.7999999999997 886.347 2237.4 884.583 2238.36L884.583 2238.79L888.524 2240.81C890.103 2241.61 891.083 2243.21 891.083 2244.99L891.083 2246.35C891.083 2247.22 891.083 2249.27 880.25 2249.27ZM871.583 2246.1C872.149 2246.44 874.447 2247.0899999999997 880.25 2247.0899999999997C886.053 2247.0899999999997 888.351 2246.4399999999996 888.917 2246.1L888.917 2244.99C888.917 2244.04 888.393 2243.1899999999996 887.551 2242.7599999999998C887.548 2242.7599999999998 887.5450000000001 2242.7599999999998 887.542 2242.7599999999998L883.461 2240.66C882.817 2240.33 882.417 2239.67 882.417 2238.94L882.417 2237.68C882.417 2237.25 882.674 2236.85 883.072 2236.68C884.715 2235.97 885.783 2234.6099999999997 886.337 2232.52C886.433 2232.16 886.707 2231.87 887.062 2231.7599999999998C887.516 2231.62 887.833 2231.1899999999996 887.833 2230.7299999999996L887.833 2229.6399999999994C887.833 2229.2399999999993 887.607 2228.8699999999994 887.2439999999999 2228.6799999999994C886.9279999999999 2228.5099999999993 886.7149999999999 2228.1999999999994 886.6729999999999 2227.8399999999992C886.2869999999999 2224.519999999999 884.3059999999999 2223.039999999999 880.2499999999999 2223.039999999999C880.0759999999999 2223.039999999999 879.9039999999999 2223.0499999999993 879.7369999999999 2223.059999999999C878.0749999999998 2223.189999999999 876.5419999999998 2222.879999999999 875.2689999999999 2222.139999999999C875.3609999999999 2222.989999999999 875.2279999999998 2223.399999999999 874.8609999999999 2224.189999999999C874.7609999999999 2224.409999999999 874.6379999999999 2224.669999999999 874.4939999999999 2225.0299999999993C874.1529999999999 2225.859999999999 873.9269999999999 2226.8099999999995 873.8209999999999 2227.8299999999995C873.7839999999999 2228.1899999999996 873.5709999999999 2228.5099999999993 873.252 2228.6799999999994C872.891 2228.8699999999994 872.6669999999999 2229.2399999999993 872.6669999999999 2229.6399999999994L872.6669999999999 2230.7299999999996C872.6669999999999 2231.1899999999996 872.9839999999999 2231.6199999999994 873.4379999999999 2231.7599999999998C873.7929999999999 2231.87 874.0669999999999 2232.16 874.1629999999999 2232.52C874.7169999999999 2234.61 875.7849999999999 2235.97 877.4279999999999 2236.68C877.8259999999999 2236.85 878.0829999999999 2237.25 878.0829999999999 2237.68L878.0829999999999 2238.93C878.0829999999999 2239.6699999999996 877.6739999999999 2240.3399999999997 877.0149999999999 2240.66L872.8309999999999 2242.74C872.0769999999999 2243.1499999999996 871.5829999999999 2243.99 871.5829999999999 2244.8999999999996ZM920.333 2232.91L896.5 2232.91C895.902 2232.91 895.417 2232.42 895.417 2231.8199999999997C895.417 2231.22 895.902 2230.7299999999996 896.5 2230.7299999999996L920.333 2230.7299999999996C920.932 2230.7299999999996 921.4169999999999 2231.2199999999993 921.4169999999999 2231.8199999999997C921.4169999999999 2232.4199999999996 920.9319999999999 2232.91 920.333 2232.91ZM907.333 2226.36L896.5 2226.36C895.902 2226.36 895.417 2225.88 895.417 2225.27C895.417 2224.67 895.902 2224.18 896.5 2224.18L907.333 2224.18C907.932 2224.18 908.4169999999999 2224.6699999999996 908.4169999999999 2225.27C908.4169999999999 2225.88 907.9319999999999 2226.36 907.333 2226.36ZM904.083 2244.91L901.9169999999999 2244.91C901.3179999999999 2244.91 900.833 2244.42 900.833 2243.8199999999997C900.833 2243.22 901.318 2242.7299999999996 901.9169999999999 2242.7299999999996L904.083 2242.7299999999996C904.682 2242.7299999999996 905.1669999999999 2243.2199999999993 905.1669999999999 2243.8199999999997C905.1669999999999 2244.4199999999996 904.6819999999999 2244.91 904.083 2244.91ZM916 2244.91L913.833 2244.91C913.235 2244.91 912.75 2244.42 912.75 2243.8199999999997C912.75 2243.22 913.235 2242.7299999999996 913.833 2242.7299999999996L916 2242.7299999999996C916.598 2242.7299999999996 917.083 2243.2199999999993 917.083 2243.8199999999997C917.083 2244.4199999999996 916.598 2244.91 916 2244.91ZM912.75 2226.36L911.667 2226.36C911.068 2226.36 910.5830000000001 2225.88 910.5830000000001 2225.27C910.5830000000001 2224.67 911.0680000000001 2224.18 911.667 2224.18L912.75 2224.18C913.348 2224.18 913.833 2224.6699999999996 913.833 2225.27C913.833 2225.88 913.348 2226.36 912.75 2226.36ZM897.583 2244.91L896.5 2244.91C895.902 2244.91 895.417 2244.42 895.417 2243.8199999999997C895.417 2243.22 895.902 2242.7299999999996 896.5 2242.7299999999996L897.583 2242.7299999999996C898.182 2242.7299999999996 898.6669999999999 2243.2199999999993 898.6669999999999 2243.8199999999997C898.6669999999999 2244.4199999999996 898.1819999999999 2244.91 897.583 2244.91ZM909.5 2244.91L908.417 2244.91C907.818 2244.91 907.3330000000001 2244.42 907.3330000000001 2243.8199999999997C907.3330000000001 2243.22 907.8180000000001 2242.7299999999996 908.417 2242.7299999999996L909.5 2242.7299999999996C910.098 2242.7299999999996 910.583 2243.2199999999993 910.583 2243.8199999999997C910.583 2244.4199999999996 910.098 2244.91 909.5 2244.91ZM920.333 2239.45L896.5 2239.45C895.902 2239.45 895.417 2238.97 895.417 2238.3599999999997C895.417 2237.7599999999998 895.902 2237.2699999999995 896.5 2237.2699999999995L920.333 2237.2699999999995C920.932 2237.2699999999995 921.4169999999999 2237.7599999999993 921.4169999999999 2238.3599999999997C921.4169999999999 2238.97 920.9319999999999 2239.45 920.333 2239.45Z " transform="matrix(1,0,0,1,-864,-2210)"></path></svg>