<svg id="SvgjsSvg1023" xmlns="http://www.w3.org/2000/svg" version="1.1" xmlns:xlink="http://www.w3.org/1999/xlink" xmlns:svgjs="http://svgjs.com/svgjs" width="31" height="30"><defs id="SvgjsDefs1024"></defs><path id="SvgjsPath1025" d="M459 594L459 624L428.757 624L428.757 594ZM447.952 600.86C446.89 600.813 446.57 600.803 443.878 600.803C441.187 600.803 440.868 600.813 439.804 600.861C437.07 600.984 435.79699999999997 602.27 435.673 604.96C435.625 606.014 435.613 606.33 435.613 609C435.613 611.67 435.625 611.986 435.674 613.043C435.79699999999997 615.726 437.066 617.017 439.806 617.141C440.86699999999996 617.189 441.18699999999995 617.199 443.878 617.199C446.57099999999997 617.199 446.89 617.188 447.954 617.14C450.688 617.0169999999999 451.96000000000004 615.729 452.086 613.0409999999999C452.134 611.986 452.144 611.67 452.144 608.9999999999999C452.144 606.3299999999999 452.134 606.0139999999999 452.086 604.9599999999999C451.96000000000004 602.2699999999999 450.684 600.9839999999999 447.952 600.8599999999999ZM443.878 614.135C441.02 614.135 438.702 611.836 438.702 609C438.702 606.164 441.019 603.865 443.878 603.865C446.736 603.865 449.055 606.164 449.055 609C449.055 611.836 446.738 614.135 443.878 614.135ZM443.878 605.666C442.022 605.666 440.518 607.1590000000001 440.518 609C440.518 610.843 442.022 612.334 443.878 612.334C445.735 612.334 447.239 610.8409999999999 447.239 609C447.239 607.159 445.73499999999996 605.666 443.878 605.666ZM449.259 604.862C448.591 604.862 448.04900000000004 604.3249999999999 448.04900000000004 603.6619999999999C448.04900000000004 602.9999999999999 448.591 602.463 449.259 602.463C449.927 602.463 450.469 603 450.469 603.6619999999999C450.469 604.3249999999999 449.928 604.862 449.259 604.862ZM453.959 609C453.959 606.285 453.948 605.944 453.899 604.878C453.734 601.25 451.7 599.2280000000001 448.036 599.061C446.959 599.0110000000001 446.617 599 443.878 599C441.14 599 440.799 599.011 439.723 599.06C436.06100000000004 599.226 434.027 601.241 433.858 604.876C433.809 605.944 433.797 606.285 433.797 609C433.797 611.716 433.809 612.056 433.858 613.122C434.027 616.755 436.058 618.774 439.723 618.9399999999999C440.79900000000004 618.9889999999999 441.14 618.9999999999999 443.878 618.9999999999999C446.61699999999996 618.9999999999999 446.959 618.9889999999999 448.036 618.9399999999999C451.692 618.7739999999999 453.734 616.7589999999999 453.899 613.122C453.948 612.0559999999999 453.959 611.716 453.959 609Z " transform="matrix(1,0,0,1,-428,-594)"></path></svg>