<svg id="SvgjsSvg1014" xmlns="http://www.w3.org/2000/svg" version="1.1" xmlns:xlink="http://www.w3.org/1999/xlink" xmlns:svgjs="http://svgjs.com/svgjs" width="31" height="30"><defs id="SvgjsDefs1015"></defs><path id="SvgjsPath1016" d="M266.564 594L266.564 624L296.807 624L296.807 594ZM276.645 617.75L272.864 617.75L272.864 604L276.645 604ZM274.754 602.415C273.53700000000003 602.415 272.54900000000004 601.4269999999999 272.54900000000004 600.2099999999999C272.54900000000004 598.9929999999999 273.53700000000003 598.0049999999999 274.754 598.0049999999999C275.97200000000004 598.0049999999999 276.96000000000004 598.9929999999999 276.96000000000004 600.2099999999999C276.96000000000004 601.4269999999999 275.973 602.415 274.754 602.415ZM291.766 617.75L287.98600000000005 617.75L287.98600000000005 610.745C287.98600000000005 606.535 282.94500000000005 606.854 282.94500000000005 610.745L282.94500000000005 617.75L279.1650000000001 617.75L279.1650000000001 604L282.94500000000005 604L282.94500000000005 606.206C284.7060000000001 602.974 291.7660000000001 602.735 291.7660000000001 609.301Z " transform="matrix(1,0,0,1,-266,-594)"></path></svg>