<svg id="SvgjsSvg1000" xmlns="http://www.w3.org/2000/svg" version="1.1" xmlns:xlink="http://www.w3.org/1999/xlink" xmlns:svgjs="http://svgjs.com/svgjs" width="52" height="60" viewBox="0 0 52 60"><defs id="SvgjsDefs1001"></defs><path id="SvgjsPath1007" d="M272 1568.92C270.42145 1568.92 268.88527 1568.73548 267.412 1568.3869100000002L267.412 1570.4600000000003C270.45099999999996 1571.1100000000004 273.549 1571.1100000000004 276.58799999999997 1570.4600000000003L276.58799999999997 1568.3869100000002C275.11472999999995 1568.7354800000003 273.57854999999995 1568.92 271.99999999999994 1568.92ZM267.412 1572.53531L267.412 1572.66C267.412 1573.4 266.80699999999996 1574 266.06399999999996 1574L258.24999999999994 1574C256.55499999999995 1574 255.17699999999994 1572.63 255.17699999999994 1570.93L255.17699999999994 1566.22163C249.33930999999993 1560.78939 245.99999999999994 1552.90967 245.99999999999994 1544.51C245.99999999999994 1539.99381 246.94027999999994 1535.67829 248.79373999999996 1531.66618L248.30399999999995 1528.12L250.38354999999996 1528.31935L250.38799999999995 1528.31L250.38938999999993 1528.31991L250.60077999999993 1528.34017C253.39396999999994 1524.00161 257.47597999999994 1521.25503 263.04689999999994 1519.97216C264.5023999999999 1516.4685200000001 267.96728999999993 1513.99999 271.99999999999994 1513.99999C276.03270999999995 1513.99999 279.49760999999995 1516.46851 280.95309999999995 1519.97216C286.52404999999993 1521.25504 290.60606999999993 1524.00164 293.39925999999997 1528.34023L293.6106 1528.31996L293.61199999999997 1528.30999L293.61657999999994 1528.3193899999999L295.69599999999997 1528.11999L295.20626 1531.66617C297.05973 1535.6782699999999 298 1539.9938 298 1544.50999C298 1552.90918 294.66107 1560.78848 288.824 1566.22069L288.824 1570.74999C288.824 1572.53999 287.36400000000003 1573.99999 285.57 1573.99999L277.923 1573.99999C277.187 1573.99999 276.588 1573.3999900000001 276.588 1572.66999L276.588 1572.5353C275.06701000000004 1572.83335 273.52892 1572.97999 272 1572.97999C270.47108 1572.97999 268.93299 1572.83335 267.412 1572.5353ZM252.118 1549.08C252.118 1546.57146 252.5878 1544.16986 253.4443 1541.95823L253.014 1540.81C252.60600000000002 1539.72 251.959 1538.8899999999999 251.275 1538C250.638 1537.17 249.98600000000002 1536.33 249.54 1535.28C249.5399 1535.28029 249.53981 1535.28057 249.53970999999999 1535.28086C248.54289999999997 1538.2206 248.039 1541.31031 248.039 1544.51C248.039 1551.65 250.61499999999998 1558.3799999999999 255.177 1563.33L255.177 1559.64428C253.2399 1556.58349 252.118 1552.96005 252.118 1549.08ZM252.90291 1528.59327C255.73049999999998 1529.0546100000001 257.97841 1530.2698 260.34499999999997 1531.5500000000002C260.7478 1531.7686800000001 261.15407999999996 1531.98736 261.56735999999995 1532.2060500000002C264.60188999999997 1530.3324900000002 268.17663999999996 1529.2500000000002 271.99999999999994 1529.2500000000002C275.82347999999996 1529.2500000000002 279.39833999999996 1530.3325500000003 282.43292999999994 1532.2062200000003C282.84660999999994 1531.9874800000002 283.2527999999999 1531.7687400000002 283.6549999999999 1531.5500000000002C286.0217699999999 1530.26969 288.27066999999994 1529.0544100000002 291.0979999999999 1528.5931600000001C288.8220299999999 1525.4777900000001 285.6867099999999 1523.3803200000002 281.5803799999999 1522.2309500000001C281.6499499999999 1522.6973300000002 281.68599999999986 1523.17452 281.68599999999986 1523.66C281.68599999999986 1524.54006 281.56208999999984 1525.4144700000002 281.3163999999999 1526.27045C282.21098999999987 1526.82979 283.0249899999999 1527.46899 283.7359999999999 1528.18C284.1339999999999 1528.5700000000002 284.1339999999999 1529.22 283.7359999999999 1529.6100000000001C283.53699999999986 1529.8100000000002 283.2759999999999 1529.91 283.0149999999999 1529.91C282.75399999999985 1529.91 282.4929999999999 1529.8100000000002 282.29399999999987 1529.6100000000001C281.6624599999999 1528.9825 280.93404999999984 1528.41839 280.12980999999985 1527.92575L279.5889999999998 1527.63C277.65099999999984 1526.5600000000002 275.3799999999998 1525.89 273.02299999999985 1525.7C273.01290999999986 1525.69893 273.0028199999999 1525.69787 272.9927299999999 1525.69683C272.5208499999999 1525.65919 272.0443099999999 1525.64 271.5649999999999 1525.64C271.5599999999999 1525.64 271.5549999999999 1525.64 271.54899999999986 1525.64C271.42899999999986 1525.64 271.30939999999987 1525.64117 271.19020999999987 1525.64351C271.0481599999999 1525.64985 270.90609999999987 1525.65868 270.76399999999984 1525.67C269.0149999999998 1525.75 267.4039999999998 1526.0600000000002 265.94199999999984 1526.6000000000001C265.4189999999998 1526.7900000000002 264.88899999999984 1527.0300000000002 264.27599999999984 1527.3500000000001L263.7354399999998 1527.62721C262.8222999999998 1528.16171 261.9908499999998 1528.79832 261.2579999999998 1529.5300000000002C260.8599999999998 1529.9300000000003 260.2139999999998 1529.9300000000003 259.8159999999998 1529.5400000000002C259.4169999999998 1529.14 259.4159999999998 1528.4900000000002 259.8129999999998 1528.1000000000001C260.6409999999998 1527.2720000000002 261.5738299999998 1526.5498900000002 262.5934599999998 1525.9409500000002C262.4075399999998 1525.1909600000001 262.31399999999985 1524.42548 262.31399999999985 1523.66C262.31399999999985 1523.17451 262.35004999999984 1522.69732 262.41961999999984 1522.2309500000001C258.31323999999984 1523.3803300000002 255.17689999999985 1525.47784 252.90291999999982 1528.59327ZM293.52395 1536.92803C293.26617 1537.29767 292.99434 1537.6504 292.725 1538C292.041 1538.89 291.394 1539.72 290.98600000000005 1540.81L290.55570000000006 1541.95823C291.41219000000007 1544.16985 291.88200000000006 1546.57146 291.88200000000006 1549.08C291.88200000000006 1552.95938 290.7604800000001 1556.58224 288.82400000000007 1559.6426999999999L288.82400000000007 1563.33C293.38500000000005 1558.3799999999999 295.96100000000007 1551.6499999999999 295.96100000000007 1544.51C295.96100000000007 1541.31 295.45700000000005 1538.22 294.4600000000001 1535.29C294.2024800000001 1535.8905 293.87628000000007 1536.4243099999999 293.52395000000007 1536.92803ZM272 1531.29C268.38384 1531.29 265.01554 1532.36795 262.2014 1534.21851C260.05008999999995 1535.6332 258.22263 1537.49941 256.85582999999997 1539.6807299999998C256.32698999999997 1540.5282499999998 255.86784999999998 1541.4235599999997 255.48399999999998 1542.36L255.31427999999997 1542.7748399999998C254.56655999999998 1544.7354599999999 254.15699999999998 1546.8609099999999 254.15699999999998 1549.0799999999997C254.15699999999998 1552.4950099999996 255.12498 1555.6874899999998 256.80149 1558.3992199999998C259.94586 1563.4851799999997 265.58261 1566.8799999999999 272 1566.8799999999999C278.41577 1566.8799999999999 284.05129 1563.48689 287.19613 1558.4030599999999C288.8741 1555.69051 289.84299999999996 1552.49662 289.84299999999996 1549.08C289.84299999999996 1546.8609099999999 289.43343999999996 1544.7354699999999 288.68571999999995 1542.77484L288.51599999999996 1542.3600000000001C288.13214999999997 1541.4235600000002 287.67301 1540.52825 287.14417 1539.68073C285.77738 1537.4994100000001 283.94991 1535.6332 281.79859999999996 1534.2185100000002C278.98445 1532.36794 275.61616 1531.2900000000002 271.99999999999994 1531.2900000000002ZM272.51 1564.85C267.45 1564.85 263.33299999999997 1560.74 263.33299999999997 1555.6899999999998C263.33299999999997 1550.6499999999999 267.45 1546.5399999999997 272.51 1546.5399999999997C277.569 1546.5399999999997 281.686 1550.6499999999996 281.686 1555.6899999999998C281.686 1560.7399999999998 277.56899999999996 1564.85 272.51 1564.85ZM272.51 1548.58C268.574 1548.58 265.373 1551.77 265.373 1555.6899999999998C265.373 1559.62 268.574 1562.8099999999997 272.51 1562.8099999999997C276.445 1562.8099999999997 279.647 1559.6199999999997 279.647 1555.6899999999998C279.647 1551.7699999999998 276.445 1548.58 272.51 1548.58ZM272.77786 1523.63662C272.91152 1523.64689 273.04481999999996 1523.65964 273.17755 1523.67527C273.30015 1523.6852099999999 273.4225 1523.69627 273.54456 1523.7084499999999C274.38998 1523.78948 275.2276 1523.9286699999998 276.04708 1524.1219399999998C277.2449 1524.4009399999998 278.39387 1524.7898499999997 279.4656 1525.2784599999998C279.58588 1524.7423099999999 279.647 1524.2060799999997 279.647 1523.6599999999999C279.647 1522.83 279.505 1521.9899999999998 279.224 1521.1799999999998L279.12109 1520.8814499999999C278.00471999999996 1518.0469699999999 275.23375 1516.0299999999997 272 1516.0299999999997C268.77358 1516.0299999999997 266.0069 1518.0387899999998 264.88587 1520.8641799999998L264.777 1521.1799999999998C264.495 1521.9899999999998 264.353 1522.83 264.353 1523.6599999999999C264.353 1524.1092299999998 264.39386 1524.5484999999999 264.47359 1524.9877499999998C266.42086 1524.1607499999998 268.60056 1523.6918199999998 270.91679 1523.6197799999998C271.53159 1523.5822099999998 272.15876 1523.5865899999997 272.77786 1523.6366199999998ZM257.216 1570.93C257.216 1571.5 257.68 1571.97 258.25 1571.97L265.373 1571.97L265.373 1567.79C262.243 1566.68 259.436 1564.8 257.216 1562.33ZM285.57 1571.97C286.24 1571.97 286.784 1571.42 286.784 1570.75L286.784 1562.33C284.56399999999996 1564.8 281.757 1566.6799999999998 278.627 1567.79L278.627 1571.97ZM269.961 1556.71C269.12 1556.71 268.43100000000004 1556.03 268.43100000000004 1555.19C268.43100000000004 1554.3500000000001 269.12000000000006 1553.66 269.961 1553.66C270.802 1553.66 271.49 1554.3500000000001 271.49 1555.19C271.49 1556.03 270.802 1556.71 269.961 1556.71C269.12 1556.71 269.961 1556.71 269.961 1556.71ZM275.059 1556.71C274.218 1556.71 273.52900000000005 1556.03 273.52900000000005 1555.19C273.52900000000005 1554.3500000000001 274.2180000000001 1553.66 275.059 1553.66C275.90000000000003 1553.66 276.588 1554.3500000000001 276.588 1555.19C276.588 1556.03 275.90000000000003 1556.71 275.059 1556.71C274.218 1556.71 275.059 1556.71 275.059 1556.71ZM278.118 1543.49C277.277 1543.49 276.588 1542.8 276.588 1541.97C276.588 1541.13 277.27700000000004 1540.44 278.118 1540.44C278.959 1540.44 279.647 1541.13 279.647 1541.97C279.647 1542.8 278.959 1543.49 278.118 1543.49C277.277 1543.49 278.118 1543.49 278.118 1543.49ZM266.902 1543.49C266.061 1543.49 265.373 1542.8 265.373 1541.97C265.373 1541.13 266.061 1540.44 266.902 1540.44C267.743 1540.44 268.431 1541.13 268.431 1541.97C268.431 1542.8 267.743 1543.49 266.902 1543.49C266.061 1543.49 266.902 1543.49 266.902 1543.49Z " transform="matrix(1,0,0,1,-246,-1514)"></path></svg>