<svg id="SvgjsSvg1008" xmlns="http://www.w3.org/2000/svg" version="1.1" xmlns:xlink="http://www.w3.org/1999/xlink" xmlns:svgjs="http://svgjs.com/svgjs" width="61" height="45"><defs id="SvgjsDefs1009"></defs><path id="SvgjsPath1010" d="M2645.74 480.015C2635.5099999999998 485.727 2626.7 498.937 2626.7 511.66999999999996C2626.7 516.549 2629.7999999999997 524.5219999999999 2639.4399999999996 524.5219999999999C2647.2899999999995 524.5219999999999 2652.0499999999997 519.6429999999999 2652.0499999999997 512.8599999999999C2652.0499999999997 507.7429999999999 2648.6 502.3879999999999 2641.58 502.3879999999999C2641.94 497.2709999999999 2647.0499999999997 490.72599999999994 2651.5699999999997 487.3929999999999ZM2617.3 487.393C2612.78 490.726 2607.6600000000003 497.27099999999996 2607.3100000000004 502.388C2614.3300000000004 502.388 2617.78 507.743 2617.78 512.86C2617.78 519.643 2613.02 524.522 2605.1600000000003 524.522C2595.5200000000004 524.522 2592.4300000000003 516.5490000000001 2592.4300000000003 511.6700000000001C2592.4300000000003 498.93700000000007 2601.2400000000002 485.7270000000001 2611.4700000000003 480.0150000000001Z " transform="matrix(1,0,0,1,-2592,-480)"></path></svg>