<svg id="SvgjsSvg1029" xmlns="http://www.w3.org/2000/svg" version="1.1" xmlns:xlink="http://www.w3.org/1999/xlink" xmlns:svgjs="http://svgjs.com/svgjs" width="52" height="52" viewBox="0 0 52 52"><defs id="SvgjsDefs1030"></defs><path id="SvgjsPath1031" d="M872 2492L872 2440L924 2440L924 2492ZM890.571 2441.86L890.571 2490.1400000000003L905.429 2490.1400000000003L905.429 2441.86ZM873.857 2490.14L888.7139999999999 2490.14L888.7139999999999 2441.8599999999997L873.857 2441.8599999999997ZM922.143 2490.14L922.143 2441.8599999999997L907.2860000000001 2441.8599999999997L907.2860000000001 2490.14ZM886.857 2464.14L875.7139999999999 2464.14L875.7139999999999 2443.71L886.857 2443.71ZM920.286 2464.14L909.1429999999999 2464.14L909.1429999999999 2443.71L920.286 2443.71ZM903.571 2464.14L892.429 2464.14L892.429 2443.71L903.571 2443.71ZM881.286 2487.36C878.2139999999999 2487.36 875.7139999999999 2484.86 875.7139999999999 2481.79C875.7139999999999 2478.71 878.2139999999999 2476.21 881.286 2476.21C884.358 2476.21 886.857 2478.71 886.857 2481.79C886.857 2484.86 884.358 2487.36 881.286 2487.36ZM898 2487.36C894.928 2487.36 892.429 2484.86 892.429 2481.79C892.429 2478.71 894.928 2476.21 898 2476.21C901.072 2476.21 903.571 2478.71 903.571 2481.79C903.571 2484.86 901.072 2487.36 898 2487.36ZM877.571 2462.29L885 2462.29L885 2445.57L877.571 2445.57ZM911 2462.29L918.429 2462.29L918.429 2445.57L911 2445.57ZM894.286 2462.29L901.7139999999999 2462.29L901.7139999999999 2445.57L894.286 2445.57ZM881.286 2478.07C879.2379999999999 2478.07 877.5709999999999 2479.7400000000002 877.5709999999999 2481.79C877.5709999999999 2483.83 879.2379999999999 2485.5 881.286 2485.5C883.334 2485.5 885 2483.83 885 2481.79C885 2479.74 883.334 2478.07 881.286 2478.07ZM898 2478.07C895.952 2478.07 894.286 2479.7400000000002 894.286 2481.79C894.286 2483.83 895.952 2485.5 898 2485.5C900.048 2485.5 901.714 2483.83 901.714 2481.79C901.714 2479.74 900.048 2478.07 898 2478.07ZM914.714 2487.36C911.642 2487.36 909.143 2484.86 909.143 2481.79C909.143 2478.71 911.642 2476.21 914.714 2476.21C917.787 2476.21 920.2860000000001 2478.71 920.2860000000001 2481.79C920.2860000000001 2484.86 917.787 2487.36 914.714 2487.36ZM914.714 2478.07C912.666 2478.07 911 2479.7400000000002 911 2481.79C911 2483.83 912.666 2485.5 914.714 2485.5C916.7620000000001 2485.5 918.4290000000001 2483.83 918.4290000000001 2481.79C918.4290000000001 2479.74 916.7620000000001 2478.07 914.714 2478.07Z " transform="matrix(1,0,0,1,-872,-2440)"></path></svg>