<svg id="SvgjsSvg1000" xmlns="http://www.w3.org/2000/svg" version="1.1" xmlns:xlink="http://www.w3.org/1999/xlink" xmlns:svgjs="http://svgjs.com/svgjs" width="41" height="26" viewBox="0 0 41 26"><defs id="SvgjsDefs1001"></defs><path id="SvgjsPath1007" d="M373.279 1275.42C373.279 1275.42 372.65999999999997 1276.4 370.883 1276.8400000000001C369.104 1277.2800000000002 368.118 1276.7 368.118 1276.7C368.118 1276.7 368.206 1277.07 368.25 1277.26C368.878 1279.91 371.435 1279.17 371.435 1279.17C371.435 1279.17 374.037 1278.63 373.41 1275.98C373.374 1275.82 373.27900000000005 1275.42 373.27900000000005 1275.42ZM368.541 1272.8C368.249 1271.55 366.448 1272.05 366.448 1272.05C366.448 1272.05 364.626 1272.46 364.919 1273.71C364.936 1273.78 364.98199999999997 1273.97 364.98199999999997 1273.97C364.98199999999997 1273.97 365.46 1273.46 366.707 1273.15C367.956 1272.8300000000002 368.604 1273.0600000000002 368.604 1273.0600000000002C368.604 1273.0600000000002 368.56 1272.89 368.541 1272.8000000000002ZM374.793 1271.23C374.5 1269.99 372.7 1270.48 372.7 1270.48C372.7 1270.48 370.878 1270.89 371.171 1272.14C371.188 1272.21 371.233 1272.4 371.233 1272.4C371.233 1272.4 371.71 1271.9 372.959 1271.5800000000002C374.208 1271.2700000000002 374.856 1271.5000000000002 374.856 1271.5000000000002C374.856 1271.5000000000002 374.814 1271.3200000000002 374.793 1271.2300000000002ZM395.999 1278.54C395.999 1278.54 393.40900000000005 1278.1399999999999 392.504 1277.87C391.598 1277.6 393.731 1275.76 392.504 1275.33C391.447 1274.97 390.288 1275.1399999999999 389.332 1275.4399999999998C389.576 1274.1399999999999 389.827 1272.82 389.977 1272.0299999999997L390.21 1270.7799999999997L389.137 1271.4099999999999C389.128 1271.4099999999999 388.81 1271.59 388.184 1271.7699999999998C386.761 1271.6599999999999 384.487 1271.5199999999998 381.95500000000004 1271.0999999999997C380.237 1270.8099999999997 378.67900000000003 1270.4299999999996 377.41700000000003 1270.1099999999997C377.06100000000004 1268.3999999999996 376.47600000000006 1265.5799999999997 376.20000000000005 1264.2499999999998L375.94100000000003 1263.0099999999998L375.19100000000003 1264.0199999999998C375.18500000000006 1264.0199999999998 374.96200000000005 1264.3099999999997 374.456 1264.7399999999998C373.10200000000003 1265.2099999999998 370.959 1266.0099999999998 368.47 1266.6399999999999C366.086 1267.2499999999998 363.91 1267.57 362.49100000000004 1267.8C361.754 1267.6599999999999 361.37300000000005 1267.48 361.36400000000003 1267.48L360.23800000000006 1266.91L360.56600000000003 1268.16C361.18500000000006 1270.52 362.37300000000005 1275.0400000000002 362.43800000000005 1275.3100000000002C362.47 1275.4500000000003 362.50800000000004 1275.5900000000001 362.5450000000001 1275.7200000000003C361.82400000000007 1275.4400000000003 360.7510000000001 1275.2300000000002 359.48800000000006 1275.6700000000003C358.26000000000005 1276.0900000000004 360.39300000000003 1277.9400000000003 359.48800000000006 1278.2000000000003C358.58500000000004 1278.4700000000003 355.99600000000004 1278.8700000000003 355.99600000000004 1278.8700000000003L358.32500000000005 1279.6800000000003L356.64300000000003 1281.2800000000002L360.785 1280.4800000000002C360.785 1280.4800000000002 362.74600000000004 1280.0000000000002 362.08000000000004 1278.6100000000004C361.22100000000006 1276.8100000000004 362.73300000000006 1277.7700000000004 363.69500000000005 1278.3200000000004C365.898 1281.8900000000003 369.98600000000005 1283.8400000000004 372.39500000000004 1283.2400000000005L372.41600000000005 1283.2400000000005C372.89400000000006 1283.1100000000004 373.38700000000006 1282.8700000000006 373.87300000000005 1282.5200000000004C375.09000000000003 1285.4400000000005 377.34600000000006 1287.6200000000003 379.25200000000007 1287.9500000000005L379.2730000000001 1287.9600000000005C382.32200000000006 1288.4700000000005 387.7190000000001 1284.8000000000004 388.61000000000007 1279.3000000000004C388.6240000000001 1279.2200000000005 388.74700000000007 1278.5600000000004 388.9170000000001 1277.6500000000003C389.8210000000001 1277.2000000000003 390.66300000000007 1276.8500000000004 389.9160000000001 1278.2700000000002C389.0980000000001 1279.8200000000002 391.2080000000001 1280.14 391.2080000000001 1280.14L395.35100000000006 1280.94L393.66800000000006 1279.3400000000001ZM372.142 1282.1L372.279 1282.6699999999998L372.13 1282.1C369.891 1282.6599999999999 364.727 1280.06 363.548 1275.04C363.483 1274.76 362.447 1270.82 361.941 1268.8899999999999C363.19 1269.1899999999998 365.53 1269.4399999999998 368.947 1268.59L369.04200000000003 1268.56C372.401 1267.7 374.338 1266.3899999999999 375.309 1265.54C375.718 1267.51 376.552 1271.53 376.608 1271.77C377.781 1276.78 374.368 1281.53 372.142 1282.1ZM382.638 1283.67C382.61199999999997 1283.8300000000002 382.549 1284.23 382.549 1284.23C382.549 1284.23 381.85699999999997 1283.31 380.04999999999995 1283.02C378.24299999999994 1282.73 377.30499999999995 1283.3799999999999 377.30499999999995 1283.3799999999999C377.30499999999995 1283.3799999999999 377.36499999999995 1283.01 377.39399999999995 1282.82C377.81299999999993 1280.12 380.41999999999996 1280.6399999999999 380.41999999999996 1280.6399999999999C380.41999999999996 1280.6399999999999 383.054 1280.9699999999998 382.638 1283.6699999999998ZM386.184 1276.89C385.988 1278.16 384.156 1277.8100000000002 384.156 1277.8100000000002C384.156 1277.8100000000002 382.309 1277.5600000000002 382.503 1276.2900000000002C382.515 1276.2200000000003 382.54499999999996 1276.0200000000002 382.54499999999996 1276.0200000000002C382.54499999999996 1276.0200000000002 383.05899999999997 1276.4900000000002 384.32899999999995 1276.7000000000003C385.59599999999995 1276.9000000000003 386.22599999999994 1276.6300000000003 386.22599999999994 1276.6300000000003C386.22599999999994 1276.6300000000003 386.19699999999995 1276.8000000000004 386.18399999999997 1276.8900000000003ZM379.868 1275.59C379.868 1275.59 379.841 1275.76 379.828 1275.85C379.633 1277.12 377.79999999999995 1276.77 377.79999999999995 1276.77C377.79999999999995 1276.77 377.71399999999994 1276.76 377.58199999999994 1276.73C377.67799999999994 1276.3700000000001 377.7579999999999 1276 377.8209999999999 1275.6200000000001C377.8719999999999 1275.63 377.9179999999999 1275.65 377.9709999999999 1275.66C379.23899999999986 1275.8600000000001 379.8679999999999 1275.5900000000001 379.8679999999999 1275.5900000000001Z " transform="matrix(1,0,0,1,-355,-1263)"></path></svg>