<svg id="SvgjsSvg1011" xmlns="http://www.w3.org/2000/svg" version="1.1" xmlns:xlink="http://www.w3.org/1999/xlink" xmlns:svgjs="http://svgjs.com/svgjs" width="32" height="30" viewBox="0 0 32 30"><defs id="SvgjsDefs1012"></defs><path id="SvgjsPath1013" d="M212.79 594L212.79 624L243.033 624L243.033 594ZM236.558 605.546C236.82 611.3180000000001 232.482 617.753 224.801 617.753C222.46499999999997 617.753 220.291 617.0740000000001 218.45999999999998 615.909C220.65499999999997 616.165 222.84499999999997 615.561 224.58399999999997 614.21C222.77399999999997 614.176 221.24599999999998 612.99 220.72099999999998 611.36C221.36999999999998 611.482 222.00699999999998 611.446 222.58799999999997 611.29C220.59899999999996 610.894 219.22599999999997 609.116 219.27099999999996 607.2149999999999C219.82699999999997 607.5219999999999 220.46599999999995 607.7069999999999 221.14299999999997 607.7289999999999C219.30199999999996 606.507 218.77999999999997 604.0949999999999 219.86299999999997 602.2499999999999C221.90299999999996 604.7319999999999 224.95099999999996 606.3659999999999 228.38899999999998 606.5379999999999C227.78499999999997 603.9709999999999 229.748 601.4999999999999 232.41899999999998 601.4999999999999C233.60799999999998 601.4999999999999 234.683 601.9979999999999 235.438 602.7959999999999C236.38 602.612 237.266 602.271 238.065 601.8009999999999C237.757 602.7599999999999 237.1 603.564 236.24699999999999 604.0709999999999C237.08399999999997 603.9709999999999 237.88099999999997 603.7509999999999 238.62199999999999 603.425C238.06799999999998 604.245 237.36599999999999 604.967 236.558 605.5459999999999Z " transform="matrix(1,0,0,1,-212,-594)"></path></svg>