<svg id="SvgjsSvg1017" xmlns="http://www.w3.org/2000/svg" version="1.1" xmlns:xlink="http://www.w3.org/1999/xlink" xmlns:svgjs="http://svgjs.com/svgjs" width="31" height="30" viewBox="0 0 31 30"><defs id="SvgjsDefs1018"></defs><path id="SvgjsPath1019" d="M321.194 594L321.194 624L351.437 624L351.437 594ZM333.795 605.666L340.51500000000004 608.994L333.795 612.3340000000001ZM342.711 616.346C339.683 616.551 332.94 616.55 329.91700000000003 616.346C326.641 616.125 326.259 614.154 326.23400000000004 609C326.259 603.838 326.64500000000004 601.875 329.91900000000004 601.654C332.94200000000006 601.45 339.68500000000006 601.449 342.713 601.654C345.98900000000003 601.875 346.37100000000004 603.846 346.396 609C346.37100000000004 614.163 345.985 616.125 342.711 616.346Z " transform="matrix(1,0,0,1,-321,-594)"></path></svg>