<svg role="presentation" id="SvgjsSvg1017" xmlns="http://www.w3.org/2000/svg" version="1.1" xmlns:xlink="http://www.w3.org/1999/xlink" xmlns:svgjs="http://svgjs.com/svgjs" width="21" height="20" viewBox="0 0 21 20"><defs id="SvgjsDefs1018"></defs><path id="SvgjsPath1019" d="M289.47 70.2937C289.47 68.7988 288.24800000000005 67.5875 286.74 67.5875C285.231 67.5875 284.008 68.7988 284.008 70.2937C284.008 71.7887 285.231 73 286.74 73C288.248 73 289.47 71.7887 289.47 70.2937ZM297.315 73C297.262 65.7413 291.334 59.8688 284.008 59.8175V63.8262C289.091 63.8775 293.216 67.9638 293.267 73ZM300.123 73C300.097 64.1713 292.895 57.0488 284.008 57.01V53C295.135 53.0388 304.145 61.9737 304.16999999999996 73Z " fill-opacity="1" transform="matrix(1,0,0,1,-284,-53)"></path></svg>