<svg aria-hidden="true" id="SvgjsSvg1047" xmlns="http://www.w3.org/2000/svg" version="1.1" xmlns:xlink="http://www.w3.org/1999/xlink" xmlns:svgjs="http://svgjs.com/svgjs" width="80" height="80" viewBox="0 0 80 80"><defs id="SvgjsDefs1048"></defs><path id="SvgjsPath1049" d="M576.59 575.613C576.59 569.745 571.817 564.9720000000001 565.9490000000001 564.9720000000001H555.4090000000001V561.0000000000001H552.7620000000001V559.4050000000001C552.7620000000001 554.445 548.7260000000001 550.4100000000001 543.7660000000001 550.4100000000001H530.234C525.274 550.4100000000001 521.238 554.445 521.238 559.4050000000001V561.0000000000001H518.591V564.9720000000001H508.051C502.183 564.9720000000001 497.40999999999997 569.7450000000001 497.40999999999997 575.613V589.0600000000001L498.21799999999996 589.339L498.549 589.4530000000001L498.734 589.517V625.44C498.734 627.7280000000001 500.596 629.59 502.88399999999996 629.59H571.116C573.404 629.59 575.266 627.7280000000001 575.266 625.44V589.517L575.4499999999999 589.4530000000001L575.7819999999999 589.339L576.5899999999999 589.0600000000001ZM553.01 563.4V564.972H544.819V563.4ZM545.067 561H542.419V564.972H531.581V561H528.933V558.816C528.933 558.398 529.203 558.172 529.319 558.094C529.435 558.017 529.746 557.854 530.1329999999999 558.014C534.5609999999999 559.843 539.439 559.843 543.867 558.014C544.2539999999999 557.854 544.5649999999999 558.017 544.6809999999999 558.094C544.7969999999999 558.172 545.0669999999999 558.398 545.0669999999999 558.816ZM523.638 559.405C523.638 555.768 526.597 552.809 530.234 552.809H543.7660000000001C547.403 552.809 550.3620000000001 555.7679999999999 550.3620000000001 559.405V561H547.4660000000001V558.816C547.4660000000001 557.7230000000001 546.9240000000001 556.7080000000001 546.0150000000001 556.1C545.1070000000001 555.4920000000001 543.9610000000001 555.379 542.95 555.796C539.113 557.3820000000001 534.8870000000001 557.3820000000001 531.0500000000001 555.796C530.0400000000001 555.379 528.8940000000001 555.4920000000001 527.985 556.1C527.076 556.708 526.534 557.7230000000001 526.534 558.816V561H523.638ZM520.99 563.4H529.181V564.972H520.99ZM572.867 625.44C572.867 626.4050000000001 572.081 627.191 571.116 627.191H502.884C501.91900000000004 627.191 501.13300000000004 626.4050000000001 501.13300000000004 625.44V590.344L506.136 592.07C511.571 593.9440000000001 516.74 595.142 522.741 595.8870000000001C522.789 595.0740000000001 522.91 594.2810000000001 523.098 593.513C517.2389999999999 592.789 512.2049999999999 591.624 506.91799999999995 589.802L499.80899999999997 587.35V575.613C499.80899999999997 571.0680000000001 503.506 567.3710000000001 508.051 567.3710000000001H565.949C570.4939999999999 567.3710000000001 574.1909999999999 571.0680000000001 574.1909999999999 575.613V587.35L567.0819999999999 589.802C561.7899999999998 591.626 556.0049999999999 592.8720000000001 549.0599999999998 593.672C549.2379999999998 594.441 549.3489999999998 595.236 549.3869999999998 596.0500000000001C556.4849999999998 595.229 562.4169999999998 593.9480000000001 567.8639999999998 592.07L572.8669999999998 590.344ZM543.793 607.55L552.739 617.447C552.976 617.709 553.302 617.842 553.629 617.842C553.916 617.842 554.2040000000001 617.74 554.434 617.533C554.925 617.088 554.963 616.33 554.519 615.838L545.614 605.986C545.0550000000001 606.56 544.446 607.084 543.793 607.55ZM536.06 610.025C538.9399999999999 610.025 541.6099999999999 609.108 543.7929999999999 607.55C544.4459999999999 607.084 545.0549999999998 606.56 545.6139999999999 605.986C547.9569999999999 603.581 549.4029999999999 600.297 549.4029999999999 596.682C549.4029999999999 596.47 549.3969999999999 596.259 549.387 596.0500000000001C549.3489999999999 595.2360000000001 549.2379999999999 594.441 549.06 593.672C547.6919999999999 587.759 542.382 583.339 536.06 583.339C529.794 583.339 524.524 587.6800000000001 523.098 593.513C522.91 594.2810000000001 522.789 595.0740000000001 522.741 595.8870000000001C522.725 596.1500000000001 522.716 596.4150000000001 522.716 596.682C522.716 604.039 528.702 610.025 536.0600000000001 610.025ZM536.06 585.738C542.0939999999999 585.738 547.0029999999999 590.647 547.0029999999999 596.682C547.0029999999999 602.716 542.0939999999999 607.626 536.06 607.626C530.025 607.626 525.116 602.716 525.116 596.682C525.116 590.647 530.025 585.738 536.06 585.738Z " fill-opacity="1" transform="matrix(1,0,0,1,-497,-550)"></path></svg>
