<svg aria-hidden="true" id="SvgjsSvg1062" xmlns="http://www.w3.org/2000/svg" version="1.1" xmlns:xlink="http://www.w3.org/1999/xlink" xmlns:svgjs="http://svgjs.com/svgjs" width="98" height="80" viewBox="0 0 98 80"><defs id="SvgjsDefs1063"></defs><path id="SvgjsPath1064" d="M848.798 230.014H754.205C753.5400000000001 230.014 753.0020000000001 229.478 753.0020000000001 228.817V219.085C753.0020000000001 218.424 753.5400000000001 217.888 754.205 217.888H848.798C849.463 217.888 850.001 218.424 850.001 219.085V228.817C850.001 229.478 849.463 230.014 848.798 230.014ZM755.408 227.62H847.595V220.282H755.408ZM806.394 220.282H759.098C758.664 220.282 758.264 220.05 758.0509999999999 219.675C757.8369999999999 219.299 757.843 218.839 758.0659999999999 218.46900000000002L759.9459999999999 215.35200000000003C761.5749999999999 212.65200000000004 761.5749999999999 209.29700000000003 759.9459999999999 206.59800000000004L758.0659999999999 203.48000000000005C757.843 203.11000000000004 757.8369999999999 202.65000000000003 758.0509999999999 202.27500000000003C758.2639999999999 201.89900000000003 758.664 201.66700000000003 759.098 201.66700000000003H806.394C811.554 201.66700000000003 815.752 205.84300000000002 815.752 210.97500000000002C815.752 216.10700000000003 811.554 220.282 806.394 220.282ZM761.223 217.888H806.394C810.227 217.888 813.345 214.787 813.345 210.975C813.345 207.162 810.227 204.061 806.394 204.061H761.223L762.01 205.366C764.097 208.82600000000002 764.097 213.12400000000002 762.01 216.58300000000003ZM806.394 212.172H770.514C769.85 212.172 769.311 211.636 769.311 210.975C769.311 210.313 769.85 209.778 770.514 209.778H806.394C807.059 209.778 807.598 210.313 807.598 210.975C807.598 211.636 807.059 212.172 806.394 212.172ZM801.502 204.061H754.2049999999999C753.7719999999999 204.061 753.372 203.829 753.1579999999999 203.454C752.9439999999998 203.079 752.9499999999999 202.618 753.1729999999999 202.249L755.0539999999999 199.131C756.6819999999999 196.431 756.6819999999999 193.077 755.0539999999999 190.377L753.1729999999999 187.26000000000002C752.9499999999999 186.89000000000001 752.9439999999998 186.42900000000003 753.1579999999999 186.05400000000003C753.372 185.67900000000003 753.7719999999999 185.44700000000003 754.2049999999999 185.44700000000003H801.502C806.6619999999999 185.44700000000003 810.8599999999999 189.62200000000004 810.8599999999999 194.75400000000002C810.8599999999999 199.88600000000002 806.6619999999999 204.061 801.502 204.061ZM756.33 201.667H801.5020000000001C805.3340000000001 201.667 808.4530000000001 198.566 808.4530000000001 194.754C808.4530000000001 190.94199999999998 805.3340000000001 187.84099999999998 801.5020000000001 187.84099999999998H756.33L757.118 189.146C759.2040000000001 192.605 759.2040000000001 196.903 757.1170000000001 200.363ZM801.502 195.951H765.621C764.957 195.951 764.418 195.415 764.418 194.754C764.418 194.093 764.957 193.557 765.621 193.557H801.502C802.1659999999999 193.557 802.7049999999999 194.093 802.7049999999999 194.754C802.7049999999999 195.415 802.1659999999999 195.951 801.502 195.951ZM806.394 187.841H759.098C758.664 187.841 758.264 187.609 758.0509999999999 187.233C757.8369999999999 186.858 757.843 186.398 758.0659999999999 186.028L759.9459999999999 182.91C761.5749999999999 180.21099999999998 761.5749999999999 176.856 759.9459999999999 174.15699999999998L758.0659999999999 171.039C757.843 170.66899999999998 757.8369999999999 170.20899999999997 758.0509999999999 169.833C758.2639999999999 169.458 758.664 169.226 759.098 169.226H806.394C811.554 169.226 815.752 173.402 815.752 178.534C815.752 183.666 811.554 187.84099999999998 806.394 187.84099999999998ZM761.223 185.447H806.394C810.227 185.447 813.345 182.346 813.345 178.534C813.345 174.72199999999998 810.227 171.62 806.394 171.62H761.223L762.01 172.925C764.097 176.38400000000001 764.097 180.68300000000002 762.01 184.14200000000002ZM825.728 220.282C825.197 220.282 824.7099999999999 219.929 824.5659999999999 219.394L807.6829999999999 156.723C807.5109999999999 156.084 807.8919999999998 155.42800000000003 808.5339999999999 155.257L824.2869999999999 151.059C824.929 150.888 825.5889999999999 151.267 825.761 151.906L842.646 214.577C842.728 214.883 842.685 215.21 842.525 215.48499999999999C842.366 215.76 842.103 215.96099999999998 841.795 216.04299999999998L826.04 220.24099999999999C825.9359999999999 220.26799999999997 825.831 220.28199999999998 825.728 220.28199999999998ZM810.319 157.26L826.5799999999999 217.619L840.0089999999999 214.04L823.7469999999998 153.68099999999998ZM806.394 179.73H770.514C769.85 179.73 769.311 179.195 769.311 178.534C769.311 177.87199999999999 769.85 177.337 770.514 177.337H806.394C807.059 177.337 807.598 177.87199999999999 807.598 178.534C807.598 179.195 807.059 179.73 806.394 179.73ZM813.066 173.278C812.534 173.278 812.048 172.926 811.904 172.391L810.215 166.123C810.1320000000001 165.81699999999998 810.1750000000001 165.48999999999998 810.335 165.215C810.494 164.94 810.7570000000001 164.739 811.065 164.657L826.82 160.459C827.128 160.377 827.457 160.42000000000002 827.7330000000001 160.579C828.0100000000001 160.738 828.211 160.999 828.2940000000001 161.306L829.9820000000001 167.573C830.1540000000001 168.21200000000002 829.7730000000001 168.868 829.1310000000001 169.03900000000002L813.378 173.23700000000002C813.274 173.26500000000001 813.1690000000001 173.27800000000002 813.066 173.27800000000002ZM812.851 166.66L813.917 170.615L827.346 167.037L826.28 163.08100000000002ZM823.196 210.881C822.6650000000001 210.881 822.179 210.528 822.0350000000001 209.994L820.345 203.726C820.2620000000001 203.419 820.306 203.093 820.465 202.818C820.625 202.543 820.888 202.342 821.196 202.26000000000002L836.951 198.062C837.259 197.98000000000002 837.587 198.02300000000002 837.864 198.18200000000002C838.14 198.34 838.342 198.602 838.4250000000001 198.90900000000002L840.1120000000001 205.17600000000002C840.2840000000001 205.81500000000003 839.9030000000001 206.471 839.2610000000001 206.64200000000002L823.508 210.84000000000003C823.404 210.86800000000002 823.2990000000001 210.88100000000003 823.196 210.88100000000003ZM822.982 204.263L824.048 208.21800000000002L837.476 204.639L836.411 200.684ZM827.696 196.248C827.1650000000001 196.248 826.678 195.89499999999998 826.534 195.35999999999999L821.4689999999999 176.559C821.2969999999999 175.921 821.6779999999999 175.264 822.3199999999999 175.093C822.9609999999999 174.922 823.622 175.301 823.794 175.94L828.859 194.74099999999999C829.0310000000001 195.379 828.6500000000001 196.03599999999997 828.008 196.207C827.904 196.23499999999999 827.7990000000001 196.248 827.696 196.248Z " fill-opacity="1" transform="matrix(1,0,0,1,-753,-151)"></path></svg>
