<svg aria-hidden="true" id="SvgjsSvg1011" xmlns="http://www.w3.org/2000/svg" version="1.1" xmlns:xlink="http://www.w3.org/1999/xlink" xmlns:svgjs="http://svgjs.com/svgjs" width="105" height="63" viewBox="0 0 105 63"><defs id="SvgjsDefs1012"></defs><path id="SvgjsPath1013" d="M247.782 197.711C247.76600000000002 197.70800000000003 247.75 197.704 247.734 197.70000000000002C247.75 197.704 247.76600000000002 197.70800000000003 247.782 197.711ZM247.904 197.729C247.889 197.728 247.875 197.72500000000002 247.85999999999999 197.723C247.87499999999997 197.72500000000002 247.88899999999998 197.728 247.904 197.729ZM248.024 197.736C248.025 197.736 248.026 197.736 248.027 197.736C248.017 197.736 248.00699999999998 197.73499999999999 247.99699999999999 197.73399999999998C248.00599999999997 197.73499999999999 248.015 197.736 248.02399999999997 197.736ZM247.433 197.582C247.418 197.573 247.403 197.565 247.388 197.55599999999998C247.403 197.56499999999997 247.418 197.57299999999998 247.433 197.582ZM248.246 197.714C248.22400000000002 197.719 248.20100000000002 197.722 248.178 197.725C248.201 197.722 248.224 197.719 248.246 197.714ZM247.663 197.68C247.64600000000002 197.675 247.63000000000002 197.67000000000002 247.614 197.66400000000002C247.63 197.67000000000002 247.64600000000002 197.675 247.663 197.68ZM247.546 197.637C247.53 197.63 247.51399999999998 197.623 247.498 197.616C247.51399999999998 197.62300000000002 247.53 197.63000000000002 247.546 197.637ZM247.324 197.514C247.311 197.50400000000002 247.29700000000003 197.495 247.28300000000002 197.484C247.29700000000003 197.495 247.311 197.50400000000002 247.324 197.514ZM248.567 197.606C248.54600000000002 197.617 248.525 197.62699999999998 248.50400000000002 197.636C248.525 197.627 248.54600000000002 197.617 248.567 197.606ZM248.461 197.653C248.441 197.661 248.42000000000002 197.66899999999998 248.399 197.67499999999998C248.42 197.66899999999998 248.441 197.66099999999997 248.461 197.653ZM248.355 197.689C248.333 197.695 248.31199999999998 197.7 248.29 197.70499999999998C248.31199999999998 197.7 248.333 197.695 248.355 197.689ZM248.672 197.547C248.65 197.56 248.628 197.57399999999998 248.606 197.58599999999998C248.628 197.57399999999998 248.65 197.55999999999997 248.672 197.547ZM248.137 197.73C248.111 197.732 248.085 197.73299999999998 248.058 197.73399999999998C248.08499999999998 197.73299999999998 248.111 197.73199999999997 248.137 197.73ZM249.196 197.125L248.797 197.457C248.767 197.482 248.736 197.505 248.704 197.527C248.73600000000002 197.505 248.767 197.482 248.797 197.457ZM247.248 195.617L269.95099999999996 176.771V176.771L247.24799999999996 195.617C247.08799999999997 195.75 246.97199999999995 195.915 246.89999999999995 196.095C246.97199999999995 195.915 247.08799999999994 195.75 247.24799999999996 195.617ZM276.725 171.148C277.173 170.775 277.827 170.775 278.27500000000003 171.148L283.16700000000003 175.209V175.209L278.27500000000003 171.148C278.05100000000004 170.96099999999998 277.77500000000003 170.868 277.50000000000006 170.868C277.2250000000001 170.868 276.94900000000007 170.96099999999998 276.7250000000001 171.148L271.8330000000001 175.209V175.209ZM247.219 197.43C247.208 197.42000000000002 247.196 197.411 247.186 197.401C247.196 197.411 247.208 197.42000000000002 247.219 197.43ZM246.974 197.13C247.009 197.191 247.04899999999998 197.25 247.096 197.30599999999998C247.097 197.307 247.098 197.307 247.098 197.308C247.098 197.307 247.097 197.307 247.096 197.30599999999998C247.049 197.24999999999997 247.00900000000001 197.19099999999997 246.974 197.13ZM306.641 197.687C306.50300000000004 197.64800000000002 306.37 197.58200000000002 306.24800000000005 197.491C306.37000000000006 197.58200000000002 306.50300000000004 197.64800000000002 306.641 197.687ZM246.834 196.332C246.848 196.251 246.869 196.172 246.9 196.095C246.869 196.172 246.848 196.251 246.834 196.332ZM295.428 185.387L285.049 176.77100000000002V176.77100000000002ZM307.541 197.595C307.676 197.525 307.8 197.429 307.904 197.306C307.951 197.25 307.991 197.191 308.026 197.13000000000002C307.991 197.19100000000003 307.951 197.25000000000003 307.904 197.306C307.8 197.429 307.676 197.525 307.541 197.595ZM328.567 187.746L299.09000000000003 163.276C298.64200000000005 162.904 297.98900000000003 162.904 297.54100000000005 163.276L285.04900000000004 173.64600000000002L286.93100000000004 175.209L298.31500000000005 165.758L321.3670000000001 184.894V214.732H305.38000000000005V217.129H322.57400000000007C323.24100000000004 217.129 323.7820000000001 216.593 323.7820000000001 215.93099999999998V186.89799999999997L327.0180000000001 189.58499999999998C327.2440000000001 189.77299999999997 327.51900000000006 189.86399999999998 327.7920000000001 189.86399999999998C328.1370000000001 189.86399999999998 328.4800000000001 189.718 328.7190000000001 189.43399999999997C329.1470000000001 188.92699999999996 329.0790000000001 188.17099999999996 328.5670000000001 187.74599999999998ZM233.633 214.732V184.894L256.684 165.758L268.069 175.209L269.951 173.64600000000002L257.459 163.276C257.011 162.904 256.358 162.904 255.91 163.276L226.433 187.746C225.921 188.17100000000002 225.85299999999998 188.92700000000002 226.281 189.434C226.709 189.942 227.47 190.01 227.982 189.585L231.218 186.898V215.93099999999998C231.218 216.593 231.759 217.129 232.426 217.129H249.619V214.732ZM249.196 197.125L252.034 194.769V223.80100000000002C252.034 224.46300000000002 252.575 225.00000000000003 253.24099999999999 225.00000000000003H301.758C302.42499999999995 225.00000000000003 302.966 224.46300000000002 302.966 223.80100000000002V194.769L306.20300000000003 197.457C306.218 197.469 306.233 197.48 306.24800000000005 197.49099999999999C306.37000000000006 197.582 306.50300000000004 197.648 306.641 197.68699999999998C306.75100000000003 197.719 306.86400000000003 197.73499999999999 306.97700000000003 197.73499999999999C307.172 197.73499999999999 307.36600000000004 197.68699999999998 307.54100000000005 197.595C307.67600000000004 197.525 307.80000000000007 197.429 307.90400000000005 197.306C307.9510000000001 197.25 307.99100000000004 197.191 308.02600000000007 197.13000000000002C308.31000000000006 196.63500000000002 308.20700000000005 195.99600000000004 307.75200000000007 195.61700000000002L278.2750000000001 171.14800000000002C277.8270000000001 170.77500000000003 277.1730000000001 170.77500000000003 276.7250000000001 171.14800000000002L247.24800000000008 195.61700000000002C247.08800000000008 195.75000000000003 246.97200000000007 195.91500000000002 246.90000000000006 196.09500000000003C246.86900000000006 196.17200000000003 246.84800000000007 196.25100000000003 246.83400000000006 196.33200000000002C246.78700000000006 196.60100000000003 246.83200000000005 196.883 246.97400000000005 197.13000000000002C247.00900000000004 197.19100000000003 247.04900000000004 197.25000000000003 247.09600000000006 197.306C247.09700000000007 197.30700000000002 247.09800000000007 197.30700000000002 247.09800000000007 197.30800000000002C247.12600000000006 197.341 247.15500000000006 197.372 247.18600000000006 197.401C247.19600000000005 197.411 247.20800000000006 197.42000000000002 247.21900000000005 197.43C247.24000000000004 197.448 247.26100000000005 197.467 247.28300000000004 197.484C247.29700000000005 197.495 247.31100000000004 197.50400000000002 247.32400000000004 197.514C247.34500000000003 197.52800000000002 247.36600000000004 197.543 247.38800000000003 197.556C247.40300000000002 197.565 247.41800000000003 197.573 247.43300000000002 197.58200000000002C247.455 197.59400000000002 247.47600000000003 197.60500000000002 247.49800000000002 197.616C247.514 197.62300000000002 247.53000000000003 197.63000000000002 247.54600000000002 197.637C247.568 197.647 247.591 197.656 247.61400000000003 197.664C247.63000000000002 197.67 247.64600000000004 197.67499999999998 247.66300000000004 197.67999999999998C247.68600000000004 197.688 247.71000000000004 197.694 247.73400000000004 197.7C247.75000000000003 197.70399999999998 247.76600000000005 197.708 247.78200000000004 197.71099999999998C247.80800000000005 197.71599999999998 247.83400000000003 197.71999999999997 247.86000000000004 197.72299999999998C247.87500000000003 197.725 247.88900000000004 197.72799999999998 247.90400000000005 197.72899999999998C247.93500000000006 197.73199999999997 247.96600000000007 197.73399999999998 247.99700000000004 197.73399999999998C248.00700000000003 197.73499999999999 248.01700000000005 197.736 248.02700000000004 197.736C248.03800000000004 197.73499999999999 248.04800000000003 197.73499999999999 248.05800000000005 197.73399999999998C248.08500000000004 197.73299999999998 248.11100000000005 197.73199999999997 248.13700000000006 197.73C248.15100000000007 197.72899999999998 248.16500000000005 197.727 248.17800000000005 197.725C248.20100000000005 197.722 248.22400000000005 197.719 248.24600000000007 197.714C248.26100000000005 197.712 248.27600000000007 197.708 248.29000000000008 197.705C248.31200000000007 197.70000000000002 248.33300000000008 197.69500000000002 248.35500000000008 197.68900000000002C248.36900000000009 197.68500000000003 248.38400000000007 197.68000000000004 248.3990000000001 197.675C248.42000000000007 197.669 248.4410000000001 197.661 248.4610000000001 197.65300000000002C248.47600000000008 197.64800000000002 248.4900000000001 197.64200000000002 248.5040000000001 197.63600000000002C248.5250000000001 197.62700000000004 248.5460000000001 197.61700000000002 248.5670000000001 197.60600000000002C248.5800000000001 197.60000000000002 248.5930000000001 197.59300000000002 248.60600000000008 197.586C248.62800000000007 197.574 248.6500000000001 197.56 248.67200000000008 197.54700000000003C248.68200000000007 197.54000000000002 248.69300000000007 197.53400000000002 248.7040000000001 197.52700000000002C248.7360000000001 197.50500000000002 248.76700000000008 197.48200000000003 248.79700000000008 197.45700000000002ZM273.577 222.603V207.324H281.423V222.603ZM277.499 173.629L300.55100000000004 192.765V222.60299999999998H283.838V206.12499999999997C283.838 205.71099999999998 283.627 205.34699999999998 283.305 205.13099999999997C283.209 205.06699999999998 283.103 205.01499999999996 282.98900000000003 204.97999999999996C282.87600000000003 204.94499999999996 282.75500000000005 204.92599999999996 282.63000000000005 204.92599999999996H272.37000000000006C272.03800000000007 204.92599999999996 271.73800000000006 205.05899999999997 271.52000000000004 205.27399999999997C271.51900000000006 205.27499999999998 271.51700000000005 205.27599999999998 271.516 205.27699999999996C271.297 205.49399999999997 271.16200000000003 205.79399999999995 271.16200000000003 206.12499999999997V222.60299999999998H254.44900000000004V192.765Z " fill-opacity="1" transform="matrix(1,0,0,1,-225,-162)"></path></svg>
