<svg aria-hidden="true" id="SvgjsSvg1032" xmlns="http://www.w3.org/2000/svg" version="1.1" xmlns:xlink="http://www.w3.org/1999/xlink" xmlns:svgjs="http://svgjs.com/svgjs" width="58" height="78" viewBox="0 0 58 78"><defs id="SvgjsDefs1033"></defs><path id="SvgjsPath1034" d="M257.544 1530.79H275.443V1533.35H257.544ZM293.342 1530.79H298.45599999999996V1533.35H293.342ZM293.342 1520.55H298.45599999999996V1523.11H293.342ZM293.342 1510.32H298.45599999999996V1512.8799999999999H293.342ZM293.342 1500.08H298.45599999999996V1502.6399999999999H293.342ZM257.544 1520.55H280.55699999999996V1523.11H257.544ZM257.544 1510.32H275.443V1512.8799999999999H257.544ZM257.544 1500.08H285.671V1502.6399999999999H257.544ZM252.43 1552.77L257.54 1547.65L262.654 1552.77L267.768 1547.65L272.88199999999995 1552.77L277.9959999999999 1547.65L283.1099999999999 1552.77L288.2239999999999 1547.65L293.33799999999985 1552.77L298.45099999999985 1547.65L303.56899999999985 1552.77V1483.23L298.45099999999985 1488.35L293.33799999999985 1483.23L288.2239999999999 1488.35L283.1099999999999 1483.23L277.9959999999999 1488.35L272.88199999999995 1483.23L267.768 1488.35L262.654 1483.23L257.54 1488.35L252.43 1483.23ZM249.874 1482.16L252.43 1479.6100000000001L257.54 1484.73L262.654 1479.6100000000001L267.768 1484.73L272.88199999999995 1479.6100000000001L277.9959999999999 1484.73L283.1099999999999 1479.6100000000001L288.2239999999999 1484.73L293.33799999999985 1479.6100000000001L298.45099999999985 1484.73L303.5649999999998 1479.6100000000001L306.1259999999998 1482.17V1553.8300000000002L303.5779999999998 1556.38L298.4509999999998 1551.2700000000002L293.3379999999998 1556.39L288.2239999999998 1551.2700000000002L283.10999999999984 1556.39L277.99599999999987 1551.2700000000002L272.8819999999999 1556.39L267.7679999999999 1551.2700000000002L262.65399999999994 1556.39L257.53999999999996 1551.2700000000002L252.42599999999996 1556.39L249.87399999999997 1553.8400000000001Z " fill-opacity="1" transform="matrix(1,0,0,1,-249,-1479)"></path></svg>
