<svg aria-hidden="true" id="SvgjsSvg1074" xmlns="http://www.w3.org/2000/svg" version="1.1" xmlns:xlink="http://www.w3.org/1999/xlink" xmlns:svgjs="http://svgjs.com/svgjs" width="82" height="80" viewBox="0 0 82 80"><defs id="SvgjsDefs1075"></defs><path id="SvgjsPath1076" d="M1040.76 218.25C1030.27 218.25 1021.74 209.716 1021.74 199.227C1021.74 188.737 1030.27 180.203 1040.76 180.203C1051.24 180.203 1059.77 188.737 1059.77 199.227C1059.77 209.716 1051.24 218.25 1040.76 218.25ZM1040.76 182.602C1031.6 182.602 1024.14 190.06 1024.14 199.227C1024.14 208.393 1031.6000000000001 215.851 1040.76 215.851C1049.92 215.851 1057.37 208.393 1057.37 199.227C1057.37 190.06 1049.9199999999998 182.602 1040.76 182.602ZM1040.76 211.395C1040.45 211.395 1040.14 211.27800000000002 1039.91 211.043C1039.44 210.57500000000002 1039.44 209.815 1039.91 209.347L1044.02 205.234C1044.49 204.76500000000001 1045.25 204.76500000000001 1045.72 205.234C1046.19 205.702 1046.19 206.46200000000002 1045.72 206.93L1041.6100000000001 211.043C1041.3700000000001 211.27800000000002 1041.0700000000002 211.395 1040.7600000000002 211.395ZM1040.76 211.395C1040.45 211.395 1040.14 211.27800000000002 1039.91 211.043L1035.8000000000002 206.93C1035.3300000000002 206.46200000000002 1035.3300000000002 205.702 1035.8000000000002 205.234C1036.2700000000002 204.76500000000001 1037.0300000000002 204.76500000000001 1037.4900000000002 205.234L1041.6100000000001 209.347C1042.0700000000002 209.815 1042.0700000000002 210.57500000000002 1041.6100000000001 211.043C1041.3700000000001 211.27800000000002 1041.0700000000002 211.395 1040.7600000000002 211.395ZM1040.76 230.59C1040.1 230.59 1039.56 230.053 1039.56 229.39000000000001V210.19500000000002C1039.56 209.53300000000002 1040.1 208.996 1040.76 208.996C1041.42 208.996 1041.96 209.53300000000002 1041.96 210.19500000000002V229.39000000000001C1041.96 230.05300000000003 1041.42 230.59 1040.76 230.59ZM1094.72 181.231H1078.79C1075.29 181.231 1072.45 178.167 1072.45 174.4C1072.45 170.88400000000001 1074.93 167.98000000000002 1078.1000000000001 167.609C1079.0400000000002 166.247 1081.7900000000002 163.06400000000002 1087.0100000000002 163.06400000000002C1089.3300000000002 163.06400000000002 1091.3300000000002 163.78000000000003 1092.8000000000002 165.13400000000001C1094.3000000000002 166.52800000000002 1095.16 168.495 1095.3600000000001 170.99400000000003C1097.7 171.33000000000004 1099.5200000000002 173.48700000000002 1099.5200000000002 176.08900000000003C1099.5200000000002 178.92400000000004 1097.3600000000001 181.23100000000002 1094.7200000000003 181.23100000000002ZM1087.01 165.464C1082 165.464 1079.93 169.177 1079.85 169.335C1079.6399999999999 169.722 1079.23 169.969 1078.79 169.969C1076.62 169.969 1074.85 171.957 1074.85 174.4C1074.85 176.844 1076.62 178.832 1078.79 178.832H1094.72C1096.04 178.832 1097.1200000000001 177.602 1097.1200000000001 176.089C1097.1200000000001 174.577 1096.0400000000002 173.347 1094.72 173.347H1094.21C1093.54 173.347 1093.01 172.81 1093.01 172.148C1093.01 166.332 1089.25 165.464 1087.01 165.464ZM1035.28 230.59C1034.61 230.59 1034.08 230.053 1034.08 229.39000000000001V228.019C1034.08 227.357 1034.61 226.82 1035.28 226.82C1035.94 226.82 1036.48 227.357 1036.48 228.019V229.39000000000001C1036.48 230.05300000000003 1035.94 230.59 1035.28 230.59ZM1029.79 230.59C1029.1299999999999 230.59 1028.6 230.053 1028.6 229.39000000000001V228.019C1028.6 227.357 1029.1299999999999 226.82 1029.79 226.82C1030.46 226.82 1030.99 227.357 1030.99 228.019V229.39000000000001C1030.99 230.05300000000003 1030.46 230.59 1029.79 230.59ZM1024.31 230.59C1023.65 230.59 1023.1099999999999 230.053 1023.1099999999999 229.39000000000001V228.019C1023.1099999999999 227.357 1023.6499999999999 226.82 1024.31 226.82C1024.98 226.82 1025.51 227.357 1025.51 228.019V229.39000000000001C1025.51 230.05300000000003 1024.98 230.59 1024.31 230.59ZM1057.2 230.59C1056.54 230.59 1056 230.053 1056 229.39000000000001V228.019C1056 227.357 1056.54 226.82 1057.2 226.82C1057.8700000000001 226.82 1058.4 227.357 1058.4 228.019V229.39000000000001C1058.4 230.05300000000003 1057.8700000000001 230.59 1057.2 230.59ZM1051.72 230.59C1051.06 230.59 1050.52 230.053 1050.52 229.39000000000001V228.019C1050.52 227.357 1051.06 226.82 1051.72 226.82C1052.38 226.82 1052.92 227.357 1052.92 228.019V229.39000000000001C1052.92 230.05300000000003 1052.38 230.59 1051.72 230.59ZM1046.24 230.59C1045.58 230.59 1045.04 230.053 1045.04 229.39000000000001V228.019C1045.04 227.357 1045.58 226.82 1046.24 226.82C1046.9 226.82 1047.44 227.357 1047.44 228.019V229.39000000000001C1047.44 230.05300000000003 1046.9 230.59 1046.24 230.59ZM1101.06 230.59C1100.3999999999999 230.59 1099.86 230.053 1099.86 229.39000000000001V228.019C1099.86 227.357 1100.3999999999999 226.82 1101.06 226.82C1101.72 226.82 1102.26 227.357 1102.26 228.019V229.39000000000001C1102.26 230.05300000000003 1101.72 230.59 1101.06 230.59ZM1095.58 230.59C1094.9099999999999 230.59 1094.3799999999999 230.053 1094.3799999999999 229.39000000000001V228.019C1094.3799999999999 227.357 1094.9099999999999 226.82 1095.58 226.82C1096.24 226.82 1096.77 227.357 1096.77 228.019V229.39000000000001C1096.77 230.05300000000003 1096.24 230.59 1095.58 230.59ZM1062.69 230.59C1062.02 230.59 1061.49 230.053 1061.49 229.39000000000001V228.019C1061.49 227.357 1062.02 226.82 1062.69 226.82C1063.3500000000001 226.82 1063.88 227.357 1063.88 228.019V229.39000000000001C1063.88 230.05300000000003 1063.3500000000001 230.59 1062.69 230.59ZM1076.39 230.59C1075.73 230.59 1075.19 230.053 1075.19 229.39000000000001V228.019C1075.19 227.357 1075.73 226.82 1076.39 226.82C1077.0500000000002 226.82 1077.5900000000001 227.357 1077.5900000000001 228.019V229.39000000000001C1077.5900000000001 230.05300000000003 1077.0500000000002 230.59 1076.39 230.59ZM1081.87 230.59C1081.2099999999998 230.59 1080.6699999999998 230.053 1080.6699999999998 229.39000000000001V228.019C1080.6699999999998 227.357 1081.2099999999998 226.82 1081.87 226.82C1082.53 226.82 1083.07 227.357 1083.07 228.019V229.39000000000001C1083.07 230.05300000000003 1082.53 230.59 1081.87 230.59ZM1069.54 230.59C1068.8799999999999 230.59 1068.34 230.053 1068.34 229.39000000000001V222.53500000000003C1068.34 221.872 1068.8799999999999 221.33500000000004 1069.54 221.33500000000004C1070.2 221.33500000000004 1070.74 221.87200000000004 1070.74 222.53500000000003V229.39000000000001C1070.74 230.05300000000003 1070.2 230.59 1069.54 230.59ZM1088.72 230.59C1088.06 230.59 1087.52 230.053 1087.52 229.39000000000001V222.53500000000003C1087.52 221.872 1088.06 221.33500000000004 1088.72 221.33500000000004C1089.39 221.33500000000004 1089.92 221.87200000000004 1089.92 222.53500000000003V229.39000000000001C1089.92 230.05300000000003 1089.39 230.59 1088.72 230.59ZM1069.54 216.879C1068.8799999999999 216.879 1068.34 216.34199999999998 1068.34 215.67999999999998V210.19499999999996C1068.34 209.53299999999996 1068.8799999999999 208.99599999999995 1069.54 208.99599999999995C1070.2 208.99599999999995 1070.74 209.53299999999996 1070.74 210.19499999999996V215.67999999999998C1070.74 216.34199999999998 1070.2 216.879 1069.54 216.879ZM1088.72 216.879C1088.06 216.879 1087.52 216.34199999999998 1087.52 215.67999999999998V210.19499999999996C1087.52 209.53299999999996 1088.06 208.99599999999995 1088.72 208.99599999999995C1089.39 208.99599999999995 1089.92 209.53299999999996 1089.92 210.19499999999996V215.67999999999998C1089.92 216.34199999999998 1089.39 216.879 1088.72 216.879ZM1069.54 211.395C1068.8799999999999 211.395 1068.34 210.858 1068.34 210.19500000000002V201.96900000000002C1068.34 201.306 1068.8799999999999 200.76900000000003 1069.54 200.76900000000003C1070.2 200.76900000000003 1070.74 201.30600000000004 1070.74 201.96900000000002V210.19500000000002C1070.74 210.85800000000003 1070.2 211.395 1069.54 211.395ZM1088.72 211.395C1088.06 211.395 1087.52 210.858 1087.52 210.19500000000002V201.96900000000002C1087.52 201.306 1088.06 200.76900000000003 1088.72 200.76900000000003C1089.39 200.76900000000003 1089.92 201.30600000000004 1089.92 201.96900000000002V210.19500000000002C1089.92 210.85800000000003 1089.39 211.395 1088.72 211.395ZM1094.21 223.735H1064.06C1063.3899999999999 223.735 1062.86 223.198 1062.86 222.53500000000003V220.00800000000004C1062.86 216.96000000000004 1065.34 214.48000000000005 1068.3799999999999 214.48000000000005H1089.8799999999999C1092.9299999999998 214.48000000000005 1095.3999999999999 216.96000000000004 1095.3999999999999 220.00800000000004V222.53500000000003C1095.3999999999999 223.19800000000004 1094.87 223.735 1094.2099999999998 223.735ZM1065.25 221.335H1093.01V220.008C1093.01 218.28300000000002 1091.6 216.87900000000002 1089.8799999999999 216.87900000000002H1068.3799999999999C1066.6599999999999 216.87900000000002 1065.2499999999998 218.28300000000002 1065.2499999999998 220.008ZM1092.83 211.395H1065.4299999999998C1064.7599999999998 211.395 1064.2299999999998 210.858 1064.2299999999998 210.19500000000002C1064.2299999999998 209.53300000000002 1064.7599999999998 208.996 1065.4299999999998 208.996H1092.83C1093.5 208.996 1094.03 209.53300000000002 1094.03 210.19500000000002C1094.03 210.85800000000003 1093.5 211.395 1092.83 211.395ZM1092.83 205.911H1065.4299999999998C1064.7599999999998 205.911 1064.2299999999998 205.373 1064.2299999999998 204.711C1064.2299999999998 204.048 1064.7599999999998 203.51100000000002 1065.4299999999998 203.51100000000002H1092.83C1093.5 203.51100000000002 1094.03 204.04800000000003 1094.03 204.711C1094.03 205.37300000000002 1093.5 205.911 1092.83 205.911ZM1051.72 162.036C1051.06 162.036 1050.52 161.499 1050.52 160.836C1050.52 155.638 1054.75 151.41000000000003 1059.94 151.41000000000003C1060.6100000000001 151.41000000000003 1061.14 151.94700000000003 1061.14 152.61C1061.14 153.27200000000002 1060.6100000000001 153.80900000000003 1059.94 153.80900000000003C1056.0700000000002 153.80900000000003 1052.92 156.961 1052.92 160.836C1052.92 161.49900000000002 1052.38 162.036 1051.72 162.036ZM1051.72 162.036C1051.06 162.036 1050.52 161.499 1050.52 160.836C1050.52 157.717 1047.99 155.18 1044.87 155.18C1044.2099999999998 155.18 1043.6699999999998 154.643 1043.6699999999998 153.981C1043.6699999999998 153.31799999999998 1044.2099999999998 152.781 1044.87 152.781C1049.31 152.781 1052.9199999999998 156.395 1052.9199999999998 160.836C1052.9199999999998 161.49900000000002 1052.3799999999999 162.036 1051.7199999999998 162.036Z " fill-opacity="1" transform="matrix(1,0,0,1,-1021,-151)"></path></svg>
