<svg aria-hidden="true" id="SvgjsSvg1080" xmlns="http://www.w3.org/2000/svg" version="1.1" xmlns:xlink="http://www.w3.org/1999/xlink" xmlns:svgjs="http://svgjs.com/svgjs" width="86" height="78" viewBox="0 0 86 78"><defs id="SvgjsDefs1081"></defs><path id="SvgjsPath1082" d="M1092.05 588.868C1091.3999999999999 588.868 1090.8799999999999 588.3470000000001 1090.8799999999999 587.705V562.2860000000001C1090.8799999999999 561.643 1091.3999999999999 561.1220000000001 1092.05 561.1220000000001C1092.69 561.1220000000001 1093.21 561.643 1093.21 562.2860000000001V587.705C1093.21 588.3470000000001 1092.69 588.868 1092.05 588.868ZM1086.32 568.823C1085.6799999999998 568.823 1085.1599999999999 568.302 1085.1599999999999 567.659C1085.1599999999999 567.0169999999999 1085.6799999999998 566.496 1086.32 566.496C1088.84 566.496 1090.8799999999999 564.449 1090.8799999999999 561.932C1090.8799999999999 561.29 1091.3999999999999 560.769 1092.05 560.769C1092.69 560.769 1093.21 561.29 1093.21 561.932C1093.21 565.731 1090.1200000000001 568.823 1086.32 568.823ZM1083.46 577.413C1082.82 577.413 1082.3 576.893 1082.3 576.25C1082.3 575.608 1082.82 575.087 1083.46 575.087C1087.55 575.087 1090.88 571.755 1090.88 567.659C1090.88 567.0169999999999 1091.4 566.496 1092.0500000000002 566.496C1092.6900000000003 566.496 1093.2100000000003 567.0169999999999 1093.2100000000003 567.659C1093.2100000000003 573.038 1088.8400000000004 577.413 1083.4600000000003 577.413ZM1080.6 586.004C1079.9599999999998 586.004 1079.4399999999998 585.4830000000001 1079.4399999999998 584.841C1079.4399999999998 584.198 1079.9599999999998 583.678 1080.6 583.678C1086.27 583.678 1090.8799999999999 579.061 1090.8799999999999 573.387C1090.8799999999999 572.7439999999999 1091.3999999999999 572.223 1092.05 572.223C1092.69 572.223 1093.21 572.7439999999999 1093.21 573.387C1093.21 580.3439999999999 1087.55 586.0039999999999 1080.6000000000001 586.0039999999999ZM1097.77 568.823C1093.97 568.823 1090.8799999999999 565.731 1090.8799999999999 561.932C1090.8799999999999 561.29 1091.3999999999999 560.769 1092.05 560.769C1092.69 560.769 1093.21 561.29 1093.21 561.932C1093.21 564.4490000000001 1095.26 566.496 1097.77 566.496C1098.41 566.496 1098.93 567.0169999999999 1098.93 567.659C1098.93 568.302 1098.41 568.823 1097.77 568.823ZM1100.63 577.413C1095.2600000000002 577.413 1090.88 573.038 1090.88 567.659C1090.88 567.0169999999999 1091.4 566.496 1092.0500000000002 566.496C1092.6900000000003 566.496 1093.2100000000003 567.0169999999999 1093.2100000000003 567.659C1093.2100000000003 571.755 1096.5400000000002 575.087 1100.6300000000003 575.087C1101.2700000000004 575.087 1101.7900000000004 575.608 1101.7900000000004 576.25C1101.7900000000004 576.893 1101.2700000000004 577.413 1100.6300000000003 577.413ZM1103.49 586.004C1096.54 586.004 1090.88 580.344 1090.88 573.3870000000001C1090.88 572.744 1091.4 572.2230000000001 1092.0500000000002 572.2230000000001C1092.6900000000003 572.2230000000001 1093.2100000000003 572.744 1093.2100000000003 573.3870000000001C1093.2100000000003 579.061 1097.8200000000002 583.6780000000001 1103.4900000000002 583.6780000000001C1104.1400000000003 583.6780000000001 1104.6600000000003 584.1980000000001 1104.6600000000003 584.8410000000001C1104.6600000000003 585.4830000000002 1104.1400000000003 586.0040000000001 1103.4900000000002 586.0040000000001ZM1031.95 588.868C1031.31 588.868 1030.79 588.3470000000001 1030.79 587.705V562.2860000000001C1030.79 561.643 1031.31 561.1220000000001 1031.95 561.1220000000001C1032.5900000000001 561.1220000000001 1033.1200000000001 561.643 1033.1200000000001 562.2860000000001V587.705C1033.1200000000001 588.3470000000001 1032.5900000000001 588.868 1031.95 588.868ZM1026.23 568.823C1025.59 568.823 1025.07 568.302 1025.07 567.659C1025.07 567.0169999999999 1025.59 566.496 1026.23 566.496C1028.74 566.496 1030.79 564.449 1030.79 561.932C1030.79 561.29 1031.31 560.769 1031.95 560.769C1032.5900000000001 560.769 1033.1200000000001 561.29 1033.1200000000001 561.932C1033.1200000000001 565.731 1030.0300000000002 568.823 1026.23 568.823ZM1023.37 577.413C1022.73 577.413 1022.21 576.893 1022.21 576.25C1022.21 575.608 1022.73 575.087 1023.37 575.087C1027.46 575.087 1030.79 571.755 1030.79 567.659C1030.79 567.0169999999999 1031.31 566.496 1031.95 566.496C1032.5900000000001 566.496 1033.1200000000001 567.0169999999999 1033.1200000000001 567.659C1033.1200000000001 573.038 1028.74 577.413 1023.3700000000001 577.413ZM1020.51 586.004C1019.86 586.004 1019.34 585.4830000000001 1019.34 584.841C1019.34 584.198 1019.86 583.678 1020.51 583.678C1026.18 583.678 1030.79 579.061 1030.79 573.387C1030.79 572.7439999999999 1031.31 572.223 1031.95 572.223C1032.5900000000001 572.223 1033.1200000000001 572.7439999999999 1033.1200000000001 573.387C1033.1200000000001 580.3439999999999 1027.46 586.0039999999999 1020.5100000000001 586.0039999999999ZM1037.68 568.823C1033.88 568.823 1030.79 565.731 1030.79 561.932C1030.79 561.29 1031.31 560.769 1031.95 560.769C1032.5900000000001 560.769 1033.1200000000001 561.29 1033.1200000000001 561.932C1033.1200000000001 564.4490000000001 1035.16 566.496 1037.68 566.496C1038.3200000000002 566.496 1038.8400000000001 567.0169999999999 1038.8400000000001 567.659C1038.8400000000001 568.302 1038.3200000000002 568.823 1037.68 568.823ZM1040.54 577.413C1035.1599999999999 577.413 1030.79 573.038 1030.79 567.659C1030.79 567.0169999999999 1031.31 566.496 1031.95 566.496C1032.5900000000001 566.496 1033.1200000000001 567.0169999999999 1033.1200000000001 567.659C1033.1200000000001 571.755 1036.45 575.087 1040.5400000000002 575.087C1041.1800000000003 575.087 1041.7000000000003 575.608 1041.7000000000003 576.25C1041.7000000000003 576.893 1041.1800000000003 577.413 1040.5400000000002 577.413ZM1043.4 586.004C1036.45 586.004 1030.7900000000002 580.344 1030.7900000000002 573.3870000000001C1030.7900000000002 572.744 1031.3100000000002 572.2230000000001 1031.9500000000003 572.2230000000001C1032.5900000000004 572.2230000000001 1033.1200000000003 572.744 1033.1200000000003 573.3870000000001C1033.1200000000003 579.061 1037.7300000000002 583.6780000000001 1043.4000000000003 583.6780000000001C1044.0400000000004 583.6780000000001 1044.5600000000004 584.1980000000001 1044.5600000000004 584.8410000000001C1044.5600000000004 585.4830000000002 1044.0400000000004 586.0040000000001 1043.4000000000003 586.0040000000001ZM1062 581.709C1061.36 581.709 1060.84 581.188 1060.84 580.545V555.127C1060.84 554.4839999999999 1061.36 553.963 1062 553.963C1062.64 553.963 1063.16 554.4839999999999 1063.16 555.127V580.545C1063.16 581.188 1062.64 581.709 1062 581.709ZM1056.28 561.663C1055.6299999999999 561.663 1055.11 561.143 1055.11 560.5C1055.11 559.858 1055.6299999999999 559.337 1056.28 559.337C1058.79 559.337 1060.84 557.29 1060.84 554.773C1060.84 554.13 1061.36 553.61 1062 553.61C1062.64 553.61 1063.16 554.13 1063.16 554.773C1063.16 558.572 1060.0700000000002 561.663 1056.28 561.663ZM1053.42 570.254C1052.77 570.254 1052.25 569.734 1052.25 569.091C1052.25 568.449 1052.77 567.928 1053.42 567.928C1057.51 567.928 1060.8400000000001 564.596 1060.8400000000001 560.5C1060.8400000000001 559.858 1061.3600000000001 559.337 1062.0000000000002 559.337C1062.6400000000003 559.337 1063.1600000000003 559.858 1063.1600000000003 560.5C1063.1600000000003 565.879 1058.7900000000004 570.254 1053.4200000000003 570.254ZM1050.55 578.845C1049.9099999999999 578.845 1049.3899999999999 578.3240000000001 1049.3899999999999 577.682C1049.3899999999999 577.039 1049.9099999999999 576.519 1050.55 576.519C1056.22 576.519 1060.84 571.902 1060.84 566.227C1060.84 565.5849999999999 1061.36 565.064 1062 565.064C1062.64 565.064 1063.16 565.5849999999999 1063.16 566.227C1063.16 573.185 1057.51 578.845 1050.5500000000002 578.845ZM1067.72 561.663C1063.93 561.663 1060.84 558.572 1060.84 554.773C1060.84 554.13 1061.36 553.61 1062 553.61C1062.64 553.61 1063.16 554.13 1063.16 554.773C1063.16 557.2900000000001 1065.21 559.337 1067.72 559.337C1068.3700000000001 559.337 1068.89 559.858 1068.89 560.5C1068.89 561.143 1068.3700000000001 561.663 1067.72 561.663ZM1070.58 570.254C1065.21 570.254 1060.84 565.879 1060.84 560.5C1060.84 559.858 1061.36 559.337 1062 559.337C1062.64 559.337 1063.16 559.858 1063.16 560.5C1063.16 564.596 1066.49 567.928 1070.5800000000002 567.928C1071.2300000000002 567.928 1071.7500000000002 568.449 1071.7500000000002 569.091C1071.7500000000002 569.734 1071.2300000000002 570.254 1070.5800000000002 570.254ZM1073.45 578.845C1066.49 578.845 1060.8400000000001 573.1850000000001 1060.8400000000001 566.227C1060.8400000000001 565.5849999999999 1061.3600000000001 565.064 1062.0000000000002 565.064C1062.6400000000003 565.064 1063.1600000000003 565.5849999999999 1063.1600000000003 566.227C1063.1600000000003 571.9019999999999 1067.7800000000002 576.519 1073.4500000000003 576.519C1074.0900000000004 576.519 1074.6100000000004 577.039 1074.6100000000004 577.682C1074.6100000000004 578.3240000000001 1074.0900000000004 578.845 1073.4500000000003 578.845ZM1087.29 598.891H1038.1399999999999C1036.4599999999998 598.891 1035.08 597.5169999999999 1035.08 595.829V592.467C1035.08 590.779 1036.46 589.405 1038.1399999999999 589.405H1087.29C1088.98 589.405 1090.35 590.779 1090.35 592.467V595.829C1090.35 597.5169999999999 1088.98 598.891 1087.29 598.891ZM1038.14 591.731C1037.74 591.731 1037.41 592.061 1037.41 592.467V595.829C1037.41 596.2339999999999 1037.74 596.564 1038.14 596.564H1087.2900000000002C1087.6900000000003 596.564 1088.0200000000002 596.2339999999999 1088.0200000000002 595.829V592.467C1088.0200000000002 592.061 1087.6900000000003 591.731 1087.2900000000002 591.731ZM1098.73 620.368H1025.27C1023.5799999999999 620.368 1022.21 618.994 1022.21 617.306V613.9440000000001C1022.21 612.2550000000001 1023.58 610.8820000000001 1025.27 610.8820000000001H1098.73C1100.42 610.8820000000001 1101.79 612.2550000000001 1101.79 613.9440000000001V617.306C1101.79 618.994 1100.42 620.368 1098.73 620.368ZM1025.27 613.209C1024.86 613.209 1024.53 613.539 1024.53 613.944V617.3059999999999C1024.53 617.7109999999999 1024.86 618.0409999999999 1025.27 618.0409999999999H1098.73C1099.14 618.0409999999999 1099.47 617.7109999999999 1099.47 617.3059999999999V613.944C1099.47 613.539 1099.14 613.209 1098.73 613.209ZM1048.6 613.209H1040.02C1039.59 613.209 1039.2 612.977 1039 612.6049999999999C1038.79 612.233 1038.81 611.7789999999999 1039.04 611.4209999999999L1048.1399999999999 597.103C1048.36 596.7669999999999 1048.7299999999998 596.564 1049.12 596.564H1057.7099999999998C1058.1299999999999 596.564 1058.5199999999998 596.795 1058.7299999999998 597.1669999999999C1058.9299999999998 597.54 1058.9199999999998 597.9939999999999 1058.6899999999998 598.3519999999999L1049.58 612.6699999999998C1049.37 613.0059999999999 1049 613.2089999999998 1048.6 613.2089999999998ZM1042.13 610.882H1047.96L1055.5900000000001 598.891H1049.7600000000002ZM1037.07 630.39H1031.09C1030.27 630.39 1029.51 629.941 1029.11 629.217C1028.7099999999998 628.4929999999999 1028.74 627.61 1029.1799999999998 626.913L1034.4799999999998 618.58C1034.6999999999998 618.244 1035.0699999999997 618.041 1035.4699999999998 618.041H1044.0499999999997C1044.4699999999998 618.041 1044.8699999999997 618.273 1045.0699999999997 618.6450000000001C1045.2699999999998 619.017 1045.2599999999998 619.4710000000001 1045.0299999999997 619.8290000000001L1038.9799999999998 629.3420000000001C1038.5599999999997 629.998 1037.8499999999997 630.3900000000001 1037.0699999999997 630.3900000000001ZM1031.21 628.064H1037.04L1041.93 620.3679999999999H1036.1000000000001ZM1085.41 613.209H1076.8300000000002C1076.43 613.209 1076.0600000000002 613.006 1075.8500000000001 612.67L1066.7400000000002 598.352C1066.5100000000002 597.994 1066.5000000000002 597.54 1066.7000000000003 597.167C1066.9100000000003 596.7950000000001 1067.3000000000002 596.5640000000001 1067.7200000000003 596.5640000000001H1076.3100000000002C1076.7100000000003 596.5640000000001 1077.0800000000002 596.767 1077.2900000000002 597.1030000000001L1086.39 611.421C1086.6200000000001 611.779 1086.64 612.2330000000001 1086.43 612.605C1086.23 612.977 1085.8400000000001 613.2090000000001 1085.41 613.2090000000001ZM1077.47 610.882H1083.3L1075.6699999999998 598.891H1069.84ZM1094.34 630.39H1088.36C1087.58 630.39 1086.87 629.9979999999999 1086.4499999999998 629.341L1080.3999999999999 619.829C1080.1699999999998 619.471 1080.1599999999999 619.0169999999999 1080.36 618.645C1080.57 618.273 1080.9599999999998 618.0409999999999 1081.3799999999999 618.0409999999999H1089.9699999999998C1090.36 618.0409999999999 1090.7299999999998 618.2439999999999 1090.9499999999998 618.5799999999999L1096.2499999999998 626.9129999999999C1096.6899999999998 627.6099999999999 1096.7199999999998 628.4929999999999 1096.3199999999997 629.2169999999999C1095.9199999999996 629.9409999999999 1095.1599999999996 630.3899999999999 1094.3399999999997 630.3899999999999ZM1088.39 628.064H1094.22L1089.33 620.3679999999999H1083.5Z " fill-opacity="1" transform="matrix(1,0,0,1,-1019,-553)"></path></svg>
