<svg aria-hidden="true" id="SvgjsSvg1029" xmlns="http://www.w3.org/2000/svg" version="1.1" xmlns:xlink="http://www.w3.org/1999/xlink" xmlns:svgjs="http://svgjs.com/svgjs" width="67" height="78" viewBox="0 0 67 78"><defs id="SvgjsDefs1030"></defs><path id="SvgjsPath1031" d="M281.586 1320.9V1320.9V1320.9ZM278.83 1334.48V1334.48V1334.48ZM278.821 1334.47V1334.47V1334.47ZM260.871 1320.39L260.84499999999997 1320.4C260.80699999999996 1320.41 260.77099999999996 1320.42 260.73499999999996 1320.44L260.70599999999996 1320.45C260.67199999999997 1320.46 260.63899999999995 1320.48 260.60599999999994 1320.5L260.57399999999996 1320.51C260.542 1320.53 260.51199999999994 1320.55 260.48299999999995 1320.57C260.46999999999997 1320.58 260.45799999999997 1320.58 260.44599999999997 1320.59C260.419 1320.61 260.393 1320.6299999999999 260.368 1320.6499999999999C260.353 1320.6599999999999 260.339 1320.6799999999998 260.325 1320.6899999999998C260.303 1320.7099999999998 260.283 1320.7299999999998 260.262 1320.7499999999998L260.238 1320.7699999999998C260.226 1320.7799999999997 260.219 1320.7899999999997 260.212 1320.7999999999997C260.198 1320.8099999999997 260.183 1320.8299999999997 260.168 1320.8499999999997C260.149 1320.8699999999997 260.13100000000003 1320.8899999999996 260.11400000000003 1320.9099999999996L260.08700000000005 1320.9499999999996C260.06600000000003 1320.9799999999996 260.047 1321.0099999999995 260.02900000000005 1321.0299999999995L260.01400000000007 1321.0599999999995C259.99500000000006 1321.0899999999995 259.97600000000006 1321.1299999999994 259.95900000000006 1321.1599999999994L259.94900000000007 1321.1799999999994C259.93300000000005 1321.2199999999993 259.9170000000001 1321.2599999999993 259.9030000000001 1321.2899999999993L259.89400000000006 1321.3199999999993C259.8810000000001 1321.3599999999992 259.8690000000001 1321.3899999999992 259.86000000000007 1321.4299999999992L259.85100000000006 1321.4599999999991C259.8430000000001 1321.499999999999 259.83500000000004 1321.529999999999 259.83000000000004 1321.569999999999L259.82400000000007 1321.609999999999C259.82000000000005 1321.639999999999 259.81500000000005 1321.679999999999 259.81300000000005 1321.709999999999L259.81200000000007 1321.7499999999989C259.81000000000006 1321.7899999999988 259.81000000000006 1321.8299999999988 259.8110000000001 1321.8599999999988L259.8130000000001 1321.8899999999987C259.8150000000001 1321.9299999999987 259.8190000000001 1321.9699999999987 259.8250000000001 1322.0199999999988L259.8280000000001 1322.0299999999988C259.83400000000006 1322.0799999999988 259.8430000000001 1322.1199999999988 259.85300000000007 1322.159999999999L259.85800000000006 1322.179999999999C259.8690000000001 1322.2299999999989 259.8810000000001 1322.2599999999989 259.89400000000006 1322.2999999999988L259.9050000000001 1322.3299999999988C259.91800000000006 1322.3699999999988 259.9320000000001 1322.3999999999987 259.9460000000001 1322.4299999999987C259.95400000000006 1322.4499999999987 259.96100000000007 1322.4599999999987 259.9690000000001 1322.4799999999987C259.9810000000001 1322.4999999999986 259.9950000000001 1322.5299999999986 260.0090000000001 1322.5499999999986C260.0220000000001 1322.5699999999986 260.0340000000001 1322.5899999999986 260.04700000000014 1322.6099999999985C260.05800000000016 1322.6299999999985 260.07000000000016 1322.6499999999985 260.08200000000016 1322.6699999999985C260.10200000000015 1322.6899999999985 260.1220000000002 1322.7199999999984 260.14300000000014 1322.7499999999984L260.16500000000013 1322.7699999999984C260.1950000000001 1322.8099999999984 260.22500000000014 1322.8399999999983 260.2570000000001 1322.8699999999983L260.3030000000001 1322.9199999999983L268.0540000000001 1330.4799999999982L266.2140000000001 1341.2099999999982C266.2150000000001 1341.2099999999982 266.2140000000001 1341.2099999999982 266.21300000000014 1341.2199999999982C266.20600000000013 1341.2599999999982 266.20100000000014 1341.2999999999981 266.1970000000001 1341.339999999998L266.19600000000014 1341.369999999998C266.19300000000015 1341.409999999998 266.1920000000001 1341.449999999998 266.19300000000015 1341.489999999998C266.19300000000015 1341.499999999998 266.19400000000013 1341.519999999998 266.19500000000016 1341.529999999998C266.19600000000014 1341.559999999998 266.1990000000002 1341.5999999999979 266.20200000000017 1341.6299999999978C266.20500000000015 1341.6499999999978 266.20700000000016 1341.6699999999978 266.21000000000015 1341.6799999999978C266.21400000000017 1341.7099999999978 266.21900000000016 1341.7399999999977 266.22500000000014 1341.7699999999977C266.23000000000013 1341.7899999999977 266.2350000000001 1341.8099999999977 266.2400000000001 1341.8299999999977C266.2470000000001 1341.8599999999976 266.2530000000001 1341.8799999999976 266.26100000000014 1341.8999999999976C266.2690000000001 1341.9299999999976 266.27700000000016 1341.9499999999975 266.2860000000001 1341.9799999999975C266.2940000000001 1341.9999999999975 266.30200000000013 1342.0199999999975 266.3100000000001 1342.0399999999975C266.3220000000001 1342.0699999999974 266.3350000000001 1342.0899999999974 266.3480000000001 1342.1199999999974C266.35200000000015 1342.1299999999974 266.3560000000001 1342.1399999999974 266.3610000000001 1342.1499999999974C266.3650000000001 1342.1499999999974 266.3690000000001 1342.1599999999974 266.3740000000001 1342.1699999999973C266.3880000000001 1342.1999999999973 266.4030000000001 1342.2199999999973 266.4190000000001 1342.2499999999973C266.4340000000001 1342.2699999999973 266.4430000000001 1342.2899999999972 266.4530000000001 1342.2999999999972C266.4650000000001 1342.3199999999972 266.47800000000007 1342.3299999999972 266.4910000000001 1342.3499999999972L266.5010000000001 1342.3599999999972C266.5150000000001 1342.3799999999972 266.5290000000001 1342.3999999999971 266.5450000000001 1342.4199999999971C266.55100000000004 1342.429999999997 266.5590000000001 1342.439999999997 266.56700000000006 1342.449999999997L266.58200000000005 1342.459999999997C266.60300000000007 1342.479999999997 266.62300000000005 1342.509999999997 266.64400000000006 1342.529999999997L266.67800000000005 1342.559999999997C266.70300000000003 1342.579999999997 266.72700000000003 1342.599999999997 266.75200000000007 1342.619999999997L266.78800000000007 1342.649999999997C266.81500000000005 1342.669999999997 266.84100000000007 1342.6899999999969 266.8690000000001 1342.7099999999969L266.9070000000001 1342.7299999999968C266.9360000000001 1342.7499999999968 266.9640000000001 1342.7599999999968 266.9940000000001 1342.7799999999968L267.0320000000001 1342.7999999999968C267.0640000000001 1342.8099999999968 267.0950000000001 1342.8299999999967 267.1280000000001 1342.8399999999967L267.1590000000001 1342.8499999999967C267.1970000000001 1342.8699999999967 267.2340000000001 1342.8799999999967 267.27100000000013 1342.8899999999967H267.29200000000014C267.33500000000015 1342.9099999999967 267.37900000000013 1342.9199999999967 267.42200000000014 1342.9199999999967L267.43200000000013 1342.9299999999967C267.4760000000001 1342.9299999999967 267.52100000000013 1342.9399999999966 267.5650000000001 1342.9399999999966H267.5870000000001C267.6320000000001 1342.9499999999966 267.6680000000001 1342.9499999999966 267.7050000000001 1342.9499999999966C267.7220000000001 1342.9499999999966 267.7390000000001 1342.9399999999966 267.7550000000001 1342.9399999999966C267.7840000000001 1342.9399999999966 267.8130000000001 1342.9399999999966 267.84300000000013 1342.9399999999966C267.8650000000001 1342.9299999999967 267.8870000000001 1342.9299999999967 267.9090000000001 1342.9299999999967C267.9330000000001 1342.9199999999967 267.95600000000013 1342.9199999999967 267.98000000000013 1342.9199999999967C268.0070000000001 1342.9099999999967 268.03300000000013 1342.8999999999967 268.05900000000014 1342.8999999999967C268.0770000000001 1342.8899999999967 268.0960000000001 1342.8899999999967 268.11600000000016 1342.8799999999967C268.14600000000013 1342.8699999999967 268.17600000000016 1342.8599999999967 268.20500000000015 1342.8499999999967C268.22000000000014 1342.8399999999967 268.2350000000001 1342.8399999999967 268.25100000000015 1342.8299999999967C268.28300000000013 1342.8199999999968 268.31400000000014 1342.7999999999968 268.34500000000014 1342.7899999999968C268.35400000000016 1342.7799999999968 268.3630000000001 1342.7799999999968 268.3720000000001 1342.7799999999968L278.00400000000013 1337.7099999999969L287.63800000000015 1342.7799999999968C287.64500000000015 1342.7799999999968 287.65400000000017 1342.7799999999968 287.6630000000001 1342.7899999999968C287.69400000000013 1342.7999999999968 287.72500000000014 1342.8199999999968 287.7570000000001 1342.8299999999967C287.77300000000014 1342.8399999999967 287.7880000000001 1342.8399999999967 287.8030000000001 1342.8499999999967C287.8320000000001 1342.8599999999967 287.8610000000001 1342.8699999999967 287.8920000000001 1342.8799999999967C287.9110000000001 1342.8899999999967 287.9300000000001 1342.8899999999967 287.9490000000001 1342.8999999999967C287.9740000000001 1342.8999999999967 288.0000000000001 1342.9099999999967 288.0270000000001 1342.9199999999967C288.0520000000001 1342.9199999999967 288.0750000000001 1342.9199999999967 288.0990000000001 1342.9299999999967C288.1200000000001 1342.9299999999967 288.1420000000001 1342.9299999999967 288.1640000000001 1342.9399999999966C288.1940000000001 1342.9399999999966 288.2240000000001 1342.9399999999966 288.2540000000001 1342.9399999999966C288.26900000000006 1342.9399999999966 288.2850000000001 1342.9499999999966 288.3020000000001 1342.9499999999966C288.33900000000006 1342.9499999999966 288.3760000000001 1342.9499999999966 288.4120000000001 1342.9399999999966H288.4400000000001C288.48700000000014 1342.9399999999966 288.5310000000001 1342.9299999999967 288.57600000000014 1342.9299999999967L288.58700000000016 1342.9199999999967C288.6320000000002 1342.9199999999967 288.67400000000015 1342.9099999999967 288.7160000000002 1342.8899999999967H288.7300000000002C288.77400000000017 1342.8799999999967 288.8110000000002 1342.8699999999967 288.8470000000002 1342.8499999999967L288.8800000000002 1342.8399999999967C288.9120000000002 1342.8299999999967 288.94400000000024 1342.8099999999968 288.97500000000025 1342.7999999999968L289.01400000000024 1342.7799999999968C289.04300000000023 1342.7599999999968 289.07200000000023 1342.7499999999968 289.10000000000025 1342.7299999999968L289.13800000000026 1342.7099999999969C289.16700000000026 1342.6899999999969 289.19300000000027 1342.669999999997 289.22000000000025 1342.649999999997L289.2550000000003 1342.619999999997C289.2810000000003 1342.599999999997 289.3050000000003 1342.579999999997 289.3290000000003 1342.559999999997L289.3630000000003 1342.529999999997C289.3850000000003 1342.509999999997 289.40500000000026 1342.479999999997 289.4260000000003 1342.459999999997L289.43900000000025 1342.449999999997C289.44700000000023 1342.439999999997 289.45600000000024 1342.429999999997 289.46300000000025 1342.4199999999971C289.47800000000024 1342.3999999999971 289.49200000000025 1342.3799999999972 289.50600000000026 1342.3699999999972C289.52700000000027 1342.3399999999972 289.5410000000003 1342.3199999999972 289.55400000000026 1342.2999999999972C289.56400000000025 1342.2899999999972 289.57400000000024 1342.2699999999973 289.58300000000025 1342.2499999999973C289.60400000000027 1342.2199999999973 289.62000000000023 1342.1999999999973 289.63400000000024 1342.1699999999973L289.6470000000002 1342.1499999999974C289.65100000000024 1342.1399999999974 289.65600000000023 1342.1299999999974 289.6600000000002 1342.1199999999974C289.6730000000002 1342.0899999999974 289.6860000000002 1342.0699999999974 289.6970000000002 1342.0399999999975C289.7060000000002 1342.0199999999975 289.71400000000017 1341.9999999999975 289.72200000000015 1341.9799999999975C289.73000000000013 1341.9499999999975 289.73900000000015 1341.9299999999976 289.7470000000001 1341.8999999999976C289.75400000000013 1341.8799999999976 289.76100000000014 1341.8599999999976 289.7670000000001 1341.8299999999977C289.7730000000001 1341.8099999999977 289.77800000000013 1341.7899999999977 289.7820000000001 1341.7699999999977C289.78800000000007 1341.7399999999977 289.7930000000001 1341.7099999999978 289.7980000000001 1341.6799999999978C289.8000000000001 1341.6699999999978 289.8030000000001 1341.6499999999978 289.8050000000001 1341.6299999999978C289.80900000000014 1341.5999999999979 289.8110000000001 1341.559999999998 289.8130000000001 1341.529999999998L289.8140000000001 1341.489999999998C289.81500000000005 1341.449999999998 289.8140000000001 1341.409999999998 289.81200000000007 1341.379999999998L289.81000000000006 1341.339999999998C289.8070000000001 1341.2999999999981 289.8020000000001 1341.2599999999982 289.7950000000001 1341.2199999999982L289.78400000000005 1341.1499999999983L287.95300000000003 1330.4799999999982L295.749 1322.8699999999983C295.78200000000004 1322.8399999999983 295.81300000000005 1322.8099999999984 295.841 1322.7699999999984L295.857 1322.7599999999984C295.886 1322.7199999999984 295.906 1322.6899999999985 295.925 1322.6699999999985C295.938 1322.6499999999985 295.949 1322.6299999999985 295.96000000000004 1322.6099999999985C295.973 1322.5899999999986 295.98600000000005 1322.5699999999986 295.99800000000005 1322.5499999999986C296.01300000000003 1322.5299999999986 296.02600000000007 1322.4999999999986 296.03900000000004 1322.4799999999987C296.04600000000005 1322.4599999999987 296.05400000000003 1322.4499999999987 296.06100000000004 1322.4299999999987C296.076 1322.3999999999987 296.08900000000006 1322.3699999999988 296.10100000000006 1322.3299999999988L296.11300000000006 1322.2999999999988C296.12700000000007 1322.2599999999989 296.13800000000003 1322.2299999999989 296.1480000000001 1322.189999999999L296.1550000000001 1322.159999999999C296.1650000000001 1322.119999999999 296.17300000000006 1322.079999999999 296.18000000000006 1322.039999999999L296.18300000000005 1322.009999999999C296.189 1321.9699999999991 296.19200000000006 1321.9299999999992 296.19500000000005 1321.8899999999992L296.196 1321.8699999999992C296.19800000000004 1321.8299999999992 296.197 1321.7899999999993 296.196 1321.7499999999993L296.19500000000005 1321.7099999999994C296.19200000000006 1321.6799999999994 296.18800000000005 1321.6399999999994 296.18300000000005 1321.6099999999994L296.17800000000005 1321.5699999999995C296.1720000000001 1321.5299999999995 296.16400000000004 1321.4999999999995 296.15600000000006 1321.4599999999996L296.1480000000001 1321.4299999999996C296.1380000000001 1321.3899999999996 296.1260000000001 1321.3599999999997 296.1140000000001 1321.3199999999997L296.1070000000001 1321.2999999999997C296.09100000000007 1321.2599999999998 296.0750000000001 1321.2199999999998 296.0580000000001 1321.1799999999998L296.0500000000001 1321.1599999999999C296.03200000000015 1321.1299999999999 296.01300000000015 1321.09 295.9930000000001 1321.06L295.9830000000001 1321.04C295.9610000000001 1321.01 295.94100000000014 1320.98 295.9210000000001 1320.95L295.8930000000001 1320.91C295.87700000000007 1320.89 295.8590000000001 1320.8700000000001 295.8400000000001 1320.8500000000001C295.8250000000001 1320.8300000000002 295.8100000000001 1320.8100000000002 295.7950000000001 1320.7900000000002C295.78800000000007 1320.7900000000002 295.7820000000001 1320.7800000000002 295.77600000000007 1320.7700000000002L295.74700000000007 1320.7500000000002C295.7250000000001 1320.7300000000002 295.7030000000001 1320.7100000000003 295.6810000000001 1320.6900000000003C295.6690000000001 1320.6800000000003 295.6560000000001 1320.6600000000003 295.6420000000001 1320.6500000000003C295.6150000000001 1320.6300000000003 295.58800000000014 1320.6100000000004 295.5590000000001 1320.5900000000004L295.5280000000001 1320.5700000000004C295.4960000000001 1320.5500000000004 295.46400000000006 1320.5300000000004 295.4310000000001 1320.5100000000004L295.4050000000001 1320.5000000000005C295.37000000000006 1320.4800000000005 295.33400000000006 1320.4600000000005 295.29800000000006 1320.4500000000005L295.27600000000007 1320.4400000000005C295.23800000000006 1320.4200000000005 295.20000000000005 1320.4100000000005 295.16100000000006 1320.3900000000006H295.14000000000004C295.10100000000006 1320.3800000000006 295.06100000000004 1320.3700000000006 295.02000000000004 1320.3600000000006L294.96700000000004 1320.3500000000006C294.95300000000003 1320.3400000000006 294.939 1320.3400000000006 294.92400000000004 1320.3400000000006L284.153 1318.7700000000007L279.339 1309.0100000000007C279.333 1309.0000000000007 279.326 1308.9900000000007 279.319 1308.9700000000007L279.288 1308.9200000000008C279.27000000000004 1308.8900000000008 279.25 1308.8600000000008 279.23 1308.8300000000008L279.20500000000004 1308.7900000000009C279.18700000000007 1308.770000000001 279.16700000000003 1308.740000000001 279.148 1308.720000000001C279.134 1308.700000000001 279.12100000000004 1308.690000000001 279.107 1308.670000000001C279.091 1308.650000000001 279.07300000000004 1308.630000000001 279.055 1308.620000000001C279.036 1308.600000000001 279.01800000000003 1308.580000000001 278.999 1308.560000000001C278.98400000000004 1308.550000000001 278.96900000000005 1308.540000000001 278.954 1308.5200000000011C278.92900000000003 1308.5000000000011 278.90500000000003 1308.4800000000012 278.879 1308.4700000000012L278.845 1308.4400000000012C278.814 1308.4200000000012 278.783 1308.4000000000012 278.75100000000003 1308.3800000000012L278.699 1308.3500000000013C278.687 1308.3500000000013 278.675 1308.3400000000013 278.66200000000003 1308.3300000000013L278.619 1308.3100000000013C278.567 1308.2900000000013 278.526 1308.2700000000013 278.48400000000004 1308.2600000000014C278.43300000000005 1308.2400000000014 278.391 1308.2300000000014 278.34700000000004 1308.2200000000014H278.336C278.29400000000004 1308.2100000000014 278.252 1308.2000000000014 278.21000000000004 1308.2000000000014L278.17600000000004 1308.1900000000014C278.14300000000003 1308.1900000000014 278.10800000000006 1308.1700000000014 278.07300000000004 1308.1600000000014C278.05600000000004 1308.1600000000014 278.04100000000005 1308.1500000000015 278.026 1308.1500000000015H277.982C277.966 1308.1500000000015 277.951 1308.1600000000014 277.93600000000004 1308.1600000000014C277.89900000000006 1308.1700000000014 277.865 1308.1800000000014 277.83000000000004 1308.1800000000014L277.80800000000005 1308.1900000000014C277.75600000000003 1308.2000000000014 277.71400000000006 1308.2100000000014 277.672 1308.2200000000014H277.658C277.617 1308.2300000000014 277.574 1308.2400000000014 277.53200000000004 1308.2600000000014H277.51800000000003C277.482 1308.2700000000013 277.44100000000003 1308.2900000000013 277.40000000000003 1308.3100000000013L277.345 1308.3300000000013C277.333 1308.3400000000013 277.321 1308.3500000000013 277.309 1308.3500000000013L277.254 1308.3800000000012C277.225 1308.4000000000012 277.194 1308.4200000000012 277.16400000000004 1308.4400000000012L277.12800000000004 1308.4700000000012C277.10300000000007 1308.4800000000012 277.07800000000003 1308.5000000000011 277.05400000000003 1308.5200000000011C277.03900000000004 1308.540000000001 277.02400000000006 1308.550000000001 277.009 1308.560000000001C276.99 1308.580000000001 276.971 1308.600000000001 276.95300000000003 1308.620000000001C276.934 1308.640000000001 276.91700000000003 1308.650000000001 276.89900000000006 1308.670000000001C276.88700000000006 1308.690000000001 276.8740000000001 1308.700000000001 276.86100000000005 1308.720000000001C276.84000000000003 1308.740000000001 276.821 1308.770000000001 276.80300000000005 1308.7900000000009C276.79400000000004 1308.8000000000009 276.78600000000006 1308.8200000000008 276.7780000000001 1308.8300000000008C276.75700000000006 1308.8600000000008 276.7370000000001 1308.8900000000008 276.71900000000005 1308.9200000000008L276.6890000000001 1308.9700000000007C276.6820000000001 1308.9900000000007 276.67500000000007 1309.0000000000007 276.66800000000006 1309.0100000000007L271.8550000000001 1318.7700000000007L261.0830000000001 1320.3400000000006C261.0700000000001 1320.3400000000006 261.0570000000001 1320.3400000000006 261.04300000000006 1320.3500000000006H261.00900000000007L260.9290000000001 1320.0900000000006L260.9860000000001 1320.3600000000006C260.9470000000001 1320.3700000000006 260.90800000000013 1320.3800000000006 260.8710000000001 1320.3900000000006ZM273.055 1321.61C273.235 1321.58 273.409 1321.52 273.57 1321.4299999999998L273.585 1321.4199999999998C273.621 1321.3999999999999 273.657 1321.3799999999999 273.692 1321.35L273.704 1321.34C273.736 1321.32 273.76800000000003 1321.3 273.79900000000004 1321.27L273.81300000000005 1321.26C273.84700000000004 1321.23 273.874 1321.2 273.90100000000007 1321.17L273.91600000000005 1321.16C273.95000000000005 1321.1200000000001 273.9750000000001 1321.1000000000001 273.9990000000001 1321.0700000000002L274.01200000000006 1321.0500000000002C274.04400000000004 1321.0100000000002 274.06700000000006 1320.9700000000003 274.09000000000003 1320.9400000000003L274.10100000000006 1320.9200000000003C274.12700000000007 1320.8800000000003 274.15100000000007 1320.8400000000004 274.17300000000006 1320.7900000000002L274.18700000000007 1320.7700000000002L278.0040000000001 1313.0300000000002L281.82000000000005 1320.7700000000002L281.58600000000007 1320.9000000000003L281.82400000000007 1320.7900000000004L281.8260000000001 1320.8100000000004H281.83400000000006C281.85600000000005 1320.8500000000004 281.88000000000005 1320.8900000000003 281.90600000000006 1320.9300000000003L281.91800000000006 1320.9400000000003C281.94000000000005 1320.9800000000002 281.96400000000006 1321.0100000000002 281.9890000000001 1321.0400000000002L282.00900000000007 1321.0700000000002C282.0330000000001 1321.1000000000001 282.05800000000005 1321.13 282.08400000000006 1321.15L282.10600000000005 1321.18C282.13300000000004 1321.2 282.16100000000006 1321.23 282.19000000000005 1321.25L282.208 1321.27C282.24 1321.3 282.27200000000005 1321.32 282.305 1321.35H282.317C282.351 1321.3799999999999 282.386 1321.3999999999999 282.423 1321.4199999999998L282.437 1321.4299999999998C282.598 1321.5199999999998 282.772 1321.58 282.95300000000003 1321.61L291.51200000000006 1322.85L285.32800000000003 1328.8799999999999C285.314 1328.8999999999999 285.307 1328.9099999999999 285.3 1328.9099999999999C285.27500000000003 1328.9399999999998 285.249 1328.9699999999998 285.225 1328.9999999999998C285.211 1329.0099999999998 285.19800000000004 1329.0299999999997 285.18600000000004 1329.0399999999997L285.15900000000005 1329.0799999999997C285.15200000000004 1329.0899999999997 285.1460000000001 1329.0999999999997 285.13900000000007 1329.1099999999997C285.11800000000005 1329.1399999999996 285.09900000000005 1329.1699999999996 285.08000000000004 1329.1999999999996L285.07000000000005 1329.2199999999996C285.04400000000004 1329.2599999999995 285.02600000000007 1329.2999999999995 285.00900000000007 1329.3299999999995L285.00200000000007 1329.3499999999995C284.9840000000001 1329.3899999999994 284.96900000000005 1329.4299999999994 284.95500000000004 1329.4699999999993L284.94900000000007 1329.4799999999993C284.93500000000006 1329.5199999999993 284.92500000000007 1329.5599999999993 284.9150000000001 1329.5999999999992L284.9100000000001 1329.6199999999992C284.9000000000001 1329.6599999999992 284.8930000000001 1329.6999999999991 284.8880000000001 1329.739999999999L284.88400000000007 1329.759999999999C284.8780000000001 1329.809999999999 284.87500000000006 1329.849999999999 284.87300000000005 1329.8899999999992L284.87200000000007 1329.9099999999992C284.87000000000006 1329.9599999999991 284.8710000000001 1329.999999999999 284.8740000000001 1330.0399999999993V1330.0599999999993C284.87700000000007 1330.1099999999992 284.8830000000001 1330.1499999999992 284.8900000000001 1330.1899999999994L284.8930000000001 1330.2199999999993L286.3540000000001 1338.7399999999993L278.7180000000001 1334.7199999999993L278.8300000000001 1334.4799999999993L278.6980000000001 1334.7099999999994H278.68700000000007C278.6480000000001 1334.6899999999994 278.6070000000001 1334.6699999999994 278.5660000000001 1334.6499999999994C278.55500000000006 1334.6499999999994 278.5460000000001 1334.6399999999994 278.5360000000001 1334.6399999999994L278.4970000000001 1334.6299999999994C278.47500000000014 1334.6199999999994 278.45300000000015 1334.6099999999994 278.43100000000015 1334.5999999999995C278.4110000000002 1334.5999999999995 278.39100000000013 1334.5899999999995 278.37100000000015 1334.5899999999995L278.33700000000016 1334.5799999999995C278.3220000000002 1334.5799999999995 278.3070000000002 1334.5699999999995 278.29200000000014 1334.5699999999995C278.26800000000014 1334.5599999999995 278.24400000000014 1334.5599999999995 278.22000000000014 1334.5599999999995L278.19300000000015 1334.5499999999995C278.17900000000014 1334.5499999999995 278.16400000000016 1334.5499999999995 278.15000000000015 1334.5499999999995C278.1270000000001 1334.5499999999995 278.10600000000017 1334.5499999999995 278.0840000000002 1334.5399999999995H278.05800000000016C278.02300000000014 1334.5399999999995 277.98800000000017 1334.5399999999995 277.95000000000016 1334.5399999999995H277.9350000000002C277.90200000000016 1334.5499999999995 277.88000000000017 1334.5499999999995 277.8580000000002 1334.5499999999995C277.8430000000002 1334.5499999999995 277.8290000000002 1334.5499999999995 277.8140000000002 1334.5499999999995L277.7960000000002 1334.5599999999995C277.7630000000002 1334.5599999999995 277.7390000000002 1334.5599999999995 277.7150000000002 1334.5699999999995C277.7000000000002 1334.5699999999995 277.68500000000023 1334.5799999999995 277.6710000000002 1334.5799999999995L277.6350000000002 1334.5899999999995C277.6160000000002 1334.5899999999995 277.59600000000023 1334.5999999999995 277.5770000000002 1334.5999999999995C277.5540000000002 1334.6099999999994 277.53300000000024 1334.6199999999994 277.51100000000025 1334.6299999999994L277.47100000000023 1334.6399999999994C277.4620000000002 1334.6399999999994 277.4520000000002 1334.6499999999994 277.4430000000002 1334.6499999999994C277.40100000000024 1334.6699999999994 277.3600000000002 1334.6899999999994 277.3200000000002 1334.7099999999994L277.29000000000025 1334.7199999999993L269.6540000000002 1338.7399999999993L271.1130000000002 1330.2299999999993L271.3800000000002 1330.2599999999993L271.1160000000002 1330.2099999999994L271.1180000000002 1330.1899999999994C271.1250000000002 1330.1499999999994 271.1300000000002 1330.1099999999994 271.1330000000002 1330.0599999999993L271.1340000000002 1330.0399999999993C271.1360000000002 1329.9999999999993 271.13700000000017 1329.9599999999994 271.1360000000002 1329.9199999999994L271.1340000000002 1329.8899999999994C271.1320000000002 1329.8499999999995 271.13000000000017 1329.8099999999995 271.12500000000017 1329.7699999999995L271.1200000000002 1329.7399999999996C271.1140000000002 1329.6999999999996 271.1080000000002 1329.6599999999996 271.09900000000016 1329.6299999999997L271.0930000000002 1329.5999999999997C271.0830000000002 1329.5599999999997 271.0720000000002 1329.5199999999998 271.0590000000002 1329.4899999999998L271.0530000000002 1329.4699999999998C271.0390000000002 1329.4299999999998 271.0240000000002 1329.3899999999999 271.00700000000023 1329.35L270.9980000000002 1329.33C270.9810000000002 1329.3 270.9630000000002 1329.26 270.9430000000002 1329.22L270.9280000000002 1329.2C270.9090000000002 1329.17 270.8900000000002 1329.14 270.8680000000002 1329.1100000000001C270.8630000000002 1329.1000000000001 270.8560000000002 1329.0900000000001 270.85000000000025 1329.0800000000002L270.82100000000025 1329.0400000000002C270.80900000000025 1329.0300000000002 270.79700000000025 1329.0100000000002 270.78300000000024 1329.0000000000002C270.75800000000027 1328.9700000000003 270.73200000000026 1328.9400000000003 270.70500000000027 1328.9100000000003C270.6990000000003 1328.9100000000003 270.69300000000027 1328.9000000000003 270.68600000000026 1328.8900000000003L270.86600000000027 1328.6900000000003L270.67200000000025 1328.8800000000003L264.49500000000023 1322.8500000000004ZM309.38 1301.15C309.049 1301.15 308.563 1301.13 307.849 1301.0900000000001C306.419 1301.0100000000002 304.97999999999996 1300.88 303.45 1300.68C298.57099999999997 1300.0600000000002 294.03499999999997 1298.96 289.967 1297.41C285.59299999999996 1295.75 281.89599999999996 1293.5800000000002 278.978 1290.98C278.967 1290.97 278.957 1290.96 278.94800000000004 1290.95C278.92900000000003 1290.94 278.91700000000003 1290.93 278.90500000000003 1290.92C278.89700000000005 1290.91 278.889 1290.9 278.879 1290.89C278.85900000000004 1290.88 278.839 1290.8700000000001 278.81800000000004 1290.8500000000001L278.79200000000003 1290.8300000000002C278.781 1290.8300000000002 278.771 1290.8200000000002 278.76000000000005 1290.8100000000002C278.737 1290.8000000000002 278.713 1290.7900000000002 278.68800000000005 1290.7700000000002L278.65900000000005 1290.7600000000002C278.65000000000003 1290.7500000000002 278.64200000000005 1290.7500000000002 278.63400000000007 1290.7500000000002C278.6040000000001 1290.7300000000002 278.57400000000007 1290.7200000000003 278.5440000000001 1290.7100000000003L278.5010000000001 1290.6900000000003C278.4700000000001 1290.6800000000003 278.4380000000001 1290.6700000000003 278.4070000000001 1290.6600000000003L278.3630000000001 1290.6500000000003C278.33300000000014 1290.6400000000003 278.30200000000013 1290.6400000000003 278.27100000000013 1290.6300000000003L278.2210000000001 1290.6200000000003C278.19600000000014 1290.6200000000003 278.17000000000013 1290.6200000000003 278.1440000000001 1290.6100000000004H278.1160000000001C278.1020000000001 1290.6100000000004 278.0900000000001 1290.6200000000003 278.0760000000001 1290.6200000000003C278.0580000000001 1290.6200000000003 278.0390000000001 1290.6300000000003 278.0200000000001 1290.6300000000003H277.9870000000001C277.9690000000001 1290.6300000000003 277.9500000000001 1290.6200000000003 277.9310000000001 1290.6200000000003C277.9180000000001 1290.6200000000003 277.9050000000001 1290.6200000000003 277.8920000000001 1290.6200000000003H277.8710000000001C277.8370000000001 1290.6200000000003 277.81200000000007 1290.6200000000003 277.7860000000001 1290.6200000000003L277.73700000000014 1290.6300000000003C277.70500000000015 1290.6400000000003 277.67400000000015 1290.6400000000003 277.6440000000001 1290.6500000000003L277.6010000000001 1290.6600000000003C277.56900000000013 1290.6700000000003 277.5380000000001 1290.6800000000003 277.5060000000001 1290.6900000000003L277.4630000000001 1290.7100000000003C277.4330000000001 1290.7200000000003 277.4030000000001 1290.7300000000002 277.3740000000001 1290.7500000000002C277.36500000000007 1290.7500000000002 277.3560000000001 1290.7500000000002 277.3470000000001 1290.7600000000002L277.32400000000007 1290.7700000000002C277.2900000000001 1290.7900000000002 277.2680000000001 1290.8000000000002 277.2460000000001 1290.8100000000002C277.2330000000001 1290.8200000000002 277.2210000000001 1290.8300000000002 277.2080000000001 1290.8400000000001L277.1660000000001 1290.8700000000001C277.1520000000001 1290.8700000000001 277.1380000000001 1290.88 277.1250000000001 1290.89C277.1080000000001 1290.91 277.0910000000001 1290.92 277.0750000000001 1290.93L277.0320000000001 1290.97C277.0260000000001 1290.97 277.0200000000001 1290.98 277.0150000000001 1290.98C274.1040000000001 1293.58 270.4020000000001 1295.74 266.0100000000001 1297.41C261.9530000000001 1298.96 257.4060000000001 1300.0600000000002 252.4960000000001 1300.68C251.0190000000001 1300.8700000000001 249.5190000000001 1301.01 248.0380000000001 1301.0900000000001C247.2740000000001 1301.13 246.45800000000008 1301.15 246.1230000000001 1301.15C245.3140000000001 1301.15 244.3750000000001 1301.8000000000002 244.3750000000001 1302.64V1328.48C244.3750000000001 1339.99 249.9800000000001 1350.07 261.03300000000013 1358.46C264.2450000000001 1360.9 268.0340000000001 1363.16 272.2930000000001 1365.18C273.7310000000001 1365.8600000000001 275.11700000000013 1366.42 276.0340000000001 1366.78C276.7480000000001 1367.07 277.2630000000001 1367.24 277.4740000000001 1367.31C277.4900000000001 1367.31 277.5100000000001 1367.31 277.5310000000001 1367.32C277.56900000000013 1367.33 277.6160000000001 1367.34 277.6560000000001 1367.35L277.69400000000013 1367.36C277.7280000000001 1367.37 277.7640000000001 1367.37 277.79900000000015 1367.3799999999999C277.81600000000014 1367.3799999999999 277.8340000000002 1367.3799999999999 277.85100000000017 1367.3799999999999C277.8770000000002 1367.3799999999999 277.9060000000002 1367.3899999999999 277.9350000000002 1367.3899999999999C277.9820000000002 1367.3899999999999 278.02400000000017 1367.3899999999999 278.07000000000016 1367.3899999999999C278.10100000000017 1367.3899999999999 278.1290000000002 1367.3799999999999 278.1580000000002 1367.3799999999999C278.1720000000002 1367.3799999999999 278.1890000000002 1367.3799999999999 278.2060000000002 1367.3799999999999C278.2410000000002 1367.37 278.2760000000002 1367.37 278.3100000000002 1367.36L278.3430000000002 1367.35C278.3830000000002 1367.34 278.4230000000002 1367.33 278.4620000000002 1367.32L278.48500000000024 1367.31C278.78000000000026 1367.22 279.30200000000025 1367.02 279.90700000000027 1366.78C281.0700000000003 1366.33 282.30700000000024 1365.79 283.58500000000026 1365.18C287.23000000000025 1363.45 290.7910000000003 1361.25 294.4710000000003 1358.46C305.1900000000003 1350.33 310.6250000000003 1340.24 310.6250000000003 1328.48V1302.64C310.6250000000003 1301.95 310.29900000000026 1301.15 309.3800000000003 1301.15ZM307.827 1304.34C307.824 1304.48 307.748 1304.54 307.663 1304.58V1328.48C307.663 1339.26 302.62100000000004 1348.55 292.677 1356.09C289.348 1358.61 285.819 1360.77 282.18600000000004 1362.49C280.72400000000005 1363.19 279.699 1363.64 278.759 1364.02C278.632 1364.07 278.521 1364.11 278.418 1364.15C278.29200000000003 1364.2 278.17900000000003 1364.25 278.069 1364.2900000000002L277.974 1364.3300000000002L277.88 1364.2900000000002C277.751 1364.2400000000002 277.613 1364.1900000000003 277.457 1364.13L277.176 1364.0200000000002C276.084 1363.5800000000002 274.914 1363.0700000000002 273.69599999999997 1362.4900000000002C269.32399999999996 1360.4100000000003 265.767 1358.3200000000002 262.823 1356.0900000000001C252.54699999999997 1348.2900000000002 247.337 1339.0100000000002 247.337 1328.4800000000002V1304.3400000000001C247.337 1304.0700000000002 247.587 1304.0700000000002 247.76999999999998 1304.0700000000002C247.843 1304.0700000000002 247.91599999999997 1304.0700000000002 247.933 1304.0600000000002C249.09 1304.0000000000002 250.86499999999998 1303.8700000000001 252.73399999999998 1303.64C257.923 1302.98 262.722 1301.8200000000002 266.998 1300.19C271.2 1298.6000000000001 274.835 1296.5700000000002 277.80199999999996 1294.18L277.96999999999997 1294.05L278.13899999999995 1294.18C281.11599999999993 1296.5800000000002 284.74499999999995 1298.6000000000001 288.92599999999993 1300.19C293.22099999999995 1301.8300000000002 298.0009999999999 1302.99 303.13199999999995 1303.64C304.917 1303.8600000000001 306.24499999999995 1303.99 307.57099999999997 1304.0600000000002L307.83099999999996 1304.0800000000002Z " fill-opacity="1" transform="matrix(1,0,0,1,-244,-1290)"></path></svg>
