<svg role="presentation" id="SvgjsSvg1008" xmlns="http://www.w3.org/2000/svg" version="1.1" xmlns:xlink="http://www.w3.org/1999/xlink" xmlns:svgjs="http://svgjs.com/svgjs" width="21" height="17" viewBox="0 0 21 17"><defs id="SvgjsDefs1009"></defs><path id="SvgjsPath1010" d="M143.558 59.5463C143.82 65.3175 139.482 71.7525 131.801 71.7525C129.46499999999997 71.7525 127.29099999999998 71.0737 125.46 69.9088C127.65499999999999 70.165 129.845 69.5612 131.584 68.21C129.774 68.1763 128.246 66.99 127.721 65.36C128.37 65.4825 129.007 65.4463 129.588 65.29C127.59899999999999 64.89380000000001 126.226 63.116200000000006 126.27 61.215C126.827 61.5225 127.466 61.7075 128.143 61.7287C126.302 60.5075 125.78 58.095000000000006 126.863 56.25C128.903 58.7325 131.951 60.3663 135.389 60.5375C134.785 57.9713 136.74800000000002 55.5 139.419 55.5C140.608 55.5 141.68300000000002 55.9975 142.43800000000002 56.7962C143.38000000000002 56.6125 144.26600000000002 56.2712 145.06500000000003 55.8012C144.75700000000003 56.76 144.10000000000002 57.5638 143.247 58.0713C144.084 57.9713 144.881 57.751200000000004 145.622 57.425000000000004C145.068 58.245000000000005 144.366 58.9675 143.55800000000002 59.5463Z " fill="#16a2f3" fill-opacity="1" transform="matrix(1,0,0,1,-125,-55)"></path></svg>