<svg aria-hidden="true" id="SvgjsSvg1000" xmlns="http://www.w3.org/2000/svg" version="1.1" xmlns:xlink="http://www.w3.org/1999/xlink" xmlns:svgjs="http://svgjs.com/svgjs" width="48" height="44" viewBox="0 0 48 44"><defs id="SvgjsDefs1001"></defs><path id="SvgjsPath1007" d="M257.158 3852.23C256.846 3852.55 256.846 3853.05 257.158 3853.37C258.60400000000004 3854.81 259.40000000000003 3856.74 259.40000000000003 3858.79C259.40000000000003 3860.84 258.60400000000004 3862.7599999999998 257.158 3864.21C256.846 3864.52 256.846 3865.03 257.158 3865.34C257.315 3865.5 257.519 3865.57 257.724 3865.57C257.929 3865.57 258.134 3865.5 258.28999999999996 3865.34C260.03799999999995 3863.59 260.99999999999994 3861.26 260.99999999999994 3858.79C260.99999999999994 3856.31 260.03799999999995 3853.98 258.28999999999996 3852.23C257.97799999999995 3851.92 257.47099999999995 3851.92 257.15799999999996 3852.23ZM215.71 3852.23C213.96200000000002 3853.98 213 3856.31 213 3858.79C213 3861.2599999999998 213.962 3863.59 215.71 3865.34C215.866 3865.5 216.071 3865.57 216.276 3865.57C216.48100000000002 3865.57 216.685 3865.5 216.842 3865.34C217.15400000000002 3865.03 217.15400000000002 3864.52 216.842 3864.21C215.39600000000002 3862.76 214.60000000000002 3860.84 214.60000000000002 3858.79C214.60000000000002 3856.74 215.39600000000002 3854.81 216.842 3853.37C217.15400000000002 3853.0499999999997 217.15400000000002 3852.5499999999997 216.842 3852.23C216.52900000000002 3851.92 216.02200000000002 3851.92 215.71 3852.23ZM253.79 3853.83C253.47799999999998 3854.15 253.47799999999998 3854.65 253.79 3854.97C255.83599999999998 3857.0099999999998 255.83599999999998 3860.3399999999997 253.79 3862.39C253.47799999999998 3862.7 253.47799999999998 3863.21 253.79 3863.52C253.946 3863.67 254.15099999999998 3863.75 254.356 3863.75C254.561 3863.75 254.766 3863.67 254.922 3863.52C257.591 3860.85 257.591 3856.5 254.922 3853.83C254.609 3853.52 254.102 3853.52 253.79 3853.83C253.47799999999998 3854.15 253.79 3853.83 253.79 3853.83ZM219.644 3863.75C219.84900000000002 3863.75 220.054 3863.67 220.21 3863.52C220.52200000000002 3863.21 220.52200000000002 3862.7 220.21 3862.39C218.16400000000002 3860.3399999999997 218.16400000000002 3857.0099999999998 220.21 3854.97C220.52200000000002 3854.6499999999996 220.52200000000002 3854.1499999999996 220.21 3853.83C219.898 3853.52 219.39100000000002 3853.52 219.078 3853.83C216.409 3856.5 216.409 3860.85 219.078 3863.52C219.234 3863.67 219.439 3863.75 219.644 3863.75C219.84900000000002 3863.75 219.644 3863.75 219.644 3863.75ZM258.29 3852.23C258.29 3852.23 256.54200000000003 3850.4900000000002 258.29 3852.23ZM250.62 3852C250.654 3846.52 246.965 3842.88 243.79500000000002 3841.43C242.90200000000002 3841.02 241.96 3840.72 241.00000000000003 3840.49L241.00000000000003 3840C241.00000000000003 3837.79 239.20600000000002 3836 237.00000000000003 3836C234.79400000000004 3836 233.00000000000003 3837.79 233.00000000000003 3840L233.00000000000003 3840.56C232.13700000000003 3840.79 231.28900000000002 3841.07 230.48300000000003 3841.44C226.98100000000002 3843.05 223.43200000000004 3846.9500000000003 223.40000000000003 3852L223.40000000000003 3859.2C223.40000000000003 3864.31 221.59500000000003 3868.7 218.03600000000003 3872.23C217.82400000000004 3872.44 217.74700000000004 3872.76 217.83800000000002 3873.04C217.92700000000002 3873.33 218.17000000000002 3873.54 218.46400000000003 3873.59L226.05700000000002 3874.9C227.49 3875.15 228.78900000000002 3875.34 230.01200000000003 3875.51C231.40800000000002 3878.2400000000002 234.15000000000003 3880 237.14600000000002 3880C240.14300000000003 3880 242.88600000000002 3878.24 244.282 3875.5C245.49900000000002 3875.34 246.792 3875.15 248.217 3874.9L255.80900000000003 3873.59C256.10400000000004 3873.54 256.346 3873.33 256.43600000000004 3873.04C256.526 3872.7599999999998 256.45000000000005 3872.44 256.23800000000006 3872.23C252.51000000000005 3868.53 250.62000000000006 3864.14 250.62000000000006 3859.2ZM228.195 3852.8C227.753 3852.8 227.398 3852.44 227.4 3852C227.424 3848.25 230.40200000000002 3845.88 232.15800000000002 3845.07C235.23800000000003 3843.65 239.03400000000002 3843.65 242.13400000000001 3845.07C242.53500000000003 3845.25 242.71200000000002 3845.73 242.52800000000002 3846.13C242.34400000000002 3846.53 241.87000000000003 3846.71 241.46800000000002 3846.52C238.78600000000003 3845.3 235.49300000000002 3845.3 232.82800000000003 3846.52C231.41500000000002 3847.18 229.01900000000003 3849.06 229.00000000000003 3852C228.99800000000002 3852.45 228.63900000000004 3852.8 228.20000000000002 3852.8ZM237.146 3878.4C235.119 3878.4 233.225 3877.39 232.009 3875.7400000000002L232.01 3875.7400000000002C232.32399999999998 3875.78 232.628 3875.8 232.932 3875.8300000000004C233.082 3875.8400000000006 233.23499999999999 3875.8600000000006 233.38299999999998 3875.8700000000003C233.493 3875.8800000000006 233.59799999999998 3875.8800000000006 233.706 3875.8900000000003C236.03099999999998 3876.0600000000004 238.173 3876.0600000000004 240.49499999999998 3875.9000000000005C240.63099999999997 3875.8900000000003 240.765 3875.8800000000006 240.902 3875.8700000000003C241.07399999999998 3875.8500000000004 241.25099999999998 3875.84 241.42499999999998 3875.82C241.69899999999998 3875.8 241.97199999999998 3875.77 242.254 3875.7400000000002L242.284 3875.7400000000002C241.07 3877.3900000000003 239.17399999999998 3878.4 237.146 3878.4ZM237 3837.6C238.323 3837.6 239.4 3838.68 239.4 3840L239.4 3840.15C237.806 3839.9300000000003 236.181 3839.94 234.6 3840.19L234.6 3840C234.6 3838.68 235.677 3837.6 237 3837.6Z " fill-opacity="1" transform="matrix(1,0,0,1,-213,-3836)"></path></svg>