<svg aria-hidden="true" xmlns="http://www.w3.org/2000/svg" version="1.1" width="209" height="257" viewBox="0 0 40.7 50"><path fill="#dcdcdc" d="M32.8,50L0.6,42.9C0.2,42.8-0.1,42.4,0,42l0,0L9.2,0.6C9.3,0.2,9.7-0.1,10.1,0l22.2,4.9c0.2,0,0.4,0.2,0.5,0.3 l7.8,12.2c0.1,0.2,0.1,0.4,0.1,0.6l-7,31.4C33.6,49.8,33.2,50.1,32.8,50L32.8,50z M1.6,41.6l30.8,6.8l6.7-30l-9.3-2.1 c-0.4-0.1-0.6-0.5-0.6-0.9l2.1-9.3L10.5,1.6L1.6,41.6z M30.8,15.1l7.6,1.7l-2.9-4.6l-2.9-4.6L30.8,15.1z M31.5,22L20,19.5 c-0.4-0.1-0.6-0.5-0.6-0.9c0.1-0.4,0.5-0.6,0.9-0.6h0l11.4,2.5c0.4,0.1,0.6,0.5,0.6,0.9C32.3,21.8,31.9,22.1,31.5,22L31.5,22z  M14.2,18.9c-0.2,0-0.4-0.2-0.5-0.3l-1.1-1.8c-0.2-0.4-0.1-0.8,0.3-1c0.3-0.2,0.8-0.1,1,0.2l0.8,1.2l3.6-1.8c0.4-0.2,0.8,0,1,0.3 c0.2,0.4,0,0.8-0.3,1l-4.2,2.1C14.5,18.9,14.3,18.9,14.2,18.9L14.2,18.9z M29.7,29.8l-11.4-2.5c-0.4-0.1-0.6-0.5-0.6-0.9 c0.1-0.4,0.5-0.6,0.9-0.6h0l11.4,2.5c0.4,0.1,0.6,0.5,0.6,0.9C30.5,29.7,30.1,29.9,29.7,29.8L29.7,29.8z M12.4,26.7 c-0.2,0-0.4-0.2-0.5-0.3l-1.1-1.8c-0.2-0.4-0.1-0.8,0.3-1c0.3-0.2,0.8-0.1,1,0.2l0.8,1.2l3.6-1.8c0.4-0.2,0.8,0,1,0.4 c0.1,0.3,0,0.7-0.3,0.9l-4.2,2.1C12.7,26.8,12.6,26.8,12.4,26.7L12.4,26.7z M28,37.7l-11.4-2.5c-0.4-0.1-0.6-0.5-0.6-0.9 c0.1-0.4,0.5-0.6,0.9-0.6h0l11.4,2.5c0.4,0.1,0.6,0.5,0.6,0.9C28.8,37.5,28.4,37.8,28,37.7L28,37.7L28,37.7z M10.7,34.6 c-0.2,0-0.4-0.2-0.5-0.3l-1.1-1.8c-0.2-0.4-0.1-0.8,0.3-1c0.3-0.2,0.8-0.1,1,0.2l0.8,1.2l3.6-1.8c0.4-0.2,0.8-0.1,1,0.3 c0.2,0.4,0.1,0.8-0.3,1c0,0,0,0-0.1,0l-4.2,2.1C11,34.6,10.8,34.6,10.7,34.6L10.7,34.6z"/></svg>
