<svg aria-hidden="true" id="SvgjsSvg1026" xmlns="http://www.w3.org/2000/svg" version="1.1" xmlns:xlink="http://www.w3.org/1999/xlink" xmlns:svgjs="http://svgjs.com/svgjs" width="16" height="16" viewBox="0 0 16 16"><defs id="SvgjsDefs1027"></defs><path id="SvgjsPath1028" d="M1169.73 14.5924L1169.73 13L1168.27 13L1168.27 14.5924C1166.21 14.9558 1164.6399999999999 16.8309 1164.6399999999999 19.0952L1173.36 19.0952C1173.36 16.8309 1171.79 14.955799999999998 1169.7299999999998 14.592399999999998ZM1176.27 24.4286L1174.09 24.4286L1174.09 21.381C1174.09 20.9604 1173.77 20.619 1173.36 20.619L1164.6399999999999 20.619C1164.2299999999998 20.619 1163.9099999999999 20.9604 1163.9099999999999 21.381L1163.9099999999999 24.4286L1161.7299999999998 24.4286C1161.3299999999997 24.4286 1160.9999999999998 24.7699 1160.9999999999998 25.1905L1160.9999999999998 28.2381C1160.9999999999998 28.659399999999998 1161.3299999999997 29 1161.7299999999998 29L1176.2699999999998 29C1176.6699999999998 29 1176.9999999999998 28.6594 1176.9999999999998 28.2381L1176.9999999999998 25.1905C1176.9999999999998 24.7699 1176.6699999999998 24.4286 1176.2699999999998 24.4286ZM1163.91 27.4762L1162.45 27.4762L1162.45 25.952399999999997L1163.91 25.952399999999997ZM1166.82 27.4762L1165.36 27.4762L1165.36 25.952399999999997L1166.82 25.952399999999997ZM1166.82 23.6667L1165.36 23.6667L1165.36 22.142899999999997L1166.82 22.142899999999997ZM1169.73 27.4762L1168.27 27.4762L1168.27 25.952399999999997L1169.73 25.952399999999997ZM1169.73 23.6667L1168.27 23.6667L1168.27 22.142899999999997L1169.73 22.142899999999997ZM1172.64 27.4762L1171.18 27.4762L1171.18 25.952399999999997L1172.64 25.952399999999997ZM1172.64 23.6667L1171.18 23.6667L1171.18 22.142899999999997L1172.64 22.142899999999997ZM1175.55 27.4762L1174.09 27.4762L1174.09 25.952399999999997L1175.55 25.952399999999997Z " transform="matrix(1,0,0,1,-1161,-13)"></path></svg>