<svg aria-hidden="true" xmlns="http://www.w3.org/2000/svg" version="1.1" viewBox="0 0 34 36"><path d="M13.6,17.9c-0.4,0-0.7,0.1-1,0.4c-0.3,0.3-0.4,0.8-0.4,1.5s0.1,1.2,0.4,1.5c0.3,0.3,0.6,0.5,0.9,0.5c0.4,0,0.7-0.1,0.9-0.5 c0.3-0.3,0.4-0.8,0.4-1.5c0-0.7-0.1-1.2-0.4-1.5C14.3,18.1,14,17.9,13.6,17.9z M5.4,21.9c0.6,0,1-0.2,1.3-0.5 C7,21,7.1,20.5,7.1,19.8c0-0.6-0.2-1.1-0.5-1.5c-0.3-0.3-0.7-0.4-1.2-0.4c-0.1,0-0.2,0-0.3,0v4C5.3,21.9,5.3,21.9,5.4,21.9L5.4,21.9 z M33.2,13.2H30V8.4c0,0,0,0,0,0c0,0,0-0.1,0-0.1c0,0,0,0,0-0.1c0,0,0,0,0-0.1c0,0,0-0.1,0-0.1c0,0,0,0,0,0c0,0-0.1-0.1-0.1-0.1 l-7.6-7.7c0,0,0,0,0,0c0,0-0.1-0.1-0.1-0.1c0,0,0,0-0.1,0c0,0,0,0-0.1,0c0,0-0.1,0-0.1,0c0,0,0,0-0.1,0c0,0-0.1,0-0.1,0h-17 C4.3,0,4,0.3,4,0.8v12.5H0.8C0.4,13.2,0,13.6,0,14v11.8c0,0.5,0.4,0.8,0.8,0.8H4v8.6C4,35.7,4.3,36,4.7,36h24.6 c0.4,0,0.8-0.3,0.8-0.8v-8.6h3.2c0.5,0,0.8-0.4,0.8-0.8V14C34,13.6,33.6,13.2,33.2,13.2z M5.5,1.5H21v6.9c0,0.4,0.3,0.8,0.8,0.8h6.8 v4H5.5V1.5z M28.5,34.5H5.5v-7.9h23.1V34.5z M28.5,23.8l-1.1-1.9l-1.1,1.9h-2.6l2.4-4l-2.2-3.7h2.5l0.9,1.7l0.9-1.7h2.5l-2.2,3.7 l2.4,3.9H28.5z M17,19.9c0,1.2-0.3,2.2-0.9,2.9c-0.6,0.7-1.5,1.1-2.5,1.1c-1.1,0-1.9-0.4-2.5-1.1c-0.6-0.7-0.9-1.7-0.9-2.9 c0-0.8,0.1-1.4,0.3-1.9c0.2-0.4,0.4-0.8,0.7-1.1c0.3-0.3,0.6-0.6,0.9-0.7c0.4-0.2,1-0.3,1.5-0.3c1,0,1.9,0.4,2.5,1.1 C16.7,17.7,17,18.7,17,19.9z M3.3,23.8l-0.3-0.1v-7.6l0.3-0.1c0.6-0.1,1.3-0.1,2.1-0.1c1.3,0,2.2,0.3,2.9,0.8c0.8,0.7,1.2,1.7,1.2,3 c0,1.7-0.6,2.6-1.2,3.2c-0.7,0.7-1.8,1-3.2,1C4.4,23.9,3.8,23.9,3.3,23.8z M21.6,21.9c0.4,0,0.8-0.1,1.1-0.2l0.4-0.2l0.3,2l-0.2,0.1 c-0.3,0.2-0.9,0.4-1.8,0.4c-2.3,0-3.7-1.5-3.7-3.9c0-2.5,1.5-4.1,3.9-4.1c0.8,0,1.4,0.2,1.8,0.4l0.2,0.1l-0.5,2l-0.4-0.2 C22.3,18.1,22,18,21.6,18c-1.1,0-1.7,0.7-1.7,2C19.9,21.1,20.6,21.9,21.6,21.9z M22.5,2.6l5,5.1h-5V2.6z"/></svg>
