<svg aria-hidden="true" xmlns="http://www.w3.org/2000/svg" version="1.1" viewBox="0 0 34.1 35.9"><path d="M33.2,13.1H30V8.3l0,0V8.2V8.1c0,0,0,0,0-0.1c0,0,0,0,0-0.1l0,0l-0.1-0.1l-7.6-7.6l0,0l-0.1-0.1c0,0,0,0-0.1,0 c0,0,0,0-0.1,0h-0.1c0,0,0,0-0.1,0h-0.1h-17C4.3-0.1,4,0.3,4,0.7v12.4H0.8c-0.4,0-0.8,0.4-0.8,0.8v7.3C0,21.7,0.4,22,0.8,22H4v13 c0,0.5,0.3,0.9,0.7,0.9h24.6c0.4,0,0.8-0.4,0.8-0.8v-13h3.2c0.5,0,0.8-0.4,0.8-0.8v-7.4C34,13.5,33.6,13.1,33.2,13.1z M22.5,2.5 l5,5h-5V2.5z M28.5,34.4h-23V22.1h10.4v-6.9h2.2v6.9h10.4V34.4z M28.5,13.1h-23V1.4H21v6.9c0,0.4,0.3,0.8,0.8,0.8h6.8L28.5,13.1 L28.5,13.1z M13.9,25.1l-1.6,1.5l3.1,3.1l0,0l1.6,1.6l1.6-1.6l3.1-3.1l-1.6-1.5l-2,2v-5h-2.2v5L13.9,25.1z"/></svg>
