<?xml version="1.0" encoding="utf-8"?>
<!-- Generator: Adobe Illustrator 22.0.1, SVG Export Plug-In . SVG Version: 6.00 Build 0)  -->
<svg version="1.1" id="Layer_1" xmlns:svgjs="http://svgjs.com/svgjs"
	 xmlns="http://www.w3.org/2000/svg" xmlns:xlink="http://www.w3.org/1999/xlink" x="0px" y="0px" viewBox="0 0 34 36"
	 style="enable-background:new 0 0 34 36;" xml:space="preserve">
<path d="M33.2,13.2H30V8.4l0,0V8.3V8.2c0,0,0,0,0-0.1c0,0,0,0,0-0.1l0,0l-0.1-0.1l-7.6-7.6l0,0l-0.1-0.1c0,0,0,0-0.1,0
	c0,0,0,0-0.1,0h-0.1c0,0,0,0-0.1,0h-0.1h-17C4.3,0,4,0.4,4,0.8v12.4H0.8C0.4,13.2,0,13.6,0,14v7.3c0,0.5,0.4,0.8,0.8,0.8H4v13
	C4,35.6,4.3,36,4.7,36h24.6c0.4,0,0.8-0.4,0.8-0.8v-13h3.2c0.5,0,0.8-0.4,0.8-0.8V14C34,13.6,33.6,13.2,33.2,13.2z M22.5,2.6l5,5h-5
	V2.6z M28.5,34.5h-23V22.2h10.4v-6.9h2.2v6.9h10.4V34.5z M28.5,13.2h-23V1.5H21v6.9c0,0.4,0.3,0.8,0.8,0.8h6.8L28.5,13.2L28.5,13.2z
	 M13.9,25.2l-1.6,1.5l3.1,3.1l0,0l1.6,1.6l1.6-1.6l3.1-3.1l-1.6-1.5l-2,2v-5h-2.2v5L13.9,25.2z"/>
</svg>
