<svg aria-hidden="true" xmlns="http://www.w3.org/2000/svg" version="1.1" viewBox="0 0 35 36">
<path d="M5.6,1.5h15.9v6.9c0,0.4,0.4,0.8,0.8,0.8h7v4H5.6V1.5z M29.4,34.5H5.6v-7.9h23.7V34.5z M27.3,21.9l-1.1,1.8h-2.6l2.4-3.9 l-2.2-3.6h2.5l0.9,1.6l0.9-1.6h2.5l-2.2,3.6l2.4,3.8h-2.6L27.3,21.9z M6.4,19.8l-2.2-3.6h2.5l0.9,1.6l0.9-1.6h2.5L9,19.8l2.4,3.8 H8.8l-1.1-1.8l-1.1,1.8H4.1L6.4,19.8z M20.2,20.8c-1.3-0.5-2-1.3-2-2.4c0-1.5,1.1-2.5,2.8-2.5c0.8,0,1.6,0.2,2,0.4l0.3,0.1l-0.5,1.9 l-0.4-0.2c-0.2-0.1-0.7-0.3-1.3-0.3c-0.5,0-0.5,0.3-0.5,0.4c0,0.2,0,0.3,0.9,0.6c1.3,0.5,1.9,1.3,1.9,2.4c0,1.2-0.8,2.6-2.9,2.6 c-0.8,0-1.8-0.3-2.2-0.5L18,23.2l0.3-2l0.5,0.3c0.3,0.2,1.1,0.4,1.6,0.4c0.4,0,0.6-0.2,0.6-0.5C21,21.3,21,21.2,20.2,20.8z  M17.2,21.6v2.1H12v-7.7h2.4v5.6H17.2z M23.1,2.6l5.1,5.1h-5.1V2.6z M34.2,13.2h-3.2V8.4c0,0,0,0,0,0c0,0,0-0.1,0-0.1c0,0,0,0,0-0.1 c0,0,0,0,0-0.1c0,0,0-0.1,0-0.1c0,0,0,0,0,0c0,0-0.1-0.1-0.1-0.1l-7.8-7.7c0,0,0,0,0,0c0,0-0.1-0.1-0.1-0.1c0,0,0,0-0.1,0 c0,0,0,0-0.1,0c0,0-0.1,0-0.1,0c0,0,0,0-0.1,0c0,0-0.1,0-0.1,0H4.9C4.4,0,4.1,0.3,4.1,0.8v12.5H0.8C0.4,13.2,0,13.6,0,14v11.8 c0,0.5,0.4,0.8,0.8,0.8h3.2v8.6c0,0.4,0.3,0.8,0.8,0.8h25.3c0.4,0,0.8-0.3,0.8-0.8v-8.6h3.2c0.5,0,0.8-0.4,0.8-0.8V14 C35,13.6,34.6,13.2,34.2,13.2z"/></svg>
