<svg role="presentation" id="SvgjsSvg1023" xmlns="http://www.w3.org/2000/svg" version="1.1" xmlns:xlink="http://www.w3.org/1999/xlink" xmlns:svgjs="http://svgjs.com/svgjs" width="20" height="12" viewBox="0 0 20 12"><defs id="SvgjsDefs1024"></defs><path id="SvgjsPath1025" d="M1139.17 1103C1137.53 1103 1136.0600000000002 1103.69 1135 1104.81C1133.94 1103.69 1132.47 1103 1130.83 1103C1127.61 1103 1125 1105.69 1125 1109C1125 1112.31 1127.61 1115 1130.83 1115C1132.47 1115 1133.9399999999998 1114.31 1135 1113.19C1136.06 1114.31 1137.53 1115 1139.17 1115C1142.39 1115 1145 1112.31 1145 1109C1145 1105.69 1142.39 1103 1139.17 1103ZM1139.17 1113.29C1136.8700000000001 1113.29 1135 1111.36 1135 1109C1135 1106.64 1136.87 1104.71 1139.17 1104.71C1141.46 1104.71 1143.3300000000002 1106.64 1143.3300000000002 1109C1143.3300000000002 1111.36 1141.4600000000003 1113.29 1139.17 1113.29Z " fill-opacity="1" transform="matrix(1,0,0,1,-1125,-1103)"></path></svg>