<svg aria-hidden="true" xmlns="http://www.w3.org/2000/svg" version="1.1" viewBox="0 0 21 20"><path d="M10.1,6.7c-1.9,0-3.4,1.5-3.4,3.3c0,1.8,1.5,3.3,3.4,3.3c1.9,0,3.4-1.5,3.4-3.3C13.4,8.2,11.9,6.7,10.1,6.7z
   M14.2,1.9c-1.1,0-1.4-0.1-4.1-0.1c-2.7,0-3,0-4.1,0.1C3.3,2.1,2,3.4,1.9,6c0,1.1-0.1,1.4-0.1,4s0,3,0.1,4c0.1,2.7,1.4,4,4.1,4.1
  c1.1,0,1.4,0.1,4.1,0.1c2.7,0,3,0,4.1-0.1c2.7-0.1,4-1.4,4.1-4.1c0-1.1,0.1-1.4,0.1-4s0-3-0.1-4C18.2,3.4,16.9,2.1,14.2,1.9z
   M10.1,15.2c-2.9,0-5.2-2.3-5.2-5.1c0-2.8,2.3-5.1,5.2-5.1c2.9,0,5.2,2.3,5.2,5.1C15.3,12.9,12.9,15.2,10.1,15.2z M15.5,5.9
  c-0.7,0-1.2-0.5-1.2-1.2c0-0.7,0.5-1.2,1.2-1.2s1.2,0.5,1.2,1.2C16.7,5.4,16.1,5.9,15.5,5.9z M20.1,14.2c-0.2,3.6-2.2,5.7-5.9,5.8
  c-1.1,0-1.4,0.1-4.2,0.1c-2.7,0-3.1,0-4.2-0.1c-3.7-0.2-5.7-2.2-5.9-5.8C0,13.1,0,12.8,0,10.1C0,7.4,0,7,0.1,6
  c0.2-3.6,2.2-5.6,5.9-5.8c1.1,0,1.4-0.1,4.2-0.1c2.7,0,3.1,0,4.2,0.1c3.7,0.2,5.7,2.2,5.9,5.8c0,1.1,0.1,1.4,0.1,4.1
  C20.2,12.8,20.2,13.1,20.1,14.2z"></path></svg>
