<svg aria-hidden="true" xmlns="http://www.w3.org/2000/svg" version="1.1" viewBox="0 0 40.2 50"><path d="M24.4,50c-0.7,0-1.5-0.1-2.2-0.2c-1.4-0.3-2.9-0.3-4.3,0c-3.3,0.7-6.6-0.2-9.8-2.7C3.4,43.3,0,36.5,0,30.7 c0-7.9,1.5-12.9,4.8-15.5c3.6-2.9,8.8-2.1,12.9-1.1c1.6,0.4,3.3,0.4,4.9,0c4.1-1,9.2-1.8,12.9,1.1c3.3,2.6,4.8,7.6,4.8,15.5 c0,5.8-3.4,12.5-8.1,16.3C29.6,49,27,50,24.4,50z M20.1,47.8c0.9,0,1.7,0.1,2.5,0.3c3.4,0.8,6.4-0.9,8.4-2.4c4.3-3.4,7.5-9.8,7.5-15 c0-7.3-1.3-12-4.1-14.2c-2.4-1.9-5.9-2.1-11.4-0.7c-1.9,0.5-3.8,0.5-5.7,0c-5.5-1.4-9-1.1-11.4,0.7C3,18.8,1.7,23.4,1.7,30.7 c0,5.3,3.2,11.6,7.5,15c1.9,1.5,4.9,3.2,8.4,2.4C18.4,47.9,19.2,47.8,20.1,47.8z M5.9,25.5c0-3.7,2.6-6.8,5.9-6.8 c0.5,0,0.8-0.4,0.8-0.8c0-0.5-0.4-0.8-0.8-0.8c-4.2,0-7.6,3.8-7.6,8.4c0,0.5,0.4,0.8,0.8,0.8C5.5,26.3,5.9,26,5.9,25.5z M23.7,18.5 c0.3-0.3,0.3-0.9,0-1.2c-0.3-0.3-0.9-0.3-1.2,0c-1.4,1.4-3.7,1.4-5.1,0c-0.3-0.3-0.9-0.3-1.2,0c-0.3,0.3-0.3,0.9,0,1.2 c1,1,2.4,1.6,3.8,1.6C21.3,20,22.7,19.5,23.7,18.5z M20.1,18.2c0.5,0,0.8-0.4,0.8-0.9c0-1.4-0.3-3-0.7-4.5l3.1-0.5 c4-0.6,7.2-3.7,7.8-7.8L31.7,0l-4.6,0.7c-4,0.6-7.2,3.7-7.8,7.8l-0.3,1.8c-0.9-1.8-2.3-3.4-4.1-4.4c-0.4-0.2-0.9-0.1-1.1,0.3 c-0.2,0.4-0.1,0.9,0.3,1.1c3.5,1.9,4.9,6.4,5,9.9C19.2,17.8,19.6,18.2,20.1,18.2C20,18.2,20,18.2,20.1,18.2z M29.4,4.3 c-0.5,3.3-3,5.8-6.3,6.3l-0.7,0.1l7.2-7.2L29.4,4.3z M20.9,9.8l0.2-1.1c0.5-3.3,3-5.8,6.3-6.3l1.1-0.2L20.9,9.8z"/></svg>
