<svg aria-hidden="true" xmlns="http://www.w3.org/2000/svg" version="1.1" viewBox="0 0 50 50"><path d="M17.7,50H0V0h17.7V50z M1.5,48.5h14.6v-47H1.5V48.5z M33.8,50H16.2V0h17.7V50z M17.7,48.5h14.6v-47H17.7V48.5z M50,50H32.3 V0H50V50z M33.8,48.5h14.6v-47H33.8V48.5z M14.1,23.1H3.6V3.6h10.5V23.1z M5.1,21.5h7.5V5.1H5.1V21.5z M30.2,23.1H19.8V3.6h10.5 V23.1z M21.3,21.5h7.5V5.1h-7.5V21.5z M46.4,23.1H35.9V3.6h10.5V23.1z M37.4,21.5h7.5V5.1h-7.5V21.5z M8.8,45.5 c-2.9,0-5.2-2.4-5.2-5.2c0-2.9,2.4-5.2,5.2-5.2c2.9,0,5.2,2.4,5.2,5.2C14.1,43.2,11.7,45.5,8.8,45.5z M8.8,36.5 c-2.1,0-3.7,1.7-3.7,3.7c0,2.1,1.7,3.7,3.7,3.7c2.1,0,3.7-1.7,3.7-3.7C12.6,38.2,10.9,36.5,8.8,36.5z M25,45.5 c-2.9,0-5.2-2.4-5.2-5.2c0-2.9,2.4-5.2,5.2-5.2s5.2,2.4,5.2,5.2C30.2,43.2,27.9,45.5,25,45.5z M25,36.5c-2.1,0-3.7,1.7-3.7,3.7 c0,2.1,1.7,3.7,3.7,3.7s3.7-1.7,3.7-3.7C28.7,38.2,27.1,36.5,25,36.5z M41.2,45.5c-2.9,0-5.2-2.4-5.2-5.2c0-2.9,2.4-5.2,5.2-5.2 c2.9,0,5.2,2.4,5.2,5.2C46.4,43.2,44.1,45.5,41.2,45.5z M41.2,36.5c-2.1,0-3.7,1.7-3.7,3.7c0,2.1,1.7,3.7,3.7,3.7 c2.1,0,3.7-1.7,3.7-3.7C44.9,38.2,43.2,36.5,41.2,36.5z"/></svg>
