<svg aria-hidden="true" xmlns="http://www.w3.org/2000/svg" version="1.1" viewBox="0 0 50 50">
<path d="M50,15.9c0-3.7-3-6.7-6.7-6.7h-6.7V6.7H35v-1C35,2.5,32.4,0,29.3,0h-8.5C17.6,0,15,2.5,15,5.7v1h-1.7v2.5H6.7 C3,9.2,0,12.2,0,15.9v8.5l0.5,0.2l0.2,0.1l0.1,0v22.7C0.8,48.8,2,50,3.5,50h43.1c1.4,0,2.6-1.2,2.6-2.6V24.7l0.1,0l0.2-0.1l0.5-0.2 V15.9z M35.1,8.2v1h-5.2v-1H35.1z M30.1,6.7h-1.7v2.5h-6.8V6.7h-1.7V5.3c0-0.3,0.2-0.4,0.2-0.5c0.1,0,0.3-0.2,0.5-0.1 c2.8,1.2,5.9,1.2,8.7,0c0.2-0.1,0.4,0,0.5,0.1c0.1,0,0.2,0.2,0.2,0.5V6.7z M16.6,5.7c0-2.3,1.9-4.2,4.2-4.2h8.5 c2.3,0,4.2,1.9,4.2,4.2v1h-1.8V5.3c0-0.7-0.3-1.3-0.9-1.7c-0.6-0.4-1.3-0.5-1.9-0.2c-2.4,1-5.1,1-7.5,0c-0.6-0.3-1.4-0.2-1.9,0.2 c-0.6,0.4-0.9,1-0.9,1.7v1.4h-1.8V5.7z M14.9,8.2h5.2v1h-5.2V8.2z M47.6,47.4c0,0.6-0.5,1.1-1.1,1.1H3.5c-0.6,0-1.1-0.5-1.1-1.1 V25.2l3.2,1.1c3.4,1.2,6.7,1.9,10.5,2.4c0-0.5,0.1-1,0.2-1.5C12.5,26.8,9.3,26,6,24.9l-4.5-1.5v-7.4c0-2.9,2.3-5.2,5.2-5.2h36.6 c2.9,0,5.2,2.3,5.2,5.2v7.4L44,24.9c-3.3,1.2-7,1.9-11.4,2.4c0.1,0.5,0.2,1,0.2,1.5c4.5-0.5,8.2-1.3,11.7-2.5l3.2-1.1V47.4z  M29.3,36.1l5.6,6.2c0.1,0.2,0.4,0.2,0.6,0.2c0.2,0,0.4-0.1,0.5-0.2c0.3-0.3,0.3-0.8,0.1-1.1l-5.6-6.2 C30.1,35.5,29.7,35.8,29.3,36.1z M24.4,37.6c1.8,0,3.5-0.6,4.9-1.6c0.4-0.3,0.8-0.6,1.1-1c1.5-1.5,2.4-3.6,2.4-5.9 c0-0.1,0-0.3,0-0.4c0-0.5-0.1-1-0.2-1.5c-0.9-3.7-4.2-6.5-8.2-6.5c-4,0-7.3,2.7-8.2,6.4c-0.1,0.5-0.2,1-0.2,1.5c0,0.2,0,0.3,0,0.5 C16,33.9,19.8,37.6,24.4,37.6z M24.4,22.3c3.8,0,6.9,3.1,6.9,6.9c0,3.8-3.1,6.9-6.9,6.9c-3.8,0-6.9-3.1-6.9-6.9 C17.5,25.4,20.6,22.3,24.4,22.3z"/>
</svg>
