<svg aria-hidden="true" xmlns="http://www.w3.org/2000/svg" version="1.1" viewBox="0 0 50 40.7">
<path d="M49.4,40.7H0.6c-0.3,0-0.6-0.3-0.6-0.6v-5c0-0.3,0.3-0.6,0.6-0.6h48.8c0.3,0,0.6,0.3,0.6,0.6v5C50,40.4,49.7,40.7,49.4,40.7 z M1.2,39.5h47.5v-3.8H1.2V39.5z M27.5,35.7H3.1c-0.2,0-0.4-0.1-0.5-0.3c-0.1-0.2-0.1-0.4,0-0.6l1-1.6c0.8-1.4,0.8-3.1,0-4.5l-1-1.6 c-0.1-0.2-0.1-0.4,0-0.6c0.1-0.2,0.3-0.3,0.5-0.3h24.4c2.7,0,4.8,2.2,4.8,4.8C32.3,33.6,30.2,35.7,27.5,35.7z M4.2,34.5h23.3 c2,0,3.6-1.6,3.6-3.6c0-2-1.6-3.6-3.6-3.6H4.2L4.6,28c1.1,1.8,1.1,4,0,5.8L4.2,34.5z M27.5,31.5H9c-0.3,0-0.6-0.3-0.6-0.6 c0-0.3,0.3-0.6,0.6-0.6h18.5c0.3,0,0.6,0.3,0.6,0.6C28.1,31.2,27.9,31.5,27.5,31.5z M25,27.3H0.6c-0.2,0-0.4-0.1-0.5-0.3 c-0.1-0.2-0.1-0.4,0-0.6l1-1.6c0.8-1.4,0.8-3.1,0-4.5l-1-1.6c-0.1-0.2-0.1-0.4,0-0.6c0.1-0.2,0.3-0.3,0.5-0.3H25 c2.7,0,4.8,2.2,4.8,4.8S27.7,27.3,25,27.3z M1.7,26.1H25c2,0,3.6-1.6,3.6-3.6S27,19,25,19H1.7l0.4,0.7c1.1,1.8,1.1,4,0,5.8L1.7,26.1 z M25,23.2H6.5c-0.3,0-0.6-0.3-0.6-0.6s0.3-0.6,0.6-0.6H25c0.3,0,0.6,0.3,0.6,0.6S25.3,23.2,25,23.2z M27.5,19H3.1 c-0.2,0-0.4-0.1-0.5-0.3c-0.1-0.2-0.1-0.4,0-0.6l1-1.6c0.8-1.4,0.8-3.1,0-4.5l-1-1.6c-0.1-0.2-0.1-0.4,0-0.6 c0.1-0.2,0.3-0.3,0.5-0.3h24.4c2.7,0,4.8,2.2,4.8,4.8S30.2,19,27.5,19z M4.2,17.7h23.3c2,0,3.6-1.6,3.6-3.6s-1.6-3.6-3.6-3.6H4.2 l0.4,0.7c1.1,1.8,1.1,4,0,5.8L4.2,17.7z M37.5,35.7c-0.3,0-0.5-0.2-0.6-0.5L28.2,2.9c-0.1-0.3,0.1-0.7,0.4-0.8L36.7,0 c0.3-0.1,0.7,0.1,0.8,0.4l8.7,32.3c0,0.2,0,0.3-0.1,0.5c-0.1,0.1-0.2,0.2-0.4,0.3l-8.1,2.2C37.6,35.7,37.5,35.7,37.5,35.7z  M29.5,3.2l8.4,31.1l6.9-1.8L36.5,1.4L29.5,3.2z M27.5,14.8H9c-0.3,0-0.6-0.3-0.6-0.6c0-0.3,0.3-0.6,0.6-0.6h18.5 c0.3,0,0.6,0.3,0.6,0.6C28.1,14.5,27.9,14.8,27.5,14.8z M31,11.5c-0.3,0-0.5-0.2-0.6-0.5l-0.9-3.2c0-0.2,0-0.3,0.1-0.5 c0.1-0.1,0.2-0.2,0.4-0.3l8.1-2.2c0.2,0,0.3,0,0.5,0.1c0.1,0.1,0.2,0.2,0.3,0.4l0.9,3.2c0.1,0.3-0.1,0.7-0.4,0.8l-8.1,2.2 C31.1,11.5,31,11.5,31,11.5z M30.9,8.1l0.5,2l6.9-1.8l-0.5-2L30.9,8.1z M36.2,30.9c-0.3,0-0.5-0.2-0.6-0.5l-0.9-3.2 c0-0.2,0-0.3,0.1-0.5c0.1-0.1,0.2-0.2,0.4-0.3l8.1-2.2c0.2,0,0.3,0,0.5,0.1c0.1,0.1,0.2,0.2,0.3,0.4l0.9,3.2 c0.1,0.3-0.1,0.7-0.4,0.8l-8.1,2.2C36.3,30.9,36.2,30.9,36.2,30.9z M36.1,27.4l0.5,2l6.9-1.8l-0.5-2L36.1,27.4z M38.5,23.3 c-0.3,0-0.5-0.2-0.6-0.5l-2.6-9.7c-0.1-0.3,0.1-0.7,0.4-0.8c0.3-0.1,0.7,0.1,0.8,0.4l2.6,9.7c0.1,0.3-0.1,0.7-0.4,0.8 C38.6,23.3,38.6,23.3,38.5,23.3z"/></svg>
