<svg aria-hidden="true" xmlns="http://www.w3.org/2000/svg" version="1.1" viewBox="0 0 34.9 50"><path d="M25,12.4H10c-0.9,0-1.6-0.7-1.6-1.6V4.9c0-0.9,0.7-1.6,1.6-1.6h2.6V2.4C12.5,1.1,13.6,0,15,0h5c1.3,0,2.4,1.1,2.4,2.4v0.9 H25c0.9,0,1.6,0.7,1.6,1.6v5.9C26.6,11.7,25.9,12.4,25,12.4z M9.9,4.9C9.9,4.9,9.9,4.9,9.9,4.9l-0.1,5.9c0,0,0,0.1,0.1,0.1h15 c0,0,0.1,0,0.1-0.1V4.9c0,0,0-0.1-0.1-0.1h-3.3c-0.4,0-0.8-0.3-0.8-0.8V2.4c0-0.5-0.4-0.9-0.9-0.9h-5c-0.5,0-0.9,0.4-0.9,0.9v1.7 c0,0.4-0.3,0.8-0.8,0.8H9.9z M34.2,50H0.8C0.3,50,0,49.7,0,49.2V6.6c0-0.4,0.3-0.8,0.8-0.8h8.4c0.4,0,0.8,0.3,0.8,0.8v4.2 c0,0,0,0.1,0.1,0.1h15c0,0,0.1,0,0.1-0.1V6.6c0-0.4,0.3-0.8,0.8-0.8h8.4c0.4,0,0.8,0.3,0.8,0.8v42.6C34.9,49.7,34.6,50,34.2,50z  M1.5,48.5h31.9V7.4h-6.8v3.4c0,0.9-0.7,1.6-1.6,1.6H10c-0.9,0-1.6-0.7-1.6-1.6V7.4H1.5V48.5z M23.3,45.8c-0.1,0-0.2,0-0.3-0.1 c-0.3-0.1-0.5-0.4-0.5-0.7v-6.7c0-0.4,0.3-0.8,0.8-0.8H30c0.3,0,0.6,0.2,0.7,0.5c0.1,0.3,0.1,0.6-0.2,0.8l-6.7,6.7 C23.7,45.7,23.5,45.8,23.3,45.8z M24.1,39.1v4.1l4.1-4.1H24.1z M23.3,45.8H4.9c-0.4,0-0.8-0.3-0.8-0.8V10c0-0.4,0.3-0.8,0.8-0.8h4.2 c0.4,0,0.8,0.3,0.8,0.8v0.8c0,0,0,0.1,0.1,0.1h15c0,0,0.1,0,0.1-0.1V10c0-0.4,0.3-0.8,0.8-0.8H30c0.4,0,0.8,0.3,0.8,0.8v28.4 c0,0.4-0.3,0.8-0.8,0.8h-5.9v5.9C24.1,45.5,23.7,45.8,23.3,45.8z M5.7,44.3h16.9v-5.9c0-0.4,0.3-0.8,0.8-0.8h5.9V10.7h-2.7v0.1 c0,0.9-0.7,1.6-1.6,1.6H10c-0.9,0-1.6-0.7-1.6-1.6v-0.1H5.7V44.3z M14.1,21.6h-5c-0.4,0-0.8-0.3-0.8-0.8v-5c0-0.4,0.3-0.8,0.8-0.8h5 c0.4,0,0.8,0.3,0.8,0.8v5C14.9,21.2,14.5,21.6,14.1,21.6z M9.9,20.1h3.5v-3.5H9.9V20.1z M14.1,30.8h-5c-0.4,0-0.8-0.3-0.8-0.8v-5 c0-0.4,0.3-0.8,0.8-0.8h5c0.4,0,0.8,0.3,0.8,0.8v5C14.9,30.4,14.5,30.8,14.1,30.8z M9.9,29.3h3.5v-3.5H9.9V29.3z M14.1,40h-5 c-0.4,0-0.8-0.3-0.8-0.8v-5c0-0.4,0.3-0.8,0.8-0.8h5c0.4,0,0.8,0.3,0.8,0.8v5C14.9,39.6,14.5,40,14.1,40z M9.9,38.5h3.5V35H9.9V38.5 z M25.8,16.6h-7.5c-0.4,0-0.8-0.3-0.8-0.8c0-0.4,0.3-0.8,0.8-0.8h7.5c0.4,0,0.8,0.3,0.8,0.8C26.6,16.2,26.2,16.6,25.8,16.6z  M23.3,20.7h-5c-0.4,0-0.8-0.3-0.8-0.8c0-0.4,0.3-0.8,0.8-0.8h5c0.4,0,0.8,0.3,0.8,0.8C24.1,20.4,23.7,20.7,23.3,20.7z M25.8,25.8 h-7.5c-0.4,0-0.8-0.3-0.8-0.8c0-0.4,0.3-0.8,0.8-0.8h7.5c0.4,0,0.8,0.3,0.8,0.8C26.6,25.4,26.2,25.8,25.8,25.8z M23.3,29.9h-5 c-0.4,0-0.8-0.3-0.8-0.8c0-0.4,0.3-0.8,0.8-0.8h5c0.4,0,0.8,0.3,0.8,0.8C24.1,29.6,23.7,29.9,23.3,29.9z M25.8,35.8h-7.5 c-0.4,0-0.8-0.3-0.8-0.8c0-0.4,0.3-0.8,0.8-0.8h7.5c0.4,0,0.8,0.3,0.8,0.8C26.6,35.5,26.2,35.8,25.8,35.8z M20,40h-1.7 c-0.4,0-0.8-0.3-0.8-0.8c0-0.4,0.3-0.8,0.8-0.8H20c0.4,0,0.8,0.3,0.8,0.8C20.7,39.6,20.4,40,20,40z"/></svg>
