<svg aria-hidden="true" xmlns="http://www.w3.org/2000/svg" version="1.1" viewBox="0 0 50 50"><path d="M7.4,9.9c-0.1,0-0.2,0-0.3,0L0.5,7.3c-0.4-0.1-0.6-0.6-0.4-1C0.2,6,0.6,5.8,1,5.9l6.7,2.5c0.4,0.1,0.6,0.6,0.4,1 C8,9.7,7.8,9.9,7.4,9.9z M7.4,14.1c-0.1,0-0.2,0-0.3,0l-6.7-2.5c-0.4-0.1-0.6-0.6-0.4-1c0.1-0.4,0.6-0.6,1-0.4l6.7,2.5 c0.4,0.1,0.6,0.6,0.4,1C8,13.9,7.8,14.1,7.4,14.1z M7.4,18.2c-0.1,0-0.2,0-0.3,0l-6.7-2.5c-0.4-0.1-0.6-0.6-0.4-1 c0.1-0.4,0.6-0.6,1-0.4l6.7,2.5c0.4,0.1,0.6,0.6,0.4,1C8,18,7.8,18.2,7.4,18.2z M4.1,34.1c-1.1,0-2.2-0.6-3-1.7 c-0.7-1-1.1-2.3-1.1-3.7c0-1.4,0.4-2.7,1.1-3.7c0.8-1.1,1.8-1.7,3-1.7c1.1,0,2.2,0.6,3,1.7c0.7,1,1.1,2.3,1.1,3.7 c0,1.4-0.4,2.7-1.1,3.7C6.3,33.5,5.2,34.1,4.1,34.1z M4.1,24.9c-1.4,0-2.6,1.8-2.6,3.8c0,2.1,1.2,3.8,2.6,3.8c1.4,0,2.6-1.8,2.6-3.8 C6.7,26.7,5.5,24.9,4.1,24.9z M4.1,24.9c-0.4,0-0.8-0.3-0.8-0.8V0.8C3.3,0.3,3.7,0,4.1,0c0.4,0,0.8,0.3,0.8,0.8v23.4 C4.9,24.6,4.5,24.9,4.1,24.9z M13.3,50c-5.5,0-9.9-4.5-9.9-10v-6.7c0-0.4,0.3-0.8,0.8-0.8c0.4,0,0.8,0.3,0.8,0.8V40 c0,4.7,3.8,8.4,8.4,8.4s8.4-3.8,8.4-8.4v-3.4l-4.6,3.9c-0.3,0.3-0.8,0.2-1.1-0.1c-0.3-0.3-0.2-0.8,0.1-1.1l7.1-6.1V40 C23.2,45.5,18.8,50,13.3,50z M35.9,6.6c0,0.5-0.4,0.8-0.8,0.8c-0.5,0-0.8-0.4-0.8-0.8c0-0.5,0.4-0.8,0.8-0.8 C35.5,5.8,35.9,6.1,35.9,6.6 M35,39.1c-0.1,0-0.3,0-0.4-0.1c-0.1-0.1-2.2-1.4-4.4-4.5c-2-2.8-4.3-7.6-4.3-14.5 c0-6.9,2.3-11.9,4.3-14.9c2.1-3.2,4.3-4.8,4.4-4.9c0.3-0.2,0.6-0.2,0.9,0c0.1,0.1,2.2,1.7,4.4,4.9c2,3,4.3,8,4.3,14.9 c0,6.9-2.3,11.7-4.3,14.5c-2.1,3.1-4.3,4.4-4.4,4.5C35.3,39.1,35.2,39.1,35,39.1z M35,1.7c-0.7,0.6-2.2,2-3.6,4.2 c-1.8,2.8-4,7.5-4,14c0,6.5,2.2,11,4,13.7c1.4,2,2.9,3.3,3.6,3.8c0.7-0.5,2.2-1.8,3.6-3.9c1.8-2.6,4-7.1,4-13.6 c0-6.6-2.2-11.3-4.1-14.1C37.1,3.7,35.7,2.4,35,1.7z M20.8,31.6c-0.2,0-0.4-0.1-0.6-0.3c-0.2-0.2-0.2-0.6-0.1-0.8L26,18.8 c0.1-0.3,0.4-0.4,0.7-0.4c0.3,0,0.6,0.2,0.7,0.5l0,0c0,0.1,0,0.2,0,0.3l0,0.2c0,0.2,0,0.4,0,0.6c0,3,0.5,5.9,1.4,8.5 c0.1,0.2,0.1,0.4,0,0.6c-0.1,0.2-0.3,0.3-0.5,0.4L21,31.6C21,31.6,20.9,31.6,20.8,31.6z M26,22.2l-3.7,7.4l4.9-1.4 C26.5,26.3,26.1,24.3,26,22.2z M49.2,31.6c-0.1,0-0.1,0-0.2,0l-7.3-2.1c-0.2-0.1-0.4-0.2-0.5-0.4c-0.1-0.2-0.1-0.4,0-0.6 c0.9-2.6,1.4-5.5,1.4-8.5c0-0.2,0-0.4,0-0.6v-0.2c0-0.1,0-0.2,0-0.3l0,0c0.1-0.3,0.4-0.5,0.7-0.5c0.3,0,0.6,0.1,0.7,0.4l5.8,11.7 c0.1,0.3,0.1,0.6-0.1,0.8C49.7,31.5,49.4,31.6,49.2,31.6z M42.9,28.2l4.9,1.4l-3.7-7.4C43.9,24.3,43.5,26.3,42.9,28.2z M40.9,50 c-2.3,0-4.1-1.8-4.1-4.1v-1.7c0-1-0.8-1.8-1.8-1.8s-1.8,0.8-1.8,1.8v1.7c0,2.3-1.8,4.1-4.1,4.1c-1.9,0-3.6-1.3-4-3.2 c-0.1-0.5-0.1-1.1,0.1-1.7c0,0,0,0,0,0l4-12c0.1-0.3,0.4-0.5,0.7-0.5h0.4c0.3,0,0.5,0.1,0.6,0.3c1.1,1.7,2.2,2.9,3,3.6 c0.4,0.4,0.8,0.7,1,0.9c0.2-0.2,0.6-0.5,1-0.9c0.8-0.7,1.9-1.9,3-3.6c0.1-0.2,0.4-0.3,0.6-0.3H40c0.3,0,0.6,0.2,0.7,0.5l4,12 c0,0,0,0,0,0c0.2,0.6,0.2,1.2,0.1,1.7C44.4,48.7,42.8,50,40.9,50z M35,41c1.8,0,3.3,1.5,3.3,3.3v1.7c0,1.4,1.2,2.6,2.6,2.6 c1.2,0,2.2-0.8,2.5-2c0.1-0.3,0-0.6-0.1-0.9l-3.6-10.9c-2.1,2.9-4.2,4.3-4.3,4.3c-0.2,0.2-0.6,0.2-0.8,0c-0.1-0.1-2.2-1.4-4.3-4.3 l-3.6,10.9c-0.1,0.3-0.1,0.6-0.1,0.9c0.3,1.2,1.3,2,2.5,2c1.4,0,2.6-1.2,2.6-2.6v-1.7C31.8,42.4,33.2,41,35,41z M35,12.4 c-2.7,0-5.2-1-6.8-2.6C28.1,9.6,28,9.2,28.1,9c2.5-5.9,6.3-8.7,6.5-8.8c0.3-0.2,0.6-0.2,0.9,0c0.2,0.1,3.9,3,6.5,8.8 C42,9.2,42,9.6,41.8,9.8C40.2,11.4,37.7,12.4,35,12.4z M29.7,9.1c1.3,1.1,3.2,1.8,5.3,1.8c2.1,0,4-0.7,5.3-1.8C38.5,5,36,2.6,35,1.7 C34,2.6,31.6,5.1,29.7,9.1z M32.5,18.2c-1.3,0-2.4-1.1-2.4-2.4c0-0.4,0.3-0.8,0.8-0.8c0.4,0,0.8,0.3,0.8,0.8c0,0.5,0.4,0.9,0.9,0.9 c0.5,0,0.9-0.4,0.9-0.9c0-0.4,0.3-0.8,0.8-0.8c0.4,0,0.8,0.3,0.8,0.8C34.9,17.1,33.9,18.2,32.5,18.2z M33.3,29.9 c-1.3,0-2.4-1.1-2.4-2.4c0-0.4,0.3-0.8,0.8-0.8c0.4,0,0.8,0.3,0.8,0.8c0,0.5,0.4,0.9,0.9,0.9c0.5,0,0.9-0.4,0.9-0.9 c0-0.4,0.3-0.8,0.8-0.8s0.8,0.3,0.8,0.8C35.8,28.8,34.7,29.9,33.3,29.9z M37.5,24.1c-1.3,0-2.4-1.1-2.4-2.4c0-0.4,0.3-0.8,0.8-0.8 c0.4,0,0.8,0.3,0.8,0.8c0,0.5,0.4,0.9,0.9,0.9c0.5,0,0.9-0.4,0.9-0.9c0-0.4,0.3-0.8,0.8-0.8s0.8,0.3,0.8,0.8 C40,23,38.9,24.1,37.5,24.1z"/></svg>
