<svg aria-hidden="true" xmlns="http://www.w3.org/2000/svg" version="1.1" viewBox="0 0 50 44.2"><path d="M25,29.1l5.9,3.4c0.1,0.1,0.3,0.1,0.4,0.1c0.3,0,0.6-0.2,0.7-0.4c0.2-0.4,0.1-0.9-0.3-1.1l-5.9-3.4v-6.7 c0-0.5-0.4-0.8-0.8-0.8s-0.8,0.4-0.8,0.8v6.7L18.4,31c-0.4,0.2-0.5,0.7-0.3,1.1c0.1,0.3,0.4,0.4,0.7,0.4c0.1,0,0.3,0,0.4-0.1 L25,29.1z M13.6,35.6L13.6,35.6l0-2.8l0,0c0.2-0.2,0.5-0.6,0.6-1.1c0-0.1,0-0.2,0-0.2c0-0.7,0-4.1,0-4.7c-0.1-1.3-1.2-2.8-2.4-3.2 l0,0c-0.4-0.2-1-0.3-1.6-0.4l0,0c0,0,0,0,0,0c0,0-0.2,0-0.5,0c-0.2,0-0.4,0-0.5,0c0,0,0,0,0,0l0,0c-0.6,0-1.2,0.2-1.6,0.4l0,0 c-1.1,0.4-2.3,1.9-2.4,3.2c0,0.7,0,4.3,0,4.7l0,0c0,0.1,0,0.1,0,0.2c0,0.1,0.3,0.7,0.6,1.1l0,0v2.7l-0.1,0c-1.1,0.6-4.6,2.5-5.8,4.2 C0,39.9,0,40.1,0,40.3v3.1c0,0.5,0.4,0.8,0.8,0.8c0.5,0,0.8-0.4,0.8-0.8v-2.9l0,0c1.1-1.3,4.3-3.1,5.5-3.7c0.3-0.1,0.4-0.4,0.4-0.7 v-3.6c0-0.3-0.2-0.6-0.4-0.7c-0.1-0.1-0.3-0.4-0.3-0.4l0,0l0,0c0-1.6,0-4,0-4.5c0-0.6,0.8-1.6,1.3-1.8c0,0,0.1,0,0.1-0.1 c0.4-0.2,1.1-0.2,1.4-0.2c0.2,0,1.1,0,1.5,0.2c0,0,0.1,0,0.1,0.1c0.4,0.1,1.2,1.1,1.3,1.8c0,0.5,0,3.1,0,4.5l0,0l0,0 c-0.1,0.1-0.2,0.3-0.3,0.4c-0.3,0.1-0.4,0.4-0.4,0.7v3.6c0,0.3,0.2,0.6,0.5,0.7c0,0,1.2,0.6,2.5,1.4c1.4,0.9,2.4,1.6,3,2.3l0,0v2.9 c0,0.5,0.4,0.8,0.8,0.8c0.5,0,0.8-0.4,0.8-0.8v-3.1c0-0.2-0.1-0.4-0.1-0.5C18.3,38.2,15,36.4,13.6,35.6z M44.2,35.6L44.2,35.6l0-2.8 v0c0.4-0.4,0.6-1,0.6-1.1c0-0.1,0-0.1,0-0.2c0,0,0-4,0-4.7c-0.1-1.3-1.2-2.8-2.4-3.2l0,0c-0.4-0.2-1-0.3-1.6-0.4l0,0c0,0,0,0,0,0 c0,0-0.2,0-0.5,0c-0.2,0-0.4,0-0.5,0c0,0,0,0,0,0l0,0c-0.6,0-1.2,0.2-1.6,0.4l0,0c-1.1,0.4-2.3,1.9-2.4,3.2c0,0.7,0,4.3,0,4.7 c0,0.1,0,0.1,0,0.2c0.1,0.5,0.4,0.8,0.7,1.1l0,0v2.7l-0.1,0c-1.4,0.7-4.7,2.6-5.8,4.2c-0.1,0.1-0.2,0.3-0.2,0.5v3.1 c0,0.5,0.4,0.8,0.8,0.8c0.5,0,0.8-0.4,0.8-0.8v-2.9l0,0c1.1-1.2,4.1-3,5.5-3.7c0.3-0.1,0.5-0.4,0.5-0.7v-3.6c0-0.3-0.2-0.6-0.4-0.7 c-0.1-0.1-0.2-0.3-0.3-0.4l0,0l0,0c0-1.3,0-4,0-4.5c0-0.6,0.8-1.6,1.3-1.8c0,0,0.1,0,0.1-0.1c0.4-0.2,1.1-0.2,1.4-0.2 c0.2,0,1.1,0,1.5,0.2c0,0,0.1,0,0.1,0.1c0.4,0.1,1.2,1.1,1.3,1.8c0,0.5,0,3.1,0,4.5l0,0l0,0c0,0.1-0.2,0.3-0.3,0.4 c-0.3,0.1-0.4,0.4-0.4,0.7v3.6c0,0.3,0.2,0.6,0.4,0.7c0,0,1.2,0.6,2.5,1.4c2.1,1.3,2.8,2,3,2.3l0,0v2.9c0,0.5,0.4,0.8,0.8,0.8 c0.5,0,0.8-0.4,0.8-0.8v-3.1c0-0.2,0-0.3-0.1-0.5C48.8,38.2,45.2,36.2,44.2,35.6z M16,21.1c0.5,0,0.8-0.4,0.8-0.8v-2.9l0,0 c1.1-1.2,4.1-3,5.5-3.7c0.3-0.1,0.5-0.4,0.5-0.7V9.3c0-0.3-0.2-0.6-0.4-0.7c-0.1,0-0.2-0.2-0.3-0.4l0,0l0,0c0-0.6,0-3.9,0-4.5 c0-0.6,0.8-1.6,1.3-1.8c0,0,0.1,0,0.1-0.1c0.4-0.2,1.2-0.2,1.5-0.2c0.2,0,1,0,1.5,0.2c0,0,0.1,0,0.1,0.1c0.4,0.1,1.2,1.1,1.3,1.8 c0,0.5,0,3.1,0,4.5l0,0l0,0c-0.1,0.1-0.2,0.3-0.3,0.4C27.2,8.7,27,9,27,9.3v3.6c0,0.3,0.2,0.6,0.5,0.7c1.4,0.7,4.5,2.5,5.5,3.7l0,0 v2.9c0,0.5,0.4,0.8,0.8,0.8c0.5,0,0.8-0.4,0.8-0.8v-3.1c0-0.2-0.1-0.4-0.2-0.5c-1.1-1.6-4.4-3.4-5.8-4.2l0,0V9.7l0,0 c0.4-0.4,0.6-0.9,0.7-1.1c0-0.1,0-0.1,0-0.2l0-0.1c0-1.5,0-4.1,0-4.7c-0.1-1.3-1.2-2.8-2.4-3.2l0,0c-0.4-0.2-1-0.3-1.6-0.4l0,0 c0,0,0,0,0,0c0,0-0.2,0-0.5,0c-0.2,0-0.4,0-0.5,0c0,0,0,0,0,0l0,0c-0.6,0-1.2,0.2-1.6,0.4l0,0c-1.1,0.4-2.3,1.9-2.4,3.2 c0,0.7,0,4.3,0,4.7c0,0.1,0,0.1,0,0.2l0,0c0.1,0.3,0.3,0.7,0.7,1.1l0,0v2.7l-0.1,0c-1.4,0.7-4.7,2.6-5.8,4.2 c-0.1,0.1-0.2,0.3-0.2,0.5v3.1C15.2,20.7,15.5,21.1,16,21.1z"/></svg>
