<svg aria-hidden="true" xmlns="http://www.w3.org/2000/svg" version="1.1" viewBox="0 0 50 48"><path d="M8.3,34.6h-3v-3h3V34.6z M8.9,30.5h-4c-0.3,0-0.5,0.2-0.5,0.5v4c0,0.3,0.2,0.5,0.5,0.5h4c0.3,0,0.5-0.2,0.5-0.5v-4 C9.4,30.8,9.2,30.5,8.9,30.5z M16.4,34.6h-3v-3h3V34.6z M16.9,30.5h-4c-0.3,0-0.5,0.2-0.5,0.5v4c0,0.3,0.2,0.5,0.5,0.5h4 c0.3,0,0.5-0.2,0.5-0.5v-4C17.5,30.8,17.2,30.5,16.9,30.5z M16.4,42.6h-3v-3h3V42.6z M16.9,38.6h-4c-0.3,0-0.5,0.2-0.5,0.5v4 c0,0.3,0.2,0.5,0.5,0.5h4c0.3,0,0.5-0.2,0.5-0.5v-4C17.5,38.8,17.2,38.6,16.9,38.6z M8.3,42.6h-3v-3h3V42.6z M8.9,38.6h-4 c-0.3,0-0.5,0.2-0.5,0.5v4c0,0.3,0.2,0.5,0.5,0.5h4c0.3,0,0.5-0.2,0.5-0.5v-4C9.4,38.8,9.2,38.6,8.9,38.6z M36.6,34.6h-3v-3h3V34.6z  M37.1,30.5h-4c-0.3,0-0.5,0.2-0.5,0.5v4c0,0.3,0.2,0.5,0.5,0.5h4c0.3,0,0.5-0.2,0.5-0.5v-4C37.6,30.8,37.4,30.5,37.1,30.5z  M41.7,31.6h3v3h-3V31.6z M40.6,31.1v4c0,0.3,0.2,0.5,0.5,0.5h4c0.3,0,0.5-0.2,0.5-0.5v-4c0-0.3-0.2-0.5-0.5-0.5h-4 C40.8,30.5,40.6,30.8,40.6,31.1z M44.6,42.6h-3v-3h3V42.6z M45.2,38.6h-4c-0.3,0-0.5,0.2-0.5,0.5v4c0,0.3,0.2,0.5,0.5,0.5h4 c0.3,0,0.5-0.2,0.5-0.5v-4C45.7,38.8,45.5,38.6,45.2,38.6z M36.6,42.6h-3v-3h3V42.6z M37.1,38.6h-4c-0.3,0-0.5,0.2-0.5,0.5v4 c0,0.3,0.2,0.5,0.5,0.5h4c0.3,0,0.5-0.2,0.5-0.5v-4C37.6,38.8,37.4,38.6,37.1,38.6z M29.6,46.4V33.1c0-0.3-0.2-0.5-0.5-0.5H21 c-0.3,0-0.5,0.2-0.5,0.5v13.3H1.6V27.8h7.3c0.2,0,0.3,0,0.4-0.1L25,17.9l15.7,9.8c0.1,0.1,0.3,0.1,0.4,0.1h7.3v18.6H29.6z  M21.5,46.4V33.6h7v12.8H21.5z M15.7,11.4h2.7v8.7l-2.7,1.7V11.4z M22.4,11.4v6.2l-3,1.9v-8H22.4z M26.5,11.4v5.5l-1.1-0.7 c-0.3-0.2-0.6-0.2-0.9,0l-1.1,0.7v-5.5H26.5z M30.5,11.4v8l-3-1.9v-6.2H30.5z M34.3,11.4v10.4l-2.7-1.7v-8.7H34.3z M25,1.6 c4.9,0,9,3.9,9.2,8.7H15.8C16,5.5,20.1,1.6,25,1.6z M49.2,26.2h-7.8l-5.5-3.4V10.9C35.9,4.9,31,0,25,0c-6,0-10.9,4.9-10.9,10.9v11.9 l-5.5,3.4H0.8C0.4,26.2,0,26.6,0,27v20.2C0,47.6,0.4,48,0.8,48h48.4c0.4,0,0.8-0.4,0.8-0.8V27C50,26.6,49.6,26.2,49.2,26.2z  M25,28.5c-1.4,0-2.5-1.1-2.5-2.5c0-1.4,1.1-2.5,2.5-2.5c1.4,0,2.5,1.1,2.5,2.5C27.5,27.4,26.4,28.5,25,28.5z M25,22.5 c-2,0-3.6,1.6-3.6,3.6c0,2,1.6,3.6,3.6,3.6s3.6-1.6,3.6-3.6C28.6,24.1,27,22.5,25,22.5z"/></svg>
