<svg aria-hidden="true" xmlns="http://www.w3.org/2000/svg" version="1.1" viewBox="0 0 50 48.2"><path d="M45.5,43.4H2.3c-0.4,0-0.7-0.3-0.7-0.7V25.1c0-0.4,0.3-0.7,0.7-0.7h43.2c0.4,0,0.7,0.3,0.7,0.7v17.6 C46.2,43.1,45.9,43.4,45.5,43.4z M3,42h41.9V25.8H3V42z M5.5,48.2H2.3c-0.4,0-0.7-0.3-0.7-0.7v-4.8c0-0.4,0.3-0.7,0.7-0.7h3.2 c0.4,0,0.7,0.3,0.7,0.7v4.8C6.2,47.9,5.9,48.2,5.5,48.2z M3,46.8h1.8v-3.4H3V46.8z M45.5,48.2h-3.2c-0.4,0-0.7-0.3-0.7-0.7v-4.8 c0-0.4,0.3-0.7,0.7-0.7h3.2c0.4,0,0.7,0.3,0.7,0.7v4.8C46.2,47.9,45.9,48.2,45.5,48.2z M43,46.8h1.8v-3.4H43V46.8z M47.1,25.8H0.7 c-0.4,0-0.7-0.3-0.7-0.7v-3.2c0-0.4,0.3-0.7,0.7-0.7h46.4c0.4,0,0.7,0.3,0.7,0.7v3.2C47.8,25.5,47.5,25.8,47.1,25.8z M1.4,24.4h45.1 v-1.8H1.4V24.4z M38,39.4H9.8c-1.9,0-3.4-1.5-3.4-3.4v-4.1c0-1.9,1.5-3.5,3.4-3.5H38c1.9,0,3.4,1.5,3.4,3.5V36 C41.4,37.9,39.9,39.4,38,39.4z M9.8,29.8c-1.1,0-2.1,0.9-2.1,2.1V36c0,1.1,0.9,2.1,2.1,2.1H38c1.1,0,2.1-0.9,2.1-2.1v-4.1 c0-1.2-0.9-2.1-2.1-2.1H9.8z M29.6,22.3c-0.4,0-0.7-0.3-0.7-0.7v-9.1c0-0.4,0.3-0.7,0.7-0.7c0.4,0,0.7,0.3,0.7,0.7v9.1 C30.3,22,30,22.3,29.6,22.3z M29.6,2.5c-0.4,0-0.7-0.3-0.7-0.7V0.7c0-0.4,0.3-0.7,0.7-0.7c0.4,0,0.7,0.3,0.7,0.7v1.1 C30.3,2.2,30,2.5,29.6,2.5z M37.8,13.3h-8.2c-0.4,0-0.7-0.3-0.7-0.7V1.8c0-0.4,0.3-0.7,0.7-0.7h8.2c0.4,0,0.7,0.3,0.7,0.7v10.8 C38.5,13,38.2,13.3,37.8,13.3z M30.3,11.9h6.8V2.5h-6.8V11.9z M49.3,16.2H35.6c-1.2,0-2.2-1-2.2-2.2s1-2.2,2.2-2.2h1.5V3.7 c0-0.4,0.3-0.7,0.7-0.7h11.5c0.3,0,0.5,0.1,0.6,0.4C50,3.6,50,3.8,49.9,4l-3.8,5.6l3.8,5.6c0.1,0.2,0.2,0.5,0,0.7 C49.8,16.1,49.6,16.2,49.3,16.2z M35.6,13.3c-0.4,0-0.8,0.4-0.8,0.8c0,0.4,0.4,0.8,0.8,0.8H48L44.7,10c-0.2-0.2-0.2-0.5,0-0.8 L48,4.3h-9.5v8.2c0,0.4-0.3,0.7-0.7,0.7H35.6z M21.2,22.2H9.1c-0.4,0-0.7-0.3-0.7-0.7v-2.3c0-2.2,1.1-3.5,2.8-4.7 c0.2-0.2,0.6-0.2,0.8,0c0.9,0.7,2,1,3.1,1c1.1,0,2.2-0.4,3.1-1c0.2-0.2,0.6-0.2,0.8,0c1.8,1.3,2.8,2.6,2.8,4.7v2.3 C21.9,21.9,21.6,22.2,21.2,22.2z M9.8,20.9h10.8v-1.6c0-1.6-0.7-2.3-1.9-3.3c-1.1,0.6-2.3,1-3.5,1c-1.2,0-2.4-0.3-3.5-1 c-1.2,1-1.9,1.8-1.9,3.3V20.9z M15.1,13.9c-2.9,0-5.2-2.4-5.2-5.2c0-2.9,2.3-5.2,5.2-5.2c2.9,0,5.2,2.4,5.2,5.2 C20.4,11.5,18,13.9,15.1,13.9z M15.1,4.8c-2.1,0-3.9,1.7-3.9,3.9s1.7,3.9,3.9,3.9S19,10.8,19,8.6S17.3,4.8,15.1,4.8z"/></svg>
