<svg aria-hidden="true" xmlns="http://www.w3.org/2000/svg" version="1.1" viewBox="0 0 50 30.1"><path d="M10.6,16.9C10.6,16.8,10.6,16.8,10.6,16.9C10.6,16.8,10.6,16.8,10.6,16.9z M10.6,16.9C10.6,16.9,10.6,16.9,10.6,16.9 C10.6,16.9,10.6,16.9,10.6,16.9z M10.7,16.9C10.7,16.9,10.7,16.9,10.7,16.9C10.7,16.9,10.7,16.9,10.7,16.9 C10.7,16.9,10.7,16.9,10.7,16.9z M10.4,16.8C10.4,16.8,10.4,16.8,10.4,16.8C10.4,16.8,10.4,16.8,10.4,16.8z M10.8,16.9 C10.8,16.9,10.8,16.9,10.8,16.9C10.8,16.9,10.8,16.9,10.8,16.9z M10.5,16.8C10.5,16.8,10.5,16.8,10.5,16.8 C10.5,16.8,10.5,16.8,10.5,16.8z M10.5,16.8C10.5,16.8,10.4,16.8,10.5,16.8C10.4,16.8,10.5,16.8,10.5,16.8z M10.4,16.8 C10.3,16.8,10.3,16.7,10.4,16.8C10.3,16.7,10.3,16.8,10.4,16.8z M11,16.8C10.9,16.8,10.9,16.8,11,16.8C10.9,16.8,10.9,16.8,11,16.8z  M10.9,16.8C10.9,16.8,10.9,16.8,10.9,16.8C10.9,16.8,10.9,16.8,10.9,16.8z M10.9,16.8C10.8,16.8,10.8,16.8,10.9,16.8 C10.8,16.8,10.8,16.8,10.9,16.8z M11,16.8C11,16.8,11,16.8,11,16.8C11,16.8,11,16.8,11,16.8z M10.7,16.9 C10.7,16.9,10.7,16.9,10.7,16.9C10.7,16.9,10.7,16.9,10.7,16.9z M11.3,16.6l-0.2,0.2c0,0,0,0,0,0c0,0,0,0,0,0L11.3,16.6z M10.3,15.8 l11-9.1l0,0L10.3,15.8c-0.1,0.1-0.1,0.1-0.2,0.2C10.2,16,10.2,15.9,10.3,15.8z M24.6,4c0.2-0.2,0.5-0.2,0.8,0l2.4,2l0,0l-2.4-2 c-0.1-0.1-0.2-0.1-0.4-0.1C24.9,3.8,24.7,3.9,24.6,4l-2.4,2l0,0L24.6,4z M10.3,16.7C10.3,16.7,10.3,16.7,10.3,16.7 C10.3,16.7,10.3,16.7,10.3,16.7z M10.2,16.6C10.2,16.6,10.2,16.6,10.2,16.6C10.2,16.7,10.2,16.7,10.2,16.6 C10.2,16.7,10.2,16.7,10.2,16.6C10.2,16.6,10.2,16.6,10.2,16.6z M39.1,16.8c-0.1,0-0.1-0.1-0.2-0.1C39,16.8,39.1,16.8,39.1,16.8z  M10.1,16.2c0,0,0-0.1,0-0.1C10.1,16.1,10.1,16.1,10.1,16.2z M33.7,10.9l-5-4.2l0,0L33.7,10.9z M39.6,16.8c0.1,0,0.1-0.1,0.2-0.1 c0,0,0-0.1,0.1-0.1c0,0,0,0.1-0.1,0.1C39.7,16.7,39.6,16.8,39.6,16.8z M49.8,12L35.5,0.1c-0.2-0.2-0.5-0.2-0.8,0l-6.1,5l0.9,0.8 l5.5-4.6l11.2,9.3v14.5h-7.8v1.2h8.3c0.3,0,0.6-0.3,0.6-0.6V11.6l1.6,1.3c0.1,0.1,0.2,0.1,0.4,0.1c0.2,0,0.3-0.1,0.4-0.2 C50.1,12.6,50,12.2,49.8,12z M3.7,25.1V10.6l11.2-9.3l5.5,4.6l0.9-0.8l-6.1-5c-0.2-0.2-0.5-0.2-0.8,0L0.2,12 c-0.2,0.2-0.3,0.6-0.1,0.8c0.2,0.2,0.6,0.3,0.8,0.1l1.6-1.3v14.1c0,0.3,0.3,0.6,0.6,0.6h8.3v-1.2H3.7z M11.3,16.6l1.4-1.1v14.1 c0,0.3,0.3,0.6,0.6,0.6h23.6c0.3,0,0.6-0.3,0.6-0.6V15.4l1.6,1.3c0,0,0,0,0,0c0.1,0,0.1,0.1,0.2,0.1c0.1,0,0.1,0,0.2,0 c0.1,0,0.2,0,0.3-0.1c0.1,0,0.1-0.1,0.2-0.1c0,0,0-0.1,0.1-0.1c0.1-0.2,0.1-0.6-0.1-0.7L25.4,4c-0.2-0.2-0.5-0.2-0.8,0L10.3,15.8 c-0.1,0.1-0.1,0.1-0.2,0.2c0,0,0,0.1,0,0.1c0,0.1,0,0.3,0.1,0.4c0,0,0,0.1,0.1,0.1c0,0,0,0,0,0c0,0,0,0,0,0c0,0,0,0,0,0c0,0,0,0,0,0 c0,0,0,0,0,0c0,0,0,0,0,0c0,0,0,0,0,0c0,0,0,0,0,0c0,0,0,0,0,0c0,0,0,0,0,0c0,0,0,0,0,0c0,0,0,0,0,0c0,0,0,0,0,0c0,0,0,0,0,0 c0,0,0,0,0,0c0,0,0,0,0,0c0,0,0,0,0,0c0,0,0,0,0,0c0,0,0,0,0,0c0,0,0,0,0,0c0,0,0,0,0,0c0,0,0,0,0,0c0,0,0,0,0,0c0,0,0,0,0,0 c0,0,0,0,0,0c0,0,0,0,0,0c0,0,0,0,0,0c0,0,0,0,0,0c0,0,0,0,0,0c0,0,0,0,0,0c0,0,0,0,0,0L11.3,16.6z M23.1,28.9v-7.4h3.8v7.4H23.1z  M25,5.2l11.2,9.3v14.5h-8.1v-8c0-0.2-0.1-0.4-0.3-0.5c0,0-0.1-0.1-0.2-0.1c-0.1,0-0.1,0-0.2,0h-5c-0.2,0-0.3,0.1-0.4,0.2 c0,0,0,0,0,0c-0.1,0.1-0.2,0.3-0.2,0.4v8h-8.1V14.5L25,5.2z"/></svg>
