<svg aria-hidden="true" xmlns="http://www.w3.org/2000/svg" version="1.1" viewBox="0 0 50 34.4"><path d="M39.8,29.1H10.2c-0.3,0-0.6-0.3-0.6-0.6c0-0.3,0.3-0.6,0.6-0.6h29.6c0.3,0,0.6,0.3,0.6,0.6C40.4,28.8,40.1,29.1,39.8,29.1z  M31.1,8.2c-0.3,0-0.6-0.3-0.6-0.6V3.2c0-0.3,0.3-0.6,0.6-0.6c0.3,0,0.6,0.3,0.6,0.6v4.4C31.7,7.9,31.4,8.2,31.1,8.2z M18.9,8.2 c-0.3,0-0.6-0.3-0.6-0.6V3.2c0-0.3,0.3-0.6,0.6-0.6c0.3,0,0.6,0.3,0.6,0.6v4.4C19.5,7.9,19.2,8.2,18.9,8.2z M25,12.6 c-0.3,0-0.6-0.3-0.6-0.6V0.6C24.4,0.3,24.7,0,25,0c0.3,0,0.6,0.3,0.6,0.6v11.3C25.6,12.3,25.3,12.6,25,12.6z M49.4,34.4H0.6 c-0.3,0-0.6-0.3-0.6-0.6v-5.2c0-0.3,0.3-0.6,0.6-0.6h1.8c0.6,0,1.1-0.5,1.1-1.1v-3.5c0-4.7,1.5-9.2,4.3-12.9c1.4-1.8,3-3.4,4.8-4.7 c1.7-1.2,3.6-2.2,5.7-2.9V2.3c0-1.3,1-2.3,2.3-2.3h8.8c1.3,0,2.3,1,2.3,2.3v0.5c8.7,3,14.8,11.5,14.8,21v3c0,0.6,0.5,1.1,1.1,1.1 h1.8c0.3,0,0.6,0.3,0.6,0.6v5.2C50,34.1,49.7,34.4,49.4,34.4z M1.2,33.1h47.5v-4h-1.1c-1.3,0-2.3-1.1-2.3-2.3v-3 c0-9-5.9-17.2-14.4-19.9c-0.3-0.1-0.4-0.3-0.4-0.6V2.3c0-0.6-0.5-1.1-1.1-1.1h-8.8c-0.6,0-1.1,0.5-1.1,1.1v0.9 c0,0.3-0.2,0.5-0.4,0.6c-2.1,0.6-4,1.6-5.8,2.8c-1.7,1.2-3.3,2.7-4.5,4.4c-2.7,3.5-4.1,7.8-4.1,12.2v3.5c0,1.3-1,2.3-2.3,2.3H1.2 V33.1z M32.8,16.1c-0.2,0-0.3-0.1-0.4-0.2c-0.2-0.2-0.2-0.4-0.1-0.6l3.2-9.8c0-0.1,0-0.1,0.1-0.2l0,0c0.2-0.3,0.6-0.3,0.8-0.2 c2.6,1.7,4.9,4.1,6.6,6.7c0.1,0.2,0.1,0.5-0.1,0.7l0,0c-0.1,0.1-0.2,0.1-0.3,0.2L33,16C33,16,32.9,16.1,32.8,16.1z M36.4,6.6 l-2.6,7.8l7.8-2.6C40.2,9.8,38.4,8,36.4,6.6z M17.2,16.1c-0.1,0-0.1,0-0.2,0l-9.7-3.2c-0.1,0-0.2-0.1-0.3-0.2l0,0 c-0.2-0.2-0.2-0.5-0.1-0.7c1.7-2.7,4-5,6.6-6.7c0.3-0.2,0.7-0.1,0.8,0.2l0,0c0,0,0.1,0.1,0.1,0.2l3.2,9.8c0.1,0.2,0,0.5-0.1,0.6 C17.5,16,17.3,16.1,17.2,16.1z M8.4,11.9l7.8,2.6l-2.6-7.8C11.6,8,9.8,9.8,8.4,11.9z"/></svg>
