<svg aria-hidden="true" xmlns="http://www.w3.org/2000/svg" version="1.1" viewBox="0 0 50 37.4"><path d="M36.5,36.8c0,0.3-0.3,0.6-0.6,0.6h-6.7c-0.3,0-0.6-0.3-0.6-0.6V23.3c0-0.3,0.3-0.6,0.6-0.6h6.7c0.3,0,0.6,0.3,0.6,0.6V36.8z  M29.8,36.1h5.5V24h-5.5V36.1z M33.4,30.7h-0.8c-0.3,0-0.6-0.3-0.6-0.6c0-0.3,0.3-0.6,0.6-0.6h0.8c0.3,0,0.6,0.3,0.6,0.6 C34,30.4,33.7,30.7,33.4,30.7z M19.9,29c-0.3,0-0.6-0.3-0.6-0.6V20c0-0.3,0.3-0.6,0.6-0.6c0.3,0,0.6,0.3,0.6,0.6v8.4 C20.6,28.7,20.3,29,19.9,29z M25.8,24.9H14.1c-0.3,0-0.6-0.3-0.6-0.6c0-0.3,0.3-0.6,0.6-0.6h11.8c0.3,0,0.6,0.3,0.6,0.6 C26.5,24.6,26.2,24.9,25.8,24.9z M41.8,19.8c-0.1,0-0.2,0-0.3-0.1L25,9.8L8.5,19.7c-0.2,0.1-0.4,0.1-0.6,0c-0.2-0.1-0.3-0.3-0.3-0.5 v-4.2c0-0.2,0.1-0.4,0.3-0.5L24.7,4.3c0.2-0.1,0.4-0.1,0.6,0l16.8,10.1c0.2,0.1,0.3,0.3,0.3,0.5v4.2c0,0.2-0.1,0.4-0.3,0.5 C42,19.8,41.9,19.8,41.8,19.8z M8.8,15.3V18l15.9-9.5c0.2-0.1,0.4-0.1,0.6,0L41.2,18v-2.7L25,5.6L8.8,15.3z M39.3,37.4H10.7 c-0.3,0-0.6-0.2-0.6-0.6V17.6c0-0.2,0.1-0.4,0.3-0.5l14.3-8.6c0.2-0.1,0.4-0.1,0.6,0l14.3,8.6c0.2,0.1,0.3,0.3,0.3,0.5v19.2 C39.9,37.2,39.6,37.4,39.3,37.4z M11.4,36.1h27.3V18L25,9.8L11.4,18V36.1z M26.5,28.4c0,0.3-0.3,0.6-0.6,0.6H14.1 c-0.3,0-0.6-0.3-0.6-0.6V20c0-0.3,0.3-0.6,0.6-0.6h11.8c0.3,0,0.6,0.3,0.6,0.6V28.4z M14.7,27.8h10.5v-7.2H14.7V27.8z M29.2,34.1 H10.7c-0.3,0-0.6-0.3-0.6-0.6c0-0.3,0.3-0.6,0.6-0.6h18.5c0.3,0,0.6,0.3,0.6,0.6C29.8,33.8,29.5,34.1,29.2,34.1z M39.3,34.1h-3.4 c-0.3,0-0.6-0.3-0.6-0.6c0-0.3,0.3-0.6,0.6-0.6h3.4c0.3,0,0.6,0.3,0.6,0.6C39.9,33.8,39.6,34.1,39.3,34.1z M39.9,4 c0,0.3-0.3,0.6-0.6,0.6H29.2c-0.3,0-0.6-0.3-0.6-0.6V0.6c0-0.3,0.3-0.6,0.6-0.6h10.1c0.3,0,0.6,0.3,0.6,0.6V4z M29.8,3.4h8.8V1.3 h-8.8V3.4z M37.6,13.1c-0.1,0-0.2,0-0.3-0.1l-6.7-4c-0.2-0.1-0.3-0.3-0.3-0.5V4c0-0.3,0.3-0.6,0.6-0.6h6.7c0.3,0,0.6,0.3,0.6,0.6 v8.4c0,0.2-0.1,0.4-0.3,0.5C37.8,13,37.7,13.1,37.6,13.1z M31.5,8l5.5,3.3V4.6h-5.5V8z M4,37.4H0.6c-0.3,0-0.6-0.2-0.6-0.6v-8.4 c0-0.1,0-0.2,0.1-0.3l1.7-2.5c0.1-0.2,0.3-0.3,0.5-0.3c0.2,0,0.4,0.1,0.5,0.3l1.7,2.5c0.1,0.1,0.1,0.2,0.1,0.3v8.4 C4.6,37.2,4.3,37.4,4,37.4z M1.3,36.1h2.1v-7.6l-1-1.6l-1,1.6V36.1z M7.3,37.4H4c-0.3,0-0.7-0.2-0.7-0.6v-8.4c0-0.1,0-0.2,0.1-0.3 l1.7-2.5c0.1-0.2,0.3-0.3,0.5-0.3c0.2,0,0.4,0.1,0.5,0.3l1.7,2.5C7.9,28.2,8,28.3,8,28.4v8.4C8,37.2,7.7,37.4,7.3,37.4z M4.6,36.1 h2.1v-7.6L5.6,27l-1.1,1.6V36.1z M10.7,37.4H7.3c-0.3,0-0.6-0.2-0.6-0.6v-8.4c0-0.1,0-0.2,0.1-0.3l1.7-2.5c0.1-0.2,0.3-0.3,0.5-0.3 c0.2,0,0.4,0.1,0.5,0.3l1.7,2.5c0.1,0.1,0.1,0.2,0.1,0.3v8.4C11.4,37.2,11,37.4,10.7,37.4z M8,36.1h2.1v-7.6L9,27L8,28.6V36.1z  M42.6,37.4h-3.4c-0.3,0-0.6-0.2-0.6-0.6v-8.4c0-0.1,0-0.2,0.1-0.3l1.7-2.5c0.1-0.2,0.3-0.3,0.5-0.3c0.2,0,0.4,0.1,0.5,0.3l1.7,2.5 c0.1,0.1,0.1,0.2,0.1,0.3v8.4C43.3,37.2,43,37.4,42.6,37.4z M39.9,36.1H42v-7.6L41,27l-1.1,1.6V36.1z M46,37.4h-3.4 c-0.3,0-0.6-0.2-0.6-0.6v-8.4c0-0.1,0-0.2,0.1-0.3l1.7-2.5c0.1-0.2,0.3-0.3,0.5-0.3c0.2,0,0.4,0.1,0.5,0.3l1.7,2.5 c0.1,0.1,0.1,0.2,0.1,0.3v8.4C46.6,37.2,46.3,37.4,46,37.4z M43.3,36.1h2.1v-7.6l-1-1.6l-1,1.6V36.1z M49.4,37.4H46 c-0.3,0-0.6-0.2-0.6-0.6v-8.4c0-0.1,0-0.2,0.1-0.3l1.7-2.5c0.1-0.2,0.3-0.3,0.5-0.3c0.2,0,0.4,0.1,0.5,0.3l1.7,2.5 c0.1,0.1,0.1,0.2,0.1,0.3v8.4C50,37.2,49.7,37.4,49.4,37.4z M46.6,36.1h2.1v-7.6L47.7,27l-1.1,1.6V36.1z M26.7,29.1H13.2 c-0.3,0-0.6-0.3-0.6-0.6c0-0.3,0.3-0.6,0.6-0.6h13.4c0.3,0,0.6,0.3,0.6,0.6C27.3,28.8,27,29.1,26.7,29.1z"/></svg>
