<svg aria-hidden="true" xmlns="http://www.w3.org/2000/svg" version="1.1" viewBox="0 0 39.2 50"><path d="M38.3,50H0.8C0.3,50,0,49.6,0,49.2V0.9C0,0.4,0.3,0,0.8,0h25.8c0.2,0,0.4,0.1,0.6,0.3l11.7,11.7c0.2,0.2,0.3,0.4,0.3,0.6 v36.7C39.2,49.6,38.8,50,38.3,50z M1.6,48.3h35.9V12.9L26.3,1.7H1.6V48.3z M17.5,20c0,0.5-0.4,0.8-0.8,0.8c-0.5,0-0.8-0.4-0.8-0.8 c0-0.5,0.4-0.8,0.8-0.8C17.1,19.2,17.5,19.6,17.5,20 M10,26.7c0,0.5-0.4,0.8-0.8,0.8c-0.5,0-0.8-0.4-0.8-0.8c0-0.5,0.4-0.8,0.8-0.8 C9.6,25.8,10,26.2,10,26.7 M20,13.4c0,0.5-0.4,0.8-0.8,0.8c-0.5,0-0.8-0.4-0.8-0.8c0-0.5,0.4-0.8,0.8-0.8C19.6,12.5,20,12.9,20,13.4  M38.3,13.4H26.6c-0.5,0-0.8-0.4-0.8-0.9V0.9c0-0.3,0.2-0.6,0.5-0.8C26.6,0,27,0,27.2,0.3l11.7,11.7c0.2,0.2,0.3,0.6,0.2,0.9 C38.9,13.2,38.6,13.4,38.3,13.4z M27.4,11.7h8.9l-8.9-8.9V11.7z M15.8,14.2H8.3c-0.5,0-0.8-0.4-0.8-0.8c0-0.5,0.4-0.8,0.8-0.8h7.5 c0.5,0,0.8,0.4,0.8,0.8C16.6,13.8,16.3,14.2,15.8,14.2z M12.5,20.8H8.3c-0.5,0-0.8-0.4-0.8-0.8c0-0.5,0.4-0.8,0.8-0.8h4.2 c0.5,0,0.8,0.4,0.8,0.8C13.3,20.5,12.9,20.8,12.5,20.8z M26.6,20.8h-5.8c-0.5,0-0.8-0.4-0.8-0.8c0-0.5,0.4-0.8,0.8-0.8h5.8 c0.5,0,0.8,0.4,0.8,0.8C27.5,20.5,27.1,20.8,26.6,20.8z M18.3,27.5h-5.8c-0.5,0-0.8-0.4-0.8-0.8c0-0.5,0.4-0.8,0.8-0.8h5.8 c0.5,0,0.8,0.4,0.8,0.8C19.1,27.2,18.8,27.5,18.3,27.5z M10.9,33.5c-2.4,1.2-2.7,3.9-2.8,6.3c0.5-0.2,0.9-0.4,1.4-0.6 c-0.8-0.7-1.6-1.3-2.3-2c-0.8-0.7-2,0.5-1.2,1.2c0.8,0.7,1.6,1.3,2.3,2c0.6,0.5,1.4,0.2,1.4-0.6c0.1-1.8,0.1-4,2-4.9 C12.7,34.4,11.9,33,10.9,33.5 M11.7,37.7c0.4,0.9,1.2,1.5,2.2,1.6c0.5,0.1,0.9,0,1.4-0.2c0.3-0.1,1.6-1.1,1.9-0.6 c0.5,0.9,2,0.1,1.4-0.8c-0.4-0.8-1.4-1.2-2.2-0.9c-1.1,0.3-2.5,1.7-3.3,0.1C12.7,35.9,11.3,36.8,11.7,37.7 M30.8,45.8 c-0.2,0-0.4-0.1-0.6-0.2l-2.7-2.7l-2.7,2.7c-0.2,0.2-0.6,0.3-0.9,0.2c-0.3-0.1-0.5-0.4-0.5-0.8v-8.2c-0.3-0.1-0.8-0.3-1.1-0.6 c-0.7-0.7-0.8-1.6-0.4-2.5c0.1-0.2,0-0.4,0-0.4c0-0.1-0.1-0.2-0.3-0.3c-0.9-0.3-1.5-1.1-1.5-2.1s0.6-1.8,1.5-2.1 c0.2-0.1,0.3-0.2,0.3-0.3c0-0.1,0.1-0.2,0-0.4c-0.4-0.9-0.2-1.8,0.4-2.5c0.7-0.7,1.6-0.8,2.5-0.4c0.2,0.1,0.4,0,0.4,0 c0.1,0,0.2-0.1,0.3-0.3c0.3-0.9,1.1-1.5,2.1-1.5c0.9,0,1.8,0.6,2.1,1.5c0.1,0.2,0.2,0.3,0.3,0.3c0.1,0,0.2,0.1,0.4,0 c0.9-0.4,1.8-0.2,2.5,0.4c0.7,0.7,0.8,1.6,0.4,2.5c-0.1,0.2,0,0.4,0,0.4c0,0.1,0.1,0.2,0.3,0.3c0.9,0.3,1.5,1.1,1.5,2.1 s-0.6,1.8-1.5,2.1c-0.2,0.1-0.3,0.2-0.3,0.3c0,0.1-0.1,0.2,0,0.4c0.4,0.9,0.2,1.8-0.4,2.5c-0.3,0.3-0.7,0.5-1.2,0.6V45 c0,0.3-0.2,0.6-0.5,0.8C31,45.8,30.9,45.8,30.8,45.8z M27.5,40.9c0.2,0,0.4,0.1,0.6,0.2L30,43v-6.5c0,0-0.1,0-0.1,0c0,0,0,0,0,0 c0,0,0,0,0,0c-0.1,0-0.2,0.1-0.3,0.3c-0.3,0.9-1.1,1.5-2.1,1.5c-0.9,0-1.8-0.6-2.1-1.5c-0.1-0.2-0.2-0.3-0.3-0.3c0,0-0.1,0-0.1,0V43 l1.9-1.9C27.1,40.9,27.3,40.9,27.5,40.9z M25.7,35.1c0.6,0.2,1,0.7,1.2,1.3c0.1,0.3,0.4,0.4,0.5,0.4c0.1,0,0.4,0,0.5-0.4 c0.2-0.6,0.7-1.1,1.2-1.3c0.6-0.2,1.2-0.2,1.7,0c0,0,0.1,0,0.1,0c0,0,0.1,0,0.1,0c0.2,0,0.4-0.1,0.4-0.2c0.1-0.1,0.3-0.3,0.1-0.6 c-0.3-0.6-0.3-1.2,0-1.8c0.2-0.6,0.7-1,1.3-1.2c0.3-0.1,0.4-0.4,0.4-0.5s0-0.4-0.4-0.5c-0.6-0.2-1.1-0.7-1.3-1.2 c-0.2-0.6-0.2-1.2,0-1.8c0.1-0.3,0-0.5-0.1-0.6c-0.1-0.1-0.3-0.3-0.6-0.1c-0.6,0.3-1.2,0.3-1.8,0c-0.6-0.2-1-0.7-1.2-1.3 c-0.1-0.3-0.4-0.4-0.5-0.4c-0.1,0-0.4,0-0.5,0.4c-0.2,0.6-0.7,1.1-1.2,1.3c-0.6,0.2-1.2,0.2-1.8,0c-0.3-0.1-0.5,0-0.6,0.1 c-0.1,0.1-0.2,0.3-0.1,0.6c0.3,0.6,0.3,1.2,0,1.8c-0.2,0.6-0.7,1-1.3,1.2c-0.3,0.1-0.4,0.4-0.4,0.5s0,0.4,0.4,0.5 c0.6,0.2,1.1,0.7,1.3,1.2c0.2,0.6,0.2,1.2,0,1.8c-0.1,0.3,0,0.5,0.1,0.6c0.1,0.1,0.2,0.2,0.4,0.2c0,0,0.1,0,0.1,0c0,0,0.1,0,0.1,0 c0,0,0.1,0,0.1,0C24.6,34.8,25.2,34.8,25.7,35.1C25.7,35,25.7,35,25.7,35.1L25.7,35.1C25.7,35,25.7,35,25.7,35.1L25.7,35.1 C25.7,35,25.7,35,25.7,35.1C25.7,35,25.7,35,25.7,35.1C25.7,35,25.7,35,25.7,35.1L25.7,35.1C25.7,35.1,25.7,35,25.7,35.1L25.7,35.1 C25.7,35.1,25.7,35.1,25.7,35.1L25.7,35.1C25.7,35.1,25.7,35,25.7,35.1L25.7,35.1C25.7,35,25.7,35.1,25.7,35.1 C25.7,35.1,25.7,35.1,25.7,35.1L25.7,35.1C25.7,35.1,25.7,35,25.7,35.1z"/></svg>
