<svg aria-hidden="true" xmlns="http://www.w3.org/2000/svg" version="1.1" viewBox="0 0 36.6 50"><path d="M5,33.3h11.7V35H5V33.3z M28.3,33.3h3.3V35h-3.3V33.3z M28.3,26.7h3.3v1.7h-3.3V26.7z M28.3,20h3.3v1.7h-3.3V20z M28.3,13.3 h3.3V15h-3.3V13.3z M5,26.7h15v1.7H5V26.7z M5,20h11.7v1.7H5V20z M5,13.3h18.3V15H5V13.3z M1.7,47.6L5,44.3l3.3,3.3l3.3-3.3l3.3,3.3 l3.3-3.3l3.3,3.3l3.3-3.3l3.3,3.3l3.3-3.3l3.3,3.3V2.4l-3.3,3.3l-3.3-3.3L25,5.7l-3.3-3.3l-3.3,3.3L15,2.4l-3.3,3.3L8.3,2.4L5,5.7 L1.7,2.4V47.6z M0,1.7L1.7,0L5,3.3L8.3,0l3.3,3.3L15,0l3.3,3.3L21.6,0L25,3.3L28.3,0l3.3,3.3L35,0l1.7,1.7v46.7L35,50l-3.3-3.3 L28.3,50L25,46.7L21.6,50l-3.3-3.3L15,50l-3.3-3.3L8.3,50L5,46.7L1.7,50L0,48.3V1.7z"/></svg>
