<svg aria-hidden="true" xmlns="http://www.w3.org/2000/svg" version="1.1" viewBox="0 0 50 32.8"><path d="M44.2,23.5h-38c-0.3,0-0.6-0.3-0.6-0.6V0.6C5.5,0.3,5.8,0,6.1,0h38c0.3,0,0.6,0.3,0.6,0.6v22.2 C44.8,23.2,44.5,23.5,44.2,23.5z M6.8,22.2h36.8v-21H6.8V22.2z M49.4,32.8H0.6c-0.2,0-0.4-0.1-0.5-0.3c-0.1-0.2-0.1-0.4,0-0.6 l5.5-9.3c0.2-0.3,0.6-0.4,0.9-0.2c0.3,0.2,0.4,0.6,0.2,0.9l-4.9,8.4h46.5l-4.8-8.4c-0.2-0.3-0.1-0.7,0.2-0.9 c0.3-0.2,0.7-0.1,0.9,0.2l5.3,9.3c0.1,0.2,0.1,0.4,0,0.6C49.8,32.7,49.6,32.8,49.4,32.8z M31.1,28.1H19.8c-0.3,0-0.6-0.3-0.6-0.6 c0-0.3,0.3-0.6,0.6-0.6h11.3c0.3,0,0.6,0.3,0.6,0.6C31.8,27.8,31.5,28.1,31.1,28.1z M10,28.1H8.4c-0.3,0-0.6-0.3-0.6-0.6 c0-0.3,0.3-0.6,0.6-0.6H10c0.3,0,0.6,0.3,0.6,0.6C10.6,27.8,10.3,28.1,10,28.1z M15.3,28.1h-1.6c-0.3,0-0.6-0.3-0.6-0.6 c0-0.3,0.3-0.6,0.6-0.6h1.6c0.3,0,0.6,0.3,0.6,0.6C15.9,27.8,15.6,28.1,15.3,28.1z M36.4,28.1h-1.6c-0.3,0-0.6-0.3-0.6-0.6 c0-0.3,0.3-0.6,0.6-0.6h1.6c0.3,0,0.6,0.3,0.6,0.6C37.1,27.8,36.8,28.1,36.4,28.1z M41.7,28.1H40c-0.3,0-0.6-0.3-0.6-0.6 c0-0.3,0.3-0.6,0.6-0.6h1.7c0.3,0,0.6,0.3,0.6,0.6C42.4,27.8,42.1,28.1,41.7,28.1z"/></svg>
