<svg aria-hidden="true" xmlns="http://www.w3.org/2000/svg" version="1.1" viewBox="0 0 50 48.2"><path d="M50,48.2H0l3.5-28.1h9.8c0.4,0,0.7,0.3,0.7,0.7c0,0.4-0.3,0.7-0.7,0.7H4.8L1.7,46.8h46.7l-2.7-25.1h-8.5 c-0.4,0-0.7-0.3-0.7-0.7c0-0.4,0.3-0.7,0.7-0.7H47L50,48.2z M25.2,34.9c-0.3,0-0.6-0.1-0.8-0.4c-0.7-0.7-2.5-2.8-4.4-6 c-2.4-4.1-4.1-8.5-5.1-13.2c-0.5-2.2-0.6-4.3-0.3-6.3C15.4,3.1,19,0,25.2,0c6.2,0,9.9,3.1,10.6,9.1c0.3,2,0.2,4.1-0.3,6.3 c-1,4.7-2.7,9.2-5.1,13.2c-1.9,3.2-3.7,5.3-4.4,6C25.8,34.8,25.5,34.9,25.2,34.9z M25.2,1.5c-3.1,0-5.5,0.9-7.1,2.6 c-1.1,1.3-1.9,3-2.1,5.2C15.8,11,15.9,13,16.3,15c2.1,10.2,7.4,16.6,8.9,18.3c0.8-0.9,2.3-2.7,4-5.5c2.3-3.9,4-8.2,4.9-12.8 c0.4-2,0.5-4,0.3-5.8c-0.3-2.2-1-3.9-2.1-5.2C30.7,2.3,28.4,1.5,25.2,1.5z M25.2,17c-3.6,0-6.5-2.9-6.5-6.6c0-3.6,2.9-6.6,6.5-6.6 c3.6,0,6.5,2.9,6.5,6.6C31.8,14,28.8,17,25.2,17z M25.2,5.3c-2.8,0-5.1,2.3-5.1,5.1s2.3,5.1,5.1,5.1c2.8,0,5.1-2.3,5.1-5.1 S28,5.3,25.2,5.3z M11.1,43.6c0.4-0.1,0.7-0.4,0.6-0.8c-0.1-0.4-0.4-0.7-0.8-0.6c-0.4,0.1-0.8,0.1-1.2,0c-0.4,0-0.8-0.2-1.1-0.3 c-0.4-0.2-0.8-0.1-1,0.3c-0.2,0.4-0.1,0.8,0.3,1c0.5,0.3,1,0.4,1.6,0.5c0.2,0,0.5,0,0.7,0C10.5,43.7,10.8,43.6,11.1,43.6z  M13.9,42.9c0.9-0.3,1.8-0.7,2.6-1.1c0.4-0.2,0.5-0.6,0.3-1c-0.2-0.4-0.6-0.5-1-0.4c-0.8,0.4-1.6,0.7-2.5,1C13,41.6,12.8,42,13,42.4 c0.1,0.3,0.4,0.5,0.7,0.5C13.7,42.9,13.8,42.9,13.9,42.9z M6.9,41c0.4,0,0.7-0.4,0.6-0.8c0-0.1,0-0.2,0-0.4c0-0.1,0-0.2,0-0.2 c0-0.6,0.2-1.2,0.4-1.7c0.2-0.4,0-0.8-0.4-1c-0.4-0.2-0.8,0-1,0.4c-0.3,0.7-0.5,1.5-0.6,2.2c0,0.1,0,0.2,0,0.3c0,0.2,0,0.4,0,0.5 C6.2,40.7,6.5,41,6.9,41C6.9,41,6.9,41,6.9,41z M19,40.5c0.8-0.5,1.6-1,2.3-1.6c0.3-0.2,0.4-0.7,0.1-1c-0.2-0.3-0.7-0.4-1-0.1 c-0.7,0.5-1.5,1-2.2,1.5c-0.3,0.2-0.5,0.7-0.3,1c0.1,0.2,0.4,0.4,0.6,0.4C18.7,40.6,18.9,40.5,19,40.5z M23.5,37.1 c0.5-0.4,0.8-0.7,1.2-0.9c0.3-0.2,0.6-0.4,0.9-0.5c0.4-0.2,0.5-0.6,0.3-1c-0.2-0.4-0.6-0.5-1-0.3c-0.4,0.2-0.7,0.4-1.1,0.6 c-0.4,0.3-0.8,0.6-1.3,1c-0.3,0.3-0.4,0.7-0.1,1c0.1,0.2,0.4,0.3,0.6,0.3C23.2,37.3,23.4,37.3,23.5,37.1z M9.5,36.2 c0.3-0.2,0.6-0.3,0.9-0.3c0.1,0,0.1,0,0.2,0c0.3,0,0.5,0.1,0.7,0.2c0.3,0.2,0.8,0.2,1-0.1c0.3-0.3,0.2-0.8-0.1-1 c-0.4-0.3-1-0.5-1.6-0.5c-0.1,0-0.2,0-0.4,0c-0.5,0.1-1,0.2-1.4,0.5c-0.4,0.2-0.5,0.6-0.3,1c0.1,0.2,0.4,0.4,0.6,0.4 C9.3,36.3,9.4,36.3,9.5,36.2z M28.1,34.8c0.8-0.2,1.6-0.4,2.6-0.5c0.4,0,0.7-0.4,0.6-0.8c-0.1-0.4-0.4-0.7-0.8-0.6 c-1,0.1-1.9,0.3-2.8,0.5c-0.4,0.1-0.6,0.5-0.5,0.9c0.1,0.3,0.4,0.5,0.7,0.5C28,34.8,28,34.8,28.1,34.8z M33.4,34.1 c0.5,0,1.1,0,1.6-0.1c0.4,0,0.8,0,1.2,0c0.4,0,0.7-0.4,0.7-0.8c0-0.4-0.4-0.7-0.8-0.7c-0.4,0-0.8,0-1.2,0c-0.5,0-1,0-1.6,0.1 c-0.4,0-0.7,0.4-0.7,0.8C32.6,33.8,32.9,34.1,33.4,34.1C33.3,34.1,33.4,34.1,33.4,34.1z M38.9,33.8c0.9-0.1,2-0.3,2.8-0.9 c0,0,0.1-0.1,0.1-0.1c0.3-0.2,0.4-0.7,0.1-1c-0.2-0.3-0.7-0.4-1-0.1c0,0-0.1,0-0.1,0.1c-0.6,0.4-1.4,0.6-2.1,0.6 c-0.4,0-0.7,0.4-0.6,0.8C38.1,33.5,38.4,33.8,38.9,33.8C38.8,33.8,38.9,33.8,38.9,33.8z M43.7,30.4c0.4-0.6,0.5-1.2,0.6-1.8 c0-0.1,0-0.1,0-0.2c0-0.4-0.1-0.8-0.2-1.2c-0.1-0.4-0.6-0.6-0.9-0.4c-0.4,0.1-0.6,0.6-0.4,0.9c0.1,0.2,0.1,0.5,0.1,0.7 c0,0,0,0.1,0,0.1c0,0.4-0.2,0.8-0.4,1.2c-0.2,0.4-0.1,0.8,0.3,1c0.1,0.1,0.2,0.1,0.4,0.1C43.3,30.8,43.6,30.6,43.7,30.4z M41.5,26.3 c-0.1,0-0.2,0-0.3,0c-0.4-0.1-0.8-0.2-1.2-0.2c-0.4,0-0.7,0-1.1,0.1c-0.4,0.1-0.8-0.1-0.9-0.5c-0.1-0.4,0.1-0.8,0.5-0.9 c0.5-0.1,1-0.2,1.5-0.2c0.6,0,1.2,0.1,1.7,0.3c0.4,0.1,0.6,0.6,0.4,0.9C42.1,26.1,41.8,26.3,41.5,26.3z"/></svg>
