<svg aria-hidden="true" xmlns="http://www.w3.org/2000/svg" version="1.1" viewBox="0 0 50 39.6"><path d="M50,39.6H0v-3.8h50V39.6z M1.2,38.4h47.6V37H1.2V38.4z M25.6,36.4l-0.8-0.3c-7.8-3.1-14.6-3.4-20.5-0.9l-0.1,0H2.6V1.7H4 C7.2,0.6,10.9,0,14.5,0c3.7,0,7.4,0.6,10.7,1.8l0.4,0.1V36.4z M12.8,32.3c3.6,0,7.5,0.8,11.6,2.3V2.8c-3-1-6.4-1.6-9.9-1.6 C11,1.2,7.4,1.8,4.3,2.9l-0.1,0H3.8V34H4C6.7,32.9,9.6,32.3,12.8,32.3z M24.4,36.4V1.9l0.4-0.1c6.8-2.4,14.3-2.4,21.2,0h1.4v33.5 h-1.6l-0.1-0.1c-2.8-1.3-6.1-1.9-9.8-1.6c-3.3,0.2-6.9,1.1-10.7,2.5L24.4,36.4z M25.6,2.8v31.9c3.6-1.3,7.1-2.1,10.2-2.3 c3.8-0.3,7.2,0.3,10.2,1.7h0.1V2.9h-0.4l-0.1,0C39.2,0.7,32.1,0.6,25.6,2.8z M50,37H0V1.7h3.8V34H4c6-2.6,13.1-2.3,21,0.8 c3.8-1.5,7.5-2.3,10.8-2.5c3.8-0.3,7.2,0.3,10.2,1.7h0.1V1.7H50V37z M26,35.8h22.8V2.9h-1.4v32.3h-1.6l-0.1-0.1 c-2.8-1.3-6.1-1.9-9.8-1.6C32.8,33.7,29.5,34.5,26,35.8z M1.2,35.8H24c-7.5-2.8-14.1-3-19.7-0.6l-0.1,0H2.6V2.9H1.2V35.8z M19.8,9.1 h-7.8c-0.3,0-0.6-0.3-0.6-0.6c0-0.3,0.3-0.6,0.6-0.6h7.8c0.3,0,0.6,0.3,0.6,0.6C20.4,8.8,20.1,9.1,19.8,9.1z M19.8,13.4H8.4 c-0.3,0-0.6-0.3-0.6-0.6s0.3-0.6,0.6-0.6h11.3c0.3,0,0.6,0.3,0.6,0.6S20.1,13.4,19.8,13.4z M16.3,17.8H8.4c-0.3,0-0.6-0.3-0.6-0.6 s0.3-0.6,0.6-0.6h7.8c0.3,0,0.6,0.3,0.6,0.6S16.6,17.8,16.3,17.8z M19.8,22.1h-7.8c-0.3,0-0.6-0.3-0.6-0.6s0.3-0.6,0.6-0.6h7.8 c0.3,0,0.6,0.3,0.6,0.6S20.1,22.1,19.8,22.1z M19.8,26.5H8.4c-0.3,0-0.6-0.3-0.6-0.6s0.3-0.6,0.6-0.6h11.3c0.3,0,0.6,0.3,0.6,0.6 S20.1,26.5,19.8,26.5z M38.1,13.4h-7.8c-0.3,0-0.6-0.3-0.6-0.6s0.3-0.6,0.6-0.6h7.8c0.3,0,0.6,0.3,0.6,0.6S38.4,13.4,38.1,13.4z  M42.4,9.1H30.2c-0.3,0-0.6-0.3-0.6-0.6c0-0.3,0.3-0.6,0.6-0.6h12.2c0.3,0,0.6,0.3,0.6,0.6C43,8.8,42.8,9.1,42.4,9.1z M42.4,26.5 h-8.7c-0.3,0-0.6-0.3-0.6-0.6s0.3-0.6,0.6-0.6h8.7c0.3,0,0.6,0.3,0.6,0.6S42.8,26.5,42.4,26.5z M38.1,22.1h-7.8 c-0.3,0-0.6-0.3-0.6-0.6s0.3-0.6,0.6-0.6h7.8c0.3,0,0.6,0.3,0.6,0.6S38.4,22.1,38.1,22.1z M42.4,17.8H30.2c-0.3,0-0.6-0.3-0.6-0.6 s0.3-0.6,0.6-0.6h12.2c0.3,0,0.6,0.3,0.6,0.6S42.8,17.8,42.4,17.8z"/></svg>
