<svg aria-hidden="true" xmlns="http://www.w3.org/2000/svg" version="1.1" viewBox="0 0 50 46.6"><path d="M4.9,34.3c-1.8,0-3.3-0.9-4.2-2.4s-0.9-3.4,0-4.9l4.2-7.3l4.2,7.3c0.9,1.5,0.9,3.4,0,4.9C8.2,33.3,6.7,34.3,4.9,34.3z  M4.9,22.4l-3,5.2c-0.6,1.1-0.6,2.4,0,3.5c0.6,1.1,1.8,1.7,3,1.7s2.4-0.6,3-1.7c0.6-1.1,0.6-2.4,0-3.5L4.9,22.4z M45.1,17.3 c-1.8,0-3.3-0.9-4.2-2.4c-0.9-1.5-0.9-3.4,0-4.9l4.2-7.3l4.2,7.3c0.9,1.5,0.9,3.4,0,4.9C48.5,16.4,46.9,17.3,45.1,17.3z M45.1,5.5 l-3,5.2c-0.6,1.1-0.6,2.4,0,3.5c0.6,1.1,1.8,1.7,3,1.7c1.3,0,2.4-0.6,3-1.7c0.6-1.1,0.6-2.4,0-3.5L45.1,5.5z M25,35.8 c-0.4,0-0.7-0.3-0.7-0.7V12.6H25c1.9,0,3.5-1.6,3.5-3.5c0-1.9-1.6-3.5-3.5-3.5h-0.7v-4c0-0.4,0.3-0.7,0.7-0.7c0.4,0,0.7,0.3,0.7,0.7 v2.7c2.4,0.3,4.2,2.4,4.2,4.8c0,2.5-1.8,4.5-4.2,4.8V35C25.7,35.4,25.4,35.8,25,35.8z M25,14c-2.7,0-4.9-2.2-4.9-4.9 c0-2.7,2.2-4.9,4.9-4.9c2.7,0,4.9,2.2,4.9,4.9C29.9,11.8,27.7,14,25,14z M25,5.6c-1.9,0-3.5,1.6-3.5,3.5c0,1.9,1.6,3.5,3.5,3.5 c1.9,0,3.5-1.6,3.5-3.5C28.5,7.2,26.9,5.6,25,5.6z M4.9,18.2c-0.3,0-0.5-0.2-0.7-0.4c-0.1-0.4,0-0.8,0.4-0.9l17-6.8l0.3,0.6 c0.6,1.2,1.8,2,3.1,2c1.9,0,3.5-1.6,3.5-3.5c0-0.3-0.1-0.6-0.2-1l-0.2-0.6l16.7-7.4c0.4-0.2,0.8,0,0.9,0.4c0.2,0.4,0,0.8-0.4,0.9 L29.8,8.2c0.1,0.3,0.1,0.6,0.1,0.9c0,2.7-2.2,4.9-4.9,4.9c-1.7,0-3.2-0.8-4.1-2.2L5.2,18.1C5.1,18.1,5,18.2,4.9,18.2z M4.9,21.5 c-0.4,0-0.7-0.3-0.7-0.7v-3.4c0-0.4,0.3-0.7,0.7-0.7c0.4,0,0.7,0.3,0.7,0.7v3.4C5.6,21.2,5.3,21.5,4.9,21.5z M45.1,4.8 c-0.4,0-0.7-0.3-0.7-0.7V0.7c0-0.4,0.3-0.7,0.7-0.7c0.4,0,0.7,0.3,0.7,0.7v3.4C45.8,4.4,45.5,4.8,45.1,4.8z M49.3,13.1h-8.4 c-0.4,0-0.7-0.3-0.7-0.7s0.3-0.7,0.7-0.7h8.4c0.4,0,0.7,0.3,0.7,0.7S49.7,13.1,49.3,13.1z M9.1,29.9H0.7c-0.4,0-0.7-0.3-0.7-0.7 c0-0.4,0.3-0.7,0.7-0.7h8.4c0.4,0,0.7,0.3,0.7,0.7C9.8,29.6,9.5,29.9,9.1,29.9z M38.3,46.6H11.7v-0.7c0-4.1,3.3-7.4,7.4-7.4h11.7 c4.1,0,7.4,3.4,7.4,7.4V46.6z M13.2,45.2h23.6c-0.4-3-2.9-5.3-6-5.3H19.1C16.1,40,13.5,42.2,13.2,45.2z M30.7,40H19.3v-5.6h11.5V40z  M20.6,38.5h8.7v-2.8h-8.7V38.5z"/></svg>
