<svg aria-hidden="true" xmlns="http://www.w3.org/2000/svg" version="1.1" viewBox="0 0 43.1 50"><path d="M24.2,19.7L24.2,19.7L24.2,19.7z M22.4,28.6L22.4,28.6L22.4,28.6z M22.4,28.6L22.4,28.6L22.4,28.6z M10.7,19.4L10.7,19.4 C10.7,19.4,10.7,19.4,10.7,19.4l-0.1,0c0,0,0,0-0.1,0l0,0c0,0,0,0-0.1,0c0,0,0,0,0,0c0,0,0,0-0.1,0c0,0,0,0,0,0c0,0,0,0,0,0l0,0 c0,0,0,0,0,0c0,0,0,0,0,0c0,0,0,0,0,0l0,0c0,0,0,0,0,0.1l0,0c0,0,0,0,0,0.1l0,0c0,0,0,0.1,0,0.1l0,0c0,0,0,0,0,0.1l0,0 c0,0,0,0,0,0.1l0,0c0,0,0,0,0,0.1l0,0c0,0,0,0.1,0,0.1l0,0c0,0,0,0.1,0,0.1l0,0c0,0,0,0.1,0,0.1l0,0c0,0,0,0.1,0,0.1l0,0 c0,0,0,0,0,0.1c0,0,0,0,0,0c0,0,0,0,0,0c0,0,0,0,0,0c0,0,0,0,0,0c0,0,0,0,0,0.1l0,0c0,0,0,0,0.1,0.1l0,0l5,4.9l-1.2,7c0,0,0,0,0,0 c0,0,0,0.1,0,0.1l0,0c0,0,0,0.1,0,0.1c0,0,0,0,0,0c0,0,0,0,0,0.1c0,0,0,0,0,0c0,0,0,0,0,0.1c0,0,0,0,0,0c0,0,0,0,0,0c0,0,0,0,0,0.1 c0,0,0,0,0,0c0,0,0,0,0,0.1c0,0,0,0,0,0c0,0,0,0,0,0c0,0,0,0,0,0.1c0,0,0,0,0,0c0,0,0,0,0,0l0,0c0,0,0,0,0,0c0,0,0,0,0,0l0,0 c0,0,0,0,0,0l0,0c0,0,0,0,0,0l0,0c0,0,0,0,0.1,0l0,0c0,0,0,0,0.1,0l0,0c0,0,0,0,0.1,0l0,0c0,0,0,0,0.1,0h0c0,0,0.1,0,0.1,0l0,0 c0,0,0.1,0,0.1,0h0c0,0,0.1,0,0.1,0c0,0,0,0,0,0c0,0,0,0,0.1,0c0,0,0,0,0,0c0,0,0,0,0,0c0,0,0,0,0.1,0c0,0,0,0,0,0c0,0,0,0,0.1,0 c0,0,0,0,0,0c0,0,0,0,0.1,0c0,0,0,0,0,0l6.3-3.3l6.3,3.3c0,0,0,0,0,0c0,0,0,0,0.1,0c0,0,0,0,0,0c0,0,0,0,0.1,0c0,0,0,0,0,0 c0,0,0,0,0.1,0c0,0,0,0,0,0c0,0,0,0,0,0c0,0,0,0,0.1,0c0,0,0,0,0,0c0,0,0,0,0.1,0h0c0,0,0.1,0,0.1,0l0,0c0,0,0.1,0,0.1,0h0 c0,0,0.1,0,0.1,0l0,0c0,0,0,0,0.1,0l0,0c0,0,0,0,0.1,0l0,0c0,0,0,0,0.1,0l0,0c0,0,0,0,0,0l0,0c0,0,0,0,0,0l0,0c0,0,0,0,0,0 c0,0,0,0,0,0c0,0,0,0,0,0c0,0,0,0,0,0c0,0,0,0,0-0.1l0,0c0,0,0,0,0,0c0,0,0,0,0-0.1c0,0,0,0,0,0c0,0,0,0,0-0.1c0,0,0,0,0,0 c0,0,0,0,0,0c0,0,0,0,0-0.1c0,0,0,0,0,0c0,0,0,0,0-0.1l0,0c0,0,0-0.1,0-0.1l0,0c0,0,0-0.1,0-0.1l0,0L28.4,26l5.1-5c0,0,0,0,0.1-0.1 l0,0c0,0,0,0,0-0.1c0,0,0,0,0,0c0,0,0,0,0,0c0,0,0,0,0,0c0,0,0,0,0,0c0,0,0,0,0-0.1l0,0c0,0,0,0,0-0.1l0,0c0,0,0-0.1,0-0.1l0,0 c0,0,0-0.1,0-0.1l0,0c0,0,0-0.1,0-0.1l0,0c0,0,0,0,0-0.1l0,0c0,0,0,0,0-0.1l0,0c0,0,0,0,0-0.1l0,0c0,0,0-0.1,0-0.1l0,0 c0,0,0,0,0-0.1l0,0c0,0,0,0,0-0.1l0,0c0,0,0,0,0,0c0,0,0,0,0,0c0,0,0,0,0,0l0,0c0,0,0,0,0,0c0,0,0,0,0,0c0,0,0,0-0.1,0l0,0 c0,0,0,0-0.1,0l0,0c0,0,0,0-0.1,0l0,0c0,0,0,0-0.1,0h0c0,0-0.1,0-0.1,0l0,0c0,0,0,0,0,0l-7-1L22.8,12c0,0,0,0,0,0l0,0c0,0,0,0,0-0.1 l0,0c0,0,0,0,0,0c0,0,0,0,0,0c0,0,0,0,0,0c0,0,0,0,0,0c0,0,0,0,0,0c0,0,0,0,0,0l0,0c0,0,0,0-0.1,0l0,0c0,0,0,0,0,0l0,0 c0,0-0.1,0-0.1,0c0,0-0.1,0-0.1,0h0c0,0-0.1,0-0.1,0l0,0c0,0,0,0-0.1,0c0,0,0,0,0,0h0c0,0,0,0,0,0c0,0,0,0-0.1,0l0,0 c0,0-0.1,0-0.1,0h0c0,0-0.1,0-0.1,0h0c0,0-0.1,0-0.1,0l0,0c0,0,0,0,0,0l0,0c0,0,0,0-0.1,0l0,0c0,0,0,0,0,0c0,0,0,0,0,0c0,0,0,0,0,0 c0,0,0,0,0,0c0,0,0,0,0,0c0,0,0,0,0,0c0,0,0,0,0,0c0,0,0,0,0,0.1l0,0c0,0,0,0,0,0l-3.1,6.4l-7,1c0,0,0,0,0,0L10.7,19.4l0-0.2 L10.7,19.4C10.8,19.4,10.8,19.4,10.7,19.4z M18.7,20.2c0.1,0,0.2-0.1,0.3-0.1l0,0c0,0,0,0,0.1,0l0,0c0,0,0,0,0.1,0l0,0 c0,0,0,0,0.1-0.1l0,0c0,0,0,0,0.1-0.1l0,0c0,0,0-0.1,0.1-0.1l0,0c0,0,0-0.1,0-0.1l0,0l2.5-5l2.5,5l-0.2,0.1l0.2-0.1l0,0h0 c0,0,0,0.1,0,0.1l0,0c0,0,0,0,0,0.1l0,0c0,0,0,0,0,0.1l0,0c0,0,0,0,0.1,0l0,0c0,0,0,0,0.1,0.1h0c0,0,0,0,0.1,0l0,0 c0.1,0.1,0.2,0.1,0.3,0.1l5.6,0.8l-4,3.9c0,0,0,0,0,0c0,0,0,0,0,0.1c0,0,0,0,0,0l0,0c0,0,0,0,0,0c0,0,0,0,0,0.1l0,0c0,0,0,0.1,0,0.1 l0,0c0,0,0,0.1,0,0.1l0,0c0,0,0,0.1,0,0.1l0,0c0,0,0,0.1,0,0.1l0,0c0,0,0,0.1,0,0.1l0,0c0,0,0,0.1,0,0.1v0c0,0,0,0.1,0,0.1l0,0 l1,5.5l-5-2.6l0.1-0.2l-0.1,0.1h0c0,0-0.1,0-0.1,0c0,0,0,0,0,0l0,0c0,0,0,0,0,0c0,0,0,0,0,0l0,0c0,0,0,0,0,0c0,0,0,0,0,0l0,0 c0,0,0,0,0,0c0,0,0,0,0,0h0c0,0,0,0-0.1,0h0c0,0,0,0-0.1,0c0,0,0,0,0,0l0,0c0,0,0,0-0.1,0c0,0,0,0,0,0l0,0c0,0,0,0,0,0c0,0,0,0,0,0 l0,0c0,0,0,0,0,0c0,0-0.1,0-0.1,0l0,0l-5,2.6l1-5.5l0.2,0l-0.2,0l0,0c0,0,0-0.1,0-0.1l0,0c0,0,0-0.1,0-0.1l0,0c0,0,0-0.1,0-0.1l0,0 c0,0,0-0.1,0-0.1l0,0c0,0,0-0.1,0-0.1l0,0c0,0,0-0.1,0-0.1l0,0c0,0,0,0,0-0.1l0,0c0,0,0,0,0-0.1c0,0,0,0,0,0l0,0c0,0,0,0,0,0 c0,0,0,0-0.1-0.1c0,0,0,0,0,0l0.1-0.1l-0.1,0.1l-4-3.9L18.7,20.2z M42.3,6.9c-0.2,0-0.5,0-1,0c-0.9-0.1-1.9-0.1-2.9-0.3 c-3.2-0.4-6.1-1.1-8.8-2.1c-2.8-1.1-5.3-2.5-7.2-4.2c0,0,0,0,0,0c0,0,0,0,0,0c0,0,0,0,0,0c0,0,0,0,0,0l0,0c0,0,0,0,0,0c0,0,0,0,0,0 l0,0c0,0,0,0,0,0c0,0,0,0-0.1,0l0,0c0,0,0,0-0.1,0l0,0c0,0,0,0-0.1,0l0,0c0,0,0,0-0.1,0h0c0,0,0,0,0,0c0,0,0,0,0,0h0c0,0,0,0,0,0 c0,0,0,0,0,0h0c0,0,0,0-0.1,0l0,0c0,0,0,0-0.1,0l0,0c0,0,0,0-0.1,0l0,0c0,0,0,0-0.1,0c0,0,0,0,0,0l0,0c0,0,0,0-0.1,0c0,0,0,0,0,0 l0,0c0,0,0,0,0,0c0,0,0,0,0,0l0,0c0,0,0,0,0,0c-1.9,1.7-4.3,3.1-7.2,4.2c-2.6,1-5.6,1.7-8.8,2.1c-1,0.1-1.9,0.2-2.9,0.3 c-0.5,0-1,0-1.2,0C0.6,6.9,0,7.3,0,7.8v16.8c0,7.5,3.7,14.1,10.8,19.5c2.1,1.6,4.6,3.1,7.3,4.4c0.9,0.4,1.8,0.8,2.4,1 c0.5,0.2,0.8,0.3,0.9,0.3c0,0,0,0,0,0c0,0,0.1,0,0.1,0l0,0c0,0,0,0,0.1,0c0,0,0,0,0,0c0,0,0,0,0.1,0c0,0,0.1,0,0.1,0c0,0,0,0,0.1,0 c0,0,0,0,0,0c0,0,0,0,0.1,0l0,0c0,0,0.1,0,0.1,0l0,0c0.2-0.1,0.5-0.2,0.9-0.3c0.8-0.3,1.6-0.6,2.4-1c2.4-1.1,4.7-2.6,7.1-4.4 c7-5.3,10.5-11.9,10.5-19.5V7.8C43.1,7.4,42.9,6.9,42.3,6.9z M41.3,8.9c0,0.1-0.1,0.1-0.1,0.2v15.6c0,7-3.3,13.1-9.8,18 c-2.2,1.6-4.5,3-6.8,4.2c-1,0.5-1.6,0.7-2.2,1c-0.1,0-0.2,0.1-0.2,0.1c-0.1,0-0.2,0.1-0.2,0.1l-0.1,0l-0.1,0c-0.1,0-0.2-0.1-0.3-0.1 l-0.2-0.1c-0.7-0.3-1.5-0.6-2.3-1c-2.8-1.4-5.2-2.7-7.1-4.2c-6.7-5.1-10.1-11.1-10.1-18V8.9c0-0.2,0.2-0.2,0.3-0.2c0,0,0.1,0,0.1,0 c0.8,0,1.9-0.1,3.1-0.3c3.4-0.4,6.5-1.2,9.3-2.2c2.7-1,5.1-2.4,7-3.9l0.1-0.1L22,2.3c1.9,1.6,4.3,2.9,7,3.9c2.8,1.1,5.9,1.8,9.3,2.2 c1.2,0.1,2,0.2,2.9,0.3l0.2,0L41.3,8.9z"/></svg>
