<svg aria-hidden="true" xmlns="http://www.w3.org/2000/svg" version="1.1" viewBox="0 0 45.7 50"><path d="M45.2,38.9l-4.3-2v-6.8c0-5-1.9-9.6-5.3-13.1c-2.3-2.4-5.2-4-8.3-4.9V9.8c0-0.4-0.3-0.8-0.8-0.8h-1.5V3.7 c0-0.4-0.3-0.8-0.8-0.8h-0.8V0.8c0-0.4-0.3-0.8-0.8-0.8s-0.8,0.3-0.8,0.8V3h-0.8c-0.4,0-0.8,0.3-0.8,0.8V9H19 c-0.4,0-0.8,0.3-0.8,0.8v2.4C15.2,13,12.3,14.6,10,17c-3.4,3.5-5.3,8.2-5.3,13.1v6.7l-4.3,2.1C0.2,39,0,39.3,0,39.6v9.7 C0,49.7,0.3,50,0.8,50c0.1,0,44.1,0,44.1,0c0.4,0,0.8-0.3,0.8-0.8v-9.7C45.7,39.3,45.5,39,45.2,38.9z M22,4.5h1.7V9H22V4.5z  M19.8,10.5h6.1v1.3c-1-0.2-2-0.3-3.1-0.3s-2.1,0.1-3.1,0.3V10.5z M6.2,30.1c0-9.4,7.5-17,16.6-17s16.6,7.6,16.6,17v6.1l-16.7-7.8 c-0.2-0.1-0.4-0.1-0.7,0L6.2,36.1V30.1z M22.5,29.9l20.9,9.8H2.2L22.5,29.9z M1.5,41.2h7.4v7.3H1.5V41.2z M10.4,41.2h7.3v7.3h-7.3 V41.2z M19.2,41.2h7.3v7.3h-7.3V41.2z M28,41.2h7.3v7.3H28V41.2z M36.8,41.2h7.4v7.3h-7.4V41.2z"/></svg>
