<svg aria-hidden="true" xmlns="http://www.w3.org/2000/svg" version="1.1" viewBox="0 0 50 50"><path d="M44.4,38.7h-0.2V5.6c0-3.1-2.5-5.6-5.6-5.6H5.6C2.5,0,0,2.5,0,5.6s2.5,5.6,5.6,5.6h4v33.1c0,3.1,2.5,5.6,5.6,5.6 c0,0,0,0,0,0c0,0,0.1,0,0.1,0h29.1v0c3-0.1,5.5-2.6,5.5-5.6C50,41.3,47.5,38.7,44.4,38.7z M5.6,9.7c-1.2,0-2.1-0.9-2.1-2.1 s1-2.1,2.1-2.1c1.2,0,2.1,0.9,2.1,2.1S6.8,9.7,5.6,9.7z M9.7,7.5l-0.3,0c0-2-1.7-3.6-3.7-3.6C4,3.9,2.5,5,2.1,6.7L1.9,7.3L1.7,6.7 C1.6,6.3,1.6,6,1.6,5.6c0-2.2,1.8-4,4-4c2.2,0,4,1.8,4,4V7.5z M15.5,48.4L15.5,48.4l-0.2,0c-2.2,0-4-1.8-4-4V11.3h0V7.7h0V5.6 c0-1.4-0.5-2.7-1.5-3.8L9.5,1.6h29c2.2,0,4,1.8,4,4v33.1H15.3c-2,0-3.7,1.7-3.7,3.7c0,2,1.7,3.7,3.7,3.7c1.7,0,3.1-1.1,3.6-2.8 l0.2-0.6l0.2,0.7c0.1,0.4,0.1,0.7,0.1,1C19.4,46.5,17.7,48.3,15.5,48.4z M17.4,42.4c0,1.2-0.9,2.1-2.1,2.1c-1.2,0-2.1-0.9-2.1-2.1 c0-1.2,0.9-2.1,2.1-2.1h0l0,0C16.5,40.3,17.4,41.3,17.4,42.4z M47.2,47.2c-0.8,0.8-1.8,1.2-2.9,1.2h-0.2v0h-25l0.3-0.3 c0.9-1,1.4-2.4,1.4-3.7c0-1.4-0.5-2.7-1.5-3.8l-0.3-0.3h25.1c2.2,0,4,1.8,4,4C48.4,45.4,48,46.5,47.2,47.2z M15.8,11.2V9.9h24.3v1.3 H15.8z M15.8,17.1v-1.3h24.3v1.3H15.8z M15.8,23v-2h24.3v2H15.8z M15.8,28.9v-2h24.3v2H15.8z M15.8,34.8v-2h24.3v2H15.8z"/></svg>
