<svg aria-hidden="true" xmlns="http://www.w3.org/2000/svg" version="1.1" viewBox="0 0 50 48.5"><path d="M25.8,13V7.4h10.4V0h-12v13l0,0l-6.7,6H1.4v25.9h47.2V25.9h0.1v-6.8H32.6L25.8,13z M25.8,1.6h8.8v4.2h-8.8V1.6z M25,14.5 l10.9,9.8H14.1L25,14.5z M3,20.7h12.6l-4,3.6H3V20.7z M7.8,43.3H3V25.9h4.7V43.3z M14.3,43.3H9.4V25.9h4.9V43.3z M20.9,43.3h-5V25.9 h5V43.3z M27.5,43.3h-4.9V25.9h4.9V43.3z M34.1,43.3h-5V25.9h5V43.3z M40.6,43.3h-4.9V25.9h4.9V43.3z M47,43.3h-4.7V25.9H47V43.3z  M47,20.7v3.6h-8.6l-4-3.6H47z M0,48.5v-1.9h50v1.9H0z"/></svg>
