<svg aria-hidden="true" xmlns="http://www.w3.org/2000/svg" version="1.1" viewBox="0 0 50 32.3"><path d="M48.1,8.5c-0.2-0.2-0.4-0.4-0.5-0.5c-0.1-0.1-0.3-0.3-0.4-0.4c-0.1-0.1-0.3-0.3-0.4-0.4c-0.1-0.1-0.3-0.2-0.4-0.2H27.8 l-2.5-1.7V3.7h5.1V0h-6.2v5.4l-2.5,1.7h-18c-0.1,0-0.3,0.1-0.4,0.2C3,7.5,2.8,7.7,2.6,7.9L2.4,8C2.1,8.3,1.9,8.5,1.7,8.7l-1.5,1.5 C0,10.4,0,10.6,0,10.8c0.1,0.2,0.3,0.3,0.5,0.3H3v19.7h0v1.5h17.8c0.3,0,0.6-0.3,0.6-0.6v-1h6.4v1c0,0.3,0.3,0.6,0.6,0.6h18v-1.5h0 V11.2h3.1c0.2,0,0.4-0.1,0.5-0.3c0.1-0.2,0-0.5-0.1-0.6L48.1,8.5z M25.2,1.1h4v1.5h-4V1.1z M24.7,6.4L30,9.9H19.4L24.7,6.4z  M17.1,18.8v-0.9h15.2v0.9H17.1z M31.1,19.9v7.2h-1.3v-7.2H31.1z M19.6,19.9v7.2h-1.3v-7.2H19.6z M20.7,16.7v-5.5h1.2v5.5H20.7z  M23.1,16.7v-5.5h3.2v5.5H23.1z M28.6,16.7h-1.2v-5.5h1.2V16.7z M1.9,10.1l0.5-0.5c0.2-0.2,0.4-0.4,0.7-0.7c0.2-0.2,0.4-0.4,0.6-0.6 l0,0h16.1L17.2,10c0,0,0,0,0,0l0,0H1.9z M16.4,31.2H4.2v-1.7h12.2V31.2z M17.2,27.1h-0.2c-0.3,0-0.6,0.3-0.6,0.6v0.7H4.2V11.2h15.5 v5.5h-3.1c-0.3,0-0.6,0.3-0.6,0.6v2.1c0,0.3,0.3,0.6,0.6,0.6h0.6V27.1z M20.3,31.2h-2.8v-3h2.8V31.2z M20.7,19.9h3l0,0.2 c-1.1,0.2-2.1,0.8-2.9,1.6l-0.1,0.2V19.9z M28.6,27.1h-0.2c-0.3,0-0.6,0.3-0.6,0.6v1.9h-6.4v-1.9c0-0.3-0.3-0.6-0.6-0.6l-0.1,0v-2.2 c0-2.1,1.7-3.8,3.8-3.8h0.2c2.1,0,3.8,1.7,3.8,3.8V27.1z M28.6,21.8l-0.1-0.2c-0.7-0.8-1.8-1.4-2.9-1.6l0-0.2h3V21.8z M31.8,31.2H29 v-3h2.8V31.2z M45.2,31.2H32.9v-1.7h12.3V31.2z M45.2,28.3H32.9v-0.7c0-0.3-0.3-0.6-0.6-0.6h-0.2v-7.2h0.6c0.3,0,0.6-0.3,0.6-0.6 v-2.1c0-0.3-0.3-0.6-0.6-0.6h-3.1v-5.5h15.5V28.3z M32.2,10.1L32.2,10.1C32.2,10,32.1,10,32.2,10.1L32.1,10l-2.7-1.8h16.7l0,0 c0.1,0.1,0.2,0.2,0.3,0.3c0.1,0.1,0.2,0.2,0.3,0.3C47,9,47.3,9.3,47.5,9.5l0.5,0.5H32.2z M6.9,22.3V21h0.9v1.3H6.9z M6.9,25.9v-1.8 h0.9v1.8H6.9z M12.7,15.3v-1.8h0.9v1.8H12.7z M12.7,18.4V17h0.9v1.3H12.7z M41.3,22.3V21h1.3v1.3H41.3z M41.3,25.9v-1.8h1.3v1.8 H41.3z M32.5,15.3v-1.8h1.3v1.8H32.5z M9.6,22.3V21h1.3v1.3H9.6z M9.6,25.9v-1.8h1.3v1.8H9.6z M12.7,22.3V21h0.9v1.3H12.7z  M12.7,25.9v-1.8h0.9v1.8H12.7z M9.6,15.3v-1.8h1.3v1.8H9.6z M9.6,18.4V17h1.3v1.3H9.6z M6.9,15.3v-1.8h0.9v1.8H6.9z M6.9,18.4V17 h0.9v1.3H6.9z M15.3,15.3v-1.8h1.3v1.8H15.3z M35.6,15.3v-1.8h0.9v1.8H35.6z M35.6,18.4V17h0.9v1.3H35.6z M38.7,15.3v-1.8h0.9v1.8 H38.7z M38.7,18.4V17h0.9v1.3H38.7z M41.3,15.3v-1.8h1.3v1.8H41.3z M41.3,18.4V17h1.3v1.3H41.3z M38.7,22.3V21h0.9v1.3H38.7z  M38.7,25.9v-1.8h0.9v1.8H38.7z M35.6,22.3V21h0.9v1.3H35.6z M35.6,25.9v-1.8h0.9v1.8H35.6z"/></svg>
