<svg aria-hidden="true" xmlns="http://www.w3.org/2000/svg" version="1.1" viewBox="0 0 50 46.1"><path d="M47.8,46.1H28.5c-1.2,0-2.2-1-2.2-2.2V24.6c0-0.3,0.1-0.6,0.2-0.8h-2.8c0.1,0.3,0.2,0.5,0.2,0.8v19.3c0,1.2-1,2.2-2.2,2.2 H2.2c-1.2,0-2.2-1-2.2-2.2V24.6c0-1.2,1-2.2,2.2-2.2h6.7c-0.1-0.3-0.2-0.5-0.2-0.8V2.2C8.7,1,9.7,0,11,0h19.3c1.2,0,2.2,1,2.2,2.2 v19.3c0,0.3-0.1,0.6-0.2,0.8h15.4c1.2,0,2.2,1,2.2,2.2v19.3C50,45.1,49,46.1,47.8,46.1z M28.5,23.7c-0.5,0-0.8,0.4-0.8,0.8v19.3 c0,0.5,0.4,0.8,0.8,0.8h19.3c0.5,0,0.8-0.4,0.8-0.8V24.6c0-0.5-0.4-0.8-0.8-0.8H28.5z M2.2,23.7c-0.5,0-0.8,0.4-0.8,0.8v19.3 c0,0.5,0.4,0.8,0.8,0.8h19.3c0.5,0,0.8-0.4,0.8-0.8V24.6c0-0.5-0.4-0.8-0.8-0.8H2.2z M11,1.4c-0.5,0-0.8,0.4-0.8,0.8v19.3 c0,0.5,0.4,0.8,0.8,0.8h19.3c0.5,0,0.8-0.4,0.8-0.8V2.2c0-0.5-0.4-0.8-0.8-0.8H11z M11.9,42.2c-1.8,0-3.6-0.6-5.2-1.7 c-0.4-0.3-0.8-0.6-1.1-1c-1.3-1.9-1.9-4-1.7-6c0.2-1.8,1-3.6,2.3-4.9c1.3-1.3,3-2.1,4.9-2.3c2-0.2,4.1,0.4,6,1.7 c0.4,0.3,0.8,0.6,1.1,1.1c1.3,1.9,1.9,4,1.7,6c-0.2,1.8-1,3.6-2.3,4.9c-1.3,1.3-3.1,2.1-4.9,2.3C12.4,42.2,12.1,42.2,11.9,42.2z  M11.9,27.6c-0.2,0-0.4,0-0.6,0c-1.5,0.1-3,0.8-4,1.9c-1.1,1.1-1.8,2.5-1.9,4c-0.2,1.7,0.3,3.4,1.4,5.1c0.2,0.3,0.4,0.5,0.7,0.7 c1.6,1.1,3.4,1.6,5.1,1.4c1.5-0.1,3-0.8,4-1.9c1.1-1.1,1.8-2.5,1.9-4c0.2-1.7-0.3-3.4-1.4-5.1l0,0c-0.2-0.3-0.4-0.5-0.7-0.7 C14.9,28.1,13.4,27.6,11.9,27.6z M46.6,41.2H29.7l8.4-16.4L46.6,41.2z M32,39.8h12.3l-6.1-11.9L32,39.8z M20.6,20.2l-8.3-8.8 l8.3-8.3l8.3,8.3L20.6,20.2z M14.3,11.4l6.3,6.7l6.3-6.7L20.6,5L14.3,11.4z"/></svg>
