<svg aria-hidden="true" xmlns="http://www.w3.org/2000/svg" version="1.1" viewBox="0 0 50 50"><path d="M44.2,50H5.8c-0.4,0-0.7-0.2-0.8-0.6c-0.1-0.3,0-0.7,0.3-0.9l8.3-6.7c0.1-0.1,0.3-0.2,0.5-0.2H35c0.2,0,0.3,0.1,0.5,0.2 l9.2,6.7c0.3,0.2,0.4,0.6,0.3,0.9C44.8,49.8,44.5,50,44.2,50z M8.2,48.3h33.4l-6.9-5H14.5L8.2,48.3z M16.8,49v-6.7h1.8V49H16.8z  M30.8,49v-6.7h1.8V49H30.8z M10.1,46.6v-1.8h29.2v1.8H10.1z M35.8,43.3H14.2c-1.8,0-3.3-1.5-3.3-3.3v-7.5c0-0.5,0.4-0.8,0.8-0.8 h26.7c0.5,0,0.8,0.4,0.8,0.8V40C39.2,41.8,37.7,43.3,35.8,43.3z M12.5,33.3V40c0,0.9,0.7,1.7,1.7,1.7h21.7c0.9,0,1.7-0.7,1.7-1.7 v-6.7H12.5z M38.3,20H11.7c-0.5,0-0.8-0.4-0.8-0.8v-7.5c0-1.8,1.5-3.3,3.3-3.3h21.7c1.8,0,3.3,1.5,3.3,3.3v7.5 C39.2,19.6,38.8,20,38.3,20z M12.5,18.3h25v-6.7c0-0.9-0.7-1.7-1.7-1.7H14.2c-0.9,0-1.7,0.7-1.7,1.7V18.3z M38.3,33.3H11.7 c-0.5,0-0.8-0.4-0.8-0.8V19.2c0-0.5,0.4-0.8,0.8-0.8h26.7c0.5,0,0.8,0.4,0.8,0.8v13.3C39.2,33,38.8,33.3,38.3,33.3z M12.5,31.7h25 V20h-25V31.7z M30.8,10H19.2c-0.3,0-0.5-0.1-0.7-0.3c-0.2-0.2-0.2-0.5-0.1-0.8l1.7-5c0.1-0.3,0.4-0.6,0.8-0.6h8.3 c0.4,0,0.7,0.2,0.8,0.6l1.7,5c0.1,0.3,0,0.5-0.1,0.8C31.4,9.9,31.1,10,30.8,10z M20.3,8.3h9.4L28.6,5h-7.1L20.3,8.3z M16.7,40 c-1.4,0-2.5-1.1-2.5-2.5c0-1.4,1.1-2.5,2.5-2.5c1.4,0,2.5,1.1,2.5,2.5C19.2,38.9,18,40,16.7,40z M16.7,36.7c-0.5,0-0.8,0.4-0.8,0.8 c0,0.5,0.4,0.8,0.8,0.8c0.5,0,0.8-0.4,0.8-0.8C17.5,37,17.1,36.7,16.7,36.7z M33.3,40c-1.4,0-2.5-1.1-2.5-2.5c0-1.4,1.1-2.5,2.5-2.5 c1.4,0,2.5,1.1,2.5,2.5C35.8,38.9,34.7,40,33.3,40z M33.3,36.7c-0.5,0-0.8,0.4-0.8,0.8c0,0.5,0.4,0.8,0.8,0.8c0.5,0,0.8-0.4,0.8-0.8 C34.2,37,33.8,36.7,33.3,36.7z M30.8,16.7H19.2c-0.5,0-0.8-0.4-0.8-0.8v-3.3c0-0.5,0.4-0.8,0.8-0.8h11.7c0.5,0,0.8,0.4,0.8,0.8v3.3 C31.7,16.3,31.3,16.7,30.8,16.7z M20,15h10v-1.7H20V15z M6.6,44.2c-0.3,0-0.5-0.1-0.7-0.3C2.2,38.8,0,31.7,0,25 c0-6.7,2.6-13,7.3-17.7C12,2.6,18.3,0,25,0s13,2.6,17.7,7.3C47.4,12,50,18.3,50,25c0,3.2-0.7,6.6-1.9,9.9c-1.2,3.2-2.9,6.3-5,8.9 c-0.3,0.4-0.8,0.4-1.2,0.1c-0.4-0.3-0.4-0.8-0.1-1.2c1.9-2.5,3.6-5.4,4.7-8.5c1.2-3.2,1.8-6.4,1.8-9.4c0-6.2-2.4-12.1-6.8-16.5 C37.1,4.1,31.2,1.7,25,1.7S12.9,4.1,8.5,8.5C4.1,12.9,1.7,18.8,1.7,25c0,6.4,2.1,13.1,5.7,17.8c0.3,0.4,0.2,0.9-0.2,1.2 C7,44.1,6.8,44.2,6.6,44.2z"/></svg>
