<svg aria-hidden="true" xmlns="http://www.w3.org/2000/svg" version="1.1" viewBox="0 0 27.6 50"><path d="M27.6,25.8c0-3.4-1.2-6.6-3.4-9.1l0-0.1v-0.1c0-3.1-1.3-6-3.7-8l-0.1-0.1l0-0.1c0.5-2,0-4.1-1.3-5.7C17.8,0.9,15.9,0,13.8,0 c-2,0-4,0.9-5.2,2.5C7.3,4.1,6.9,6.2,7.3,8.2l0,0.1L7.3,8.4c-2.4,2-3.8,4.9-3.8,8v0.1l-0.1,0.1c-1.7,1.9-2.8,4.3-3.2,6.8 C-0.2,26,0,28.6,1,31c1,2.4,2.6,4.4,4.6,6c2.1,1.5,4.5,2.4,7.1,2.7l0.2,0v8.5H7.7c-0.7,0-0.9,0.5-0.9,1c0,0.5,0.3,1,0.9,1h12.2 c0.3,0,0.5-0.1,0.7-0.3c0.2-0.2,0.2-0.4,0.2-0.7c0-0.5-0.3-1-0.9-1h-5.1v-8.5l0.2,0c3.5-0.3,6.7-1.9,9-4.4 C26.4,32.6,27.6,29.3,27.6,25.8z M15,37.7l-0.2,0v-8.8l5.3-5.3c0.3-0.3,0.3-0.7,0.3-0.9C20.3,22.3,20,22,19.7,22 c-0.2-0.1-0.6-0.1-0.9,0.3l-4,4v-9.3c0-0.7-0.5-1-1-1c-0.5,0-1,0.3-1,1v14.3L9,27.4c-0.3-0.3-0.7-0.3-0.9-0.3 c-0.3,0.1-0.6,0.4-0.7,0.7c-0.1,0.2-0.1,0.6,0.3,0.9l5.2,5.2v3.8l-0.2,0C9.7,37.4,7,36,5,33.8c-1.9-2.1-3-4.9-3.1-7.8h0l0-0.2 c0-2.9,1.1-5.7,3-7.9l0.5-0.6v-0.9c0-2.5,1.1-4.9,3-6.5l1-0.8L9.2,7.8c-0.3-1.4,0-2.9,0.9-4C11,2.6,12.4,2,13.8,2 c1.5,0,2.8,0.7,3.7,1.8c0.9,1.1,1.3,2.6,0.9,4l-0.3,1.3l1,0.8c1.9,1.6,3.1,4,3.1,6.5v0.9l0.5,0.6c3,3.4,3.8,8.1,2.1,12.3 C23.3,34.4,19.5,37.2,15,37.7z"/></svg>
