<svg aria-hidden="true" xmlns="http://www.w3.org/2000/svg" version="1.1" viewBox="0 0 20 17.2">
<path d="M6.7,10.1c0,2.1,0,4.3,0,6.4c0,0.1,0,0.2,0,0.4c-0.1,0.2-0.2,0.4-0.5,0.3c-0.1,0-0.2-0.1-0.3-0.1c-1.8-0.9-3.5-1.8-5.3-2.6 C0.2,14.3,0,14,0,13.5C0,9.1,0,4.8,0,0.6C0,0.1,0.1,0,0.6,0.2c1.9,1,3.8,1.9,5.7,2.9c0.3,0.1,0.4,0.2,0.4,0.5 C6.7,5.8,6.7,7.9,6.7,10.1z M13.7,13.5c-0.1-0.1-0.1-0.2-0.2-0.3c-1.3-2.2-2.7-4.3-4-6.5c-0.1-0.2-0.1-0.3,0-0.5 c1.2-2,2.4-3.9,3.6-5.9C13.3,0,13.4,0,13.7,0.1c2,1,3.9,2,5.9,3c0.2,0.1,0.4,0.2,0.2,0.4c-2,3.3-4,6.6-6.1,9.9 C13.8,13.4,13.7,13.4,13.7,13.5z M20,4.5c0,0.1,0,0.2,0,0.3c0,3.9,0,7.8,0,11.7c0,0.1,0,0.2,0,0.3c-0.1,0.2-0.2,0.4-0.5,0.3 c-0.1,0-0.1-0.1-0.2-0.1c-1.7-0.9-3.5-1.7-5.2-2.6c-0.1,0-0.1-0.1-0.2-0.1C15.9,11,17.9,7.8,20,4.5L20,4.5z M7.3,4.3 c2,3.3,4,6.5,6,9.7c-0.1,0-0.2-0.1-0.3-0.1c-1.8-0.9-3.7-1.8-5.5-2.8C7.4,11,7.3,11,7.3,10.8C7.3,8.7,7.3,6.6,7.3,4.3 C7.3,4.4,7.3,4.4,7.3,4.3z"/></svg>
