<svg aria-hidden="true" xmlns="http://www.w3.org/2000/svg" version="1.1" viewBox="0 0 49.9 50"><path d="M28.8,24.7c-0.8-0.5-1.9-0.2-2.4,0.7c0,0,0,0,0,0l-3,5.5l-1.4-0.8c-0.8-0.5-1.9-0.2-2.4,0.7c0,0,0,0,0,0 c-0.5,0.8-0.2,1.9,0.7,2.4l1.4,0.8l1.6,0.8c0.8,0.4,1.9,0.1,2.4-0.7l0.8-1.5l3-5.5C30,26.2,29.7,25.2,28.8,24.7z M48.1,38.5 L10.2,49.9c-1.4,0.4-2.9-0.4-3.3-1.8c0,0,0,0,0,0l-6.8-23c-0.4-1.4,0.4-2.9,1.8-3.3l9.3-2.8l2.1-9c1,0.7,2.3,1.1,3.5,1.2l-1.5,6.5 l11.1-3.3l-4.8-4.6c1-0.8,1.8-1.8,2.3-3l6.7,6.3l9.3-2.8c1.4-0.4,2.9,0.4,3.3,1.8l6.8,23C50.2,36.6,49.4,38.1,48.1,38.5L48.1,38.5z  M16.1,0.2c-2.2,0.7-3.5,3.1-2.8,5.3c0.3,1.1,1,1.9,2,2.5c1.5,0.8,3.3,0.6,4.7-0.4c1.3-1.1,1.9-2.9,1.4-4.5 C20.7,0.8,18.3-0.5,16.1,0.2C16.1,0.2,16.1,0.2,16.1,0.2z"/></svg>
