<svg aria-hidden="true" id="SvgjsSvg1000" xmlns="http://www.w3.org/2000/svg" version="1.1" xmlns:xlink="http://www.w3.org/1999/xlink" xmlns:svgjs="http://svgjs.com/svgjs" width="20" height="15" viewBox="0 0 20 15"><defs id="SvgjsDefs1001"></defs><path id="SvgjsPath1007" d="M1409.5 95.5L1405.78 99.6408L1402 95.5L1404.5 95.5C1404.5 91.3583 1407.86 88 1412 88C1414 88 1415.8 88.785 1417.15 90.0567L1415.48 91.9158C1414.58 91.0408 1413.35 90.5 1412 90.5C1409.24 90.5 1407 92.7425 1407 95.5ZM1418.22 91.3592L1414.5 95.5L1417 95.5C1417 98.2575 1414.76 100.5 1412 100.5C1410.65 100.5 1409.42 99.9584 1408.52 99.0842L1406.85 100.943C1408.1999999999998 102.215 1410 103 1412 103C1416.14 103 1419.5 99.6417 1419.5 95.5L1422 95.5Z " transform="matrix(1,0,0,1,-1402,-88)"></path></svg>