<svg aria-hidden="true" id="SvgjsSvg1032" xmlns="http://www.w3.org/2000/svg" version="1.1" xmlns:xlink="http://www.w3.org/1999/xlink" xmlns:svgjs="http://svgjs.com/svgjs" width="16" height="16" viewBox="0 0 16 16"><defs id="SvgjsDefs1033"></defs><path id="SvgjsPath1034" d="M900 23.0773L900 20.922700000000003C898.899 20.5314 898.205 20.421300000000002 897.854 19.576700000000002L897.854 19.576000000000004C897.503 18.728700000000003 897.921 18.153300000000005 898.4190000000001 17.104700000000005L896.8950000000001 15.581300000000004C895.8550000000001 16.076000000000004 895.2730000000001 16.498000000000005 894.4240000000001 16.146000000000004L894.4230000000001 16.146000000000004C893.5770000000001 15.795400000000004 893.4670000000001 15.095300000000005 893.0770000000001 14.000000000000004L890.9230000000001 14.000000000000004C890.5350000000001 15.090000000000003 890.4230000000001 15.794700000000004 889.5770000000001 16.146000000000004L889.5760000000001 16.146000000000004C888.7290000000002 16.498000000000005 888.1550000000001 16.080700000000004 887.1050000000001 15.581300000000004L885.5810000000001 17.104700000000005C886.0780000000001 18.150000000000006 886.4980000000002 18.727300000000003 886.1460000000002 19.576000000000004C885.7950000000002 20.423300000000005 885.0900000000001 20.534700000000004 884.0000000000002 20.922700000000003L884.0000000000002 23.0773C885.0880000000002 23.464000000000002 885.7950000000002 23.576600000000003 886.1460000000002 24.4233C886.4990000000001 25.278000000000002 886.0700000000002 25.8673 885.5810000000001 26.8947L887.1050000000001 28.4187C888.1460000000002 27.9233 888.7270000000001 27.502000000000002 889.5760000000001 27.854000000000003L889.5770000000001 27.854000000000003C890.4230000000001 28.204700000000003 890.5340000000001 28.906700000000004 890.9230000000001 30.000000000000004L893.0770000000001 30.000000000000004C893.4650000000001 28.9093 893.5770000000001 28.206700000000005 894.4290000000001 27.852000000000004C895.2710000000001 27.502700000000004 895.8430000000001 27.919300000000003 896.8950000000001 28.419400000000003L898.4180000000001 26.895400000000002C897.9230000000001 25.8533 897.5010000000001 25.273300000000003 897.8530000000001 24.4247C898.2040000000001 23.5773 898.9110000000001 23.4647 900.0000000000001 23.0773ZM892 25.3333C890.159 25.3333 888.667 23.840700000000002 888.667 22C888.667 20.1593 890.159 18.6667 892 18.6667C893.841 18.6667 895.333 20.159299999999998 895.333 22C895.333 23.8407 893.841 25.3333 892 25.3333ZM894 22C894 23.1027 893.103 24 892 24C890.897 24 890 23.1027 890 22C890 20.8974 890.897 20 892 20C893.103 20 894 20.8974 894 22Z " transform="matrix(1,0,0,1,-884,-14)"></path></svg>