<svg aria-hidden="true" xmlns="http://www.w3.org/2000/svg" version="1.1" viewBox="0 0 40 36"><path d="M22.7,23.1L22.2,5.8C22.1,2.6,19.5,0,16.3,0H6.4C3.2,0,0.6,2.6,0.5,5.8L0,23.1c0,1.4,0.5,2.7,1.4,3.7
	c0.4,0.4,0.8,0.7,1.2,0.9L0.4,36h3.3l0.9-3.1h13.6L19,36h3.3l-2.2-8.2c0.4-0.2,0.8-0.5,1.2-0.9C22.2,25.9,22.8,24.5,22.7,23.1z
	 M8.1,2.6c0-0.5,0.4-0.9,0.9-0.9h4.8c0.5,0,0.9,0.4,0.9,0.9v0.1c0,0.5-0.4,0.9-0.9,0.9H9C8.5,3.5,8.1,3.1,8.1,2.6L8.1,2.6z M3.1,7
	c0-1,0.8-1.8,1.8-1.8h13.2c1,0,1.8,0.8,1.8,1.8l0.2,6c0,0.5-0.2,1-0.5,1.3c-0.3,0.4-0.8,0.6-1.3,0.6H4.7c-0.5,0-1-0.2-1.3-0.6
	C3,14,2.8,13.5,2.8,13L3.1,7z M2.6,23.1c0-1.4,1.1-2.6,2.6-2.6c0.4,0,0.8,0.1,1.1,0.3c0.9,0.4,1.5,1.3,1.5,2.3S7.1,25,6.2,25.4
	c-0.3,0.2-0.7,0.3-1.1,0.3C3.7,25.6,2.6,24.5,2.6,23.1z M5.1,31l0.7-2.6h11.1c0,0,0.1,0.1,0.1,0.1l0.7,2.5H5.1z M17.6,25.6
	c-1.4,0-2.6-1.2-2.6-2.6c0-1.4,1.2-2.6,2.6-2.6c1.4,0,2.6,1.2,2.6,2.6C20.2,24.5,19,25.6,17.6,25.6z M36.8,4.8
	c0-1.5-1.2-2.7-2.7-2.7H23.1c0.6,0.8,1.1,1.7,1.3,2.7H33c0.6,0,1.1,0.5,1.1,1.1v8.4c0,0.6-0.5,1.1-1.1,1.1h-8.3l0.2,7.7
	c0,0.6-0.1,1.2-0.3,1.8h6.1v3c0,0.4,0.3,0.8,0.8,0.8h1.9c0.4,0,0.8-0.3,0.8-0.8v-3.2c1.4,0,2.6-1.2,2.7-2.7V4.8z M32.5,21.9
	c-1.5,0-2.2-1.8-1.2-2.9c1.1-1.1,2.9-0.3,2.9,1.2C34.2,21.2,33.4,21.9,32.5,21.9z M39.2,9.1h-1.1c-0.5,0-0.8,0.4-0.8,0.9v1h-0.4
	h-0.5v0.9h0.5h0.4v1c0,0.5,0.4,0.9,0.8,0.9h1.1c0.5,0,0.8-0.4,0.8-0.9V9.9C40,9.5,39.6,9.1,39.2,9.1z"/></svg>
