<svg aria-hidden="true" id="SvgjsSvg1017" xmlns="http://www.w3.org/2000/svg" version="1.1" xmlns:xlink="http://www.w3.org/1999/xlink" xmlns:svgjs="http://svgjs.com/svgjs" width="40" height="40" viewBox="0 0 40 40"><defs id="SvgjsDefs1018"></defs><path id="SvgjsPath1019" d="M1089 363C1089 374.045 1080.04 383 1068.99 383C1067.19 383 1065.45 382.74 1063.79 382.295L1064.8999999999999 379.13800000000003C1066.2099999999998 379.47 1067.58 379.66700000000003 1068.9899999999998 379.66700000000003C1078.1899999999998 379.66700000000003 1085.6699999999998 372.19000000000005 1085.6699999999998 363C1085.6699999999998 353.81 1078.1899999999998 346.33299999999997 1068.9899999999998 346.33299999999997C1065.2699999999998 346.33299999999997 1061.8399999999997 347.573 1059.0599999999997 349.64899999999994L1062.4799999999998 353.06299999999993L1050.7899999999997 355.31999999999994L1053.0499999999997 343.63199999999995L1056.6799999999998 347.2699999999999C1060.08 344.6069999999999 1064.34 342.99999999999994 1068.9899999999998 342.99999999999994C1080.0399999999997 342.99999999999994 1088.9999999999998 351.9549999999999 1088.9999999999998 362.99999999999994ZM1070.67 353L1070.67 363L1079 363L1079 366.333L1067.33 366.333L1067.33 353ZM1054.78 371.667C1055.34 372.577 1055.98 373.428 1056.69 374.21299999999997L1054.3500000000001 376.602C1053.38 375.55499999999995 1052.5200000000002 374.407 1051.7900000000002 373.17199999999997ZM1056.82 378.848L1059.1799999999998 376.44300000000004C1059.9899999999998 377.03700000000003 1060.86 377.557 1061.7699999999998 377.99800000000005L1060.6599999999999 381.16300000000007C1059.29 380.5350000000001 1057.9999999999998 379.75700000000006 1056.82 378.84800000000007ZM1053.33 368.662L1050.34 370.17199999999997C1049.83 368.86499999999995 1049.47 367.493 1049.25 366.07099999999997L1052.58 365.80699999999996C1052.74 366.78999999999996 1053 367.74299999999994 1053.33 368.662ZM1049 362.748L1052.36 362.48C1052.3999999999999 361.308 1052.57 360.17 1052.84 359.06800000000004L1049.3799999999999 359.06800000000004C1049.1399999999999 360.25800000000004 1049.02 361.49000000000007 1048.9999999999998 362.74800000000005Z "  fill-opacity="1" transform="matrix(1,0,0,1,-1049,-343)"></path></svg>