<svg id="SvgjsSvg1014" xmlns="http://www.w3.org/2000/svg" version="1.1" xmlns:xlink="http://www.w3.org/1999/xlink" xmlns:svgjs="http://svgjs.com/svgjs" width="41" height="35" viewBox="0 0 41 35"><title>icon</title><desc>Created with Avocode.</desc><defs id="SvgjsDefs1015"></defs><path id="SvgjsPath1016" d="M1382.97 372.756L1392.57 372.756L1392.57 381.436C1392.57 382.85499999999996 1393.7 383.99899999999997 1395.11 383.99899999999997C1396.51 383.99899999999997 1397.6499999999999 382.852 1397.6499999999999 381.436L1397.6499999999999 372.756C1398.28 372.756 1398.7399999999998 372.25199999999995 1398.7399999999998 371.66499999999996L1398.7399999999998 365.18999999999994L1390.4654499999997 361.22061999999994L1391.4870199999998 360.02448999999996L1398.9199999999998 363.71599999999995L1408.9799999999998 357.525L1408.9999999999998 351.73699999999997L1404.3099999999997 351.73999999999995L1403.0599999999997 349.775L1390.7899999999997 352.267L1395.3999999999996 358.965L1397.5099999999995 357.628L1397.5099999999995 352.723L1398.7199999999996 352.723L1398.7199999999996 358.308L1395.0099999999995 360.661L1393.1799999999996 357.968L1391.4828899999995 360.01751L1369.0799999999995 349.00800000000004L1369.0799999999995 350.79100000000005L1390.4415599999995 361.2180000000001L1373.3999999999996 361.2180000000001L1371.1899999999996 359.9580000000001C1370.4899999999996 359.54800000000006 1369.5899999999997 359.7990000000001 1369.1899999999996 360.5130000000001C1368.7899999999995 361.2270000000001 1369.0399999999995 362.1300000000001 1369.7399999999996 362.5400000000001L1373.2199999999996 364.5590000000001L1373.2199999999996 381.4330000000001C1373.2199999999996 382.8520000000001 1374.3599999999997 383.9970000000001 1375.7599999999995 383.9970000000001C1377.1599999999996 383.9970000000001 1378.2999999999995 382.85000000000014 1378.2999999999995 381.4330000000001L1378.2899999999995 374.8240000000001L1382.8899999999994 382.68400000000014C1383.6099999999994 383.90400000000017 1385.1699999999994 384.30100000000016 1386.3699999999994 383.5770000000001C1387.5699999999995 382.85000000000014 1387.9699999999993 381.2650000000001 1387.2499999999995 380.0460000000001ZM1400.98 355.977C1400.33 355.977 1399.8 355.44 1399.8 354.777C1399.8 354.114 1400.33 353.578 1400.98 353.578C1401.64 353.578 1402.17 354.114 1402.17 354.777C1402.16 355.44 1401.64 355.977 1400.98 355.977Z " fill-opacity="1" transform="matrix(1,0,0,1,-1368,-349)"></path></svg>