<svg id="SvgjsSvg1008" xmlns="http://www.w3.org/2000/svg" version="1.1" xmlns:xlink="http://www.w3.org/1999/xlink" xmlns:svgjs="http://svgjs.com/svgjs" width="40" height="40" viewBox="0 0 40 40"><title>icon</title><desc>Created with Avocode.</desc><defs id="SvgjsDefs1009"></defs><path id="SvgjsPath1010" d="M1188.67 352.667L1188.67 355.33299999999997L1187.3300000000002 355.33299999999997L1187.3300000000002 352.667L1186.0000000000002 352.667L1186.0000000000002 350.43699999999995L1191.6000000000001 348.00699999999995L1192.0200000000002 347.804L1192.0000000000002 346.9L1185.6000000000001 344.05699999999996C1185.5600000000002 344.03999999999996 1185.5200000000002 344.03799999999995 1185.4800000000002 344.02899999999994C1185.4300000000003 344.01899999999995 1185.3800000000003 344.0009999999999 1185.3400000000001 344.0009999999999C1185.3400000000001 344.0009999999999 1185.3400000000001 343.99999999999994 1185.3300000000002 343.99999999999994C1185.3100000000002 343.99999999999994 1185.2800000000002 344.01199999999994 1185.2600000000002 344.01499999999993C1185.2000000000003 344.02199999999993 1185.1400000000003 344.0279999999999 1185.0800000000002 344.04999999999995C1185.0400000000002 344.06699999999995 1185.0100000000002 344.09499999999997 1184.9800000000002 344.11899999999997C1184.9400000000003 344.142 1184.9000000000003 344.159 1184.8700000000003 344.18899999999996C1184.8300000000004 344.22799999999995 1184.8000000000004 344.277 1184.7700000000004 344.325C1184.7600000000004 344.34999999999997 1184.7400000000005 344.368 1184.7200000000005 344.396C1184.7200000000005 344.398 1184.7200000000005 344.40000000000003 1184.7200000000005 344.402C1184.7100000000005 344.441 1184.7000000000005 344.485 1184.6900000000005 344.527C1184.6900000000005 344.572 1184.6700000000005 344.616 1184.6700000000005 344.661C1184.6700000000005 344.663 1184.6700000000005 344.665 1184.6700000000005 344.667L1184.6700000000005 352.667L1183.3300000000006 352.667L1183.3300000000006 355.33299999999997L1182.0000000000007 355.33299999999997L1182.0000000000007 352.667L1178.0000000000007 352.667L1178.0000000000007 360L1192.6700000000008 360L1192.6700000000008 352.667ZM1214 355.333L1212.67 355.333L1212.67 352.66700000000003L1211.3300000000002 352.66700000000003L1211.3300000000002 350.437L1216.91 348.007L1217.3300000000002 347.80400000000003L1217.3100000000002 346.901L1210.9400000000003 344.058C1210.9400000000003 344.057 1210.9300000000003 344.057 1210.9300000000003 344.057C1210.8900000000003 344.03900000000004 1210.8500000000004 344.03700000000003 1210.8000000000002 344.02700000000004C1210.7600000000002 344.01800000000003 1210.7200000000003 344.00100000000003 1210.67 344.00100000000003L1210.67 344.00000000000006C1210.64 344.00000000000006 1210.6200000000001 344.01300000000003 1210.5900000000001 344.0160000000001C1210.5300000000002 344.0230000000001 1210.4700000000003 344.02900000000005 1210.42 344.05000000000007C1210.38 344.06700000000006 1210.3500000000001 344.0950000000001 1210.3100000000002 344.1190000000001C1210.2700000000002 344.1410000000001 1210.2400000000002 344.1590000000001 1210.2100000000003 344.1890000000001C1210.1600000000003 344.2290000000001 1210.1300000000003 344.2800000000001 1210.1000000000004 344.3300000000001C1210.0900000000004 344.3530000000001 1210.0700000000004 344.3700000000001 1210.0600000000004 344.3950000000001C1210.0600000000004 344.3970000000001 1210.0600000000004 344.3990000000001 1210.0600000000004 344.40100000000007C1210.0400000000004 344.4410000000001 1210.0400000000004 344.48800000000006 1210.0300000000004 344.5330000000001C1210.0200000000004 344.5760000000001 1210.0000000000005 344.61800000000005 1210.0000000000005 344.66100000000006C1210.0000000000005 344.66200000000003 1210.0000000000005 344.6650000000001 1210.0000000000005 344.66700000000003L1210.0000000000005 352.66700000000003L1208.6700000000005 352.66700000000003L1208.6700000000005 355.333L1207.3300000000006 355.333L1207.3300000000006 352.66700000000003L1203.3300000000006 352.66700000000003L1203.3300000000006 360.00000000000006L1218.0000000000007 360.00000000000006L1218.0000000000007 352.66700000000003L1214.0000000000007 352.66700000000003ZM1202.67 364.667L1202.67 358.667L1198.67 358.667L1198.67 361.33299999999997L1197.3300000000002 361.33299999999997L1197.3300000000002 358.667L1193.3300000000002 358.667L1193.3300000000002 364.667L1191.3300000000002 364.667L1191.3300000000002 360.666L1179.3300000000002 360.666L1179.3300000000002 384L1182.0000000000002 384L1182.0000000000002 376C1182.0000000000002 374.162 1183.5000000000002 372.667 1185.3300000000002 372.667C1187.17 372.667 1188.67 374.162 1188.67 376L1188.67 384L1193.3300000000002 384L1193.3300000000002 372.667C1193.3300000000002 370.09299999999996 1195.43 368 1198.0000000000002 368C1200.5700000000002 368 1202.6700000000003 370.093 1202.6700000000003 372.667L1202.6700000000003 384L1207.3300000000004 384L1207.3300000000004 376C1207.3300000000004 374.162 1208.8300000000004 372.667 1210.6700000000003 372.667C1212.5000000000002 372.667 1214.0000000000002 374.162 1214.0000000000002 376L1214.0000000000002 384L1216.6700000000003 384L1216.6700000000003 360.666L1204.6700000000003 360.666L1204.6700000000003 364.667ZM1182 363.333L1188.67 363.333L1188.67 369.333L1182 369.333ZM1207.33 363.333L1214 363.333L1214 369.333L1207.33 369.333Z " fill-opacity="1" transform="matrix(1,0,0,1,-1178,-344)"></path></svg>