<svg id="SvgjsSvg1000" xmlns="http://www.w3.org/2000/svg" version="1.1" xmlns:xlink="http://www.w3.org/1999/xlink" xmlns:svgjs="http://svgjs.com/svgjs" width="47" height="40" viewBox="0 0 47 40"><title>icon</title><desc>Created with Avocode.</desc><defs id="SvgjsDefs1001"></defs><path id="SvgjsPath1007" d="M1091.95 355.075C1095.3500000000001 355.075 1098.1100000000001 352.36699999999996 1098.1100000000001 349.038C1098.1100000000001 345.709 1095.3500000000001 343 1091.95 343C1088.56 343 1085.8 345.709 1085.8 349.038C1085.8 352.367 1088.56 355.075 1091.95 355.075C1095.3500000000001 355.075 1091.95 355.075 1091.95 355.075ZM1110.42 361.555L1111.95 360.046L1113.49 361.555L1115.16 359.919L1115.9 359.186L1110.42 348.921L1104.92 359.20799999999997L1107.3400000000001 361.55499999999995L1108.88 360.04599999999994ZM1117.34 351.302C1119.1999999999998 351.302 1120.72 352.79200000000003 1120.72 354.622C1120.72 355.04 1121.07 355.377 1121.49 355.377C1121.92 355.377 1122.26 355.04 1122.26 354.622C1122.26 353.541 1123.16 352.66 1124.26 352.66C1124.69 352.66 1125.03 352.322 1125.03 351.906C1125.03 351.488 1124.69 351.151 1124.26 351.151C1123.22 351.151 1122.3 351.599 1121.65 352.298C1120.8100000000002 350.806 1119.19 349.79200000000003 1117.3400000000001 349.79200000000003C1116.91 349.79200000000003 1116.5700000000002 350.13000000000005 1116.5700000000002 350.547C1116.5700000000002 350.96500000000003 1116.91 351.302 1117.3400000000001 351.302C1117.7600000000002 351.302 1117.3400000000001 351.302 1117.3400000000001 351.302ZM1110.42 381.49C1108.18 381.49 1106.19 380.438 1104.92 378.818L1104.92 383L1115.69 383L1115.69 379.085C1114.42 380.554 1112.53 381.48999999999995 1110.42 381.48999999999995C1108.3000000000002 381.48999999999995 1110.42 381.48999999999995 1110.42 381.48999999999995ZM1116.64 360.574L1113.49 363.69L1111.95 362.18L1110.42 363.69L1108.88 362.18L1107.3400000000001 363.69L1104.5800000000002 360.986L1104.18 360.597L1099.3200000000002 369.707L1097.8700000000001 367.992C1097.0600000000002 367.028 1095.8700000000001 366.475 1094.5900000000001 366.475C1093.15 366.475 1091.8200000000002 367.184 1091.0300000000002 368.37L1082.15 381.727C1081.98 381.979 1081.96 382.30199999999996 1082.1100000000001 382.568L1082.39 383L1103.38 383L1103.38 379.085C1102.1100000000001 380.554 1100.22 381.48999999999995 1098.1100000000001 381.48999999999995C1097.68 381.48999999999995 1097.3400000000001 381.15299999999996 1097.3400000000001 380.73599999999993C1097.3400000000001 380.31899999999996 1097.68 379.98099999999994 1098.1100000000001 379.98099999999994C1100.71 379.98099999999994 1102.89 378.15899999999993 1103.38 375.74699999999996L1103.38 375.47299999999996C1102.41 376.393 1101.1000000000001 376.96199999999993 1099.65 376.96199999999993C1099.22 376.96199999999993 1098.88 376.62499999999994 1098.88 376.2079999999999C1098.88 375.7899999999999 1099.22 375.4529999999999 1099.65 375.4529999999999C1101.47 375.4529999999999 1102.99 374.2009999999999 1103.38 372.5309999999999L1103.38 371.7469999999999C1102.7600000000002 372.1769999999999 1102 372.4339999999999 1101.18 372.4339999999999C1100.76 372.4339999999999 1100.41 372.0959999999999 1100.41 371.6789999999999C1100.41 371.26199999999994 1100.76 370.9249999999999 1101.18 370.9249999999999C1102.23 370.9249999999999 1103.1000000000001 370.2389999999999 1103.38 369.3069999999999L1103.38 368.8469999999999C1103.38 368.67999999999995 1103.45 368.53399999999993 1103.5400000000002 368.4099999999999C1103.65 368.1169999999999 1103.9300000000003 367.9059999999999 1104.2600000000002 367.9059999999999C1104.6900000000003 367.9059999999999 1105.0300000000002 368.2429999999999 1105.0300000000002 368.6599999999999C1105.0300000000002 369.90899999999993 1106.0700000000002 370.9249999999999 1107.3400000000001 370.9249999999999C1107.7600000000002 370.9249999999999 1108.1100000000001 371.2619999999999 1108.1100000000001 371.6789999999999C1108.1100000000001 372.0959999999999 1107.7600000000002 372.4339999999999 1107.3400000000001 372.4339999999999C1106.4700000000003 372.4339999999999 1105.67 372.1369999999999 1105.0300000000002 371.6559999999999C1105.0300000000002 371.6639999999999 1105.0300000000002 371.6709999999999 1105.0300000000002 371.6789999999999C1105.0300000000002 373.75999999999993 1106.7600000000002 375.4529999999999 1108.88 375.4529999999999C1109.3000000000002 375.4529999999999 1109.65 375.7899999999999 1109.65 376.2079999999999C1109.65 376.6249999999999 1109.3000000000002 376.96199999999993 1108.88 376.96199999999993C1107.4 376.96199999999993 1106.0600000000002 376.3759999999999 1105.0900000000001 375.4289999999999C1105.45 377.9959999999999 1107.7 379.98099999999994 1110.42 379.98099999999994C1113.02 379.98099999999994 1115.19 378.15899999999993 1115.69 375.74699999999996L1115.69 375.47299999999996C1114.72 376.393 1113.41 376.96199999999993 1111.95 376.96199999999993C1111.53 376.96199999999993 1111.18 376.62499999999994 1111.18 376.2079999999999C1111.18 375.7899999999999 1111.53 375.4529999999999 1111.95 375.4529999999999C1113.77 375.4529999999999 1115.3 374.2009999999999 1115.69 372.5309999999999L1115.69 371.7469999999999C1115.0700000000002 372.1769999999999 1114.31 372.4339999999999 1113.49 372.4339999999999C1113.07 372.4339999999999 1112.72 372.0959999999999 1112.72 371.6789999999999C1112.72 371.26199999999994 1113.07 370.9249999999999 1113.49 370.9249999999999C1114.53 370.9249999999999 1115.41 370.2389999999999 1115.69 369.3069999999999L1115.69 368.8469999999999C1115.69 368.67999999999995 1115.76 368.53399999999993 1115.8500000000001 368.4099999999999C1115.96 368.1169999999999 1116.2300000000002 367.9059999999999 1116.5700000000002 367.9059999999999C1116.9900000000002 367.9059999999999 1117.3400000000001 368.2429999999999 1117.3400000000001 368.6599999999999C1117.3400000000001 369.90899999999993 1118.3700000000001 370.9249999999999 1119.65 370.9249999999999C1120.0700000000002 370.9249999999999 1120.42 371.2619999999999 1120.42 371.6789999999999C1120.42 372.0959999999999 1120.0700000000002 372.4339999999999 1119.65 372.4339999999999C1118.77 372.4339999999999 1117.98 372.1369999999999 1117.3300000000002 371.6559999999999C1117.3300000000002 371.6639999999999 1117.3400000000001 371.6709999999999 1117.3400000000001 371.6789999999999C1117.3400000000001 373.75999999999993 1119.0600000000002 375.4529999999999 1121.19 375.4529999999999C1121.6100000000001 375.4529999999999 1121.95 375.7899999999999 1121.95 376.2079999999999C1121.95 376.6249999999999 1121.6100000000001 376.96199999999993 1121.19 376.96199999999993C1119.71 376.96199999999993 1118.3700000000001 376.3759999999999 1117.4 375.4289999999999C1117.76 377.9959999999999 1120.01 379.98099999999994 1122.72 379.98099999999994C1123.15 379.98099999999994 1123.49 380.31899999999996 1123.49 380.73599999999993C1123.49 381.1529999999999 1123.15 381.48999999999995 1122.72 381.48999999999995C1120.49 381.48999999999995 1118.5 380.43799999999993 1117.23 378.8179999999999L1117.23 382.99999999999994L1127.07 382.99999999999994C1127.3999999999999 382.99999999999994 1127.6899999999998 382.8349999999999 1127.87 382.55799999999994C1128.04 382.28099999999995 1128.05 381.94499999999994 1127.8899999999999 381.65899999999993ZM1092.32 369.194C1092.82 368.437 1093.6699999999998 367.98400000000004 1094.59 367.98400000000004C1095.4099999999999 367.98400000000004 1096.1699999999998 368.338 1096.6899999999998 368.95300000000003L1098.5399999999997 371.158L1093.0299999999997 381.49L1084.1399999999996 381.49Z " fill-opacity="1" transform="matrix(1,0,0,1,-1082,-343)"></path></svg>