<svg version="1.1" id="SvgjsSvg1011" xmlns:svgjs="http://svgjs.com/svgjs"
	 xmlns="http://www.w3.org/2000/svg" xmlns:xlink="http://www.w3.org/1999/xlink" x="0px" y="0px" width="40px" height="41px"
	 viewBox="0 0 40 41" style="enable-background:new 0 0 40 41;" xml:space="preserve">
<title>icon</title>
<desc></desc>
<g>
	<path d="M34.9,18.6c-0.5-0.5-1.1-0.8-1.8-0.7l-8.3,0.5l4.6-5.2c0.6-0.7,0.8-1.7,0.6-2.6c-0.1-0.6-0.5-1.2-1.1-1.5
		c0,0-10.9-6.3-10.9-6.3c-0.9-0.5-2-0.4-2.8,0.3L9.9,7.8c-1,0.9-1.1,2.4-0.2,3.4c0.9,1,2.4,1.1,3.4,0.2l4-3.6l3.3,1.9l-5.9,6.7
		c-2.4,0.4-4.6,1.5-6.4,3.1l3.1,3.1c1.4-1.3,3.2-2,5.3-2c4.3,0,7.8,3.5,7.8,7.8c0,2-0.8,3.9-2,5.3l3.1,3.1c2-2.2,3.3-5.1,3.3-8.3
		c0-1.9-0.4-3.7-1.2-5.3l3.2-0.2l-0.8,9.6c-0.1,1.3,0.9,2.5,2.2,2.6c0.1,0,0.1,0,0.2,0c1.2,0,2.3-0.9,2.4-2.2l1-12.3
		C35.7,19.8,35.4,19.1,34.9,18.6z"/>
	<path d="M30.5,8.5c2.2,0,4-1.8,4-4c0-2.2-1.8-4-4-4c-2.2,0-4,1.8-4,4C26.6,6.7,28.3,8.5,30.5,8.5z"/>
	<path d="M16.5,36.2c-4.3,0-7.8-3.5-7.8-7.8c0-1.6,0.5-3.1,1.3-4.4L7,20.9c-1.6,2.1-2.6,4.7-2.6,7.5c0,6.7,5.4,12.2,12.2,12.2
		c2.8,0,5.4-1,7.5-2.6l-3.1-3.1C19.7,35.7,18.2,36.2,16.5,36.2z"/>
</g>
</svg>
