<svg id="SvgjsSvg1011" xmlns="http://www.w3.org/2000/svg" version="1.1" xmlns:xlink="http://www.w3.org/1999/xlink" xmlns:svgjs="http://svgjs.com/svgjs" width="40" height="41" viewBox="0 0 40 41"><title>icon</title><desc>Created with Avocode.</desc><defs id="SvgjsDefs1012"></defs><path id="SvgjsPath1013" d="M1307.59 366.001C1307.59 363.229 1305.35 360.974 1302.61 360.974L1292.3899999999999 360.974C1290.4499999999998 359.312 1288.0099999999998 358.23199999999997 1285.33 358.026L1285.33 362.019C1287.1299999999999 362.223 1288.75 363 1290.03 364.16L1291.76 362.408C1292.1299999999999 362.749 1292.47 363.11400000000003 1292.78 363.497L1291.04 365.255C1292.06 366.57099999999997 1292.7 368.192 1292.81 369.961L1306.1 369.961L1306.1 372.262C1303.57 372.609 1301.61 374.802 1301.61 377.451C1301.61 380.34200000000004 1303.9399999999998 382.69500000000005 1306.8 382.69500000000005C1309.6699999999998 382.69500000000005 1312 380.34200000000004 1312 377.451C1312 374.83000000000004 1310.08 372.658 1307.59 372.274ZM1279.57 344.518L1273.6399999999999 343.02C1273.2399999999998 342.918 1272.84 343.16299999999995 1272.7399999999998 343.565C1272.6399999999999 343.966 1272.8799999999999 344.373 1273.2799999999997 344.473L1278.7399999999998 345.853L1280.8299999999997 358.521C1279.0799999999997 359.04900000000004 1277.4899999999998 359.951 1276.1599999999996 361.146L1278.9499999999996 363.962C1280.2899999999995 362.825 1281.9899999999996 362.108 1283.8399999999997 361.99L1283.8399999999997 358.004C1283.3099999999997 358.028 1282.7899999999997 358.096 1282.2799999999997 358.185L1280.1199999999997 345.122C1280.0799999999997 344.827 1279.8599999999997 344.59000000000003 1279.5699999999997 344.51800000000003ZM1291.26 355.73C1291.67 355.73 1292.01 355.396 1292.01 354.981L1292.01 353.847C1292.01 350.342 1289.18 347.491 1285.71 347.491L1282.5 347.491C1282.29 347.491 1282.08 347.58799999999997 1281.94 347.756C1281.8 347.924 1281.74 348.14599999999996 1281.77 348.363L1282.8899999999999 355.104C1282.9499999999998 355.465 1283.2499999999998 355.72999999999996 1283.62 355.72999999999996ZM1303.09 377.451C1303.09 375.62800000000004 1304.3899999999999 374.11 1306.1 373.77700000000004L1306.1 377.451C1306.1 377.865 1306.4399999999998 378.20000000000005 1306.85 378.20000000000005C1307.26 378.20000000000005 1307.59 377.86500000000007 1307.59 377.451L1307.59 373.79400000000004C1309.26 374.15900000000005 1310.51 375.658 1310.51 377.451C1310.51 379.516 1308.85 381.197 1306.8 381.197C1304.76 381.197 1303.09 379.516 1303.09 377.451ZM1275.98 371.459L1272.02 371.459C1272.24 374.37 1273.45 377 1275.31 379.01800000000003L1278.1 376.201C1276.9499999999998 374.91200000000003 1276.1799999999998 373.273 1275.98 371.459C1275.78 369.645 1275.98 371.459 1275.98 371.459ZM1277.9 365.021L1275.1100000000001 362.20500000000004C1273.2800000000002 364.29 1272.13 366.99100000000004 1272.0000000000002 369.961L1275.9500000000003 369.961C1276.0600000000002 368.088 1276.7700000000002 366.37600000000003 1277.9000000000003 365.021C1279.0300000000004 363.666 1277.9000000000003 365.021 1277.9000000000003 365.021ZM1290.85 375.989C1290.86 375.996 1290.87 375.998 1290.8799999999999 376.00699999999995L1293.6499999999999 378.79999999999995C1295.3999999999999 376.81199999999995 1296.53 374.26699999999994 1296.7399999999998 371.45899999999995L1292.7799999999997 371.45899999999995C1292.5899999999997 373.17299999999994 1291.8999999999996 374.73299999999995 1290.8499999999997 375.9889999999999C1289.8099999999997 377.2439999999999 1290.8499999999997 375.9889999999999 1290.8499999999997 375.9889999999999ZM1289.82 377.038C1288.57 378.093 1287.03 378.793 1285.33 378.985L1285.33 382.97900000000004C1288.11 382.76500000000004 1290.6299999999999 381.624 1292.6 379.85900000000004L1289.83 377.06600000000003C1289.82 377.05800000000005 1289.82 377.047 1289.82 377.038C1289.81 377.029 1289.82 377.038 1289.82 377.038ZM1296.28 366.965L1306.1 366.965L1306.1 368.46299999999997L1296.62 368.46299999999997C1296.54 367.955 1296.4199999999998 367.45599999999996 1296.28 366.965ZM1283.84 383L1283.84 379.015C1282.09 378.90299999999996 1280.49 378.255 1279.1799999999998 377.22499999999997L1276.3799999999999 380.05699999999996C1278.4099999999999 381.79599999999994 1281.01 382.87699999999995 1283.84 382.99999999999994Z " fill-opacity="1" transform="matrix(1,0,0,1,-1272,-342)"></path></svg>